<svg width="188" height="528" viewBox="0 0 188 528" xmlns="http://www.w3.org/2000/svg" xmlns:xlink="http://www.w3.org/1999/xlink"><defs><path d="M127 285h57a4 4 0 014 4v16a4 4 0 01-4 4h-57a4 4 0 01-4-4v-16a4 4 0 014-4zm0-97h57a4 4 0 014 4v16a4 4 0 01-4 4h-57a4 4 0 01-4-4v-16a4 4 0 014-4zm28.5 43l32.5 17.5-32.5 17.5-32.5-17.5 32.5-17.5z" id="path-1"/></defs><g id="RnD" stroke="none" stroke-width="1" fill="none" fill-rule="evenodd"><g id="Desktop-Copy" transform="translate(-954 -849)"><g id="What-is-it?" transform="translate(338 842)"><g id="Chart" transform="translate(616 7)"><path d="M12 0h41c6.627 0 12 5.373 12 12s-5.373 12-12 12H12C5.373 24 0 18.627 0 12S5.373 0 12 0zm0 504h41c6.627 0 12 5.373 12 12s-5.373 12-12 12H12c-6.627 0-12-5.373-12-12s5.373-12 12-12zM135 92h41c6.627 0 12 5.373 12 12s-5.373 12-12 12h-41c-6.627 0-12-5.373-12-12s5.373-12 12-12z" id="blue-boxes" fill="#369"/><path d="M4 43.5A3.5 3.5 0 00.5 47v16A3.5 3.5 0 004 66.5h57a3.5 3.5 0 003.5-3.5V47a3.5 3.5 0 00-3.5-3.5H4zm28.5 43.068L1.055 103.5 32.5 120.432 63.945 103.5 32.5 86.568zM4 139.5A3.5 3.5 0 00.5 143v16a3.5 3.5 0 003.5 3.5h57a3.5 3.5 0 003.5-3.5v-16a3.5 3.5 0 00-3.5-3.5H4zm0 189A3.5 3.5 0 00.5 332v16a3.5 3.5 0 003.5 3.5h57a3.5 3.5 0 003.5-3.5v-16a3.5 3.5 0 00-3.5-3.5H4zm0 43A3.5 3.5 0 00.5 375v16a3.5 3.5 0 003.5 3.5h57a3.5 3.5 0 003.5-3.5v-16a3.5 3.5 0 00-3.5-3.5H4zm0 91A3.5 3.5 0 00.5 466v16a3.5 3.5 0 003.5 3.5h57a3.5 3.5 0 003.5-3.5v-16a3.5 3.5 0 00-3.5-3.5H4zm123-91a3.5 3.5 0 00-3.5 3.5v16a3.5 3.5 0 003.5 3.5h57a3.5 3.5 0 003.5-3.5v-16a3.5 3.5 0 00-3.5-3.5h-57zm0 43a3.5 3.5 0 00-3.5 3.5v16a3.5 3.5 0 003.5 3.5h57a3.5 3.5 0 003.5-3.5v-16a3.5 3.5 0 00-3.5-3.5h-57zm12.5-86v23H160c6.351 0 11.5-5.149 11.5-11.5s-5.149-11.5-11.5-11.5h-20.5zm-107-145.932L1.055 199.5 32.5 216.432 63.945 199.5 32.5 182.568zm123 275L124.055 474.5l31.445 16.932 31.445-16.932-31.445-16.932z" id="empty-boxes" stroke-opacity=".9" stroke="#1D558E"/><path d="M64 103h48v-2l7 2.5-7 2.5v-2H64v-1zM33 24v9h2l-2.5 7-2.5-7h2v-9h1zm0 43v9h2l-2.5 7-2.5-7h2v-9h1zm0 53v9h2l-2.5 7-2.5-7h2v-9h1zm0 232v9h2l-2.5 7-2.5-7h2v-9h1zm0 133v9h2l-2.5 7-2.5-7h2v-9h1zm0-90v57h2l-2.5 7-2.5-7h2v-57h1zm123-129v9h2l-2.5 7-2.5-7h2v-9h1zm0 86v9h2l-2.5 7-2.5-7h2v-9h1zm0 43v9h2l-2.5 7-2.5-7h2v-9h1zm0-86v9h2l-2.5 7-2.5-7h2v-9h1zM33 163v9h2l-2.5 7-2.5-7h2v-9h1zm123 49v9h2l-2.5 7-2.5-7h2v-9h1zm0 226v9h2l-2.5 7-2.5-7h2v-9h1zM64 199h48v-2l7 2.5-7 2.5v-2H64v-1zm91 115v1H43v2l-7-2.5 7-2.5v2h112zm-31 160v1H75v2l-7-2.5 7-2.5v2h49zM33 217v101h2l-2.5 7-2.5-7h2V217h1z" id="arrows" fill="#369"/><g id="glass-boxes"><use fill-opacity=".64" fill="#FFF" xlink:href="#path-1"/><path stroke-opacity=".9" stroke="#1D558E" d="M127 285.5a3.5 3.5 0 00-3.5 3.5v16a3.5 3.5 0 003.5 3.5h57a3.5 3.5 0 003.5-3.5v-16a3.5 3.5 0 00-3.5-3.5h-57zm0-97a3.5 3.5 0 00-3.5 3.5v16a3.5 3.5 0 003.5 3.5h57a3.5 3.5 0 003.5-3.5v-16a3.5 3.5 0 00-3.5-3.5h-57zm28.5 43.068L124.055 248.5l31.445 16.932 31.445-16.932-31.445-16.932z"/></g></g></g></g></g></svg>