<svg xmlns="https://www.w3.org/2000/svg" xmlns:xlink="https://www.w3.org/1999/xlink" width="1694" height="1300" viewBox="0 0 1694 1300"><defs><radialGradient id="b" cy="52.882%" r="46.054%" fx="50%" fy="52.882%"><stop offset="0%" stop-color="#FFF" stop-opacity=".2"/><stop offset="36.019%" stop-color="#FFF" stop-opacity=".1"/><stop offset="100%" stop-color="#FFF" stop-opacity="0"/></radialGradient><path id="a" d="M0 0h1694v1784H0z"/></defs><g fill="none" fill-rule="evenodd"><mask id="c" fill="#fff"><use xlink:href="#a"/></mask><use fill="#369" fill-rule="nonzero" xlink:href="#a"/><path fill="url(#b)" mask="url(#c)" d="M267-180h1200v1200H267z"/><g mask="url(#c)"><g transform="translate(107 -423)"><rect width="215" height="251" x="1139.5" y="686.5" fill="#369" fill-rule="nonzero" stroke="#FFF" stroke-opacity=".24" rx="3"/><path stroke="#4073A6" stroke-width="80" d="M623.08 1685l590.43-590.43c110.32-110.32 110.32-289.19 0-399.52-110.32-110.32-289.19-110.32-399.51 0L518.22 990.91a172.51 172.51 0 01-244 0 172.5 172.5 0 010-244l746-746"/><circle cx="867" cy="713" r="67" fill="#369" fill-rule="nonzero"/><circle cx="108" cy="641" r="107.5" fill="#369" fill-rule="nonzero" stroke="#FFF" stroke-opacity=".24"/><rect width="216" height="252" x="151" y="878" fill="#99C" rx="3"/><circle cx="867" cy="711" r="107.5" stroke="#FFF" stroke-opacity=".24"/></g></g><g fill-rule="nonzero" mask="url(#c)"><g transform="translate(195 112)"><circle cx="753" cy="318" r="6" fill="#4073A6"/><circle cx="963" cy="223" r="6" fill="#4C80B2"/><circle cx="367" cy="343" r="6" fill="#4C80B2"/><circle cx="1039" cy="55" r="6" fill="#4C80B2"/><circle cx="1115" cy="463" r="6" fill="#4C80B2"/><path fill="#26598C" d="M1268.828 7l2.829 2.828a2 2 0 11-2.829 2.829L1266 9.828l-2.828 2.829a2 2 0 11-2.829-2.829L1263.172 7l-2.829-2.828a2 2 0 112.829-2.829L1266 4.172l2.828-2.829a2 2 0 112.829 2.829L1268.828 7zm-1259 408l2.829 2.828a2 2 0 11-2.829 2.829L7 417.828l-2.828 2.829a2 2 0 11-2.829-2.829L4.172 415l-2.829-2.828a2 2 0 112.829-2.829L7 412.172l2.828-2.829a2 2 0 112.829 2.829L9.828 415z"/></g></g></g></svg>