<svg xmlns="http://www.w3.org/2000/svg" width="278" height="94" viewBox="0 0 278 94"><g fill="none" fill-rule="evenodd"><path fill="#0DB9BC" fill-rule="nonzero" d="M198.812 45.076c1.063 0 2.016-.198 2.859-.595a6.296 6.296 0 002.141-1.625 7.295 7.295 0 001.345-2.403c.312-.915.468-1.89.468-2.927a8.944 8.944 0 00-.468-2.906 7.295 7.295 0 00-1.345-2.403 6.409 6.409 0 00-2.141-1.635c-.843-.403-1.796-.605-2.859-.605-1.062 0-2.015.202-2.858.605a6.409 6.409 0 00-2.141 1.635 7.295 7.295 0 00-1.345 2.403 8.944 8.944 0 00-.468 2.906c0 1.037.156 2.012.468 2.927.312.916.76 1.716 1.345 2.403a6.296 6.296 0 002.141 1.625c.843.397 1.796.595 2.858.595zm0-2.059c-.757 0-1.41-.155-1.962-.464a3.879 3.879 0 01-1.344-1.242 5.638 5.638 0 01-.767-1.766 8.238 8.238 0 01-.25-2.019c0-.686.084-1.359.25-2.018.166-.66.422-1.248.767-1.767a3.866 3.866 0 011.344-1.241c.551-.31 1.205-.464 1.962-.464.757 0 1.411.154 1.962.464.552.31 1 .723 1.345 1.241.345.519.6 1.107.767 1.767.166.66.249 1.332.249 2.018 0 .687-.083 1.36-.25 2.019a5.638 5.638 0 01-.766 1.766 3.866 3.866 0 01-1.345 1.242c-.55.31-1.205.464-1.962.464zm11.514 1.716v-6.5h6.474v6.5h2.49V30.32h-2.49v5.733h-6.474V30.32h-2.49v14.413h2.49zm11.553.08c.784 0 1.428-.16 1.932-.484a4.143 4.143 0 001.225-1.18 5.07 5.07 0 00.688-1.494 13.39 13.39 0 00.318-1.424c.106-.632.186-1.22.24-1.766.052-.545.089-1.11.109-1.696.02-.585.033-1.22.04-1.907.006-.687.023-1.474.05-2.362h4.98v12.233h2.49V30.32h-9.801c0 .955-.003 1.783-.01 2.483-.007.7-.013 1.319-.02 1.857a39.916 39.916 0 01-.11 2.594c-.026.37-.063.74-.11 1.11l-.149 1.221c-.066.445-.149.852-.249 1.222s-.235.693-.408.969a1.9 1.9 0 01-.627.635c-.246.149-.541.223-.887.223-.146 0-.279-.007-.398-.02a7.784 7.784 0 01-.418-.061v2.18c.159.027.322.047.488.06.166.014.375.02.627.02zm15.975-.08l1.335-3.815h5.677l1.335 3.815h2.669l-5.478-14.413h-2.65l-5.457 14.413h2.57zM244.21 39h-4.343l2.152-6.197h.06l2.13 6.197zm11.593-10.154c.916 0 1.67-.235 2.26-.706.592-.471.94-1.185 1.046-2.14h-1.135c-.106.511-.342.895-.707 1.15-.365.256-.8.384-1.305.384-.531 0-.993-.114-1.384-.343-.392-.229-.641-.626-.747-1.191h-1.156c.08.929.392 1.635.937 2.12.544.484 1.274.726 2.19.726zm-2.789 15.887l6.115-10.82v10.82h2.49V30.32h-2.928l-6.036 10.739v-10.74h-2.49v14.414h2.849zm14.023 0v-6.5h6.474v6.5H276V30.32h-2.49v5.733h-6.474V30.32h-2.49v14.413h2.49zm-71.79 20.186v-4.844l2.033-2.04 4.66 6.884h3.108l-6.075-8.66 5.677-5.753h-3.068l-6.334 6.56v-6.56h-2.49V64.92h2.49zm10.757.081c.784 0 1.428-.161 1.932-.484a4.143 4.143 0 001.226-1.181 5.07 5.07 0 00.687-1.494 13.39 13.39 0 00.318-1.423c.107-.633.186-1.222.24-1.767.053-.545.09-1.11.11-1.695a86.33 86.33 0 00.039-1.908c.007-.686.023-1.473.05-2.362h4.98V64.92h2.49V50.506h-9.8c0 .956-.004 1.783-.01 2.483l-.02 1.857a39.914 39.914 0 01-.11 2.594c-.027.37-.063.74-.11 1.11l-.15 1.222c-.066.444-.149.85-.248 1.221-.1.37-.236.693-.409.969a1.9 1.9 0 01-.627.636c-.246.148-.541.222-.886.222-.147 0-.28-.007-.399-.02a7.784 7.784 0 01-.418-.06v2.18c.16.026.322.046.488.06.166.013.375.02.627.02zm16.035 0c1.076 0 2.036-.306 2.879-.918.843-.613 1.57-1.612 2.18-2.998l4.702-10.578h-2.789l-3.306 8.055h-.04l-3.247-8.055h-2.968l4.68 10.558a2.812 2.812 0 01-.975 1.281 2.37 2.37 0 01-1.414.475c-.146 0-.28-.007-.399-.02a7.784 7.784 0 01-.418-.06v2.18c.16.026.322.046.488.06.166.013.375.02.627.02zm17.45-.08c1.009 0 1.832-.149 2.47-.445.637-.296 1.129-.666 1.474-1.11a3.79 3.79 0 00.707-1.454 6.25 6.25 0 00.19-1.453c0-.444-.064-.925-.19-1.443s-.362-1-.707-1.444c-.345-.444-.837-.81-1.474-1.1-.638-.29-1.461-.434-2.47-.434h-3.785v-3.35h7.33v-2.18h-9.82v14.412h6.275zm-.1-2.06h-3.685v-4.764h3.645c.28 0 .565.04.857.121.292.081.56.212.807.394.245.182.444.424.597.727.153.303.23.683.23 1.14 0 .471-.067.862-.2 1.171-.133.31-.312.555-.538.737a1.903 1.903 0 01-.777.373 4.12 4.12 0 01-.936.101z"/><path fill="#F30" d="M189 16h45v11h-45z"/><path fill="#FFF" fill-rule="nonzero" d="M196.406 25c.53 0 1.007-.092 1.429-.276a3.135 3.135 0 001.07-.753c.293-.319.517-.69.673-1.114a3.9 3.9 0 00.234-1.357 3.88 3.88 0 00-.234-1.348 3.19 3.19 0 00-1.743-1.872 3.486 3.486 0 00-1.43-.28c-.53 0-1.007.094-1.428.28a3.19 3.19 0 00-1.743 1.872A3.873 3.873 0 00193 21.5c0 .48.078.933.234 1.357.156.424.38.795.672 1.114.292.318.65.569 1.07.753.422.184.899.276 1.43.276zm0-.955c-.379 0-.706-.071-.981-.215a1.885 1.885 0 01-.672-.575 2.52 2.52 0 01-.384-.82 3.556 3.556 0 010-1.87 2.52 2.52 0 01.384-.82c.172-.24.396-.432.672-.575.275-.144.602-.215.98-.215.38 0 .706.071.982.215.275.143.5.335.672.575.173.24.3.513.383.82a3.556 3.556 0 010 1.87 2.52 2.52 0 01-.383.82c-.173.24-.397.432-.672.575-.276.144-.603.215-.981.215zm5.676.796v-4.913h.03l3.237 4.913h1.314v-6.682h-1.185v4.923h-.02l-3.246-4.923h-1.315v6.682h1.185zm10.915 0v-1.01h-3.615v-5.672h-1.245v6.682h4.86zm2.1 0v-6.682h-1.244v6.682h1.245zm2.66 0v-4.913h.03l3.236 4.913h1.315v-6.682h-1.185v4.923h-.02l-3.247-4.923h-1.314v6.682h1.185zm11.243 0v-1.01h-3.944v-1.957h3.585v-.954h-3.585v-1.75h3.874v-1.01h-5.118v6.68H229zm11.36.159c.425 0 .815-.066 1.168-.197a2.687 2.687 0 001.547-1.413 3.03 3.03 0 00.27-1.095h-1.198a2.561 2.561 0 01-.167.684 1.748 1.748 0 01-.354.556c-.15.16-.33.284-.54.375a1.82 1.82 0 01-.727.135c-.373 0-.695-.071-.967-.215a1.867 1.867 0 01-.663-.575 2.537 2.537 0 01-.378-.82 3.603 3.603 0 010-1.87c.081-.307.207-.58.378-.82.17-.24.391-.432.663-.575.272-.144.594-.215.967-.215.256 0 .48.032.673.098.193.065.362.157.506.276.144.118.262.259.354.421.091.162.163.34.216.533h1.227a2.406 2.406 0 00-.304-.963 2.368 2.368 0 00-.643-.716 2.924 2.924 0 00-.919-.45 3.885 3.885 0 00-1.11-.154c-.524 0-.993.094-1.41.28-.415.188-.767.44-1.055.759-.288.318-.51.69-.663 1.113A3.925 3.925 0 00237 21.5c0 .48.077.933.23 1.357.155.424.376.795.664 1.114.288.318.64.569 1.056.753.416.184.885.276 1.41.276zm8.898-.16v-1.01h-3.565v-5.67h-1.228v6.68h4.793zm3.645.16c.432 0 .825-.053 1.178-.16.354-.105.657-.266.909-.481.252-.215.447-.482.584-.8.138-.318.207-.693.207-1.123v-4.277h-1.228v3.893c0 .225-.012.452-.035.683a1.51 1.51 0 01-.196.623 1.227 1.227 0 01-.491.453c-.22.119-.529.178-.928.178-.4 0-.71-.059-.929-.178a1.227 1.227 0 01-.49-.453 1.507 1.507 0 01-.197-.623 6.912 6.912 0 01-.035-.683V18.16h-1.227v4.277c0 .43.068.805.206 1.123.137.318.332.585.584.8.252.215.555.376.909.482.353.106.746.159 1.179.159zm7.514-.16a4.15 4.15 0 001.169-.144 2.39 2.39 0 00.805-.393c.21-.166.363-.362.462-.59.098-.227.147-.472.147-.734 0-.456-.111-.835-.334-1.137-.223-.303-.55-.498-.982-.585v-.019c.32-.131.568-.317.741-.557.174-.24.26-.529.26-.865 0-.556-.19-.97-.569-1.245-.38-.275-.884-.412-1.513-.412h-3.408v6.682h3.222zm.01-3.883h-2.004v-1.843h2.004c.333 0 .589.068.766.206.176.137.265.374.265.71 0 .3-.098.53-.295.689-.196.159-.442.238-.736.238zm.167 2.93h-2.171v-2.088h2.17c.374 0 .664.09.87.267.206.178.31.432.31.763 0 .337-.104.597-.31.781-.206.184-.496.276-.87.276z"/><path fill="#0DB9BC" fill-rule="nonzero" d="M40.977 92L2 69.5v-45L40.977 2v19.044L18.491 34.025v25.962l22.486 12.966V92zm45.008 0L47.008 69.5v-45L85.985 2l39.007 22.5v45L85.985 92zm22.504-57.987L85.985 21.032 63.499 34.013v25.962l22.486 12.978 22.504-12.981V34.013zM25.974 56.696V37.655L40.977 29v19.044l-15.003 8.652zM131.035 90.5v-66L170 2v19.044l-22.486 12.981v46.947L131.035 90.5zm23.962-33.804V37.655L170 29v19.044l-15.003 8.652z"/><path fill="#F30" d="M98 47.5L81 58V37z"/></g></svg>