<svg xmlns="http://www.w3.org/2000/svg" width="298" height="270" viewBox="0 0 298 270"><g fill="none" fill-rule="evenodd"><path fill="#8F8FC7" fill-rule="nonzero" d="M250 62c16.723 0 32.848 2.566 48.001 7.326v200.676H97.325C92.565 254.849 90 238.724 90 222c0-88.365 71.634-160 160-160z"/><path fill="#FFF" fill-opacity=".2" d="M259.448 22.145a2.447 2.447 0 01-.59 2.214l-.122.123-8.122 7.576a2.447 2.447 0 01-4.011-1.08l-.045-.168-2.496-10.814a2.447 2.447 0 012.92-2.936l.18.047 10.621 3.25a2.447 2.447 0 011.665 1.788zm-1.95.45a.446.446 0 00-.3-.326l-10.62-3.249a.447.447 0 00-.567.526l2.498 10.821a.447.447 0 00.74.229l8.12-7.574a.447.447 0 00.13-.427z"/><path fill="#000" fill-opacity=".12" fill-rule="nonzero" d="M275.948 21.157a2.5 2.5 0 110 5 2.5 2.5 0 010-5zM272.618.673a1 1 0 011 1v4h4a1 1 0 110 2h-4v4a1 1 0 11-2 0v-4h-4a1 1 0 110-2h4v-4a1 1 0 011-1zM256.45 1.6l1.178-.002c.826 0 1.16.093 1.487.268.325.174.581.43.756.756.174.326.267.66.267 1.486v.981c0 .826-.093 1.16-.267 1.486-.175.326-.43.582-.756.756-.326.175-.66.267-1.487.267h-.981c-.826 0-1.16-.092-1.486-.267a1.817 1.817 0 01-.756-.756c-.16-.298-.251-.604-.265-1.29l-.002-1.177c0-.826.092-1.16.267-1.486.174-.326.43-.582.756-.756.299-.16.604-.252 1.29-.266z"/><path fill="#99C" fill-rule="nonzero" d="M202 174h96v96h-96z"/><path fill="#A3A3D1" d="M138.96 150.587c46.267 23.918 77.63 68.62 84.907 119.413H4.79a159.495 159.495 0 01-4.147-32.794l-.085-.136c26.792-52.018 79.902-85.205 138.401-86.483z"/></g></svg>