<svg width="217" height="224" viewBox="0 0 217 224" xmlns="http://www.w3.org/2000/svg"><title>Date</title><g id="Promo" fill="none" fill-rule="evenodd"><g id="Arj" transform="translate(-258 -369)" fill-rule="nonzero"><g id="Wide" transform="translate(38 359)"><g id="Date" transform="translate(220 10)"><path d="M43.778 163.642s-2.667-.09-4.978.09c-2.311.179-4.844 1.612-4.844 1.612s.177-3.448 3.866-4.21c3.69-.76 5.956 2.508 5.956 2.508zm-1.822 4.568s-6.578 1.433-9.778 4.522c-3.956 3.852-2.534 6.225-.89 6.673 2.045.537 2.534-1.612 2.534-1.612s.622 1.253.178 2.507c-.578 1.702-2.356 2.553-4.756 1.926-2.4-.627-4.488-3.986-1.288-9.09 3.2-5.105 14-4.926 14-4.926zm1.555 9.448s-5.867.582-7.289 9.27c-.978 6.18 3.111 9.583 6.09 9.672 2.977.09 1.777-2.82 1.777-2.82s2.844-.135 3.155 2.507c.223 1.97-.888 6.448-6.622 5.597-6.666-.94-10.31-8.687-7.2-16.21 3.156-7.568 10.09-8.016 10.09-8.016zm32.082-12.04c.655-3.2 1.18-5.466 2.108-9.26-1.019.4-1.506.578-2.48.978-.488.09-.71.09-.887-.266-.133-.49-.221-.756-.354-1.245-.089-.355.044-.533.487-.667 2.437-.71 3.677-1.066 6.114-1.689.487-.133.797-.044.886.312.974 2.4 1.462 3.6 2.392 5.955.443-2.666.665-4 1.152-6.667.089-.355.31-.577.797-.71 1.02-.223 1.507-.356 2.526-.579.487-.088.753 0 .841.356a557.047 557.047 0 0 1 3.988 11.112c.088.355 0 .533-.4.755-.974.4-1.461.622-2.436 1.022a.628.628 0 0 1-.266.09c-.265.044-.398-.045-.487-.312-1.019-3.2-1.55-4.8-2.57-7.956-.531 2.8-.753 4.178-1.196 6.978-.044.312-.221.49-.531.578-.045 0-1.772.09-2.437.134-.354.044-.62-.045-.797-.4l-1.994-4.667c-.797 3.289-1.152 4.933-1.816 8.222-.089.311-.222.49-.532.578-.044 0-.133.045-.266.045l-1.772.222c-.31.044-.531 0-.576-.178-.044-.089 0-.133 0-.222.07-.35.136-.688.202-1.014-3.751 1.3-5.612 2.012-9.328 3.503-.443.133-.664.089-.797-.223-1.595-4.044-2.393-6.044-3.987-10.089-.133-.355 0-.533.443-.711 3.854-1.378 5.803-2 9.702-3.156.487-.133.753-.089.93.223.177.488.31.755.487 1.244.089.356.089.489-.398.667-2.658.666-3.943 1.022-6.601 1.733.354 1.067.531 1.6.886 2.711 1.595-.577 2.436-.844 4.031-1.377.443-.134.886-.134.975.177.133.4.177.578.31.978.089.356.089.49-.354.667-1.684.578-2.481.844-4.165 1.467.399.889.576 1.289.93 2.177 2.481-.8 3.722-1.2 6.247-1.955.443-.134.797-.09.93.266.024.07.044.134.063.193zm-18.89-1.793c-.222 0-.444.09-.665.178-1.595.622-2.304 2.4-1.507 4.356.886 2.222 3.146 3.511 4.918 2.8 1.107-.444 1.285-1.378 1.462-2.044.044-.178.177-.49.443-.578.044-.045.133-.045.221-.045.62.045.886.045 1.507.09.132 0 .177.088.221.177.044.133.044.267.044.356-.221 1.333-1.24 3.555-3.677 4.489-3.145 1.244-6.955-.223-8.284-3.334-1.33-3.111.487-6.933 3.943-8.311 2.303-.89 4.519-.445 5.094 1.11.488 1.379-.531 2.801-1.683 3.245-.975.4-1.86-.044-2.127-.755-.31-.445-.221-1.156.09-1.734zm35.13-12.133c-.088-.356.09-.534.532-.667 3.987-.8 5.98-1.156 10.012-1.734.488-.088.798 0 .886.356.133.533.178.8.31 1.289.045.356 0 .533-.487.578-2.702.266-4.076.444-6.734.8.222 1.111.31 1.689.532 2.8 1.683-.311 2.525-.489 4.209-.756.487-.089.886 0 .93.356.044.4.088.622.177 1.022.044.356 0 .49-.443.622-1.728.312-2.57.49-4.297.845.266.933.354 1.378.62 2.267 2.57-.445 3.854-.667 6.424-1.023.443-.088.797.045.886.4.044.4.088.623.133 1.023.044.355-.045.533-.488.622-3.987.756-5.936 1.2-9.879 2.133-.443.09-.664 0-.797-.355-1.02-4.267-1.507-6.356-2.526-10.578zm25.696-3.29c.487 4.178.753 6.312 1.24 10.49.044.355-.133.533-.576.578l-2.215.222c-.443.044-.709-.089-.753-.445-.355-2.577-.576-3.91-.93-6.489-1.507 3.023-2.216 4.534-3.633 7.556-.177.356-.443.534-.886.578-1.02.133-1.507.178-2.526.356-.443.044-.664-.045-.753-.4-1.019-4.712-1.55-7.023-2.613-11.734-.045-.356.132-.534.62-.623 1.063-.133 1.595-.222 2.658-.355.487-.045.709.044.753.4.576 3.422.842 5.111 1.418 8.534 1.639-3.6 2.525-5.378 4.341-8.979.133-.266.355-.4.665-.444.088 0 .177 0 2.48.222.4 0 .665.178.71.534zm-10.013-2.71c-.133-1.023 1.152-2.356 3.234-2.579 1.595-.177 3.057.356 3.19 1.556.089 1.067-1.196 2.267-3.278 2.489-1.374.133-2.968-.311-3.146-1.467zm12.139 2.4c-.044-.356.177-.534.665-.578 1.284-.09 1.949-.134 3.234-.223.487-.044.708.134.708.49.045 1.51.045 2.266.089 3.733 1.506-.09 2.304-.134 3.81-.178-.133-1.645-.177-2.445-.31-4.045 0-.355.133-.533.62-.533 1.152-.044 1.728-.044 2.835-.089.488 0 .754.133.754.489.221 4.445.354 6.623.575 11.067 0 .356-.177.534-.62.534-1.063.044-1.595.044-2.658.088-.443 0-.664-.133-.709-.488a175.18 175.18 0 0 1-.398-4.8c-1.551.044-2.348.088-3.899.177.044 2.134.089 3.2.133 5.29 0 .355-.177.533-.62.533-.93.044-1.374.088-2.304.133-.443.044-.665-.089-.709-.445-.443-4.489-.709-6.711-1.196-11.156zm14.708-.267c0-.267.133-.578.709-.578h2.791c.443 0 .665.133.709.489a67.226 67.226 0 0 0-.177 3.067c1.949.089 6.512 1.066 6.38 4.133-.09 2.89-4.032 3.911-6.602 3.867h-2.702c-.443 0-.665-.133-.665-.489-.221-4.222-.31-6.311-.443-10.49zm3.348 4.362c-.012 1.929-.001 2.885-.007 4.789.934-.05 2.765-.566 2.812-2.514.054-1.863-1.677-2.164-2.805-2.275zm8.26-4.362c.044-.356.177-.49.664-.49 1.24.045 1.816.09 3.057.179.487.044.664.177.62.533-.266 4.356-.399 6.578-.665 10.934 0 .355-.221.489-.708.489-.842-.045-1.285-.09-2.127-.134-.443-.044-.664-.177-.664-.533-.045-4.4-.09-6.578-.178-10.978zm19.182 1.6c-.399 4.222-.62 6.311-1.019 10.49-.044.355-.221.488-.709.444a34.977 34.977 0 0 0-2.26-.267c-.442-.045-.664-.222-.62-.578.178-2.622.266-3.911.488-6.533-2.127 2.622-3.146 3.955-5.183 6.622-.222.311-.532.4-.975.356-1.019-.09-1.55-.134-2.57-.223-.443-.044-.664-.222-.664-.577 0-4.8 0-7.2-.044-12.001.044-.356.265-.489.753-.444 1.063.088 1.595.133 2.702.222.487.044.665.222.665.578-.178 3.466-.266 5.155-.443 8.622 2.392-3.155 3.632-4.711 6.202-7.822.221-.223.443-.311.753-.267.089 0 .177.044 2.392.711.355.089.576.311.532.667zm-9.26-4.8c.09-1.067 1.64-2.045 3.722-1.823 1.595.178 2.968 1.023 2.836 2.178-.133 1.022-1.684 1.956-3.722 1.734-1.462-.134-2.924-.934-2.835-2.09zM90.77 92.667c-.088-.356.089-.534.576-.711 1.24-.311 1.817-.49 3.057-.8 3.588-.89 9.924-1.867 10.588 1.555.355 1.823-1.063 3.6-2.924 4.667 2.88.222 4.785 1.156 5.272 3.778 1.108 5.823-6.468 8.045-8.506 8.578-.797.178-1.196.311-1.95.49-.442.132-.708.044-.797-.312-1.727-5.69-3.5-11.467-5.316-17.245zm5.05.266c.488 2 .71 2.978 1.197 4.934 1.107-.267 3.898-1.733 3.455-3.867-.354-1.6-2.126-1.6-4.651-1.067zm1.684 6.979c.753 3.155 1.152 4.71 1.905 7.822 1.373-.489 3.899-2.133 3.19-5.333-.665-3.067-3.367-2.8-5.095-2.49zm13.025-3.6c-1.462.222-2.171.31-3.589.577-.487.09-.708-.044-.753-.4l-.221-1.111c-.045-.356.177-.533.664-.622 5.006-.89 7.487-1.245 12.538-1.778.487-.045.797.089.841.444.045.49.089.756.133 1.245.045.355-.088.489-.576.533-1.772.134-2.658.222-4.474.4.266 3.778.399 5.69.709 9.467 0 .356-.177.534-.62.623-.887.133-1.374.177-2.26.355-.487.089-.709-.044-.753-.4-.709-3.733-1.019-5.6-1.64-9.334zm16.967-4.4c4.874-.312 8.772 2.577 8.772 6.133.044 3.511-3.5 6.4-8.018 6.711-4.52.267-8.373-2.178-8.772-5.689-.399-3.556 3.1-6.89 8.018-7.156zm-3.81 6.31c.178 1.956 1.905 4.579 4.918 4.445 2.348-.133 3.5-1.822 3.456-3.822-.09-2.667-2.481-4.667-5.007-4.49-2.525.134-3.5 2.179-3.367 3.868zm14.133-6.4c0-.355.221-.533.709-.533 1.506 0 2.259 0 3.72.044 1.507.045 8.064.4 7.798 4.356-.266 3.778-6.025 5.29-8.019 5.245l-.221 7.022c0 .356-.222.49-.665.49-.886 0-1.329-.045-2.17-.045-.443 0-.665-.178-.665-.534-.177-5.289-.31-10.667-.487-16.045zm4.563 1.378h-.399c.044 2.311.044 3.511.089 5.823.886-.178 3.5-.845 3.721-3.467.089-1.911-2.17-2.311-3.411-2.356zm17.543-.222c4.874.622 8.152 4.178 7.532 7.645-.62 3.467-4.652 5.644-9.126 5.067-4.52-.578-7.842-3.69-7.576-7.2.266-3.512 4.297-6.134 9.17-5.512zm-4.873 5.467c-.177 1.955 1.02 4.889 4.032 5.244 2.348.312 3.81-1.155 4.075-3.11.4-2.623-1.594-5.023-4.12-5.334-2.48-.311-3.854 1.555-3.987 3.2zm28.176.178c-.974 4.133-1.462 6.178-2.436 10.267-.09.355-.31.444-.754.31-.886-.221-1.329-.355-2.215-.577-.443-.133-.664-.311-.576-.667.532-2.578.798-3.866 1.285-6.444-2.525 2.31-3.721 3.466-6.114 5.867-.265.266-.575.355-1.063.222-1.019-.222-1.55-.311-2.57-.534-.442-.088-.62-.266-.62-.622a974.82 974.82 0 0 0 1.285-11.956c.045-.355.31-.444.798-.355 1.107.222 1.639.31 2.746.533.488.089.665.311.62.667-.575 3.422-.885 5.11-1.461 8.533 2.835-2.844 4.297-4.222 7.31-6.933.221-.223.487-.267.797-.178.089.044.177.044 2.348 1.067.532.177.709.444.62.8zm-8.949-6.045c.222-1.022 1.95-1.822 4.076-1.334 1.64.4 2.924 1.423 2.658 2.578-.266 1.023-1.994 1.69-4.076 1.2-1.462-.355-2.924-1.333-2.658-2.444zM56.26 146.269c-1.019-1.778-1.506-2.667-2.525-4.4-.399 3.378-.62 5.067-.93 8.4-.045.311-.133.49-.443.623-.045.044-.133.044-.266.088-.71.178-1.064.223-1.772.4-.31.09-.532.045-.576-.088-.045-.09 0-.134-.045-.223.443-4.8.71-7.2 1.374-12-.975.489-1.418.755-2.393 1.244-.443.178-.708.134-.886-.133-.177-.489-.31-.711-.487-1.2-.133-.311-.044-.533.399-.711 2.348-.978 3.544-1.467 5.936-2.356.443-.178.753-.133.93.178 1.241 2.267 1.861 3.378 3.057 5.645.133-2.712.178-4.045.355-6.756.044-.356.266-.623.709-.8.974-.356 1.462-.534 2.48-.89.488-.133.754-.088.887.267a1179.37 1179.37 0 0 1 5.36 10.534c.133.356.044.534-.31.8-.93.534-1.373.8-2.304 1.334a.968.968 0 0 0-.221.133c-.266.089-.399 0-.532-.222-1.417-3.023-2.126-4.578-3.544-7.6-.177 2.844-.266 4.266-.399 7.066-.044.312-.177.49-.487.623-.044.044-1.772.31-2.437.444-.443-.044-.708-.133-.93-.4zm15.594-16.534c4.52-1.378 8.816.445 9.747 3.822.93 3.378-1.684 7.112-5.981 8.445-4.297 1.334-8.55-.266-9.702-3.555-1.108-3.378 1.462-7.334 5.936-8.712zm-2.082 6.978c.62 1.867 2.88 4.045 5.715 3.2 2.215-.666 2.924-2.622 2.348-4.533-.753-2.578-3.5-3.912-5.848-3.2-2.303.71-2.746 2.978-2.215 4.533zm18.873-9.29c-.222-.044-.443 0-.71.045-1.638.4-2.569 2.045-2.037 4.09.576 2.31 2.658 3.866 4.474 3.422 1.152-.267 1.462-1.2 1.684-1.867.044-.178.221-.444.487-.533h.222c.576.133.886.177 1.506.31.089.045.177.134.177.223a.488.488 0 0 1 0 .356c-.398 1.288-1.683 3.333-4.253 4-3.278.8-6.91-1.156-7.797-4.4-.886-3.245 1.418-6.8 5.006-7.69 2.348-.577 4.52.178 4.918 1.778.31 1.422-.886 2.711-2.082 2.978-1.02.267-1.817-.267-1.994-1.022-.133-.49 0-1.156.399-1.69zm20.29 7.779c.133.089.221.178.266.311a.638.638 0 0 1-.177.445l-1.684 1.689c-.133.133-.221.222-.354.266-.133.045-.31-.044-.443-.178-2.88-2.266-4.342-3.422-7.31-5.6.221 1.111.31 1.69.531 2.845.09.355-.088.533-.531.622a38.07 38.07 0 0 0-2.17.489c-.444.089-.665 0-.754-.356-1.108-4.622-1.64-6.933-2.747-11.556-.088-.355.089-.533.576-.666 1.108-.223 1.64-.356 2.747-.578.487-.09.709 0 .797.355.355 1.912.532 2.89.886 4.8.975-1.688 1.507-2.533 2.526-4.222 1.373-2.267 2.259-2.578 3.012-2.711.975-.178 1.95.533 2.127 1.556.177 1.022-.443 2.044-1.418 2.222-.532.089-1.108-.045-1.462-.4-1.152 1.733-1.684 2.622-2.791 4.356 3.367 2.444 5.05 3.733 8.373 6.311zm3.943-14.8c4.652-.712 8.639 1.777 9.037 5.288.4 3.467-2.746 6.756-7.176 7.423-4.43.667-8.374-1.556-8.994-5.022-.62-3.467 2.481-6.979 7.133-7.69zm-3.146 6.577c.31 1.912 2.215 4.445 5.14 4 2.259-.355 3.233-2.133 3.012-4.133-.354-2.622-2.835-4.4-5.272-4.045-2.348.4-3.145 2.534-2.88 4.178zm12.892-9.911c-.044-.356.133-.534.62-.578a25.108 25.108 0 0 1 1.817-.178c1.506-.133 7.398-.4 7.708 3.556.178 2.445-1.86 3.911-3.898 4.711 2.392.178 4.696 1.023 4.829 2.978.177 2.623-3.589 4.178-6.203 4.4-1.063.09-1.55.178-2.613.267-.443.045-.665-.089-.71-.444-.62-5.912-.93-8.845-1.55-14.712zm4.873 8.667c.133 1.822.178 2.756.31 4.622.798-.266 1.95-.844 1.773-2.489-.133-1.733-1.418-2.044-2.083-2.133zm-.62-7.645c.177 2.267.222 3.422.399 5.69.62-.312 1.816-1.156 1.64-3.334-.134-1.734-1.02-2.178-2.039-2.356zm14.797 1.822c-.221-.088-.443-.088-.709-.088-1.683.088-2.924 1.51-2.79 3.644.132 2.4 1.86 4.311 3.72 4.267 1.152-.044 1.684-.889 2.038-1.511.089-.178.31-.4.576-.4.089 0 .133 0 .222.044.576.222.842.356 1.418.578.088.044.132.133.132.267a.84.84 0 0 1-.088.355c-.62 1.2-2.304 2.978-4.962 3.067-3.367.178-6.557-2.489-6.778-5.822-.222-3.378 2.702-6.4 6.38-6.578 2.436-.09 4.43 1.022 4.474 2.71.044 1.467-1.418 2.49-2.614 2.534-1.063.045-1.728-.622-1.772-1.422-.044-.578.221-1.2.753-1.645zm18.385 11.6c.133.134.177.223.177.356 0 .134-.088.267-.265.4l-1.994 1.334c-.177.133-.266.178-.399.178s-.31-.09-.443-.267c-2.392-2.8-3.588-4.178-6.113-6.934 0 1.156-.045 1.734-.045 2.89 0 .355-.177.533-.664.533-.886 0-1.33 0-2.215.044-.488 0-.665-.133-.665-.489l-.443-11.867c0-.355.177-.533.665-.533 1.107-.045 1.683-.045 2.79-.045.488 0 .71.134.71.49-.045 1.955-.045 2.933-.045 4.888a245.175 245.175 0 0 1 3.279-3.689c1.772-1.955 2.746-2.089 3.5-2.044 1.018 0 1.816.889 1.772 1.955-.045 1.067-.842 1.912-1.817 1.867a1.787 1.787 0 0 1-1.373-.667c-1.462 1.512-2.171 2.223-3.589 3.734 3.013 3.067 4.43 4.667 7.177 7.867zm13.645-12.355l-.443 10.534c-.044.355-.221.489-.664.444a38.65 38.65 0 0 1-2.26-.178c-.487-.044-.709-.177-.664-.578.044-2.622.088-3.955.133-6.578a240.253 240.253 0 0 0-4.874 6.845c-.221.311-.531.445-.974.4-1.02-.044-1.55-.044-2.614-.089-.487 0-.664-.177-.664-.533-.178-4.49-.31-6.756-.532-11.245 0-.356.221-.489.709-.489 1.063.045 1.595.045 2.702.089.487 0 .709.178.665.533-.045 3.156-.045 4.712-.089 7.867 2.26-3.289 3.411-4.889 5.804-8.133.177-.267.398-.356.708-.311.089 0 .178.044 2.393.577.487.267.709.49.664.845zm15.063 1.555c-.399 4.223-.62 6.312-1.02 10.49-.043.355-.22.489-.708.444-.886-.133-1.373-.178-2.26-.266-.487-.045-.664-.223-.62-.578.178-2.623.31-3.912.488-6.534-2.127 2.622-3.19 3.911-5.228 6.578-.221.311-.531.4-1.019.356-1.019-.09-1.55-.134-2.614-.222-.487-.045-.664-.223-.664-.578.044-4.8.044-7.2.089-12 .044-.356.265-.49.753-.445 1.063.089 1.595.133 2.702.222.487.044.665.222.665.578-.178 3.467-.31 5.156-.488 8.622 2.437-3.155 3.677-4.71 6.247-7.778.221-.222.443-.31.753-.266.089 0 .177.044 2.392.71.399.09.576.312.532.667zm-9.215-4.844c.089-1.067 1.64-2.045 3.721-1.823 1.595.178 2.924 1.023 2.791 2.178-.132 1.023-1.683 1.956-3.72 1.734-1.419-.134-2.88-.934-2.792-2.09zM27.405 124.65c-1.562.09-2.905-1.189-3-2.855-.095-1.666 1.094-3.089 2.656-3.178 1.562-.089 2.905 1.19 3 2.856.094 1.666-1.095 3.088-2.656 3.177zm6.105.71c-1.147.065-2.133-.874-2.203-2.098-.07-1.223.804-2.268 1.95-2.333 1.148-.066 2.134.873 2.203 2.097.07 1.223-.803 2.268-1.95 2.333zm6.097-.85c-1.05.06-1.952-.8-2.016-1.918-.064-1.12.735-2.076 1.785-2.136 1.049-.06 1.951.8 2.015 1.919.064 1.12-.735 2.075-1.784 2.135zm-16.92-5.334c-.927.053-1.724-.706-1.78-1.696-.057-.989.649-1.834 1.576-1.886.927-.053 1.725.706 1.781 1.695.056.99-.65 1.834-1.577 1.887zm-2.29-4.722c-.61.034-1.135-.465-1.172-1.116-.037-.65.427-1.206 1.037-1.241.61-.035 1.135.464 1.172 1.115.037.651-.427 1.207-1.037 1.242zm191.274 34.648a2.31 2.31 0 1 1-4.618-.166 2.31 2.31 0 0 1 4.618.166zm-5.52-1.647a1.706 1.706 0 1 1-3.41-.122 1.706 1.706 0 0 1 3.41.122zm-5.2-.357a1.528 1.528 0 1 1-3.055-.11 1.528 1.528 0 0 1 3.055.11zm-4.2.72a1.35 1.35 0 1 1-2.7-.097 1.35 1.35 0 0 1 2.7.097zm17.456 4.85a1.35 1.35 0 1 1-2.7-.097 1.35 1.35 0 0 1 2.7.097zm-20.761-3.336a1.173 1.173 0 1 1-2.345-.085 1.173 1.173 0 0 1 2.345.085zm-3.238 2.207a.924.924 0 1 1-1.847-.066.924.924 0 0 1 1.847.066zm25.153 4.429a.924.924 0 1 1-1.847-.067.924.924 0 0 1 1.847.067z" id="White" fill="#FFF"/><path d="M200.213 122.828c.527 1.186-1.757 2.02-3.865 1.142-2.372-.966-3.338-4.48-.483-8.914 2.854-4.435 11.243-15.764 12.692-24.15 1.45-8.387-1.186-12.69-5.358-13.261-4.172-.571-8.74 1.888-8.74 6.147 0 4.26 2.328 5.27 3.646 5.489 1.317.22 2.547-.22 2.547-.22s-3.47-1.054-2.064-3.996c1.361-2.81 5.533-2.02 5.972.703.527 3.293-1.493 5.05-4.655 5.4-3.074.352-7.685-2.283-7.73-7.288-.043-5.006 3.47-10.012 10.19-9.485 6.807.527 9.661 6.499 8.651 12.602-.659 3.908-2.46 11.066-7.51 18.267-8.564 12.12-8.74 14.446-7.73 16.686 1.055 2.24 3.91-.308 4.437.878zm16.337-7.904s-1.23-1.932-4.216-1.668c-2.987.263-2.855 1.888-6.017 1.185-3.162-.702-6.763-.527-6.763-.527s3.733-5.181 8.74-5.225c7.421 0 8.256 6.235 8.256 6.235zm-.703-10.758s-1.45-1.01-3.47-.044c-2.02.966-1.405 2.064-3.864 2.371-2.46.308-4.875 1.406-4.875 1.406s1.054-4.611 4.568-5.884c5.182-2.02 7.641 2.151 7.641 2.151zm-16.557 3.074s.396-1.757-.746-3.908c-.835-1.58-3.25-1.932-3.997-5.577-.746-3.644 1.537-5.62 1.537-5.62s.308 1.844 1.537 2.942c1.23 1.098 3.646.658 5.007 4.171 1.318 3.47-3.338 7.992-3.338 7.992zm-141.208-.373s-1.561.648-.937 1.598c.937 1.381 5.043.043 3.838-3.239-1.116-3.108-5.043-2.936-6.827-2.159-2.187.95-4.82 4.836-2.901 8.852 2.231 4.577 7.675 6.52 13.075 5.397 5.087-1.08 8.21-3.54 9.638-6.779 1.875-4.274.893-7.08-.133-8.549-1.875-2.59-4.775 0-2.633 2.332 1.785 1.9 4.953 1.9 7.095.345 2.231-1.684 2.677-3.584 2.9-5.484.313-2.46-.357-5.181-.357-5.181s1.83 4.49.893 7.686c-.937 3.238-3.08 5.31-6.114 5.613-4.507.432-6.336-2.375-6.425-4.318-.134-2.245 1.16-3.584 2.499-3.497 1.026.043 3.257 1.036 4.194 4.706.982 4.016.134 8.55-3.882 12.695-3.704 3.8-12.272 7.08-18.831 3.713-5.043-2.59-7.497-7.34-7.14-12.176.446-5.398 4.82-8.55 8.702-8.636 4.864-.086 7.853 1.9 8.567 5.138.893 4.188-2.677 7.125-5.578 6.347-2.275-.647-2.9-2.893-2.142-4.058.848-1.339 2.5-.346 2.5-.346zm128.295 44.159c-.568 1.741-3.127.604-3.127.604s.462 2.666-1.813 2.488c-2.274-.213-2.06-2.524-2.06-2.524s-1.849 1.387-2.986-.71c-1.173-2.098 1.812-2.987 1.812-2.987s-1.03-1.812.356-3.234c1.386-1.422 3.056 1.03 3.056 1.03s1.564-1.741 3.199-.71c1.634 1.03-.32 3.377-.32 3.377s2.594.64 1.883 2.666zM11.813 73.774a4.25 4.25 0 0 1-5.38 2.685 4.25 4.25 0 0 1-2.679-5.381 4.25 4.25 0 0 1 5.379-2.685 4.25 4.25 0 0 1 2.68 5.381zm6.785 5.076a3.166 3.166 0 0 1-4.006 2 3.166 3.166 0 0 1-1.997-4.008 3.166 3.166 0 0 1 4.007-2 3.166 3.166 0 0 1 1.996 4.008zm8.608 2.421a2.863 2.863 0 0 1-3.622 1.809 2.863 2.863 0 0 1-1.805-3.625 2.863 2.863 0 0 1 3.622-1.808 2.863 2.863 0 0 1 1.805 3.624zM5.868 65.072a2.516 2.516 0 1 1-1.586-3.185 2.516 2.516 0 0 1 1.586 3.185zm-1.836-6.975a1.692 1.692 0 1 1-3.209-1.072 1.692 1.692 0 0 1 3.209 1.072zm4.68 152.573s-2.971.216-4.807-1.35c-1.89-1.567-1.999-3.62-1.999-3.62l2.215-.216.054-1.945s1.836.162 3.618 2.215c1.783 2.053.919 4.916.919 4.916zm1.35-.972s-1.512-2.593-.918-4.916c.648-2.323 2.43-3.35 2.43-3.35l1.188 1.891 1.783-.81s.702 1.836-.432 4.267c-1.135 2.431-4.051 2.918-4.051 2.918zm.378 2.485s2.917.54 4.32 2.593c1.405 2.053.973 4.052.973 4.052l-2.214-.379-.595 1.837s-1.782-.702-2.916-3.133.432-4.97.432-4.97zm.918-1.135s1.458-2.593 3.78-3.295c2.377-.702 4.16.324 4.16.324l-1.026 1.999 1.566 1.134s-1.188 1.459-3.889 1.783c-2.7.324-4.59-1.945-4.59-1.945zm-2.106 1.027s-.432 2.917-2.377 4.376c-1.944 1.458-3.997 1.134-3.997 1.134l.27-2.215-1.89-.486s.648-1.783 3.025-3.025c2.376-1.243 4.969.216 4.969.216zm119.535-37.523c.042-.4.316-.552.925-.593 1.417 0 2.17-.044 3.588-.044.665 0 .93.222.93.666.133 4.178.178 6.267.31 10.445 2.836-4.444 4.298-6.667 7.355-11.067.221-.355.531-.444.93-.444.133 0 .221.044 3.234.666.664.178.975.49.975.934-.045 5.6-.045 8.4-.133 14 0 .49-.266.667-.886.667-1.197-.044-1.817-.089-3.013-.089-.62 0-.93-.222-.93-.71-.045-3.468-.089-5.246-.133-8.712-2.525 3.689-3.766 5.555-6.158 9.333-.266.445-.665.623-1.285.623h-3.455c-.62 0-.886-.178-.93-.667-.475-5.8-.74-8.776-1.285-14.428 0 .461.007.769.044 1.316 0 .49-.177.622-.842.667-2.304-.045-3.455-.045-5.76-.045-.132 5.023-.176 7.556-.265 12.579-.044.489-.266.71-.886.71-1.196.045-1.816.09-3.013.134-.62.045-.886-.133-.93-.622-.354-4.978-.532-7.467-.842-12.49l-4.696.223c-.664.044-.886-.134-.93-.622-.044-.578-.044-.89-.089-1.512 0-.489.266-.71.93-.755 6.513-.4 9.747-.534 16.26-.622.537 0 .872.145.98.46zm-62.826 8.03c.443-.09.665-.134 1.152-.267 5.493-1.2 10.411 1.245 11.164 5.334.709 3.911-2.525 8.089-8.063 9.289-.399.089-.576.133-.974.222.487 2.134.708 3.2 1.196 5.29.088.444-.133.71-.71.844-1.417.31-2.081.489-3.499.8-.576.133-.886 0-1.019-.445-.532-2.133-.753-3.155-1.285-5.289-.354.09-.531.134-.93.222-5.493 1.334-10.234-1.066-11.297-4.889-1.108-4 2.348-8.356 7.797-9.644.399-.09.576-.134.975-.223-.399-1.733-.62-2.578-1.02-4.311-.088-.444.134-.711.754-.889 1.462-.356 2.215-.489 3.677-.844.665-.134.975 0 1.063.444.488 1.778.665 2.622 1.02 4.356zm-2.392 13.956c-.975-4.222-1.506-6.311-2.481-10.534-2.614.8-4.386 3.511-3.677 6.356.709 2.845 3.455 4.711 6.158 4.178zm2.924-11.778c.93 4.222 1.417 6.311 2.348 10.533 2.702-.666 4.386-3.555 3.81-6.444-.532-2.8-3.323-4.578-6.158-4.09zm12.139-5.69c-.09-.488.132-.71.753-.844 5.404-.889 8.107-1.289 13.556-2 .665-.089 1.063.044 1.196.489.133.711.222 1.022.355 1.733.044.49 0 .667-.665.756a211.44 211.44 0 0 0-9.126.844c.221 1.512.354 2.223.576 3.734 2.26-.356 3.411-.534 5.67-.89.62-.088 1.197.045 1.285.49.089.533.089.8.177 1.333.045.49 0 .667-.62.8-2.348.356-3.5.578-5.848.978.31 1.2.443 1.822.753 3.067 3.456-.533 5.228-.756 8.684-1.156.62-.089 1.063.09 1.151.534.045.533.09.8.178 1.333.044.489-.045.711-.665.8-5.405.889-8.063 1.422-13.423 2.533-.62.09-.886 0-1.02-.488-1.151-5.556-1.771-8.4-2.967-14.045zm27.112-1.288c-.266-.09-.62-.09-.93-.045-2.26.222-3.81 2.178-3.544 4.978.354 3.2 2.746 5.6 5.272 5.378 1.55-.133 2.17-1.289 2.613-2.089.133-.222.4-.533.754-.578a.55.55 0 0 1 .265.045c.754.266 1.152.4 1.905.667.133.044.178.177.222.31 0 .178 0 .356-.089.49-.797 1.644-2.924 4.044-6.423 4.4-4.52.444-8.905-2.89-9.437-7.29-.531-4.444 3.19-8.667 8.107-9.155 3.279-.312 5.981 1.11 6.158 3.289.133 1.91-1.727 3.378-3.367 3.51-1.417.134-2.348-.71-2.48-1.777 0-.667.354-1.511.974-2.133zm44.39-6.578c.045-.49.31-.667.975-.623.975.045 1.462.09 2.437.134 2.038.133 9.924 1.11 9.436 6.311-.31 3.2-3.322 4.667-6.202 5.29 3.145.755 5.98 2.355 5.715 4.933-.31 3.466-5.626 4.667-9.126 4.444-1.374-.089-2.082-.133-3.5-.222-.62-.044-.886-.267-.842-.711.487-7.823.709-11.734 1.108-19.556zm4.652 12.4c-.221 2.445-.354 3.645-.576 6.09 1.108-.179 2.747-.712 2.88-2.89.177-2.222-1.418-2.933-2.304-3.2zm.842-10.134c-.266 3.023-.399 4.49-.664 7.512.886-.267 2.658-1.111 2.88-4 .132-2.312-.931-3.023-2.216-3.512zm19.271 15.468c-1.993-.4-3.012-.578-5.006-.934-1.152 1.823-1.727 2.711-2.835 4.534-.222.266-.443.4-.709.355-.133 0-.31-.044-.487-.133-1.196-.711-1.817-1.067-3.013-1.778-.398-.178-.531-.355-.531-.578 0-.089.044-.222.177-.355 3.367-4.623 5.095-6.934 8.639-11.467-1.196-.09-1.817-.09-3.013-.178-.664-.09-.974-.267-.93-.756.044-.622.088-.933.177-1.555.044-.49.266-.667.886-.578 3.544.4 5.316.578 8.86 1.067.665.088.93.355 1.02.8.974 5.51 1.417 8.267 2.259 13.778.044.133 0 .222 0 .311-.044.222-.177.311-.576.489-1.373.578-2.038.889-3.411 1.467-.133.044-.266.044-.4.044-.353-.044-.62-.355-.664-.711a799.136 799.136 0 0 0-.443-3.822zm-3.322-3.556c1.196.222 1.816.355 2.968.622-.177-1.778-.31-2.667-.487-4.4-1.02 1.511-1.507 2.267-2.481 3.778zm22.682-.756c-1.462 1.556-2.17 2.312-3.632 3.867-2.304 2.49-5.05 5.334-7.487 4.934-1.95-.311-2.57-2.534-2.393-3.867.177-1.156 1.02-1.911 2.038-1.734.798.134 1.64.8 2.082 1.69a254.293 254.293 0 0 1 6.823-7.068c-.665-.088-1.02-.133-1.684-.222-.62-.133-.886-.31-.841-.8.044-.667.044-1.022.088-1.689.089-.489.31-.622.93-.533 3.19.578 4.83.889 8.02 1.511.664.133.93.4.974.889.399 5.556.576 8.356.842 13.912v.266c-.09.311-.31.445-.842.49-1.462.133-2.171.177-3.633.31h-.399c-.31-.044-.487-.266-.487-.622-.133-4.533-.221-6.8-.399-11.334zm10.633-3.955c.088-.445.443-.623 1.063-.49 1.55.356 2.348.534 3.899.934.664.178.886.4.753.845-.753 2.71-1.152 4.089-1.905 6.8 2.658.8 8.24 3.289 7.088 7.467-.93 3.422-6.38 3.644-9.835 2.8l-3.766-.889c-.62-.133-.841-.4-.709-.844 1.418-6.667 2.083-10 3.412-16.623zm3.322 10.267c-.708 2.489-1.063 3.733-1.727 6.267.664.044 3.367.266 3.987-2.178.664-2.711-1.33-3.734-2.26-4.09zM83.24 201.694c4.784-.711 8.86 1.778 9.215 5.289.354 3.511-2.836 6.711-7.354 7.378-4.475.667-8.55-1.467-9.17-4.934-.621-3.466 2.569-7.022 7.309-7.733zm-3.19 6.622c.31 1.911 2.26 4.445 5.272 4 2.304-.355 3.323-2.133 3.057-4.133-.355-2.622-2.88-4.4-5.36-4.045-2.437.356-3.235 2.534-2.969 4.178zm27.512 5.156c.133.133.221.222.221.356 0 .133-.088.266-.266.4-.753.577-1.152.889-1.905 1.466-.177.134-.265.178-.398.178a.538.538 0 0 1-.443-.222c-2.57-2.622-3.899-3.956-6.601-6.49.044 1.156.088 1.734.177 2.845.044.356-.177.534-.62.578-.886.089-1.33.133-2.26.222-.487.045-.664-.089-.709-.444-.531-4.711-.797-7.067-1.329-11.823-.044-.355.178-.533.665-.578 1.152-.089 1.728-.177 2.835-.266.487-.045.709.089.753.444.133 1.956.178 2.934.266 4.89a119.624 119.624 0 0 1 3.101-3.912c1.684-2.045 2.658-2.267 3.456-2.311 1.019-.045 1.905.8 1.95 1.822.043 1.067-.754 1.956-1.729 2a1.744 1.744 0 0 1-1.417-.578c-1.374 1.6-2.038 2.4-3.367 4 3.1 2.934 4.651 4.4 7.62 7.423zm-.488-13.734c0-.355.177-.533.71-.533 1.461-.045 2.214-.045 3.676-.09 1.506 0 7.93.045 7.842 4.001-.089 3.778-5.715 5.556-7.709 5.6 0 2.8 0 4.223.044 7.067 0 .356-.177.534-.664.534-.886 0-1.33.044-2.215.044-.443 0-.665-.133-.665-.489-.31-5.422-.664-10.756-1.019-16.134zm4.563 1.2h-.398c.133 2.311.177 3.467.31 5.823.842-.178 3.455-.978 3.5-3.6.044-1.912-2.171-2.223-3.412-2.223zm17.19-1.067c4.784.312 8.24 3.645 7.84 7.156-.398 3.512-4.208 5.956-8.682 5.645-4.519-.311-7.975-3.289-7.886-6.8.089-3.512 3.943-6.356 8.727-6zm-4.52 5.734c-.088 1.956 1.241 4.8 4.254 5.022 2.303.178 3.677-1.377 3.854-3.377.221-2.667-1.86-4.934-4.342-5.067-2.436-.134-3.677 1.778-3.765 3.422zm14.665-4.311c.044-.356.31-.49.797-.4.975.133 1.462.177 2.48.31.488.045.665.268.621.623-.531 3.778-.753 5.69-1.285 9.467 1.374.222 2.083.311 3.456.578.487-3.911.709-5.867 1.196-9.778.089-.356.266-.49.753-.4 1.152.178 1.728.266 2.88.489.487.089.62.266.576.622-.665 3.911-1.02 5.867-1.684 9.778 1.152.222 1.684.311 2.836.578a825.06 825.06 0 0 1 1.949-9.067c.044-.356.354-.445.842-.356 1.107.223 1.683.311 2.79.534.488.089.62.266.577.622-1.02 4.311-1.551 6.445-2.57 10.756-.089.355-.354.444-.797.355-5.405-1.244-10.943-2.266-16.436-2.977-.488-.045-.665-.223-.62-.578.62-4.49.974-6.712 1.639-11.156zm30.213 19.778c.09.178.133.267.09.4-.045.134-.178.223-.355.311-.886.312-1.374.49-2.26.8-.177.09-.31.09-.443.09-.133-.045-.266-.134-.354-.356-1.64-3.29-2.481-4.934-4.297-8.223a62.907 62.907 0 0 0-.71 2.756c-.088.356-.31.444-.752.356-.886-.223-1.33-.312-2.171-.49-.443-.088-.62-.31-.532-.666.93-4.667 1.418-6.978 2.348-11.645.089-.356.31-.444.798-.356 1.107.267 1.683.356 2.79.623.488.133.665.31.577.666-.488 1.912-.754 2.845-1.24 4.756 1.638-1.111 2.48-1.644 4.163-2.756 2.216-1.422 3.234-1.333 3.988-1.11 1.019.266 1.55 1.333 1.284 2.355-.265 1.022-1.284 1.644-2.303 1.378a1.838 1.838 0 0 1-1.196-1.023c-1.817 1.067-2.703 1.645-4.475 2.756 2.127 3.69 3.145 5.6 5.05 9.378zm16.57-8.311c-1.285 4.045-1.95 6.045-3.235 10.045-.133.355-.31.444-.797.266-.886-.31-1.285-.444-2.17-.755-.444-.133-.621-.356-.488-.711a337.714 337.714 0 0 0 1.816-6.312c-2.658 2.09-3.987 3.156-6.512 5.334-.31.267-.62.267-1.063.133-1.02-.31-1.507-.444-2.526-.755-.443-.134-.62-.356-.531-.711.93-4.4 1.373-6.623 2.303-11.023.089-.356.355-.445.842-.311 1.063.31 1.595.444 2.614.8.487.133.62.355.532.71-.842 3.023-1.24 4.534-2.083 7.601 3.057-2.578 4.608-3.822 7.798-6.311.265-.178.487-.222.797-.09.089.045.177.09 2.215 1.245.399.267.576.534.487.845zM72.804 39.542c.701 7.106 4.78 19.928 11.956 19.222 5.431-.537 8.6-8.377 7.631-18.2-1.072-10.869-6.76-19.312-12.333-18.762-5.573.55-8.024 9.94-7.254 17.74zm-9.75 2.26C62.164 27.758 70.1 15.748 81 15.056c10.898-.692 20.293 10.212 21.183 24.255.89 14.044-7.045 26.047-17.944 26.744-10.9.697-20.29-10.214-21.183-24.254zm39.053-13.706L99.7 25.665a1.849 1.849 0 0 1-.527-.961c.027-.428.243-.822.59-1.073l8.571-8.66a3.352 3.352 0 0 1 1.914-1.263l5.11-.193a1.387 1.387 0 0 1 1.593 1.337L119.5 60.16a1.373 1.373 0 0 1-1.417 1.451l-6.995.264a1.379 1.379 0 0 1-1.522-1.344l-.74-38.223-4.829 5.717a1.6 1.6 0 0 1-.958.597 1.467 1.467 0 0 1-.932-.526zm35.506 32.206c-7.873.726-16.901-2.662-17.741-11.722-.58-6.274 3.245-10.561 7.665-14.485-3.437-2.214-6.23-5.051-6.666-9.792-.665-7.252 4.57-13.776 12.656-14.521 8.086-.745 14.418 4.648 15.098 12.038.5 5.438-2.24 9.276-5.881 12.493 5.755 2.983 9.88 5.767 10.407 11.483.795 8.644-7.524 13.769-15.538 14.506zm.306-6.46h.005c2.297-.251 7.212-2.266 6.632-7.56-.412-3.758-3.239-5.772-10.277-8.944-2.556 3.027-4.888 6.17-4.437 10.276.625 5.707 5.85 6.472 8.077 6.228zm1.476-31.968c-.42-3.826-2.89-6.447-5.534-6.156-2.645.29-4.482 3.45-4.092 7 .412 3.758 3.137 6.135 6.66 8.073 1.905-2.533 3.347-5.437 2.966-8.917zM41.292 43.76c-3.614.823-7.417-2.62-8.225-6.171l-.072-.342c-1.102-4.845 1.43-12.96 10.85-15.104 8.123-1.848 14.796 2.233 16.722 10.698C64 47.927 47.308 55.029 48.184 65.815l19.038-4.979a1.23 1.23 0 0 1 1.728.971l.715 3.14c.149.97-.016 1.511-.971 1.728L42.34 73.606c-.955.218-1.58.001-1.797-.955l-.761-3.346c-3.53-15.495 14.956-22.933 12.081-35.561-.918-4.026-3.48-6.46-6.688-5.73a6.145 6.145 0 0 0-4.585 4.778 8.233 8.233 0 0 1 3.883 5.075c.59 2.594-.452 5.272-3.182 5.893zm111.16 11.428a1.052 1.052 0 0 1 1.22.967 3.86 3.86 0 0 1-.84 2.855.55.55 0 0 1-.362.229.34.34 0 0 1-.141-.01l-.29-.1a.342.342 0 0 1-.223-.3.37.37 0 0 1 .027-.162 1.74 1.74 0 0 0 .192-.878 1.013 1.013 0 0 1-1.056-.92 1.636 1.636 0 0 1 1.473-1.681zm12.875.157c.386.07 1.424.25 1.464.246a.4.4 0 0 0 .374-.35l1.256-5.2.95 6.466c.038.218.125.311.285.3a.5.5 0 0 0 .158-.033l1.546-.5a.433.433 0 0 0 .3-.525l-1.655-9.04a.4.4 0 0 0-.472-.384l-1.5.118a.519.519 0 0 0-.51.421l-1.174 4.95-.89-4.927a.4.4 0 0 0-.49-.363l-3.63.286a.33.33 0 0 0-.347.43l.078 1a.385.385 0 0 0 .469.343l1.52-.32-2.761 8.5a.715.715 0 0 0-.026.183.288.288 0 0 0 .319.236l1.076.156a.439.439 0 0 0 .535-.344l1.9-5.989.748 3.894c.032.244.232.43.477.446zm12.662-.122l-.503-2.164-2.265-.093-.93 2.879a.347.347 0 0 1-.29.27.522.522 0 0 1-.223-.05l-1.472-.8a.348.348 0 0 1-.272-.31c0-.077.018-.153.051-.222l2.98-7.361-1.3.15a.36.36 0 0 1-.455-.363l-.035-.92a.318.318 0 0 1 .345-.413l3.818-.147a.431.431 0 0 1 .494.36l2.143 7.743a.631.631 0 0 1 .027.179.422.422 0 0 1-.206.348l-1.376 1.194a.323.323 0 0 1-.177.067.4.4 0 0 1-.354-.347zm-1.39-6.416l-.788 2.432 1.345.09-.557-2.522zm8.386-3.462a1.873 1.873 0 0 0 1.936-1.736 1.545 1.545 0 0 0-1.756-1.394 1.894 1.894 0 0 0-1.913 1.775c.11.847.88 1.45 1.728 1.353l.005.002zm3.543.946c-1.312-.27-1.353-.288-1.413-.286a.416.416 0 0 0-.39.3l-2.89 6.677-.44-6.73a.344.344 0 0 0-.414-.384l-1.54.06a.344.344 0 0 0-.384.414l.88 9.335a.365.365 0 0 0 .435.384l1.559-.06a.566.566 0 0 0 .566-.382l2.446-5.639.356 5.111a.358.358 0 0 0 .435.384l1.36-.052a.331.331 0 0 0 .364-.414l-.516-8.228a.466.466 0 0 0-.42-.49h.006z" id="Yellow" fill="#F96"/><path d="M131.216 80.946c-.506.33-.82.552-1.416.934-.088.046-.133.046-.221.046-.178 0-.355-.137-.444-.319-.133-.865-.266-1.275-.488-2.14-1.108-.045-1.685-.045-2.793-.09-.488 1.138-.71 1.684-1.153 2.776-.089.183-.222.274-.355.274-.089 0-.177 0-.266-.046a21.775 21.775 0 0 0-1.818-.728c-.222-.046-.31-.137-.355-.273 0-.046 0-.137.044-.228a555.397 555.397 0 0 1 3.725-7.193c-.665.046-.975.091-1.64.182-.264 0-.453-.05-.534-.169l.001.124c0 .273-.088.364-.443.41-1.242 0-1.907.045-3.149.045v7.147c0 .273-.133.41-.487.41-.666.045-.976.045-1.641.137-.355.045-.488-.092-.532-.365-.178-2.822-.267-4.233-.533-7.101-1.02.045-1.552.09-2.572.182-.354.045-.487-.091-.487-.365-.045-.318-.045-.5-.09-.865 0-.273.134-.41.489-.41 3.503-.272 5.277-.409 8.824-.546.262 0 .451.05.533.185v-.002c0-.274.088-.41.443-.41 1.951-.091 2.927-.137 4.834-.182.355 0 .532.09.62.364a244.99 244.99 0 0 1 2.394 7.363 121.165 121.165 0 0 1 4.88-3.949 101.53 101.53 0 0 0-2.174-2.185c-.221.273-.532.41-.93.41-.8 0-1.509-.546-1.509-1.23.045-.728.666-1.32 1.552-1.32.71 0 1.42.32 2.35 1.32.843.957 1.287 1.457 2.13 2.459v-3.87c0-.273.177-.364.532-.364.753 0 1.153 0 1.95.046.356 0 .489.136.489.41-.045 1.593-.09 2.367-.133 3.96.798-.865 1.241-1.32 2.04-2.185 1.152-1.23 1.818-1.411 2.261-1.411.798.045 1.375.637 1.33 1.365-.044.729-.665 1.32-1.419 1.275-.354 0-.665-.182-.886-.41-.71.729-1.11 1.093-1.819 1.821 1.907 2.094 2.838 3.187 4.657 5.327a.418.418 0 0 1 .133.318c0 .091-.089.182-.222.273-.532.32-.754.501-1.286.82-.133.091-.222.136-.31.136-.09 0-.222-.045-.31-.227-1.686-2.049-2.573-3.05-4.302-5.099-.045 1.73-.09 2.595-.134 4.325 0 .273-.133.364-.487.364h-1.552c-.355 0-.488-.136-.488-.41v-4.506c-1.996 1.73-2.971 2.64-4.923 4.415-.133.091-.221.137-.354.137a.473.473 0 0 1-.31-.137c-.444-.364-.666-.591-1.154-.956a1.14 1.14 0 0 1-.092-.07zm-87.057 16.82a.742.742 0 0 1 .276-.18c.487-.182.753-.273 1.241-.5.31-2.869.532-4.28.887-7.193-1.241.5-1.907.774-3.148 1.32-.31.136-.488.09-.621-.137a2.751 2.751 0 0 0-.222-.865c-.089-.273 0-.41.355-.546 2.75-1.093 4.124-1.593 6.873-2.595.355-.136.533-.09.666.182 1.596 2.64 2.394 3.96 3.946 6.601.4-.136.577-.182.976-.318.31-.091.488-.046.577.227.221.865.354 1.275.576 2.14.044.273-.044.41-.355.5-.71.228-1.108.32-1.818.592-.31.091-.488.046-.576-.227a23.48 23.48 0 0 0-.222-.865c-2.572.91-3.858 1.411-6.43 2.367.221.455.354.683.576 1.093.089.273.045.41-.266.546-.71.319-1.109.5-1.818.82-.31.136-.488.09-.577-.137-.348-.985-.569-1.485-.913-2.41a2.294 2.294 0 0 1-.062.088c-.488.683-.754 1.002-1.242 1.684-.044.046-.133.092-.177.137-.178.091-.4 0-.532-.182-.444-.592-.71-.956-1.198-1.639l-2.66.91c-.045 1.23-.09 1.822-.134 3.05-.044.183-.088.32-.266.365-.088.045-.177.045-.266.045-.754 0-1.153-.045-1.95-.045-.223 0-.356-.046-.4-.137-.044-.045-.044-.136 0-.227.4-3.233.62-4.826 1.064-8.058-.576.273-.887.455-1.463.728-.31.137-.532.137-.665-.136-.133-.319-.222-.501-.355-.82-.089-.227-.044-.41.266-.546 1.774-.774 2.705-1.138 4.479-1.912.31-.137.532-.091.71.091 1.95 2.458 2.926 3.687 4.833 6.146a.337.337 0 0 1 .035.044zM186.633 93s4.084-6-2.93-13.956c-4.973-5.778-11.588-5.467-13.985-2.756-2.398 2.712 1.465 4.756 1.465 4.756s-2.708 2.311-5.417.578c-2.042-1.334-5.105-6.223.134-10.934 6.126-5.511 16.604-2.178 21.177 6.623 4.573 8.8-.444 15.689-.444 15.689zM34.19 99.862c.133 0 .221.091.266.183.044.09.044.227.044.318-.443 2.003-1.73 3.915-4.035 5.008-3.592 1.684-8.071.637-9.668-2.686-1.64-3.369.488-7.785 4.036-9.47 2.217-1.046 5.898-1.41 6.519.046.31.729-.267 1.457-1.11 1.867-1.152.546-2.482.228-2.793-.546-.133-.274-.089-.592.044-.91-.532.136-1.153.409-1.463.545-2.528 1.184-3.37 4.143-2.129 6.784 1.242 2.64 3.947 3.87 6.342 2.731 1.774-.82 2.217-2.413 2.483-3.414.045-.137.178-.365.355-.456.044 0 .089-.045.133-.045.4.091.577.091.976.045zm4.168-2.412c.621-.228.976-.319 1.597-.501-.577-.82-.843-1.23-1.42-2.049-.088 1.002-.088 1.503-.177 2.55zm9.8-1.32c1.375-.501 2.04-.774 3.415-1.275-1.197-2.094-1.818-3.141-3.015-5.236-.178 2.595-.266 3.87-.4 6.51zm12.684-8.468c-.09-.091-.178-.182-.178-.319a.511.511 0 0 1 0-.364c.444-1.912.665-2.914 1.109-4.826.044-.182.089-.273.222-.318.088-.046.221 0 .354 0 .444.09.666.09 1.153.182.222.045.31.136.355.228v.227c-.62 1.73-.887 2.595-1.463 4.325a236.964 236.964 0 0 1 3.459 2.822c.088.092.133.137.133.183.044.09 0 .227-.178.41-.354.318-.487.455-.842.773a.926.926 0 0 1-.266.182c-.133.046-.222 0-.355-.136a123.911 123.911 0 0 1-3.503-3.37zm6.518 1.23a.918.918 0 0 1-.266.181c-.133.046-.221 0-.354-.136-1.11-.91-1.641-1.366-2.75-2.231a.527.527 0 0 1-.222-.319c-.044-.09-.044-.227.045-.364.488-1.366.71-2.049 1.197-3.414a.487.487 0 0 1 .266-.319h.31c.4.091.577.137.976.228.178.045.31.136.31.227s0 .182-.044.273c-.532 1.139-.842 1.73-1.374 2.868 1.02.683 1.552 1.048 2.572 1.73.088.091.177.137.177.228.044.091 0 .228-.177.364-.222.273-.355.41-.666.683zm5.278-12.93c4.08-1.047 7.893 1.23 8.603 4.735.754 3.596-1.818 7.101-5.366 7.966-2.528.638-5.322-.136-7.007-1.866-.044-.046-.089-.091-.089-.137-.044-.136 0-.273.178-.41.443-.364.62-.5 1.064-.864.045-.046.089-.046.133-.091.178-.046.444.09.532.182 1.375 1.365 2.617 2.003 4.213 1.593 1.996-.5 3.104-2.322 3.104-4.552-2.04.5-3.06.728-5.055 1.274-.355.091-.443 0-.532-.273a8.606 8.606 0 0 1-.178-1.047c-.044-.273.09-.41.444-.5 2.04-.501 3.015-.775 5.055-1.23-.62-1.957-2.306-3.778-4.878-3.095-.887.227-1.73.682-2.35 1.32 1.109-.137 1.996.136 2.173.774.177.728-.754 1.548-2.129 1.912-1.241.318-2.439.182-2.705-.865-.488-1.64 1.685-4.052 4.79-4.826zm9.18 2.185c-.045-.273.088-.41.398-.5 1.02-.228 1.552-.32 2.572-.547 1.065-.227 5.544-1.092 6.076 1.867.488 2.822-3.238 4.916-4.7 5.235.398 2.094.576 3.141.975 5.235.044.274-.089.41-.4.456-.62.136-.93.182-1.596.318-.31.091-.488 0-.532-.273-.931-3.915-1.863-7.83-2.794-11.79zm3.37.319c-.09 0-.178.046-.267.046.4 1.73.577 2.549.976 4.279.577-.273 2.306-1.184 1.996-3.141-.267-1.457-1.863-1.366-2.706-1.184zm10.51 4.871c-.444-1.457-.666-2.185-1.11-3.687a319.59 319.59 0 0 0-1.95 6.054c-.09.228-.178.365-.444.41h-1.506c-.267 0-.4-.045-.4-.182v-.182c1.065-3.46 1.641-5.19 2.838-8.604-.753.227-1.108.318-1.862.546-.355.046-.532 0-.621-.273a7.236 7.236 0 0 0-.177-.956c-.045-.273.044-.41.399-.455 1.818-.319 2.705-.501 4.567-.774.355-.046.577.045.621.273.532 1.866.798 2.777 1.33 4.643.488-1.957.754-2.959 1.287-4.916.088-.273.266-.41.62-.455.754-.092 1.11-.183 1.863-.274.355-.045.532.046.62.319a469.566 469.566 0 0 1 2.262 8.604c.045.273-.044.41-.354.546-.754.228-1.109.365-1.863.638-.089.045-.133.045-.177.045-.178.046-.31-.045-.355-.273-.532-2.458-.843-3.687-1.375-6.146a109.616 109.616 0 0 0-1.33 5.145c-.044.227-.177.364-.444.364-.044 0-1.33-.046-1.773-.046-.4 0-.577-.136-.666-.364zm17.65-9.423c.354 3.14.531 4.734.93 7.92.045.274-.088.41-.443.41-.665.046-.976.092-1.64.137-.356.046-.533-.045-.533-.319-.266-1.957-.4-2.959-.665-4.916-1.109 2.276-1.685 3.414-2.75 5.69-.133.273-.31.365-.665.41l-1.907.228c-.354.045-.488-.046-.576-.319-.621-3.323-.976-5.008-1.597-8.331-.044-.273.089-.41.444-.455.754-.091 1.153-.137 1.951-.228.355-.045.532.046.532.319.31 2.367.488 3.505.843 5.872 1.286-2.685 1.907-4.051 3.281-6.737a.545.545 0 0 1 .488-.319c.089 0 .133 0 1.774.182.31.046.488.182.532.456zm13.214 3.87c.665.045 1.02.045 1.685.09-.266-.956-.399-1.457-.665-2.413-.443.91-.62 1.412-1.02 2.322zm20.621 1.274c-.177-.091-.222-.182-.222-.319 0-.09.045-.136.133-.227.843-.911 1.286-1.366 2.173-2.277a52.101 52.101 0 0 0-1.95-2.458c-.09-.091-.134-.182-.134-.273 0-.137.089-.228.266-.319.355-.182.532-.273.931-.455.133-.046.222-.091.31-.091.134 0 .267.09.356.227.753 1.23 1.153 1.821 1.906 3.05.09.137.133.228.09.365a.418.418 0 0 1-.134.318c-.887 1.139-1.33 1.685-2.217 2.823-.089.137-.178.228-.355.228-.089 0-.177-.046-.31-.091-.31-.183-.488-.274-.843-.501zm4.346 1.957c-.089.137-.177.228-.31.228-.09 0-.178-.046-.31-.137-.4-.227-.577-.318-.977-.546-.177-.09-.266-.228-.266-.364 0-.091.045-.137.09-.228 1.108-1.411 1.64-2.14 2.793-3.55-.931-1.548-1.42-2.322-2.395-3.87-.044-.091-.088-.137-.044-.228 0-.136.089-.227.31-.318.444-.183.665-.274 1.065-.456.133-.045.221-.09.354-.09.133 0 .222.09.31.272.888 1.776 1.287 2.686 2.174 4.462.044.136.088.227.088.364a.418.418 0 0 1-.133.319c-1.153 1.639-1.685 2.458-2.75 4.142zM202.712 9.67s-2.971.216-4.807-1.35c-1.89-1.567-1.999-3.62-1.999-3.62l2.215-.216.054-1.945s1.836.162 3.618 2.215c1.783 2.053.919 4.916.919 4.916zm1.35-.972s-1.512-2.593-.918-4.916c.648-2.323 2.43-3.35 2.43-3.35l1.188 1.891 1.783-.81s.702 1.836-.432 4.267c-1.135 2.431-4.051 2.918-4.051 2.918zm.378 2.485s2.917.54 4.32 2.593c1.405 2.053.973 4.052.973 4.052l-2.214-.379-.595 1.837s-1.782-.702-2.916-3.133.432-4.97.432-4.97zm.918-1.135s1.458-2.593 3.78-3.295c2.377-.702 4.16.324 4.16.324l-1.026 1.999 1.566 1.134s-1.188 1.459-3.889 1.783c-2.7.324-4.59-1.945-4.59-1.945zm-2.106 1.027s-.432 2.917-2.377 4.376c-1.944 1.458-3.997 1.134-3.997 1.134l.27-2.215-1.89-.486s.648-1.783 3.025-3.025c2.376-1.243 4.969.216 4.969.216zm-1.913 151.965s1.35.142 1.28-.782c-.107-1.35-3.483-1.92-3.945.924-.427 2.666 2.38 4.017 3.944 4.124 1.884.142 5.26-1.671 5.438-5.297.248-4.159-2.808-7.607-7.037-8.815-3.98-1.138-7.143-.533-9.382 1.244-2.985 2.381-3.376 4.763-3.234 6.22.284 2.595 3.34 1.778 2.736-.71-.533-2.062-2.736-3.235-4.833-2.915-2.203.355-3.27 1.6-4.158 2.843-1.173 1.636-1.741 3.875-1.741 3.875s.462-3.91 2.38-5.9c1.92-1.991 4.23-2.667 6.433-1.742 3.34 1.386 3.519 4.087 2.808 5.545-.782 1.67-2.204 2.168-3.128 1.6-.675-.427-1.883-1.956-1.101-4.977.888-3.27 3.234-6.22 7.64-7.714 4.052-1.386 11.337-.497 14.607 4.408 2.523 3.768 2.38 8.14.249 11.481-2.417 3.733-6.682 4.373-9.454 2.95-3.447-1.777-4.762-4.336-3.98-6.93.995-3.342 4.656-4.16 6.361-2.489 1.35 1.315.889 3.164-.07 3.732-1.031.676-1.813-.675-1.813-.675zM40.29 156.354c-1.08.296-2.215-.414-2.536-1.586-.321-1.172.294-2.362 1.374-2.657 1.08-.296 2.216.414 2.537 1.586.32 1.172-.295 2.362-1.375 2.657zm-2.013-9.064c-.704.193-1.445-.27-1.654-1.034-.21-.764.192-1.54.897-1.733.704-.193 1.445.27 1.654 1.034.21.765-.192 1.54-.897 1.733zm6.824 3.215c-1.174.321-2.409-.45-2.757-1.724-.35-1.274.32-2.567 1.494-2.889 1.174-.321 2.408.45 2.757 1.725.349 1.273-.32 2.567-1.494 2.888z" id="Red" fill="#C33"/></g></g></g></g></svg>