<svg width="184" height="63" viewBox="0 0 184 63" xmlns="http://www.w3.org/2000/svg"><title>Logo</title><g id="Promo" fill="none" fill-rule="evenodd"><g id="Artboard" transform="translate(-72 -542)" fill-rule="nonzero"><g id="Wide" transform="translate(57 359)"><g id="Logo" transform="translate(15 183)"><path d="M52.287 17.322L50.7 19.834c-.807 1.318-1.613 1.716-1.613 1.716v.074s1.184.348 2.04 1.716l1.412 2.287c.353.572.756.672 1.613.672h.655v5.818h-4.662c-1.587 0-2.419-.248-3.15-1.566l-2.897-5.371c-.378-.672-1.059-.672-1.613-.672h-1.033v7.61h-2.57c-2.646 0-4.814-2.114-4.814-4.75v-9.175c0-.572-.352-.87-.932-.87h-1.288c.002.099.003.198.003.298 0 8.404-6.728 14.969-15.926 14.969C6.728 32.59 0 26.025 0 17.62 0 9.416 6.728 3 15.925 3c6.736 0 12.146 3.44 14.56 8.504h7.867c2.167 0 3.1.87 3.1 2.934v4.277h.907c.63 0 1.41-.05 1.789-.671l3.805-6.54h13.834c2.142 0 2.847.92 2.847 1.79v.348h.076s1.915-2.635 6.552-2.635c5.972 0 9.877 4.4 9.877 10.816 0 6.54-4.384 10.767-10.23 10.767-3.578 0-5.594-1.766-5.594-1.766h-.076s.076.721.076 1.766v7.534h-2.52c-2.646 0-4.813-2.114-4.813-4.75v-17.18c0-.572-.353-.87-.932-.87h-4.763zM15.925 26c4.435 0 8.014-3.605 8.014-8.38 0-4.574-3.579-8.006-8.014-8.006-4.434 0-8.013 3.456-8.013 8.007 0 4.774 3.579 8.38 8.013 8.38zm53.522.87c2.293 0 4.31-1.765 4.31-4.923 0-3.083-1.74-5.097-4.31-5.097-2.217 0-4.309 1.517-4.309 5.097 0 2.487 1.411 4.924 4.31 4.924zm24.72-15.863c6.955 0 12.448 4.376 12.448 10.84 0 6.441-5.493 10.743-12.398 10.743-6.904 0-12.397-4.277-12.397-10.742 0-6.465 5.493-10.841 12.347-10.841zm.05 15.839c2.697 0 4.99-1.89 4.99-4.973 0-3.133-2.293-5.098-4.99-5.098-2.696 0-4.989 1.965-4.989 5.098 0 3.083 2.293 4.973 4.99 4.973zm13.053-15.342h7.384v15.019h3.83v-15.02h7.383v15.02h4.032v-15.02h7.383v20.614H107.27V11.504zm32.38 0h4.284c2.167 0 3.1.87 3.1 2.934v4.277h.907c.63 0 1.411-.05 1.789-.671l3.805-6.54h8.013l-5.266 8.33c-.807 1.318-1.613 1.716-1.613 1.716v.074s1.184.348 2.04 1.716l1.412 2.287c.353.572.756.672 1.613.672h.655v5.818h-4.662c-1.587 0-2.419-.248-3.15-1.566l-2.897-5.371c-.378-.672-1.059-.672-1.613-.672h-1.033v7.61h-2.57c-2.646 0-4.813-2.114-4.813-4.75V11.504zm34.145 7.758h.302v-.348c0-1.965-.983-2.686-2.822-2.686-.933 0-1.915.2-1.915.995v.92h-6.83v-2.288c0-4.575 6.225-4.848 8.493-4.848 7.937 0 10.432 3.53 10.432 8.404v6.018c0 .571.353.87.932.87H184v5.818h-6.4c-2.142 0-2.898-1.243-2.898-2.163v-.348h-.076s-1.865 3.009-6.4 3.009c-4.133 0-7.207-2.512-7.207-6.242.05-6.54 9.424-7.111 12.776-7.111zm-3.352 8.18c2.092 0 3.755-1.964 3.755-3.655v-.572h-.807c-2.343 0-5.04.672-5.04 2.412 0 .92.731 1.816 2.092 1.816zM37.571 39.9h-3.503v-6.017h19.05c2.168 0 3.1.87 3.1 2.934v5.52h-6.829V40.77c0-.571-.353-.87-.932-.87H45.18v6.018h8.694v6.017H45.18v10.617h-2.822c-2.646 0-4.813-2.113-4.813-4.749V39.9h.025zm28.626 1.517c6.476 0 10.13 4.252 10.13 9.97 0 .722-.076 1.443-.177 2.164H62.29c.555 2.512 2.773 3.68 5.116 3.68 2.167 0 4.259-.97 6.048-2.088l2.721 4.848C73.781 61.906 70.178 63 66.801 63c-7.836 0-12.07-5.321-12.07-10.816.05-6.043 4.385-10.767 11.466-10.767zm2.847 8.156c0-1.691-1.159-3.084-3.024-3.084-2.142 0-3.15 1.443-3.528 3.084h6.552zm10.583 5.221s3.075 2.96 6.426 2.96c1.058 0 1.663-.274 1.663-.995 0-1.716-10.986-2.288-10.986-8.977 0-4.45 4.384-6.365 9.046-6.365 3.578 0 8.517.97 8.517 4.675v2.436h-6.4v-.994c0-.572-.933-.97-1.991-.97-1.033 0-1.966.323-1.966.97 0 2.113 11.113 1.84 11.113 8.777 0 4.178-3.88 6.689-8.996 6.689-6.3 0-9.727-3.755-9.727-3.755l3.301-4.45zm17.841-7.509h-2.822V41.89h3.024v-5.57h7.156v5.57h4.611v5.396h-4.61v6.689c0 2.312 2.519 2.636 3.93 2.636.605 0 .983-.05.983-.05v6.017s-.807.125-2.016.125c-3.503 0-10.281-.87-10.281-7.808v-7.609h.025z" id="logo" fill="#FFF"/><path d="M138.486 5.26c-.462 2.295 1.334 4.738 1.334 4.738l.025-.025c-.025-.125-.154-1.371.205-2.867.59-2.867 2.308-3.44 2.616-3.516v-.15a3.838 3.838 0 0 0-1.359-.249c-1.334 0-2.539.748-2.82 2.07zm-4.693 28.025c-3.154 0-5.95 1.471-7.565 3.715h3.719c.948-1.197 2.308-1.995 3.923-1.995 2.129 0 2.872.973 2.924 1.995h3.256c-.897-2.344-3.256-3.715-6.257-3.715zm-7.026.673c-.052-.15-.129-1.446 1.18-2.418.41-.324.897-.499 1.179-.599.154-.05.256-.074.256-.074v-.025s-.948-.225-1.872.074c-.282.075-.538.225-.795.4-.769.623-.795 1.969 0 2.642h.052zm.59-3.241c1.077-.35 1.923 0 1.948 0l.026-.025s-1.744-1.272-3.616-.673c-.051.025-.102.025-.154.05-1.359.498-2 2.343-1.23 3.64l.128.025c0-.25.538-2.194 2.77-2.967.076-.025.102-.05.127-.05zm12.155-20.62l.051-.05c-.077-.049-1.333-1.495-1.641-3.39-.718-4.239 2.026-6.258 2.462-6.482l-.154-.15c-.128 0-.257-.025-.385-.025-2.692 0-5.052 1.845-4.82 4.388.358 3.69 4.487 5.71 4.487 5.71zm6.975 25.781c-1.18-2.094-2.128-2.643-3.59-4.089-2.924-2.867-6.078-5.76-6.078-10.272 0-2.917 1.59-5.161 1.59-7.829 0-3.166-2.026-4.812-4.513-4.812-3.052 0-5.257 2.12-5.257 4.513 0 2.368 1.41 3.39 3 3.39 1.462 0 2.36-.972 2.82-2.193-1-.1-1.897-.773-1.897-1.796 0-.822.641-1.944 2.18-1.944 1.513 0 2.641 1.122 2.641 2.767 0 3.615-4.846 4.538-4.846 8.727 0 1.82 1.41 3.814 3.795 5.485l-.051.05c-2.257-1.172-5.232-2.32-7.283-5.41-2.078-3.267-1.898-5.586-1.898-5.586-1.795.25-2.847 1.023-2.975 2.718 0 1.247.795 2.394 1.718 2.743 0 0-1.82.448-1.41 1.92.18.623.641.872 1.154.872.128 0 .282-.025.41-.05-.974.723-.974 2.095-.051 2.693a2.3 2.3 0 0 0 1.205.324c1.257 0 2.54-.773 2.54-.773-1.54 1.347-1.104 3.167.717 3.167.18 0 .36-.025.564-.05 0 0 2.513-.723 4.283-.723 4.513 0 8.386 2.992 9.54 7.23H147a9.818 9.818 0 0 0-.513-1.072z" id="smell" fill="#C93"/><path d="M133.99 47.693c6.178 0 9.684-5.273 9.684-8.93v-.199h-4.666c-.1 2.86-1.866 4.577-4.665 4.577-1.816 0-3.884-1.07-3.884-3.681 0-.324.05-.622.152-.896h-3.178a7.896 7.896 0 0 0-.328 2.164c0 4.452 3.279 6.965 6.885 6.965zm-5.397 2.562c.53 2.785 1.715 3.68 4.01 3.68 6.607 0 11.399-7.163 12.256-11.963.101-.722.177-1.468.177-2.19 0-.447-.026-.845-.076-1.193h-.252c-.126 6.84-4.817 11.467-11.323 11.467-4.968 0-9.836-3.209-9.836-9.378 0-.721.101-1.417.278-2.089h-10.844a.962.962 0 0 0-.984.97v5.82c0 .548.429.97.984.97h2.522c2.118 3.906 5.573 7.935 11.247 10.646.252.125.353.398.227.647l-1.135 2.463c-.201.422.126.895.58.895h13.038c-.655-1.194-1.034-2.637-1.034-4.303 0-1.219.026-1.89.328-3.01-1.866 1.12-5.8 3.607-9.482 3.607-1.614 0-4.413-.796-4.413-3.731.025-1.89 1.816-3.11 3.732-3.308zm6.28 6.666h.1c.984.149 1.715.895 1.665 1.865-.076 1.095-.782 1.617-1.69 1.617h-.126c-1.11 0-1.74-.746-1.715-1.79a1.75 1.75 0 0 1 1.766-1.692zm25.168-18.357h-13.795c.101.547.126.97.126 1.194 0 7.288-4.716 10.77-4.716 16.292 0 1.84.379 3.557 1.06 4.925h3.858c.454 0 .782-.472.58-.895l-1.135-2.463c-.1-.249 0-.522.227-.647 5.7-2.71 9.154-6.715 11.248-10.645h2.521a.962.962 0 0 0 .984-.97v-5.82c.025-.523-.429-.97-.958-.97zm-8.902 13.656s-.253.025-.656.025c-1.085 0-3.203-.224-4.413-1.89-1.287-1.717-.43-4.03 1.538-5.25l.176.05c-.176.349-1.387 2.563.202 4.702 1.185 1.567 3.153 2.263 3.203 2.288v.075h-.05zm-.707-4.403c-.454 2.86.63 4.03.757 4.204l-.025.05s-3.001-1.02-2.926-4.627c.076-2.612 2.648-4.726 5.523-4.726h.328l.151.174c-.454.249-3.278 1.592-3.808 4.925zm9.23-2.512s-.68.174-1.487.174c-.883 0-2.22-.299-2.22-1.418 0-.597.353-1.219 1.16-1.293l-.075-.224c-.227.15-.505.273-.908.273-.101 0-.177 0-.278-.024-.907-.15-1.134-1.07-.907-1.816.277-.97.907-1.592 1.916-2.09 0 0 .731.946.731 2.115.303-.15.58-.224.883-.224.731 0 1.362.423 1.564.622 0 .298-.278 1.641-1.387 2.04.68.547.933 1.517 1.008 1.865zM102.14 18.989l.782-.523a2.647 2.647 0 0 1 3 0c6.961 4.677 13.493 12.288 16.443 17.636h-4.54c-1.689-2.438-9.128-8.806-15.56-12.71a2.634 2.634 0 0 1-1.26-2.165c-.05-.895.378-1.716 1.135-2.238z" id="Bowl" fill="#C33"/></g></g></g></g></svg>