<svg width="205" height="238" viewBox="0 0 205 238" xmlns="http://www.w3.org/2000/svg"><title>Ornament</title><g id="Promo" fill="none" fill-rule="evenodd"><g id="Artboard" transform="translate(-62 -366)"><g id="Wide" transform="translate(57 359)"><g id="Ornament" transform="translate(5 7)"><path d="M32.111 38.766c1.237.487 2.7.531 4.289.134 1.319-.352 2.483-1.012 3.085-1.71.937-3.614-.034-6.734-.085-6.99-.1-.4.1-.7.4-.9.4-.1.7.1.9.4.646 1.937.94 4.838.099 7.841l.101.059c-.063.115-.137.23-.22.345C39.472 41.793 36.357 45.744 29.7 48c-7.4 2.5-12.7.5-15.7-1.7-6.6-4.8-8-12-7.6-15.9.2-5.2 2.9-9.3 6.1-11.5.8-.5 1.7-1 2.6-1.3 2-.7 4.1-.7 5.7.2 1.5.8 2.5 2.1 2.9 3.7.4 1.3 0 2.6-1.1 3.4-.9.7-2.1.8-2.9.4-.7-.4-1.2-1.1-1.2-1.9-.1-.8.2-1.6.8-2.2.3-.3.7-.2 1 0 .3.3.2.7 0 1-.3.3-.4.6-.4 1 0 .3.2.6.6.9.3.2.9.1 1.4-.3.3-.3.9-.8.6-1.9-.3-1.3-1.1-2.3-2.2-2.9-1.3-.7-2.9-.7-4.6-.1-4.3 1.5-6.1 5.9-6.6 11.9-.3 3.5 1.6 9.7 6.7 13.7 3.8 2.923 7.696 4.138 12.982 2.44-2.324-.416-4.738-1.625-6.282-3.04a13 13 0 0 1-.67-.69 4.202 4.202 0 0 1-3.55-7.49 4.2 4.2 0 0 1 4.858 6.852c.116.11.236.22.362.328 2.1 1.9 6.1 3.5 8.5 2.6l.042.136c3.418-1.682 5.402-3.848 6.52-6.023a9.04 9.04 0 0 1-1.862.687c-2.3.6-4.6.3-6.3-.8a16.507 16.507 0 0 1-.7-.483 4.2 4.2 0 1 1 2.41-.25l.001-.001zm-10.114 192.19a3.5 3.5 0 1 1-3.204-6.224 3.5 3.5 0 0 1 3.204 6.224zm11.743-6.891a2.3 2.3 0 1 1-2.105-4.09 2.3 2.3 0 0 1 2.105 4.09zm-.51 13.13a3.8 3.8 0 1 1-3.478-6.758 3.8 3.8 0 0 1 3.478 6.757zM11.3 33.4s.1-3.2 1.7-4.7c1.7-1.6 5.2-2.9 8.3-1 3.1 1.9-.1 4-1.4 3.1-1.4-1-3.6-1.9-5.3-1.2-2.1.9-3.3 3.8-3.3 3.8zm30 7.1s5.6 2.1 4.1 8.5-4.3 5.2-6.4 8.1C36.9 60 37.7 63 37.7 63s-2.5-.4-3.6-5.1c-1.9-7.9 7.2-17.4 7.2-17.4zm-9.5 9.2s-1.8 5.1-6.3 5.7c-4.5.6-5.3-.5-7.7.9-2.4 1.3-3.4 2.8-3.4 2.8s-1.8-1.2.4-4.7 5.6-4.4 9.6-4.1c4 .3 7.4-.6 7.4-.6zm-15.8-1s-3.9 2.8-6.4 2c-2.5-.8-3.9-4.6-.5-3.5 3.4 1.1 6.9 1.5 6.9 1.5zm-2.1-31.8s1.4-5.5 3.2-7.8c1.8-2.3 3.5-3.3 3.5-3.3s0 5-1.4 7.7-5.3 3.4-5.3 3.4zm-2.4 1.5s-1.2-1.3-2.5-3.9c-1.3-2.6-.2-3.9-.2-8.1C8.8 2.3 5.7.7 5.7.7s3.3.5 5.5 2.4c2.3 2 2.6 3.3 3.2 7.6.6 4.3-2.9 7.7-2.9 7.7zm19.445 88.65a5.3 5.3 0 1 1-7.817-7.159 5.3 5.3 0 0 1 7.817 7.16zm5.07 9.187a3.9 3.9 0 1 1-5.752-5.268 3.9 3.9 0 0 1 5.752 5.268zm7.996 7.822a3.5 3.5 0 1 1-5.163-4.728 3.5 3.5 0 0 1 5.163 4.728zM28.493 94.111a3.1 3.1 0 1 1-4.572-4.188 3.1 3.1 0 0 1 4.572 4.188zm1.509-8.788a2.1 2.1 0 1 1-3.098-2.837 2.1 2.1 0 0 1 3.098 2.837zM146 39.1s-3.4-5.4-.1-10.4c3.4-5 8.6-3.2 8.6-3.2s-3.7 2.9-5.4 6.2c-1.7 3.3-3.1 7.4-3.1 7.4zm7.8 0s6.4-16.2 15.9-17.9c9.5-1.7 13.2 3.5 12.6 7.4-.6 3.9-2.9 6.1-5.8 5.9-2.1-.1-3.6-1.8-3.6-1.8s3.5.6 3.9-2.8c.4-2.7-2.3-6.3-10.4-2.7-6.4 3-12.6 11.9-12.6 11.9zm13 8.1s4.9-10.1 18-10.1c13.1-.1 22.2 10 19.6 20.6-2.3 9-9.6 8-12.4 6.4-3.7-2.1-1.7-6.2-1.7-6.2s3.6 3.5 5.2-1c1.7-4.5-.8-12.7-10.6-14.9-13.6-3.2-18.1 5.2-18.1 5.2zM190 169.3s-3.2-.1-5-1.9c-1.8-1.8-1.7-4-1.7-4h2.4l.3-2s2 .4 3.6 2.7c1.6 2.3.4 5.2.4 5.2zm1.5-.9s-1.3-2.8-.4-5.2c.9-2.4 2.9-3.3 2.9-3.3l1 2.1 1.9-.6s.5 1.9-.9 4.4c-1.4 2.4-4.5 2.6-4.5 2.6zm.2 2.7s3 .9 4.2 3.1c1.3 2.2.6 4.3.6 4.3l-2.3-.6-.8 1.9s-1.8-.9-2.7-3.6c-.9-2.6 1-5.1 1-5.1zm1-1.1s1.8-2.6 4.3-3.1 4.3.8 4.3.8l-1.3 2 1.5 1.3s-1.3 1.4-4.2 1.5c-2.9.1-4.6-2.5-4.6-2.5zm-2.3.8s-.8 3.1-3 4.3c-2.2 1.4-4.3.8-4.3.8l.5-2.3-1.9-.7s.8-1.9 3.5-2.9 5.2.8 5.2.8zM19.8 100.6s-2.4-5.2-8.8-6.7c-3.2-.7-6 .2-6 2.5s3.2 1.7 3.2 1.7-.3 1.8-2.3 2.5c-2 .7-5-.9-4.6-4.9.5-4 5-6.9 9.5-5.4 7.1 2.4 9 10.3 9 10.3zM0 73.8s10.5-3.6 17.5 4.2c7 7.7 1.8 15.8 1.8 15.8s-.3-6.9-6.9-13.3C6 74.4 0 73.8 0 73.8z" id="Red" fill="#C33" fill-rule="nonzero"/><path d="M176.4 126.2s0 1.6 1 1.4c1.6-.2 1.9-4.2-1.4-4.5-3.1-.3-4.5 3.1-4.5 4.9 0 2.2 2.4 5.9 6.6 5.9 4.8-.1 8.6-3.9 9.6-8.9 1-4.7 0-8.3-2.2-10.8-3-3.3-5.8-3.5-7.5-3.2-3 .6-1.8 4 1 3.1 2.4-.8 3.5-3.4 3-5.8-.6-2.5-2.1-3.6-3.7-4.6-2-1.2-4.6-1.7-4.6-1.7s4.6.2 7 2.3c2.4 2 3.5 4.7 2.6 7.3-1.3 4-4.4 4.4-6.2 3.7-2-.8-2.7-2.4-2.1-3.5.4-.8 2.1-2.4 5.7-1.7 3.9.7 7.5 3.2 9.6 8.2 1.9 4.6 1.5 13.1-3.9 17.3-4.1 3.2-9.2 3.5-13.3 1.3-4.5-2.5-5.6-7.4-4.2-10.7 1.8-4.1 4.6-5.9 7.7-5.2 4 .9 5.2 5 3.4 7.2-1.4 1.7-3.6 1.3-4.3.2-.8-1.2.7-2.2.7-2.2zm12.6-18.3c-2-.6-1-3.6-1-3.6s-3 .8-3-1.9 2.7-2.6 2.7-2.6-1.7-2 .6-3.5 3.6 1.9 3.6 1.9 2.1-1.4 3.8.1c1.7 1.5-1 3.6-1 3.6s2.1 1.7 1.1 3.7-3.9-.1-3.9-.1-.5 3-2.9 2.4zm.1-4.3v.4c.2 0 .3 0 .4-.2.1-.1.1-.2 0-.3l.7-1.2c.1.1.2.2.3.2.1.1.1.1.2.1l.1 1.1c-.1.1-.2.1-.2.2 0 .2 0 .4.2.4s.3 0 .4-.2c0-.2 0-.3-.2-.4h-.1l-.1-1.1c.2 0 .3 0 .4-.1l.6.9c0 .2 0 .3.2.4.2 0 .3 0 .4-.2 0-.2 0-.3-.2-.4-.1-.1-.2 0-.3 0l-.6-.8c.1-.1.2-.2.2-.3v-.1l.8.2c0 .1.1.3.2.3.2 0 .3 0 .4-.2 0-.2 0-.3-.2-.4-.2-.1-.3 0-.4.1l-.9-.2v-.3l1.1-.4s0 .1.1.1c.2 0 .3 0 .4-.2 0-.2 0-.4-.2-.4s-.3 0-.4.2v.2l-1.1.4-.2-.2.4-1c.1 0 .2-.1.3-.2 0-.2 0-.3-.2-.4-.2 0-.3 0-.4.2-.1.2 0 .3.1.4l-.4 1h-.1c-.1-.1-.3-.1-.5 0l-.2-1.2c.1-.1.2-.1.2-.2 0-.2 0-.3-.2-.4-.2 0-.3 0-.4.2 0 .2 0 .3.2.4h.1l.3 1.2-.2.2-.9-.9c0-.2-.1-.3-.2-.4-.2 0-.3 0-.4.2 0 .2 0 .3.2.4.1 0 .2 0 .3-.1l.9.9v.3l-1-.4c-.1-.1-.1-.2-.2-.2-.2 0-.3 0-.4.2 0 .2 0 .3.2.4.2 0 .3 0 .4-.2l1 .3v.1l-.9.2s0-.1-.1-.1c-.2 0-.3 0-.4.2 0 .2 0 .3.2.4.2 0 .3 0 .4-.2v-.2l.9-.2.1.1-.7 1.2c-.2 0-.3 0-.4.2zM168 58.7c-.4 0-1.9-.4-3.6-1.9-1.9-1.4-2.6-5-2.6-5s2.7-.5 4.8 1.1c1.6 1.2 1.6 3.9 1.5 5.1 2.1 2.5 7.5 9.2 9.8 14 3 6.3 5.3 15.9 2.7 24.2-.4 1.1-.7 2-1 2.9l-.5-.1c.3-.9.7-1.8 1-2.9 2.6-8.1.4-17.6-2.6-23.8-2.2-4.6-7.3-10.9-9.5-13.6zm15.8 14c-.9 1.7-3.9 1.7-3.9 1.7s0-1.2.8-2.8c.8-1.5 3.2-2.5 3.2-2.5s.7 1.9-.1 3.6zm-6.2-4.7s-.4-1.1-.3-2.9c.2-1.8 2.2-3.5 2.2-3.5s1.3 1.5 1.1 3.4c-.2 1.9-3 3-3 3zm8.8 12.3c-1.4 1.3-4.2.2-4.2.2s.5-1.1 1.8-2.3c1.3-1.1 3.9-1.1 3.9-1.1s-.1 1.9-1.5 3.2zm-1.5 5.4c1.4-1.1 4-1.1 4-1.1s-.1 1.9-1.5 3.2c-1.4 1.3-4.3.2-4.3.2s.5-1.1 1.8-2.3zm-11.4-23.5s-.6-1.1-.8-2.8c-.1-1.7 1.5-3.8 1.5-3.8s1.5 1.2 1.7 3.1c.2 1.9-2.4 3.5-2.4 3.5zm3.5 25.6c-1.7-.3-3.4-2.4-3.4-2.4s1.6-1.2 3.5-.9c1.9.3 2.8 3.2 2.8 3.2s-1.2.4-2.9.1zm-.4-5.6c-1.8-.1-3.6-2.1-3.6-2.1s1.5-1.3 3.4-1.2c1.9.1 3.1 2.9 3.1 2.9s-1.1.5-2.9.4zm-8.7-20.8c1.9.1 3.2 2.8 3.2 2.8s-1.1.5-2.9.4c-1.7 0-3.6-1.9-3.6-1.9s1.4-1.4 3.3-1.3zm9.4 13.8s-1 .8-2.7 1c-1.8.3-4-1.1-4-1.1s1.1-1.7 3-2c1.8-.3 3.7 2.1 3.7 2.1zm-2.9-6.8s-.9 1.8-2.7 2.4c-1.8.5-4-1.6-4-1.6s.9-.9 2.6-1.4c1.7-.5 4.1.6 4.1.6zM5.2 168.2c-.1-.1-.1-.2-.1-.3-.2-.5.1-1 .5-1.2.2-.1 16.3-6 20.8-13.9 4.4-7.7 2.6-19.4-3.7-24.5-2.7-2.2-5.6-3.2-8.5-2.9-2.5.3-4.9 1.6-6.6 3.8-1.4 1.8-2 3.8-1.8 5.7.2 1.8 1.2 3.4 2.7 4.6 1.5 1.1 3.1 1.6 4.6 1.3 1.3-.3 2.4-1.1 3-2.2 1.3-2.4.5-4.2-.4-4.8-1-.7-2-.7-2.9 0-.5.4-.8.9-.9 1.5 0 .3 0 .7.3 1 .3.4.8.6 1.3.5.4-.1.6-.4.6-.5.2-.5.7-.7 1.2-.5.5.2.7.7.5 1.2-.3.8-1.1 1.4-2 1.6-1.1.2-2.3-.3-3-1.2-.5-.7-.8-1.5-.7-2.4.1-1 .7-2 1.6-2.7 1.5-1.2 3.3-1.2 5-.1 1.8 1.2 2.7 4 1 7.1-.9 1.6-2.4 2.7-4.2 3.1-2.1.4-4.2-.1-6.1-1.6-1.9-1.5-3.1-3.5-3.3-5.8-.3-2.4.4-4.9 2.2-7.1 2-2.5 4.7-4.1 7.8-4.4 3.3-.4 6.7.8 9.8 3.3 7 5.8 9 18.3 4.1 26.8-4.8 8.5-21.1 14.5-21.7 14.7-.5.3-.9.2-1.1-.1zm13.1-2.7s5.6-7 11-6.5 6.4 3.1 8.5 1.7c2.1-1.4 1.8-3 1-1.9-.5.7-1.7-2.1.4-2.3 2.7-.3 2.9 3.3.6 5.9-2.5 2.7-5.4 5-10.2 5.4-4.8.4-11.3-2.3-11.3-2.3zm12.4-10.2s1.9-7.1 6.1-8.5c4.2-1.4 5.8.2 6.9-1.5 1.1-1.8.4-2.9.1-1.7-.2.7-1.9-1-.5-1.9 1.9-1.1 3.3 1.5 2.4 4.2-.9 2.9-2.4 5.5-5.8 7.4-3.4 1.9-9.2 2-9.2 2zm4.3-11.2s-2.9-4.9-1.5-8.1c1.5-3.1 3.3-3.2 2.9-4.7-.4-1.6-1.4-1.8-.9-1 .3.5-1.6.5-1.3-.8.4-1.7 2.6-1 3.7 1 1.1 2.1 1.8 4.4 1 7.3-.8 2.9-3.9 6.3-3.9 6.3zm-12.9 12.3s-.2-2.5-.7-4.6c-.5-2.2-2.7-3.9-2.6-7 .1-3.1 2.9-6.3 2.9-6.3s-.1 2 .6 3.8c.7 1.8 1.9 1.7 3 6.3 1 4.5-3.2 7.8-3.2 7.8zm-7.7 5.7s.1-2.1-.1-3.9c-.2-1.8-1.7-3.3-1.3-5.8.4-2.5 3-4.7 3-4.7s-.3 1.6.1 3.1c.3 1.5 1.4 1.6 1.7 5.4.3 3.8-3.4 5.9-3.4 5.9zM191.271 13.238a3.6 3.6 0 1 1-1.153-7.107 3.6 3.6 0 0 1 1.153 7.107zm-8.145-1.895a2.7 2.7 0 1 1-.865-5.33 2.7 2.7 0 0 1 .865 5.33zm-7.95.708a2.4 2.4 0 1 1-.768-4.739 2.4 2.4 0 0 1 .768 4.739zm-5.933 2.098a2.1 2.1 0 1 1-.673-4.146 2.1 2.1 0 0 1 .673 4.146zm28.296 2.104a2.1 2.1 0 1 1-.673-4.146 2.1 2.1 0 0 1 .673 4.146zm-32.744.907a1.8 1.8 0 1 1-.577-3.553 1.8 1.8 0 0 1 .577 3.553zm-3.973 3.9a1.4 1.4 0 1 1-.448-2.763 1.4 1.4 0 0 1 .448 2.764zm40.096-.905a1.4 1.4 0 1 1-.449-2.764 1.4 1.4 0 0 1 .449 2.764z" id="Yellow" fill="#F96" fill-rule="nonzero"/><path d="M20.51 68.26a2.8 2.8 0 1 1-3.748-4.16 2.8 2.8 0 0 1 3.748 4.16zm5.13-3.22a2.1 2.1 0 1 1-2.81-3.122 2.1 2.1 0 0 1 2.81 3.121zm4.503-4.159a1.9 1.9 0 1 1-2.543-2.824 1.9 1.9 0 0 1 2.543 2.824zm-16.456 6.28a1.6 1.6 0 1 1-2.141-2.378 1.6 1.6 0 0 1 2.141 2.377zm-4.545-1.933a1.1 1.1 0 1 1-1.472-1.634 1.1 1.1 0 0 1 1.472 1.634zM43.1 13.7s-3.1.1-5-1.7-1.9-4-1.9-4l2.4-.1.2-2s2 .3 3.7 2.6c1.7 2.3.6 5.2.6 5.2zm1.5-.9s-1.4-2.7-.6-5.2c.8-2.5 2.8-3.4 2.8-3.4l1.1 2.1 1.9-.7s.5 1.9-.8 4.4c-1.3 2.5-4.4 2.8-4.4 2.8zm.3 2.6s3 .8 4.3 3c1.3 2.2.7 4.3.7 4.3l-2.3-.5-.7 1.9s-1.8-.8-2.8-3.5c-1-2.7.8-5.2.8-5.2zm1-1.1s1.7-2.6 4.2-3.1c2.5-.6 4.3.6 4.3.6l-1.2 2 1.6 1.3s-1.3 1.5-4.2 1.6c-2.9.1-4.7-2.4-4.7-2.4zm-2.3.9s-.7 3.1-2.8 4.4c-2.2 1.4-4.3.9-4.3.9l.4-2.3-1.9-.6s.8-1.9 3.4-3c2.6-1.1 5.2.6 5.2.6zm94.351 13.978a2.5 2.5 0 1 1-.24-4.995 2.5 2.5 0 0 1 .24 4.995zm-.84-10.7a1.7 1.7 0 1 1-.162-3.397 1.7 1.7 0 0 1 .163 3.397zm-7.046 6.202a2.8 2.8 0 1 1-.268-5.594 2.8 2.8 0 0 1 .268 5.594zm63.682 112.378a2.7 2.7 0 1 1-.196-5.396 2.7 2.7 0 0 1 .196 5.396zm1.475-6.5a2 2 0 1 1-.145-3.997 2 2 0 0 1 .145 3.997zm-.107-6.097a1.8 1.8 0 1 1-.13-3.597 1.8 1.8 0 0 1 .13 3.597zm-1.105-4.701a1.6 1.6 0 1 1-.116-3.198 1.6 1.6 0 0 1 .116 3.198zm-4.201 20.6a1.6 1.6 0 1 1-.116-3.198 1.6 1.6 0 0 1 .116 3.198zm2.187-24.5a1.3 1.3 0 1 1-.095-2.599 1.3 1.3 0 0 1 .095 2.598zm-2.904-3.398a1.1 1.1 0 1 1-.08-2.199 1.1 1.1 0 0 1 .08 2.199zm-3.002 29.497a1.1 1.1 0 1 1-.08-2.199 1.1 1.1 0 0 1 .08 2.199z" id="White" fill="#FFF"/></g></g></g></g></svg>