<svg xmlns="http://www.w3.org/2000/svg" width="124" height="124" viewBox="0 0 124 124"><g fill="none"><path fill="#C33" d="M76.8 78.1c-3.3-.7-6.8-1-10.2-1.1h-.9c-9.1 0-17.2 1.8-24.6 5.4-6.5 3-12.8 7.8-19.1 14.7-.9 1-1.8 2-2.7 3.1C33.2 116.6 47.7 124 66.1 124c13.1 0 25.9-4.6 36-12.8-1.8-2.8-3.8-5.4-6.2-7.7-8.4 6.9-19 10.6-29.8 10.6-12.1 0-24.1-4.8-32.9-13.1l-.8-.7.8-.7C41.9 91.5 53.5 87 65.8 87c4 0 7.9.5 11.6 1.4 14.2 3.6 26 13.7 31.8 27.2 2.6-2.4 5.1-4.9 7.3-7.7-8.1-15.3-22.9-26.4-39.7-29.8zm-35.5 22.4c0 1.9 1.6 3.5 3.5 3.5s3.5-1.6 3.5-3.5-1.6-3.5-3.5-3.5-3.5 1.6-3.5 3.5zm75.6-8c-2.9-.6-5.5-1.2-8.1-1.9 2 2 3.9 4.1 5.6 6.4.9-1.5 1.7-2.9 2.5-4.5z"/><path fill="#99C" d="M115.9 36.1C109.3 24.7 99 16 86.8 11.3c-1.5 2.9-2.7 6-3.6 9.2 10.2 3.8 18.7 11.1 24.1 20.5 6 10.5 7.9 23.3 5 35l-.2 1-1-.3c-11.4-3.5-21-11.2-27.2-21.9-2-3.4-3.5-7-4.6-10.8-4-14.1-1.1-29.4 7.7-41.1C83.6 1.8 80.2 1 76.7.4c-9.3 14.5-11.6 32.8-6 49.1 1.1 3.2 2.5 6.4 4.2 9.4l.1.1.1.1.1.1.1.1.1.2.1.1.1.2c4.6 7.9 10.1 14 17 18.6 5.9 4.1 13.2 7.1 22.2 9.2 1.3.3 2.6.5 3.9.8h.1c7.2-20.1 6.3-36.3-2.9-52.3zm-10.6 33.4c.9.2 1.8.1 2.6-.3.8-.5 1.4-1.2 1.6-2.1.2-.9.1-1.8-.3-2.6-.6-1.1-1.8-1.7-3-1.7-.6 0-1.2.1-1.7.5-1.7 1-2.2 3.1-1.3 4.8.4.6 1.2 1.2 2.1 1.4zM63.2 7.7c1 2.7 1.7 5.4 2.4 8 .7-2.7 1.6-5.4 2.7-8-1.7-.1-3.4-.1-5.1 0z"/><path fill="#FFF" d="M16.3 96.8c1.9-2.2 3.8-4.2 5.7-6-2.7.7-5.5 1.3-8.3 1.6.8 1.5 1.7 2.9 2.6 4.4zm43.5-84.7c-.4-1.3-.8-2.5-1.3-3.8-21.2 3.8-34.8 12.7-44 28.6-6.6 11.4-9 24.7-6.9 37.6 3.3-.1 6.6-.6 9.8-1.5-1.7-10.7.3-21.7 5.7-31.1 6-10.5 16.2-18.5 27.8-21.9l1-.3.2 1c2.7 11.6.8 23.8-5.4 34.5-2 3.4-4.4 6.6-7.1 9.3C29.4 75 14.7 80.2.1 78.4c.7 3.5 1.7 6.9 3 10.2 17.2.8 34.2-6.4 45.5-19.3 2.2-2.6 4.3-5.4 6.1-8.3l.1-.1.1-.1.1-.2.1-.1.1-.2.1-.2c4.6-7.9 7.1-15.8 7.6-24 .7-7.3-.3-15.1-3.1-24zM43.6 33.4c1.7 1 3.8.4 4.8-1.3 1-1.7.4-3.8-1.3-4.8-.5-.3-1.1-.5-1.7-.5-.3 0-.6 0-.9.1-.9.2-1.7.8-2.1 1.6-.5.8-.6 1.7-.3 2.6.3.9.7 1.8 1.5 2.3z"/></g></svg>