<svg width="216" height="216" viewBox="0 0 216 216" xmlns="http://www.w3.org/2000/svg"><g id="Export+" stroke="none" stroke-width="1" fill="none" fill-rule="evenodd"><g id="Services-PR" transform="translate(0 -740)"><g id="diagram" transform="translate(0 740)"><path d="M58.611 11.929a108.487 108.487 0 00-37.646 32.114l27.943 3.292 12.065 23.4A60.24 60.24 0 0181.67 54.07l.173-26.22L58.61 11.929zm2.043-1.025C74.95 3.92 91.017 0 108 0c.251 0 .502 0 .753.003l13.201 24.85-12.309 23.17A61.135 61.135 0 00108 48a59.8 59.8 0 00-24.315 5.131l.195-26.311-23.226-15.916zM19.629 45.9A107.404 107.404 0 001.202 91.833l26.28-10.077 21.55 15.104A59.703 59.703 0 0159.624 72.5l-12.04-23.307L19.63 45.9zM.887 94.096A109.033 109.033 0 000 108c0 12.378 2.082 24.269 5.916 35.343l18.594-21.15 26.097 3.354A59.993 59.993 0 0148 108c0-3.04.226-6.028.663-8.947l-21.49-15.036L.887 94.096zm34.847 94.165c12.251 11.038 27.042 19.31 43.39 23.835l-6.851-27.313 17.58-19.576a59.952 59.952 0 01-22.904-13.448l-24.588 9.154-6.627 27.348zm45.598 24.421A108.212 108.212 0 00108 216c7.828 0 15.462-.833 22.817-2.415L112.06 192.59l6.468-25.51A60.37 60.37 0 01108 168a60.06 60.06 0 01-16.016-2.161L74.48 185.36l6.852 27.321zm51.716.398c16.535-3.926 31.598-11.655 44.213-22.21l-26.346-9.861-6.134-25.601a59.75 59.75 0 01-24.075 11.244l-6.424 25.424 18.766 21.004zM179 189.385c12.492-10.908 22.45-24.645 28.875-40.212l-27.94 3.52-17.323-19.806a60.2 60.2 0 01-16.1 21.125l6.133 25.508L179 189.385zm29.725-42.335C213.423 134.94 216 121.77 216 108c0-3.357-.153-6.678-.453-9.957l-23.082 16.09-24.557-9.49A61.25 61.25 0 01168 108c0 8.09-1.601 15.807-4.504 22.85l17.277 19.721 27.951-3.52zm6.59-51.283a107.351 107.351 0 00-16.718-46.581l-12.96 24.98-26.146 3.014a59.628 59.628 0 018.255 25.25l24.477 9.434 23.093-16.097zM197.33 47.283a108.54 108.54 0 00-36.456-33.477l.137 28.15-21.749 14.822a60.315 60.315 0 0119.05 18.517l26.054-3.024 12.964-24.988zm-38.462-34.577C144.548 5.046 128.3.519 111.038.042l13.197 24.841-12.37 23.24a59.643 59.643 0 0125.481 7.531l21.66-14.786-.138-28.162z" id="Combined-Shape" fill="#636"/><text id="1" font-family="HelveticaNeue, Helvetica Neue" font-size="16" font-weight="normal" fill="#FFF"><tspan x="101.052" y="31">1</tspan></text><text id="2" font-family="HelveticaNeue, Helvetica Neue" font-size="16" font-weight="normal" fill="#FFF"><tspan x="140.052" y="37">2</tspan></text><text id="3" font-family="HelveticaNeue, Helvetica Neue" font-size="16" font-weight="normal" fill="#FFF"><tspan x="172.052" y="63">3</tspan></text><text id="4" font-family="HelveticaNeue, Helvetica Neue" font-size="16" font-weight="normal" fill="#FFF"><tspan x="187.052" y="99">4</tspan></text><text id="5" font-family="HelveticaNeue, Helvetica Neue" font-size="16" font-weight="normal" fill="#FFF"><tspan x="181.052" y="142">5</tspan></text><text id="6" font-family="HelveticaNeue, Helvetica Neue" font-size="16" font-weight="normal" fill="#FFF"><tspan x="161.052" y="174">6</tspan></text><text id="7" font-family="HelveticaNeue, Helvetica Neue" font-size="16" font-weight="normal" fill="#FFF"><tspan x="126.052" y="195">7</tspan></text><text id="8" font-family="HelveticaNeue, Helvetica Neue" font-size="16" font-weight="normal" fill="#FFF"><tspan x="86.052" y="195">8</tspan></text><text id="9" font-family="HelveticaNeue, Helvetica Neue" font-size="16" font-weight="normal" fill="#FFF"><tspan x="49.052" y="178">9</tspan></text><text id="10" font-family="HelveticaNeue-Light, Helvetica Neue" font-size="24" font-weight="300" fill="#636"><tspan x="19.156" y="152">10</tspan></text><text id="11" font-family="HelveticaNeue, Helvetica Neue" font-size="16" font-weight="normal" fill="#FFF"><tspan x="15.604" y="107">11</tspan></text><text id="12" font-family="HelveticaNeue, Helvetica Neue" font-size="16" font-weight="normal" fill="#FFF"><tspan x="26.604" y="70">12</tspan></text><text id="13" font-family="HelveticaNeue, Helvetica Neue" font-size="16" font-weight="normal" fill="#FFF"><tspan x="56.604" y="42">13</tspan></text></g></g></g></svg>