<svg xmlns="http://www.w3.org/2000/svg" xmlns:xlink="http://www.w3.org/1999/xlink"><symbol viewBox="0 0 18 19" id="icon-flag-gb" xmlns="https://www.w3.org/2000/svg"><defs><filter id="aaa" width="105.6%" height="115.4%" x="-2.8%" y="-3.8%" filterUnits="objectBoundingBox"><feOffset dy="1" in="SourceAlpha" result="shadowOffsetOuter1"/><feColorMatrix in="shadowOffsetOuter1" values="0 0 0 0 0 0 0 0 0 0 0 0 0 0 0 0 0 0 0.12 0"/></filter><path id="aab" d="M0 3h18v13H0z"/></defs><g fill="none" fill-rule="evenodd"><use fill="#000" filter="url(#aaa)" xmlns:xlink="https://www.w3.org/1999/xlink" xlink:href="#b"/><use fill="#FFF" xlink:href="#b"/><path fill="#339" d="M17 15V4H1v11z"/><path fill="#FFF" d="M3 4l14 10v1h-2L1 5V4z"/><path fill="#FFF" d="M15 4L1 14v1h2L17 5V4z"/><path fill="#C33" d="M1 4l6 4H6L1 5V4zm16 11v-1l-5-3h-1l6 4zM1 15l6-4h1l-6 4zm10-7l6-4h-1l-5 3v1z"/><path fill="#FFF" d="M11 7V4H7v3H1v4h6v4h4v-4h6V7z"/><path fill="#C33" d="M10 8V4H8v4H1v2h7v5h2v-5h7V8z"/><path fill="#000" fill-opacity=".11" d="M1 4h16v11H1V4zm1 1v9h14V5H2z"/></g></symbol><symbol viewBox="0 0 18 19" id="icon-flag-ja" xmlns="https://www.w3.org/2000/svg"><defs><filter id="aba" width="105.6%" height="115.4%" x="-2.8%" y="-3.8%" filterUnits="objectBoundingBox"><feOffset dy="1" in="SourceAlpha" result="shadowOffsetOuter1"/><feColorMatrix in="shadowOffsetOuter1" values="0 0 0 0 0 0 0 0 0 0 0 0 0 0 0 0 0 0 0.12 0"/></filter><path id="abb" d="M0 3h18v13H0z"/></defs><g fill="none" fill-rule="evenodd"><use fill="#000" filter="url(#aba)" xmlns:xlink="https://www.w3.org/1999/xlink" xlink:href="#b"/><use fill="#FFF" xlink:href="#b"/><path fill="#FFF" d="M1 4h16v11H1z"/><circle cx="9" cy="9.5" r="3.25" fill="#C33"/><path fill="#000" fill-opacity=".11" d="M1 4h16v11H1V4zm1 1v9h14V5H2z"/></g></symbol><symbol viewBox="0 0 18 19" id="icon-flag-ru" xmlns="https://www.w3.org/2000/svg"><defs><filter id="aca" width="105.6%" height="115.4%" x="-2.8%" y="-3.8%" filterUnits="objectBoundingBox"><feOffset dy="1" in="SourceAlpha" result="shadowOffsetOuter1"/><feColorMatrix in="shadowOffsetOuter1" values="0 0 0 0 0 0 0 0 0 0 0 0 0 0 0 0 0 0 0.12 0"/></filter><path id="acb" d="M0 3h18v13H0z"/></defs><g fill="none" fill-rule="evenodd"><use fill="#000" filter="url(#aca)" xmlns:xlink="https://www.w3.org/1999/xlink" xlink:href="#b"/><use fill="#FFF" xlink:href="#b"/><path fill="#C33" d="M1 11h16v4H1z"/><path fill="#339" d="M1 8h16v3H1z"/><path fill="#FFF" d="M1 4h16v4H1z"/><path fill="#000" fill-opacity=".11" d="M1 4h16v11H1V4zm1 1v9h14V5H2z"/></g></symbol><symbol viewBox="0 0 18 19" id="icon-flag-zh" xmlns="https://www.w3.org/2000/svg"><defs><filter id="ada" width="105.6%" height="115.4%" x="-2.8%" y="-3.8%" filterUnits="objectBoundingBox"><feOffset dy="1" in="SourceAlpha" result="shadowOffsetOuter1"/><feColorMatrix in="shadowOffsetOuter1" values="0 0 0 0 0 0 0 0 0 0 0 0 0 0 0 0 0 0 0.12 0"/></filter><path id="adb" d="M0 3h18v13H0z"/></defs><g fill="none" fill-rule="evenodd"><use fill="#000" filter="url(#ada)" xmlns:xlink="https://www.w3.org/1999/xlink" xlink:href="#b"/><use fill="#FFF" xlink:href="#b"/><path fill="#C33" d="M1 4h16v11H1z"/><path fill="#000" fill-opacity=".11" d="M1 4h16v11H1V4zm1 1v9h14V5H2z"/><path fill="#FC0" fill-rule="nonzero" d="M7.396 7.946l-.31.217.11-.362-.301-.228.378-.007.123-.357.124.357.377.007-.301.228.11.362-.31-.217zm.107-1.614l-.184.33-.06-.373-.37-.073.336-.172-.046-.375.268.267.342-.16-.17.337.257.277-.373-.058zM6.265 5.255l-.37.078.243-.29-.188-.327.35.14.253-.28-.025.377.345.154-.367.092-.04.376-.2-.32zM6.26 9.008l-.365.097.227-.302-.205-.317.357.122.238-.293-.006.378.352.136-.36.11-.02.378-.218-.31zM3.685 7.334L2.733 8l.338-1.11-.926-.7 1.16-.023.38-1.096.38 1.096 1.16.022-.926.7.338 1.11-.952-.664z"/></g></symbol><symbol viewBox="0 0 52 52" id="icon-handshake-xl" xmlns="https://www.w3.org/2000/svg"><path fill="#66C" d="M23.002 10.007L23 10l.002.007L24 9.76l1 4-1.94.48-1-4 .942-.233zm5.996 0L29 10l-.002.007.942.233-.94 4-2-.48 1-4 .998.247zm9.367 23.768a1.05 1.05 0 01-.075-.065l-9-9a1.82 1.82 0 00-1.52-.52l-3.82.48c-4.46.56-6.17-.88-6.82-2.19l-1-2a1 1 0 01-.09-.52l-6.016 6.016.61 2.443a2.8 2.8 0 01.436-.029l-.07-.05a2.76 2.76 0 012 .81l7.46 7.44a2.78 2.78 0 01.588 3.048l2.242 2.242a1 1 0 001.42 0l.88-.88-4-4L23 35.59l5.29 5.29a1 1 0 001.42 0l.88-.88-5-5L27 33.59l5.33 5.32a1 1 0 001.41 0l1.38-1.38L28.59 31 30 29.59l6.8 6.79a1 1 0 001.41 0l.67-.67a1 1 0 000-1.42l-.515-.515zm2.034-.78a3 3 0 01-.109 4.125l-.67.67a3 3 0 01-2.75.81l-1.72 1.72a3 3 0 01-2.85.79l-1.18 1.18a3 3 0 01-4.12.12l-.88.88a3 3 0 01-2.12.88 3 3 0 01-2.12-.88l-2.216-2.216a2.73 2.73 0 01-1.204.256 2.77 2.77 0 01-2-.82l-7.39-7.39a2.78 2.78 0 01-.234-3.652l-.461-1.843L7 29l-4.42-4.5 11.27-11.31h.04l4.46 4.46-1.353 1.353 8.333-2.453a5.09 5.09 0 013.5.12l2.79 1.11c.409.169.848.25 1.29.24h1l-.37-.37L38 13.19l11.35 11.35L44.89 29l-.398-.398-4.093 4.393zm2.68-5.805l-7.169-7.17h-3a5.47 5.47 0 01-2-.38L28 18.49a3.15 3.15 0 00-2.16-.06l-7.45 2.19.46.93c.7 1.4 3.3 1.29 4.8 1.11l3.82-.48a3.79 3.79 0 013.17 1.09L39 31.56l4.08-4.37zm-5.535-8.394a1 1 0 11.659.66l6.647 6.654 1.63-1.63L38 16l-1.6 1.65 1.144 1.146zm-23.886.692a1 1 0 11.83-.827l1.032-1.031L13.89 16 5.4 24.5 7 26.13l6.658-6.642zM11 30.34l.07.05a.77.77 0 00-.55 1.32l7.39 7.39a.77.77 0 00.55.23.74.74 0 00.54-.23.77.77 0 000-1.1l-7.46-7.44a.76.76 0 00-.54-.22zm20 19.13l-.42-1.95a22 22 0 0016.88-16.74l1.95.44A24 24 0 0131 49.47zm-10 0A24 24 0 012.59 31.22l2-.44a22 22 0 0016.83 16.74L21 49.47zm-10.56-39L9 9a24 24 0 0134 0l-1.41 1.41a22 22 0 00-31.12 0l-.03.06zm21.45 4.98l-1.78-.9 1-2 1.78.9-1 2zm-11.78 0l-1-2 1.78-.9 1 2-1.78.9z"/></symbol><symbol viewBox="0 0 52 52" id="icon-likes-xl" xmlns="https://www.w3.org/2000/svg"><path fill="#66C" d="M11 33.75l3.28-2.46L17.388 27H14v-6.59l-5 5V18H5V2h24v3h21v16h-4v7.41L38.59 21H38v6h-4v7.41L26.59 27H24v4.06c0 .704-.033 1.348-.094 1.94h1.387c.36-.6 1.017-1 1.767-1h2.88A2.06 2.06 0 0132 34.06v1.88a2.1 2.1 0 01-.028.337A2.06 2.06 0 0133 38.06v1.88a2.06 2.06 0 01-1.028 1.783c.019.11.028.223.028.337v1.88a2.06 2.06 0 01-1.028 1.783c.019.11.028.222.028.337v1.88A2.06 2.06 0 0128.94 50H18.81a10.43 10.43 0 01-5.71-1.7L11 46.912V50H2V31h9v2.75zm0 2.495v8.274l3.19 2.081a8.45 8.45 0 004.62 1.4H24v-1.94a2.06 2.06 0 011.027-1.783A2.074 2.074 0 0125 43.94v-1.88a2.06 2.06 0 011.028-1.783A2.074 2.074 0 0126 39.94v-1.88c0-.115.01-.227.027-.337A2.06 2.06 0 0125 35.94V35h-1.444c-.646 2.5-1.864 3.72-2.756 4.62l-.71.71-1.42-1.42.71-.71C20.55 37 22 35.59 22 31.06v-5.55a4.58 4.58 0 00-.63-2.31 2.44 2.44 0 00-1.75-1.2v5.3l-4 5.48L11 36.245zM9 33H4v15h5V33zm-3 1h2v4H6v-4zm17.98-9h3.43L32 29.59V25h4V13H16v12h1.62v-5h1.67a4.43 4.43 0 013.81 2.19 6.59 6.59 0 01.88 2.81zM38 19h1.41L44 23.59V19h4V7H29v4h9v8zm-11-8V4H7v12h4v4.59l3-3V11h13zm0 23.06v1.88c0 .033.027.06.06.06h2.88a.06.06 0 00.06-.06v-1.88a.06.06 0 00-.06-.06h-2.88a.06.06 0 00-.06.06zM28.06 40h2.88a.06.06 0 00.06-.06v-1.88a.06.06 0 00-.06-.06h-2.88a.06.06 0 00-.06.06v1.88a.06.06 0 00.06.06zm1.88 2h-2.88a.06.06 0 00-.06.06v1.88c0 .033.027.06.06.06h2.88a.06.06 0 00.06-.06v-1.88a.06.06 0 00-.06-.06zm-3.88 4a.06.06 0 00-.06.06v1.88c0 .033.027.06.06.06h2.88a.06.06 0 00.06-.06v-1.88a.06.06 0 00-.06-.06h-2.88z"/></symbol><symbol viewBox="0 0 16 16" id="icon-phone" xmlns="https://www.w3.org/2000/svg"><path fill="#FFF" fill-rule="evenodd" d="M8 16A8 8 0 118 0a8 8 0 010 16zm5.595-4.383l-1.972-1.978a.928.928 0 00-1.315 0l-.001-.001-.747.749c-.315.315-1.455-.315-2.545-1.408-1.091-1.094-1.72-2.236-1.405-2.551l.753-.743a.932.932 0 000-1.318L4.391 2.39a.928.928 0 00-1.315 0l-.49.491c-1.545 1.549-.442 5.165 2.462 8.076 2.905 2.912 6.512 4.017 8.057 2.468l.49-.49a.932.932 0 000-1.318z"/></symbol><symbol viewBox="0 0 52 52" id="icon-rating-xl" xmlns="https://www.w3.org/2000/svg"><g fill="none"><path fill="#66C" d="M40 39h-2v-5c0-6.075-4.925-11-11-11h-2c-6.075 0-11 4.925-11 11v5h-2v-5c0-7.18 5.82-13 13-13h2c7.18 0 13 5.82 13 13v5zM27 5h-2a3 3 0 00-3 3v6a3 3 0 003 3h2a3 3 0 003-3V8a3 3 0 00-3-3zm0-2a5 5 0 015 5v6a5 5 0 01-5 5h-2a5 5 0 01-5-5V8a5 5 0 015-5h2zm-7 36h-2v-6h2v6zm14-6v6h-2v-6h2zM6.2 39.57a24 24 0 017.28-34l1 1.71a22 22 0 00-6.63 31.16L6.2 39.57zm39.6 0l-1.65-1.14a22 22 0 00-6.67-31.2l1-1.71a24 24 0 017.32 34.05z"/><path fill="#C33" d="M6.51 41l1.39 2.82 3.11.45-2.25 2.19.53 3.1-2.78-1.46-2.79 1.46.54-3.1L2 44.27l3.1-.45L6.51 41zm39 0l1.39 2.82 3.11.45-2.25 2.19.53 3.1-2.79-1.46-2.78 1.46.53-3.1L41 44.27l3.11-.45 1.4-2.82zm-9.75 0l1.39 2.82 3.11.45L38 46.46l.53 3.1-2.78-1.46L33 49.56l.53-3.1-2.25-2.19 3.11-.45L35.76 41zM26 41l1.39 2.82 3.11.45-2.25 2.19.53 3.1L26 48.1l-2.78 1.46.53-3.1-2.25-2.19 3.11-.45L26 41zm-9.75 0l1.39 2.82 3.11.45-2.25 2.19.54 3.1-2.79-1.46-2.78 1.46.53-3.1-2.25-2.19 3.11-.45L16.25 41z"/></g></symbol></svg>