<svg xmlns="https://www.w3.org/2000/svg"><symbol id="logo" viewBox="0 0 132 32"><path fill="#C33" d="M1.94 0h28.12A1.94 1.94 0 0132 1.94v28.12A1.94 1.94 0 0130.06 32H1.94A1.94 1.94 0 010 30.06V1.94A1.94 1.94 0 011.94 0z"/><path fill="#FFF" d="M25 6.963a.99.99 0 001 .981v-.981h2c0 1.084-.895 1.963-2 1.963-1.104 0-2-.879-2-1.963S24.896 5 26 5a2 2 0 011.723.981H26c-.552 0-1 .44-1 .982zm-4 1.963c-1.104 0-2-.879-2-1.963S19.896 5 21 5c1.105 0 2 .88 2 1.963 0 1.084-.895 1.963-2 1.963zm0-2.945c-.552 0-1 .44-1 .982s.448.981 1 .981 1-.44 1-.981a.991.991 0 00-1-.982zm-2 2.945h-2V5h1v2.944h1v.982zm-4-1.823v1.823h-1V7.103L12.661 5h1.179l.625.981h.071L15.16 5h1.18L15 7.103zm-2 1.823h-2V5h1v2.944h1v.982zm-4 0c-1.105 0-2-.879-2-1.963S7.895 5 9 5s2 .88 2 1.963c0 1.084-.895 1.963-2 1.963zM9 5.98c-.552 0-1 .44-1 .982s.448.981 1 .981 1-.44 1-.981a.991.991 0 00-1-.982zM5.5 7.944H5v.982H4V5h1.5C6.329 5 7 5.66 7 6.472c0 .813-.671 1.472-1.5 1.472zm0-1.963H5v.982h.5c.276 0 .5-.22.5-.49a.496.496 0 00-.5-.492z" opacity=".64"/><path class="logo__shadow" d="M122.203 20a6.296 6.296 0 01-12.508-1.011 6.294 6.294 0 0111.569-3.437l.802-.602a7.296 7.296 0 00-13.372 4.04 7.296 7.296 0 1014.592.01H117v1h5.203zM99.99 26.287a7.296 7.296 0 01-7.296-7.297 7.296 7.296 0 117.296 7.297zm-.001-13.592a6.294 6.294 0 100 12.588 6.294 6.294 0 000-12.588zM93.5 26H88V12h1v13h4.5v1zM82 19.487V26h-2v-6.513L75.321 12h2.358L81 17.313 84.321 12h2.358L82 19.487zM77.5 26H71V12h2v12h4.5v2zm-15.51.287a7.297 7.297 0 11.002-14.594 7.297 7.297 0 01-.002 14.594zm-.001-12.593a5.295 5.295 0 100 10.59 5.295 5.295 0 000-10.59zM49.5 20H47v6h-2V12h4.5a4 4 0 110 8zm0-6H47v4h2.5a2 2 0 100-4z"/><path fill="currentColor" d="M122.203 19a6.296 6.296 0 01-12.508-1.011 6.294 6.294 0 0111.569-3.437l.802-.602a7.296 7.296 0 00-13.372 4.04 7.296 7.296 0 1014.592.01H117v1h5.203zM99.99 25.287a7.296 7.296 0 01-7.296-7.297 7.296 7.296 0 117.296 7.297zm-.001-13.592a6.294 6.294 0 100 12.588 6.294 6.294 0 000-12.588zM93.5 25H88V11h1v13h4.5v1zM82 18.487V25h-2v-6.513L75.321 11h2.358L81 16.313 84.321 11h2.358L82 18.487zM77.5 25H71V11h2v12h4.5v2zm-15.51.287a7.297 7.297 0 11.002-14.594 7.297 7.297 0 01-.002 14.594zm-.001-12.593a5.295 5.295 0 100 10.59 5.295 5.295 0 000-10.59zM49.5 19H47v6h-2V11h4.5a4 4 0 110 8zm0-6H47v4h2.5a2 2 0 100-4z"/></symbol></svg>