<svg xmlns="http://www.w3.org/2000/svg" width="192" height="128" viewBox="0 0 192 128"><defs><linearGradient id="polylog-logo-ny-j" x1="0%" x2="100.014%" y1="50%" y2="50%"><stop offset="3%" stop-color="#666"/><stop offset="19%" stop-color="#334C4C"/><stop offset="21%" stop-color="#445D5D"/><stop offset="26%" stop-color="#718A8A"/><stop offset="31%" stop-color="#97B0B0"/><stop offset="36%" stop-color="#B4CDCD"/><stop offset="41%" stop-color="#C8E1E1"/><stop offset="45%" stop-color="#D5EEEE"/><stop offset="50%" stop-color="#D9F2F2"/><stop offset="55%" stop-color="#D5EEEE"/><stop offset="61%" stop-color="#C8E1E1"/><stop offset="66%" stop-color="#B4CDCD"/><stop offset="72%" stop-color="#97B0B0"/><stop offset="77%" stop-color="#718A8A"/><stop offset="83%" stop-color="#445D5D"/><stop offset="85%" stop-color="#334C4C"/><stop offset="97%" stop-color="#668080"/></linearGradient><linearGradient id="polylog-logo-ny-m" x1="66.864%" x2="93.325%" y1="42.345%" y2="58.914%"><stop offset="0%" stop-color="#B21919"/><stop offset="100%" stop-color="#C33"/></linearGradient><linearGradient id="polylog-logo-ny-n" x1="17.499%" x2="92.107%" y1="61.259%" y2="53.728%"><stop offset="0%" stop-color="#F66"/><stop offset="69.823%" stop-color="#B21919"/><stop offset="100%" stop-color="#C33"/></linearGradient><linearGradient id="polylog-logo-ny-o" x1="22.678%" x2="70.229%" y1="35.365%" y2="69.118%"><stop offset="0%" stop-color="#F66"/><stop offset="71.534%" stop-color="#B21919"/><stop offset="100%" stop-color="#C33"/></linearGradient><linearGradient id="polylog-logo-ny-p" x1="22.678%" x2="70.229%" y1="35.365%" y2="69.118%"><stop offset="0%" stop-color="#F66"/><stop offset="69.958%" stop-color="#B21919"/><stop offset="100%" stop-color="#C33"/></linearGradient><linearGradient id="polylog-logo-ny-q" x1="66.639%" x2="55.021%" y1="0%" y2="100%"><stop offset="0%" stop-color="#F66"/><stop offset="69.823%" stop-color="#B21919"/><stop offset="100%" stop-color="#C33"/></linearGradient><path id="polylog-logo-ny-a" d="M14.057 1.099c.081-.235 8.189-1.177 8.173-.987-.078.844.06 2.441 1.969 3.365 7.013 2.404 12.034 8.848 12.034 16.42 0 9.625-8.111 17.428-18.117 17.428C8.111 37.325 0 29.522 0 19.897 0 12.536 4.745 6.24 11.454 3.687c.87-.45 2.17-1.31 2.603-2.588z"/><path id="polylog-logo-ny-d" d="M14.057 1.099c.081-.235 8.189-1.177 8.173-.987-.078.844.06 2.441 1.969 3.365 7.013 2.404 12.034 8.848 12.034 16.42 0 9.625-8.111 17.428-18.117 17.428C8.111 37.325 0 29.522 0 19.897 0 12.536 4.745 6.24 11.454 3.687c.87-.45 2.17-1.31 2.603-2.588z"/><path id="polylog-logo-ny-k" d="M24.256 22.983h7.901c.703 0 1.273.648 1.273 1.446v2.733H22.983v-2.731c0-.384.134-.752.373-1.024a1.2 1.2 0 01.9-.424z"/><path id="polylog-logo-ny-s" d="M77.203 9a6.296 6.296 0 01-12.508-1.011 6.294 6.294 0 0111.569-3.437l.802-.602a7.296 7.296 0 00-13.372 4.04A7.296 7.296 0 0078.286 8H72v1h5.203zM54.99 15.287a7.296 7.296 0 01-7.296-7.297 7.296 7.296 0 117.296 7.297zm-.001-13.592a6.294 6.294 0 100 12.588 6.294 6.294 0 000-12.588zM48.5 15H43V1h1v13h4.5v1zM37 8.487V15h-2V8.487L30.321 1h2.358L36 6.313 39.321 1h2.358L37 8.487zM32.5 15H26V1h2v12h4.5v2zm-15.51.287A7.297 7.297 0 1116.992.693a7.297 7.297 0 01-.002 14.594zm-.001-12.593a5.295 5.295 0 100 10.59 5.295 5.295 0 000-10.59zM4.5 9H2v6H0V1h4.5a4 4 0 110 8zm0-6H2v4h2.5a2 2 0 100-4z"/><path id="polylog-logo-ny-u" d="M82 2v13h-1V1h6v1h-5zm-9.01 13.287a7.296 7.296 0 01-7.296-7.297 7.296 7.296 0 1114.592 0 7.296 7.296 0 01-7.296 7.297zm-.001-13.592a6.294 6.294 0 100 12.588 6.294 6.294 0 000-12.588zM64 2h-7v10a3 3 0 01-3 3h-3V5.173l-8 8.695V15l-2 .088V1h2v9.914L52.121 1 53 .999V14h1a2 2 0 002-2V1h9v14h-1V2zM37 3h-6v9a3 3 0 01-3 3h-1v-2a2 2 0 002-2V1h10v14h-2V3zM19.99 15.287A7.297 7.297 0 1119.992.693a7.297 7.297 0 01-.002 14.594zm-.001-12.593a5.295 5.295 0 100 10.59 5.295 5.295 0 000-10.59zM9 3H2v12H0V1h11v14H9V3z"/><radialGradient id="polylog-logo-ny-b" cx="32.735%" cy="36.017%" r="66.986%" fx="32.735%" fy="36.017%" gradientTransform="matrix(.12472 .9654 -.9922 .12135 .644 0)"><stop offset="0%" stop-color="#FFF" stop-opacity=".372"/><stop offset="85.388%" stop-opacity=".385"/><stop offset="100%" stop-opacity=".164"/></radialGradient><radialGradient id="polylog-logo-ny-e" cy="54.174%" r="47.419%" fx="50%" fy="54.174%" gradientTransform="matrix(.25055 .94197 -.9681 .24378 .9 -.06)"><stop offset="0%" stop-color="#FFF" stop-opacity="0"/><stop offset="68.608%" stop-color="gray" stop-opacity=".294"/><stop offset="100%" stop-opacity=".589"/></radialGradient><radialGradient id="polylog-logo-ny-h" r="51.075%" fx="50%" fy="50%" gradientTransform="matrix(-.64055 .74607 -.44424 -.41215 1.042 .333)"><stop offset="0%" stop-color="#FFF"/><stop offset="30.289%" stop-color="#FFF" stop-opacity=".5"/><stop offset="100%" stop-color="#FFF" stop-opacity="0"/></radialGradient><radialGradient id="polylog-logo-ny-i" r="50.498%" fx="50%" fy="50%" gradientTransform="matrix(.13993 .98936 -.95175 .14546 .906 -.068)"><stop offset="0%" stop-color="#FFF" stop-opacity=".787"/><stop offset="30.289%" stop-color="#FFF" stop-opacity=".5"/><stop offset="100%" stop-color="#FFF" stop-opacity="0"/></radialGradient><filter id="polylog-logo-ny-g" width="180%" height="194.1%" x="-40%" y="-47%" filterUnits="objectBoundingBox"><feGaussianBlur in="SourceGraphic" stdDeviation="3.579"/></filter><filter id="polylog-logo-ny-l" width="138.3%" height="195.7%" x="-19.1%" y="-47.9%" filterUnits="objectBoundingBox"><feGaussianBlur in="SourceAlpha" result="shadowBlurInner1" stdDeviation="1"/><feOffset dy="2" in="shadowBlurInner1" result="shadowOffsetInner1"/><feComposite in="shadowOffsetInner1" in2="SourceAlpha" k2="-1" k3="1" operator="arithmetic" result="shadowInnerInner1"/><feColorMatrix in="shadowInnerInner1" values="0 0 0 0 0 0 0 0 0 0 0 0 0 0 0 0 0 0 0.600854846 0"/></filter><filter id="polylog-logo-ny-r" width="101.3%" height="113.7%" x="-.6%" y="-3.4%" filterUnits="objectBoundingBox"><feOffset dy="1" in="SourceAlpha" result="shadowOffsetOuter1"/><feColorMatrix in="shadowOffsetOuter1" values="0 0 0 0 1 0 0 0 0 1 0 0 0 0 1 0 0 0 0.5 0"/></filter><filter id="polylog-logo-ny-t" width="101.1%" height="113.7%" x="-.6%" y="-3.4%" filterUnits="objectBoundingBox"><feOffset dy="1" in="SourceAlpha" result="shadowOffsetOuter1"/><feColorMatrix in="shadowOffsetOuter1" values="0 0 0 0 1 0 0 0 0 1 0 0 0 0 1 0 0 0 0.5 0"/></filter></defs><g fill="none" fill-rule="evenodd"><g transform="translate(-13 54)"><ellipse cx="35.5" cy="70.5" fill="#000" fill-opacity=".08" rx="16.5" ry="2.5"/><g transform="rotate(24 -52.14 75.321)"><mask id="polylog-logo-ny-c" fill="#fff"><use href="#polylog-logo-ny-a"/></mask><use fill="#99C" fill-rule="nonzero" href="#polylog-logo-ny-a"/><path fill="url(#polylog-logo-ny-b)" fill-rule="nonzero" d="M14.057 1.099c.081-.235 8.189-1.177 8.173-.987-.078.844.06 2.441 1.969 3.365 7.013 2.404 12.034 8.848 12.034 16.42 0 9.625-8.111 17.428-18.117 17.428C8.111 37.325 0 29.522 0 19.897 0 12.536 4.745 6.24 11.454 3.687c.87-.45 2.17-1.31 2.603-2.588z" mask="url(#polylog-logo-ny-c)"/><mask id="polylog-logo-ny-f" fill="#fff"><use href="#polylog-logo-ny-d"/></mask><use fill="url(#polylog-logo-ny-e)" fill-opacity=".83" fill-rule="nonzero" href="#polylog-logo-ny-d"/><path fill="#FFF" fill-rule="nonzero" d="M19.238 19.747l-.012.035-.017.048.031.039.029.057c.31.365.717.863 1.024 1.235l.103.302c-.522.162-.662.13-.823.09l-.036-.013c-.41-.477-.957-1.111-1.37-1.586-.319-.09-.626-.025-.731.155l-.019.052.033.041.026.058c.364.46.849 1.09 1.21 1.559l-.794.215c-.28-.04-.28-.04-1.196-1.286-.299-.405-.299-.405-2.062-.029l-.275.85.05.06c.304.306.585.631.893.933l.047.025c.867.339 2.727-.852 2.702.383l-.026.069-1.772.397c-.37 1.082 1.676.046 2.491.275.019.008.078.027.428.508l-.011.03-.018.044-.085.038c-.49.107-1.131.286-1.615.412.043.08.067.123.38.38.77.633-.227.834-.239.834l-.038-.02-.037-.02-.75-.74-.183-.058c-.157.46-.36 1.077-.512 1.538l-.05.025-.08.014-.017.013c-.216-.136-.341-.366-.57-.481.195-.65.555-1.687.632-1.794-.048-.07-.162-.233-.602-.423-.15.48-.345 1.12-.487 1.6l-.129.025c-.244-.22-.318-.285-.577-.549.155-.551.553-1.251.534-1.833-.018-.582-1.439-1.68-1.91-.994-.33 1.236-.33 1.236-.236 1.428.356.407.838.946 1.2 1.351l-.179.712-.074.053c-.368-.364-.858-.854-1.224-1.22l-.086.034-.12.564c.39.427.916.993 1.311 1.418l-.142.728c-.139-.103-1.231-1.157-1.241-1.166l-.112.037-.142 1.036-.632-.284c.003-.328.084-.653.03-.983-.532-.348-.939.206-1.427.186l-.05-.075.063-.662c.107-.063.107-.063 1.594-.442l.102-.531-.127-.043c-1.509.302-1.509.302-1.393-.247l.037-.228.142-.094c.467-.121 1.089-.277 1.555-.396.505-1.793.505-1.793-.091-2.099-.271-.065-.45-.107-1.514.224-.506 2.183-.506 2.183-1.188 2.058.079-.5.208-1.16.303-1.658l-.092-.052c-.17.021-.337.06-.499.113-.107.58-.24 1.354-.34 1.936a1.232 1.232 0 01-.54.137l-.049-.033a5.914 5.914 0 01.134-1.592c.029-.138.013-.153-.082-.216l-.106-.042-.831.17c-.087-.025-.32-.091-.304-.672.21-.379.737.044.944-.343l.016-.084-.049-.105c-.28-.386-.636-.913-.906-1.307.202-.36.652-.266.652-.266l.179.077c.308.421.637 1.058 1.065 1.372.032.024.512.22.642-.099.019-.7-.849-.838-.991-1.434.122-.345.704-.227.836-.144.316.415.756.949 1.082 1.36.013.004 1.267.363 1.57-.662.236-.776-.894-1.592-.905-1.6-.675-.257-1.171.347-1.793.347l-.009-.125.09.035-.01-.021-.051-.047c-.14-.177-.271-.36-.414-.535l.01-.032.009-.031.047-.025.043-.01c1.555-.385 1.555-.385 1.579-.4.075-.194-.348-.582-.562-.614-.163-.025-1.6.284-1.614.284l-.07-.022c-.262-.066-.366-.265-.486-.539l.01-.032.011-.03.032-.03a9.023 9.023 0 011.626-.37c.39-.405-.6-.597-.5-1.07.111-.142.239-.272.38-.386.361.159.44.586.78.763.199-.507.53-1.161.77-1.654.004.004.46.391.443.666a82.72 82.72 0 00-.746 1.888c.1.204.238.39.407.549l.21.008c.196-.538.476-1.25.682-1.784l.046.025c.869.9-.29 1.722-.181 2.6.073.575 1.21 1.556 1.623 1.039.156-.47.375-1.092.538-1.56-.287-.555-.881-.912-1.067-1.532-.031-.105-.098-.314.33-.929.366.41.667.869 1.02 1.29l.134.047.228-.593c-1.157-1.541-1.157-1.541-.939-1.987l.143-.345.094-.031c.292.344.703.796 1.006 1.135l.157.053.39-.952.728.24a3.429 3.429 0 01-.097.412l-.218.549v.075l.025.088c.545-.099 1.271-.228 1.816-.324l.04.08-.285.756c-2.023.458-2.023.458-2.254 1.13l.17.058c.526-.097 1.23-.224 1.757-.32-.362.961-.362.961-1.841 1.235-.434.076-.458.091-.53.138-.158.442-.46 1.012-.509 1.476-.077.748 1.38.862 2.206.336.212-.6.499-1.4.713-1.999l.891-.193.099.107c-.187.51-.431 1.193-.615 1.705.026.028.058.066.083.095.058-.004.058-.004.503-.058l.086-.015.054-.026.705-1.977.81-.191.126.041c-.056.357-.109.693-.517 1.736v.085l.017.076.053.017.05.018 1.074-.214c.404.04.261.699.261.706l-.03.054-.028.054c-.328.084-.658.156-.986.24l-.051.011-.057.028zm-5.674 1.484l.24-.78-.037-.081-.06-.112a10.363 10.363 0 00-.428-.473c-.218-.067-.687-.003-.83.115-.034.03-.034.03-.258.766-.022.154.43.64.617.759.528-.083.537-.087.68-.15l.076-.044zM6.48 10.291l-.017.01c.155-.25.354-.473.52-.717l-.014-.026-.024-.017-.334.069-.025-.011c-.006-.024-.022-.09.1-.253.125-.103.296-.027.41-.137l.026-.03.01-.04.027-.482a.322.322 0 01.275-.094l.039.027c.004.148-.046.36.014.497a.166.166 0 00.236-.033c.055-.173-.06-.351.017-.523a.228.228 0 01.292-.05l.039.49c.002.003.332.127.637-.242a.483.483 0 00.053-.563c-.227-.057-.407.11-.62.121l.027-.044.02.012v-.208l.01-.011.01-.01.02-.01h.014c.17-.038.418-.049.56-.137a.24.24 0 00.025-.028c.011-.024.015-.17-.057-.18-.015-.003-.542.096-.542.096H8.21c-.054-.033-.057-.06-.022-.183l.01-.01.012-.012.017-.01c.184-.055.372-.097.562-.124.114-.099.004-.255.1-.358.063-.047.129-.09.197-.13.082.074-.009.178.048.256l.585-.558a.273.273 0 01-.023.229c-.674.691-.674.691-.626.815h.058l.571-.6.007.008c.04.151.022.17-.197.412-.428.457-.428.457-.428.576-.014.45.297.245.297.245l.46-.536c.028-.172-.06-.345 0-.517a.823.823 0 01.286-.296c.01.137.003.274.02.411l.029.015.182-.197c.015-.522.015-.522.157-.659l.117-.114.033-.01.028.374.033.018.307-.316.143.08c-.066.083-.079.1-.113.137l-.17.181-.017.026-.01.029.57-.107v.026c-.215.244-.215.244-.713.366-.165.042-.165.042-.358.264l.037.02.561-.108c-.28.33-.28.33-.804.43a.357.357 0 00-.135.038c-.125.156-.34.34-.427.521-.136.276.308.274.616.105l.552-.686.294-.068.011.036-.464.586.035.032.142-.02h.029l.021-.01.53-.677.276-.065.032.014a5.43 5.43 0 01-.428.593l-.015.03v.026h.028l.376-.073.033.009c.043.072-.01.18-.046.237l-.017.02c-.017.019-.017.019-.375.104h-.019l-.02.01-.01.01-.012.02v.02l.178.458v.114c-.203.063-.255.048-.3.036h-.011l-.227-.59a.242.242 0 00-.252.056l-.015.02v.036l.183.588-.295.08c-.3-.089-.073-.43-.234-.599-.029-.038-.029-.038-.6.099l-.24.318v.025c.114.343.114.343.125.365l.01.01c.071.056.193.021.385-.038.61-.189.467.176.467.192l-.02.03-.67.163c-.002.004-.18.365.439.162.266-.088.295-.079.393-.047.03.012.093.215.093.215l-.008.013-.012.018-.036.017-.644.15c-.035.15.177.206.142.358a.456.456 0 01-.285.224l-.011-.01-.012-.008-.171-.34-.057-.026-.45.72-.022.01h-.033v.008c-.073-.065-.067-.17-.143-.232.177-.276.423-.508.55-.815a.255.255 0 00-.143-.181l-.467.708-.052.01a1.634 1.634 0 01-.11-.245c.167-.247.54-.536.54-.832-.012-.448-.245-.548-.455-.359-.365.504-.365.504-.373.582l.142.586-.214.325-.038.025-.187-.55-.039.014-.172.252.178.664-.224.36c-.021-.021-.214-.57-.214-.57l-.053.016-.323.508-.18-.137c.088-.158.191-.308.272-.468-.028-.056-.028-.056-.34.029a1.29 1.29 0 01-.264.05v-.034l.208-.307c.233-.08.472-.147.713-.2l.161-.233-.034-.019c-.167.037-.402.172-.558.105-.003-.05.015-.073.116-.21l.071-.098.076-.038.627-.172c.557-.697.557-.697.428-.834l-.055-.03c-.159.048-.326.068-.484.115-.679.88-.679.88-.903.823l.517-.668-.009-.01-.01-.01a1.18 1.18 0 00-.194.043c-.66.85-.66.85-.856.85zm-.101 19.56c.1.124.267.176.332.315.06.084.059.185 0 .22l-.028-.016-.376-.318-.058-.025.285.663v.011l-.014.007c-.09-.07-.165-.15-.262-.207-.336-.836-.336-.836-.544-.951l.275.686-.024.01c-.081-.068-.15-.124-.27-.235-.328-.834-.328-.834-.629-1.121-.165-.157-.174-.158-.212-.168-.002 0-.121-.022-.121.085.2.527.2.527.26.606l.588.577.143.308v.023l-.58-.526-.01.016.11.241.677.61.17.316a69.238 69.238 0 01-.598-.507l-.014.016.25.452c-.242-.153-.242-.153-.427-.468-.054-.091-.066-.11-.093-.11-.09-.002-.131.086-.21.105l-.03-.031-.158-.287c.017-.034.017-.034.224-.19l-.106-.224-.037-.018-.228.104a.555.555 0 01-.125-.21l-.047-.097.01-.039.24-.17c-.27-.753-.27-.753-.473-.89l-.07-.03a.773.773 0 00-.211.126l.342.861a.139.139 0 01-.134.011l-.308-.704-.014-.01-.016-.01-.077.045c.39.862.39.862.298.885-.26-.204-.178-.576-.428-.783l-.03-.018-.12.071c-.055-.023-.124-.12-.206-.282a.07.07 0 010-.046c.114-.059.114-.059.104-.101l-.014-.035-.032-.044-.446-.548-.016-.069c.051-.044.051-.044.088-.044l.05.032c.528.617.528.617.601.609a.122.122 0 000-.071c-.114-.24-.364-.378-.492-.607a.23.23 0 01-.01-.029c-.012-.071.065-.1.154-.033l.482.57c.034.018.086.046.257-.09a.531.531 0 00-.044-.19 1.823 1.823 0 00-.503-.677c-.132-.001-.204.122-.323.147l-.026-.053.026.016v-.01l-.02-.019-.189-.23v-.037h.008l.266-.175c-.06-.377-.355-.232-.532-.145l-.018-.01c-.07-.026-.142-.14-.204-.241v-.041a.678.678 0 01.285-.168c.007-.222-.257-.302-.308-.497a.963.963 0 01.014-.185c.137.095.184.264.317.363-.039-.242-.089-.564-.126-.806.098.101.177.217.234.343.181.973.181.973.35 1.13h.05l-.154-.824.015.012a.73.73 0 01.247.46c.254 1.386.706 1.2.725 1.193v-.035l-.143-.673c-.16-.247-.385-.446-.528-.709a1.02 1.02 0 01-.064-.422c.157.199.302.407.465.604l.041.02-.038-.274c-.54-.747-.54-.747-.555-.96l-.014-.172.018-.018.438.565.05.026-.037-.472.233.12c.021.126.031.15.031.204l.021.274.01.038.022.04.443-.157.022.04c.007.11.007.259.007.37-.337.152-.337.152-.428.187-.014.034-.014.034.033.325l.074.02.402-.146c.016.126.094.306.029.411-.093.15-.303.087-.41.212.077.363.281 1.345.728.775l-.153-.858.203-.085.043.047.114.734.04.041c.042-.008.045-.008.114-.024l.021-.007.009-.011-.12-.856.201-.084.043.019c.051.25.09.502.114.756l.011.036.017.031.018.007.017.008.27-.089c.118.01.186.298.186.298v.048l-.24.102h-.012l-.01.01v.035l.014.016.017.024.508.525.088.128c-.117.064-.15.056-.214.038h-.012l-.66-.672c-.044-.02-.16-.044-.16.066v.022l.016.018.016.023.606.66-.164.086c-.122-.04-.122-.04-.48-.466-.21-.253-.21-.253-.571-.09l.101.359.026.026c.136.132.261.267.404.395l.015.01c.085.044.123.045.236-.03.31-.21.489.15.509.193l.009.029-.35.17c0 .003.171.358.428.171.114-.08.138-.096.257-.057.08.068.157.14.23.217v.031l-.013.018-.324.165zm27.815-2.987l-.019.124.325-.338c-.2.559-.2.559-.312.686l-.188.188-.029.039-.038.059c-.022.213-.087.491-.127.701l-.037.06c-.077.077-.16.15-.247.216.038-.213.038-.431.074-.644l-.044-.022c-.076.066-.15.138-.227.203l-.04.11-.075.656-.326.238c-.01-.221.074-.445-.01-.666-.535.373-1.256.886-.998 1.582.248-.167.566-.403.809-.579l-.057.295-.065.09c-.194.152-.463.34-.662.486a.65.65 0 00-.114.254v.04c.23-.16.525-.39.748-.558l-.093.259c-.124.178-.525.472-.695.59l-.038.034-.039.04-.018.028-.02.027-.156.343a1.993 1.993 0 01-.392.383l-.018.01h-.016c.049-.092.09-.187.124-.284v-.028l-.011.008-.022.014-.026.029-.032.033-.872.882-.174.13c.038-.088.088-.17.15-.245l.014-.018c.341-.339.768-.816 1.093-1.17a.57.57 0 00.095-.197l-.042-.026-.023.014-.025.03-.032.034c-.296.342-.716.776-1.025 1.106l.036-.231c.365-.63 1.194-1.005 1.113-1.88l-.412.25-.036.049c-.163.229-.294.403-.58.778l-.018.03a.574.574 0 00-.085.412c.027.39-.431.737-.524.802l-.033.018c.033-.15.042-.358.06-.512-.428.227-.342.724-.59 1.043-.085.092-.397.354-.397.354l-.037.018v-.014c.034-.133.078-.306.111-.443-.782.603-.782.603-.797.603l-.01-.05.02-.019.018-.022.59-.57.062-.091c-.267.129-.627.292-.896.418l-.008-.01v-.026l-.014.024c.085-.181.27-.281.385-.44 1.122-.524 1.122-.524 1.343-.886-.272.14-.639.316-.911.453-.004-.045-.004-.045.372-.506 2.057-1.024 1.803-1.681 1.73-1.803h-.05c-.693.388-.693.388-.795.502-.239.339-.58.775-.832 1.106l-.428.211-.03-.01c.241-.312.538-.745.766-1.063l-.021-.026-.347.176c-.26.36-.629.824-.901 1.177l-.48.221c.214-.375.514-.692.76-1.043l-.028-.038-.699.328c.211-.504.211-.504.713-.735.086-.04.099-.056.117-.107.107-.308-.246-.415-.308-.65l.043-.056.45-.221c.12.093.12.093.434.665l.327-.166.02-.08c-.315-.666-.315-.666.03-.832l.143-.076.072.04c.112.184.236.443.336.634.998-.519.998-.519 1.14-.967.016-.173.03-.323-.209-.687-.344.2-.813.45-1.164.64a.661.661 0 01-.153-.402c.303-.16.7-.383.999-.549l.007-.037.009-.038a1.076 1.076 0 00-.143-.24c-.348.197-.822.448-1.174.637a.564.564 0 01-.24-.282c.117-.592 1.033-.164 1.107-.782v-.084l-.313-.467c-.018-.063-.05-.254.285-.505l.03-.006c.19.11.182.36.36.481l.055-.01.048-.027.045-.08.428-1.234.105-.018c.191.238.191.238.2.325l.007.154c-.516 1.591-.516 1.591-.374 1.675l.057-.016c.331-.37.273-.894.548-1.286.166-.102.241.262.211.433-.147.386-.374.89-.535 1.271-.033.242.196.61.22.633a.747.747 0 00.208-.113c.405-.254.713-1.233.713-1.243.049-.346-.27-.552-.35-.85l.057-.07v.073l.008-.016.014-.055c.055-.178.12-.354.174-.532l.016-.01.016-.011.018.016.012.022.376.72c.062-.013.584-.168-.17-1.5v-.058c-.014-.196 0-.291.118-.638l.015-.011.015-.01h.02c.194.256.349.537.46.835h.013c.254-.282.087-.692.325-.977a.386.386 0 01.21 0c.004.336-.157.642-.184.972.218-.177.5-.42.713-.603a2.71 2.71 0 01-.224.727c-.913.81-.913.81-1.011 1.212l.011.122c.237-.18.54-.432.772-.62l-.009.043c-.326.995-1.761 1.353-1.61 2.619l.041.026.682-.487c.277-.448.428-.949.705-1.393a.832.832 0 01.344-.291c-.172.438-.343.79-.56 1.235l-.027.09.231-.194c.808-1.611.808-1.611.825-1.627l.12-.127.008.033-.483 1.207zM29.716 8.607a.642.642 0 01-.008-.13c.168.065.274.207.428.282l-.354-.616c.117.07.225.155.321.25.444.767.444.767.642.904h.048l-.37-.663.017.01c.274.201.304.22.659.907.023.045.46.553.629.483v-.032l-.307-.584c-.204-.214-.455-.38-.656-.594a1.506 1.506 0 01-.198-.322c.194.153.38.319.57.48l.036.016-.143-.22c-.694-.58-.694-.58-.8-.735l-.091-.127v-.01l.549.411.043.02-.258-.35c.131.04.243.125.315.238l.142.203.025.03.03.03.142-.119.033.03.187.3c-.041.052-.094.094-.133.15.049.085.101.17.159.25l.044.02.167-.117c.057.093.194.198.2.314.005.117-.132.12-.17.2.091.172.197.408.302.57.193.292.4.302.442.115l-.428-.754.067-.072.043.039.378.64.059.03.031-.014h.009v-.01l-.453-.744.04-.073c.072.042.357.504.453.669l.022.033.023.027h.022l.068-.08c.09.078.163.17.22.274l.011.022c.003.015.003.015-.041.113v.01l.007.012.01.02.014.015.019.023.445.495.09.125c-.009.03-.01.03-.045.051l-.034-.014h-.007l-.582-.64-.043-.018-.027.012a.133.133 0 00.012.067l.01.02.015.017.017.022.557.636-.06.085c-.31-.149-.381-.51-.666-.686-.076.026-.106.1-.164.145l.15.347.024.025c.127.13.25.258.373.395l.015.011c.082.067.125.011.17-.048.14-.184.346.214.346.214l.013.03-.181.176c.107.285.112.283.38.101a.28.28 0 01.063.021c.022.015.18.224.18.232v.014l.009.02v.018l-.153.183c.332.54.332.54.294.598l-.01-.01-.012-.01-.285-.363-.043-.027.187.75v.013l-.013.008a2.099 2.099 0 00-.202-.244c-.265-.93-.265-.93-.448-1.067l.235.76-.021.012c-.107-.128-.116-.128-.225-.265-.363-1.093-.363-1.093-.73-1.344-.04-.026-.155-.029-.142.069.188.546.188.546.242.626l.53.627.092.346-.007.026-.509-.59-.014.017.071.275.56.707.08.384-.502-.608-.022.02.1.538c-.257-.188-.257-.188-.324-.612-.035-.192-.286.05-.428.05l-.025-.037-.06-.328c.103-.124.259-.143.389-.213l-.065-.248-.038-.02-.334.113c-.047-.048-.058-.09-.087-.226l-.026-.106.025-.044.33-.177c-.233-.756-.233-.756-.452-.9-.077-.028-.124-.044-.315.093l.25.869a.248.248 0 01-.209.02l-.2-.722-.016-.01-.019-.01-.123.045c.239.915.239.915.046.915-.295-.208.036-.609-.272-.813l-.04-.018-.256.071c-.031-.008-.122-.034-.212-.282v-.013c.068-.077.187-.034.26-.097v-.033l-.01-.034-.033-.043-.548-.524v-.062c.123-.05.123-.05.158-.041l.072.03c.687.633.687.633.761.549v-.04c-.151-.229-.42-.347-.579-.568l-.011-.047c.054-.075.158-.04.21-.01l.579.536c.037.014.11.05.285-.086a.486.486 0 00-.06-.179 1.83 1.83 0 00-.58-.612c-.132.007-.226.114-.356.13l-.031-.046.033.014-.009-.01-.024-.018c-.082-.063-.157-.134-.238-.2v-.024l.007-.01h.008l.293-.15c-.033-.154-.172-.3-.64-.122l-.024-.008a.754.754 0 01-.285-.202V9.14a.979.979 0 01.335-.137c-.071-.208-.328-.229-.44-.396z" mask="url(#polylog-logo-ny-f)" opacity=".679"/><path fill="#000" fill-opacity=".52" fill-rule="nonzero" d="M15.497-3.692S1.774-4.67-8.413 11.614c0 0 2.633 5.312 7.692 6.92 5.683 1.807 9.287-1.119 9.287-1.119S13.972 3.856 17.3 1.061c3.326-2.796-1.802-4.753-1.802-4.753z" filter="url(#polylog-logo-ny-g)" mask="url(#polylog-logo-ny-f)"/><path fill="#99C" fill-rule="nonzero" d="M14.057 1.099c.081-.235 8.189-1.177 8.173-.987-.078.844.06 2.441 1.969 3.365 7.013 2.404 12.034 8.848 12.034 16.42 0 9.625-8.111 17.428-18.117 17.428C8.111 37.325 0 29.522 0 19.897 0 12.536 4.745 6.24 11.454 3.687c.87-.45 2.17-1.31 2.603-2.588z" mask="url(#polylog-logo-ny-f)" style="mix-blend-mode:color"/><ellipse cx="29.023" cy="26.473" fill="url(#polylog-logo-ny-h)" fill-opacity=".54" mask="url(#polylog-logo-ny-f)" rx="13.908" ry="13.379"/><ellipse cx="10.442" cy="16.305" fill="url(#polylog-logo-ny-i)" mask="url(#polylog-logo-ny-f)" rx="10.628" ry="10.224"/></g><g fill-rule="nonzero" transform="rotate(24 12.064 63.283)"><use fill="url(#polylog-logo-ny-j)" fill-rule="evenodd" href="#polylog-logo-ny-k"/><use fill="#000" filter="url(#polylog-logo-ny-l)" href="#polylog-logo-ny-k"/></g><g fill-rule="nonzero"><path fill="url(#polylog-logo-ny-m)" d="M29.108 17.023s16.494-8.667 27.305 1.398l-3.88 17.472s-6.654-.559-11.505-6.15c-3.12-3.595-11.297-6.71-11.297-6.71l-.623-6.01z" transform="rotate(24 12.064 63.283)"/><path fill="#B21919" d="M39.448 6.705s3.342-.348 2.846 4.174c-.497 4.523-.775 9.066 2.329 11.978 3.104 2.912-2.189 3.553-2.189 3.553s-11.072-9.38-9.454-12.333c1.618-2.952 6.468-7.372 6.468-7.372m15.088 25.92c-2.231-.598-5.949-7.085-5.949-7.085s14.823-6.713 19.34-1.182c0 0-2.142 11.287-13.391 8.268z"/><path fill="url(#polylog-logo-ny-n)" d="M28.207 13.943s.718.016 1.875-.025c4.892-.17 17.631-1.342 17.187-8.917 0 0 1.664.5 1.248 9.506-.277 6.01 4.118 9.49 2.079 12.021-2.456 3.049-8.455 3.355-11.643.699-4.15-3.457-10.465-4.333-10.465-4.333l-.281-8.95z" transform="rotate(24 12.064 63.283)"/><path fill="url(#polylog-logo-ny-o)" d="M24.81 16.743S10.397 5.001 14.139.528c0 0-6.515 3.495-9.01 13.28-.528 2.071 2.911 10.623 19.96 9.225l-.277-6.29z" transform="rotate(24 12.064 63.283)"/><path fill="url(#polylog-logo-ny-p)" d="M23.91 16.813S10.188 15.835 0 32.12c0 0 2.634 5.312 7.693 6.92 5.683 1.807 9.286-1.119 9.286-1.119s5.406-13.559 8.733-16.354c3.326-2.796-1.802-4.753-1.802-4.753z" transform="rotate(24 12.064 63.283)"/><path fill="url(#polylog-logo-ny-q)" d="M25.365 13.109c1.525.14 4.713.699 4.713.699s-2.08 3.215-.347 9.225h-4.92s-2.495-5.451.554-9.924z" transform="rotate(24 12.064 63.283)"/></g></g><g fill-rule="nonzero" transform="translate(105 50)"><use fill="#000" filter="url(#polylog-logo-ny-r)" href="#polylog-logo-ny-s"/><use fill="#292C30" fill-rule="evenodd" href="#polylog-logo-ny-s"/></g><path fill="#C33" d="M101.94 80h28.12a1.94 1.94 0 011.94 1.94v28.12a1.94 1.94 0 01-1.94 1.94h-28.12a1.94 1.94 0 01-1.94-1.94V81.94a1.94 1.94 0 011.94-1.94z"/><path fill="#FFF" d="M125 86.963a.99.99 0 001 .981v-.981h2c0 1.085-.895 1.963-2 1.963-1.104 0-2-.878-2-1.963 0-1.084.896-1.963 2-1.963a2 2 0 011.723.981H126c-.552 0-1 .44-1 .982zm-4 1.963c-1.104 0-2-.878-2-1.963 0-1.084.896-1.963 2-1.963 1.105 0 2 .88 2 1.963 0 1.085-.895 1.963-2 1.963zm0-2.945c-.552 0-1 .44-1 .982s.448.981 1 .981 1-.44 1-.981a.991.991 0 00-1-.982zm-2 2.945h-2V85h1v2.944h1v.982z" opacity=".64"/><path fill="#FFF" d="M115 87.103v1.823h-1v-1.823L112.661 85h1.179l.625.981h.071l.624-.981h1.18L115 87.103zm-2 1.823h-2V85h1v2.944h1v.982zm-4 0c-1.105 0-2-.878-2-1.963 0-1.084.895-1.963 2-1.963s2 .88 2 1.963c0 1.085-.895 1.963-2 1.963zm0-2.945c-.552 0-1 .44-1 .982s.448.981 1 .981 1-.44 1-.981a.991.991 0 00-1-.982zm-3.5 1.963h-.5v.982h-1V85h1.5c.829 0 1.5.66 1.5 1.472 0 .813-.671 1.472-1.5 1.472zm0-1.963h-.5v.982h.5c.276 0 .5-.22.5-.49a.496.496 0 00-.5-.492z"/><g transform="translate(105 10)"><use fill="#000" filter="url(#polylog-logo-ny-t)" href="#polylog-logo-ny-u"/><use fill="#292C30" href="#polylog-logo-ny-u"/></g><rect width="48" height="48" fill="#C33" rx="3"/><path fill="#FFF" d="M8 13H7v2H5V8h3a2.5 2.5 0 010 5zm0-3H7v1h1a.5.5 0 100-1zm14 5h-4V8h2v5h2v2zm8 0h-3V8h1v6h2v1zm-16 0a3.5 3.5 0 110-7 3.5 3.5 0 010 7zm0-5a1.5 1.5 0 100 3 1.5 1.5 0 000-3zm19 5a3.5 3.5 0 110-7 3.5 3.5 0 010 7zm0-6a2.5 2.5 0 100 5 2.5 2.5 0 000-5zm7 0a2.5 2.5 0 101.989 4H40v-1h3.45a3.5 3.5 0 110-1h-1A2.5 2.5 0 0040 9zm-15 3.236V15h-2v-2.764L20.882 8h2.236L24 9.764 24.882 8h2.236L25 12.236z"/></g></svg>