<svg width="56" height="30" viewBox="0 0 56 30" xmlns="http://www.w3.org/2000/svg"><title>eof</title><g id="Promo" fill="none" fill-rule="evenodd"><g id="Artboard" transform="translate(-74 -87)" fill="#99C"><g id="eof" transform="translate(35 50)"><g id="Txt" transform="translate(32 37)"><path d="M19.99 30L7 22.5v-15L19.99 0v6.348l-7.494 4.327v8.654l7.494 4.322V30zm15 0L22 22.5v-15L34.99 0l13 7.5v15l-13 7.5zm7.5-19.329l-7.5-4.327-7.494 4.327v8.654l7.494 4.326 7.5-4.327v-8.653zm-27.5 7.561v-6.347l5-2.885v6.348l-5 2.884zM50.004 29.5v-22L62.99 0v6.348l-7.494 4.327v15.649L50.004 29.5zm7.986-11.268v-6.347l5-2.885v6.348l-5 2.884z" id="eof"/></g></g></g></g></svg>