<svg xmlns="http://www.w3.org/2000/svg" width="242" height="26" viewBox="0 0 242 26"><g fill="none" fill-rule="evenodd"><path fill="#000" fill-opacity=".7" d="M242 0v5h-15v5h11v5h-11v6h15v5h-22V0h22zM103 0v21h13v5H96V0h7zM83.026 0c3.12 0 4.252.325 5.393.935a6.36 6.36 0 012.646 2.646c.61 1.14.935 2.272.935 5.393v8.052c0 3.12-.325 4.252-.935 5.393a6.36 6.36 0 01-2.646 2.646c-1.14.61-2.272.935-5.393.935h-6.052c-3.12 0-4.252-.325-5.393-.935a6.36 6.36 0 01-2.646-2.646c-.61-1.14-.935-2.272-.935-5.393V8.974c0-3.12.325-4.252.935-5.393A6.36 6.36 0 0171.581.935C72.721.325 73.853 0 76.974 0h6.052zm96 0c3.12 0 4.252.325 5.393.935a6.36 6.36 0 012.646 2.646c.61 1.14.935 2.272.935 5.393v8.052c0 3.12-.325 4.252-.935 5.393a6.36 6.36 0 01-2.646 2.646c-1.14.61-2.272.935-5.393.935h-6.052c-3.12 0-4.252-.325-5.393-.935a6.36 6.36 0 01-2.646-2.646c-.61-1.14-.935-2.272-.935-5.393V8.974c0-3.12.325-4.252.935-5.393a6.36 6.36 0 012.646-2.646c1.14-.61 2.272-.935 5.393-.935h6.052zM160 0v5h-10.154c-1.337 0-1.822.14-2.311.4a2.726 2.726 0 00-1.134 1.135c-.262.489-.401.974-.401 2.31v8.31c0 1.336.14 1.821.4 2.31.262.49.646.873 1.135 1.134.489.262.974.401 2.31.401H160v5h-12.026c-3.12 0-4.252-.325-5.393-.935a6.36 6.36 0 01-2.646-2.646c-.61-1.14-.935-2.272-.935-5.393V8.974c0-3.12.325-4.252.935-5.393a6.36 6.36 0 012.646-2.646c1.14-.61 2.272-.935 5.393-.935H160zm47.026 0c3.12 0 4.252.325 5.393.935a6.36 6.36 0 012.646 2.646c.61 1.14.935 2.272.935 5.393v8.052c0 3.12-.325 4.252-.935 5.393a6.36 6.36 0 01-2.646 2.646c-1.14.61-2.272.935-5.393.935H192V0h15.026zM118 0l6.5 13.722L131 0h7l-10 19v7h-7v-7L111 0h7zM56.604 0c2.427 0 3.674.325 4.815.935a6.36 6.36 0 012.646 2.646c.61 1.14.935 2.388.935 4.815v2.208c0 2.427-.325 3.674-.935 4.815a6.36 6.36 0 01-2.646 2.646c-1.14.61-2.388.935-4.815.935H48v7h-7V0h15.604zm24.55 5h-2.308c-1.337 0-1.822.14-2.311.4A2.726 2.726 0 0075.4 6.536c-.262.489-.401.974-.401 2.31v8.31c0 1.336.14 1.821.4 2.31.262.49.646.873 1.135 1.134.489.262.974.401 2.31.401h2.31c1.336 0 1.821-.14 2.31-.4a2.726 2.726 0 001.134-1.135c.262-.489.401-.974.401-2.31v-8.31c0-1.336-.14-1.821-.4-2.31A2.726 2.726 0 0083.464 5.4c-.489-.262-.974-.401-2.31-.401zm96 0h-2.308c-1.337 0-1.822.14-2.311.4a2.726 2.726 0 00-1.134 1.135c-.262.489-.401.974-.401 2.31v8.31c0 1.336.14 1.821.4 2.31.262.49.646.873 1.135 1.134.489.262.974.401 2.31.401h2.31c1.336 0 1.821-.14 2.31-.4a2.726 2.726 0 001.134-1.135c.262-.489.401-.974.401-2.31v-8.31c0-1.336-.14-1.821-.4-2.31a2.726 2.726 0 00-1.135-1.134c-.489-.262-.974-.401-2.31-.401zm28 0H199v16h6.154c1.337 0 1.822-.14 2.311-.4a2.726 2.726 0 001.134-1.135c.262-.489.401-.974.401-2.31v-8.31c0-1.336-.14-1.821-.4-2.31a2.726 2.726 0 00-1.135-1.134c-.489-.262-.974-.401-2.31-.401zM54.236 5H48v9h6.236c1.239 0 1.74-.14 2.23-.4a2.726 2.726 0 001.133-1.135c.262-.489.401-.99.401-2.229V8.764c0-1.239-.14-1.74-.4-2.23a2.726 2.726 0 00-1.135-1.133c-.489-.262-.99-.401-2.229-.401z"/><path fill="#C33" d="M0 0h27v26H0z"/></g></svg>