<svg xmlns="http://www.w3.org/2000/svg" width="219" height="31" viewBox="0 0 219 31"><g fill="none"><path fill="#000" fill-opacity=".7" d="M129.93 0H138v26h-7V10.03L122.07 26H114V0h7v15.97L129.93 0zM217 0v4a3.75 3.75 0 00-3.43 1.7l-3.26 7.11L218.56 26h-7l-6-10H202v10h-7V0h7v11h2.68l3-6.44C209.88 0 212.78 0 217 0zm-40.026 0h6.052c3.12 0 4.252.325 5.393.935a6.36 6.36 0 012.646 2.646c.61 1.14.935 2.272.935 5.393v8.052c0 3.12-.325 4.252-.935 5.393a6.36 6.36 0 01-2.646 2.646c-1.14.61-2.272.935-5.393.935h-6.052c-3.12 0-4.252-.325-5.393-.935a6.36 6.36 0 01-2.646-2.646c-.61-1.14-.935-2.272-.935-5.393V8.974c0-3.12.325-4.252.935-5.393a6.36 6.36 0 012.646-2.646c1.14-.61 2.272-.935 5.393-.935zm1.872 5c-1.337 0-1.822.14-2.311.4a2.72 2.72 0 00-1.135 1.136c-.262.489-.401.974-.401 2.31v8.31c0 1.336.14 1.821.4 2.31.262.49.646.873 1.135 1.134.489.262.974.401 2.31.401h2.31c1.336 0 1.821-.14 2.31-.4a2.726 2.726 0 001.134-1.135c.262-.489.401-.974.401-2.31v-8.31c0-1.336-.14-1.821-.4-2.31a2.726 2.726 0 00-1.135-1.136c-.489-.262-.974-.401-2.31-.401h-2.31l.002.001zM157 5h-5.61l-.53 9.93a12.49 12.49 0 01-1.07 4.39 10.24 10.24 0 01-.9 1.68H157V5zm-11.64-5H164v21h3v10h-6.12l-.36-5h-14l-.36 5H140V21h2.32a8.11 8.11 0 001.56-2.66 10 10 0 00.58-2.7l.9-15.64zM95.45 20.82a6 6 0 01-1.67 4.05 5 5 0 01-3.67 1.49A22.3 22.3 0 0186 26v-5h1.67a1.56 1.56 0 001.17-.48 1.85 1.85 0 00.51-1.19L90.46 0H110v26h-7V5h-6.64l-.91 15.82zM69.974 0h6.052c3.12 0 4.252.325 5.393.935a6.36 6.36 0 012.646 2.646c.61 1.14.935 2.272.935 5.393v8.052c0 3.12-.325 4.252-.935 5.393a6.36 6.36 0 01-2.646 2.646c-1.14.61-2.272.935-5.393.935h-6.052c-3.12 0-4.252-.325-5.393-.935a6.36 6.36 0 01-2.646-2.646c-.61-1.14-.935-2.272-.935-5.393V8.974c0-3.12.325-4.252.935-5.393A6.36 6.36 0 0164.581.935C65.721.325 66.853 0 69.974 0zm1.872 5c-1.337 0-1.822.14-2.311.4A2.72 2.72 0 0068.4 6.536c-.262.489-.401.974-.401 2.31v8.31c0 1.336.14 1.821.4 2.31.262.49.646.873 1.135 1.134.489.262.974.401 2.31.401h2.31c1.336 0 1.821-.14 2.31-.4a2.726 2.726 0 001.134-1.135c.262-.489.401-.974.401-2.31v-8.31c0-1.336-.14-1.821-.4-2.31A2.726 2.726 0 0076.464 5.4c-.489-.262-.974-.401-2.31-.401h-2.31l.002.001zM51 26V5h-9v21h-7V0h23v26h-7z"/><path fill="#C33" d="M0 0h26v26H0z"/></g></svg>