<svg xmlns="http://www.w3.org/2000/svg" width="203" height="26" viewBox="0 0 203 26"><g fill="none" fill-rule="evenodd"><path fill="#C33" d="M0 0h27v26H0z"/><path fill="#000" fill-opacity=".702" d="M94 21h13v5H87V0h7v21zM68.974 0h6.052c3.12 0 4.252.325 5.393.935a6.36 6.36 0 012.646 2.646c.61 1.14.935 2.272.935 5.393v8.052c0 3.12-.325 4.252-.935 5.393a6.36 6.36 0 01-2.646 2.646c-1.14.61-2.272.935-5.393.935h-6.052c-3.12 0-4.252-.325-5.393-.935a6.36 6.36 0 01-2.646-2.646c-.61-1.14-.935-2.272-.935-5.393V8.974c0-3.12.325-4.252.935-5.393A6.36 6.36 0 0163.581.935C64.721.325 65.853 0 68.974 0zm1.872 5c-1.337 0-1.822.14-2.311.4A2.726 2.726 0 0067.4 6.536c-.262.489-.401.974-.401 2.31v8.31c0 1.336.14 1.821.4 2.31.262.49.646.873 1.135 1.134.489.262.974.401 2.31.401h2.31c1.336 0 1.821-.14 2.31-.4a2.726 2.726 0 001.134-1.135c.262-.489.401-.974.401-2.31v-8.31c0-1.336-.14-1.821-.4-2.31A2.726 2.726 0 0075.464 5.4c-.489-.262-.974-.401-2.31-.401h-2.31zm94.128-5h6.052c3.12 0 4.252.325 5.393.935a6.36 6.36 0 012.646 2.646c.61 1.14.935 2.272.935 5.393v8.052c0 3.12-.325 4.252-.935 5.393a6.36 6.36 0 01-2.646 2.646c-1.14.61-2.272.935-5.393.935h-6.052c-3.12 0-4.252-.325-5.393-.935a6.36 6.36 0 01-2.646-2.646c-.61-1.14-.935-2.272-.935-5.393V8.974c0-3.12.325-4.252.935-5.393a6.36 6.36 0 012.646-2.646c1.14-.61 2.272-.935 5.393-.935zm1.872 5c-1.337 0-1.822.14-2.311.4a2.726 2.726 0 00-1.134 1.135c-.262.489-.401.974-.401 2.31v8.31c0 1.336.14 1.821.4 2.31.262.49.646.873 1.135 1.134.489.262.974.401 2.31.401h2.31c1.336 0 1.821-.14 2.31-.4a2.726 2.726 0 001.134-1.135c.262-.489.401-.974.401-2.31v-8.31c0-1.336-.14-1.821-.4-2.31a2.726 2.726 0 00-1.135-1.134c-.489-.262-.974-.401-2.31-.401h-2.31zM203 0v5h-10.154c-1.337 0-1.822.14-2.311.4a2.726 2.726 0 00-1.134 1.135c-.262.489-.401.974-.401 2.31v8.31c0 1.336.14 1.821.4 2.31.262.49.646.873 1.135 1.134.489.262.974.401 2.31.401H203v5h-12.026c-3.12 0-4.252-.325-5.393-.935a6.36 6.36 0 01-2.646-2.646c-.61-1.14-.935-2.272-.935-5.393V8.974c0-3.12.325-4.252.935-5.393a6.36 6.36 0 012.646-2.646c1.14-.61 2.272-.935 5.393-.935H203zm-74 0h15.026c3.12 0 4.252.325 5.393.935a6.36 6.36 0 012.646 2.646c.61 1.14.935 2.272.935 5.393v8.052c0 3.12-.325 4.252-.935 5.393a6.36 6.36 0 01-2.646 2.646c-1.14.61-2.272.935-5.393.935H129V0zm7 21h6.154c1.337 0 1.822-.14 2.311-.4a2.726 2.726 0 001.134-1.135c.262-.489.401-.974.401-2.31v-8.31c0-1.336-.14-1.821-.4-2.31a2.726 2.726 0 00-1.135-1.134c-.489-.262-.974-.401-2.31-.401H136v16zm-21.5-7.278L121 0h7l-10 19v7h-7v-7L101 0h7l6.5 13.722zM34 0h15.604c2.427 0 3.674.325 4.815.935a6.36 6.36 0 012.646 2.646c.61 1.14.935 2.388.935 4.815v2.208c0 2.427-.325 3.674-.935 4.815a6.36 6.36 0 01-2.646 2.646c-1.14.61-2.388.935-4.815.935H41v7h-7V0zm7 14h6.236c1.239 0 1.74-.14 2.23-.4a2.726 2.726 0 001.133-1.135c.262-.489.401-.99.401-2.229V8.764c0-1.239-.14-1.74-.4-2.23a2.726 2.726 0 00-1.135-1.133c-.489-.262-.99-.401-2.229-.401H41v9z"/></g></svg>