<svg xmlns="http://www.w3.org/2000/svg" xmlns:xlink="http://www.w3.org/1999/xlink" width="216" height="252" viewBox="0 0 216 252"><defs><path id="header-a" d="M0 0h216v252H0z"/><linearGradient id="header-b" x1="-.044%" y1="50.277%" y2="50.277%"><stop offset=".691%" stop-color="#FC0"/><stop offset="100%" stop-color="#C03"/></linearGradient><linearGradient id="header-d" x1=".05%" x2="100.12%" y1="49.893%" y2="49.893%"><stop offset="0%" stop-color="#FC0"/><stop offset="100%" stop-color="#393"/></linearGradient><linearGradient id="header-e" x1="50.225%" x2="50.225%" y1="-.022%" y2="100%"><stop offset="3.708%" stop-color="#FC0"/><stop offset="100%" stop-color="#393"/></linearGradient><linearGradient id="header-f" x1="100%" x2="0%" y1="50.039%" y2="50.039%"><stop offset="0%" stop-color="#FC0"/><stop offset="100%" stop-color="#393"/></linearGradient><linearGradient id="header-g" x1="49.815%" x2="49.815%" y1=".024%" y2="99.988%"><stop offset="0%" stop-color="#FC0"/><stop offset="97.058%" stop-color="#393"/></linearGradient><linearGradient id="header-h" x1="99.572%" x2="-6.992%" y1="50.089%" y2="50.089%"><stop offset="0%" stop-color="#FC0"/><stop offset="100%" stop-color="#C03"/></linearGradient><linearGradient id="header-i" x1="99.984%" x2="-.093%" y1="50.302%" y2="50.302%"><stop offset="0%" stop-color="#FC0"/><stop offset="100%" stop-color="#C03"/></linearGradient><linearGradient id="header-j" x1="-121.468%" x2="99.96%" y1="50.112%" y2="50.112%"><stop offset="0%" stop-color="#939"/><stop offset="98.088%" stop-color="#C03"/></linearGradient><linearGradient id="header-k" x1="49.74%" x2="49.74%" y1="100.08%" y2="-201.398%"><stop offset="0%" stop-color="#939"/><stop offset="100%" stop-color="#C03"/></linearGradient><linearGradient id="header-l" x1="50.123%" x2="50.123%" y1="99.762%" y2="-182.591%"><stop offset="0%" stop-color="#939"/><stop offset="100%" stop-color="#36C"/></linearGradient><linearGradient id="header-m" x1="49.913%" x2="49.912%" y1="-50.243%" y2="96.414%"><stop offset="0%" stop-color="#939"/><stop offset="100%" stop-color="#C03"/></linearGradient><linearGradient id="header-n" x1="100.156%" x2="-115.973%" y1="49.87%" y2="49.87%"><stop offset="0%" stop-color="#939"/><stop offset="100%" stop-color="#C03"/></linearGradient><path id="header-p" d="M42.528 102.2l2.754 16.898 2.55-16.898h5.202V126h-3.536v-17.068L46.914 126h-3.536l-2.788-16.83V126h-3.264v-23.8h5.202zm16.66 5.474v12.852c0 1.7.748 2.346 1.938 2.346s1.938-.646 1.938-2.346v-12.852c0-1.7-.748-2.346-1.938-2.346s-1.938.646-1.938 2.346zm-3.74 12.614v-12.376c0-3.808 2.006-5.984 5.678-5.984s5.678 2.176 5.678 5.984v12.376c0 3.808-2.006 5.984-5.678 5.984s-5.678-2.176-5.678-5.984zm21.08-3.162h3.536v3.162c0 3.808-1.904 5.984-5.576 5.984-3.672 0-5.576-2.176-5.576-5.984v-12.376c0-3.808 1.904-5.984 5.576-5.984 3.672 0 5.576 2.176 5.576 5.984v2.312h-3.536v-2.55c0-1.7-.748-2.346-1.938-2.346s-1.938.646-1.938 2.346v12.852c0 1.7.748 2.312 1.938 2.312s1.938-.612 1.938-2.312v-3.4zM90.876 126l-3.638-9.486-1.156 2.176V126h-3.74v-23.8h3.74v10.37l4.896-10.37h3.74l-5.202 10.608L94.718 126h-3.842zm8.976-18.326v12.852c0 1.7.748 2.346 1.938 2.346s1.938-.646 1.938-2.346v-12.852c0-1.7-.748-2.346-1.938-2.346s-1.938.646-1.938 2.346zm-3.74 12.614v-12.376c0-3.808 2.006-5.984 5.678-5.984s5.678 2.176 5.678 5.984v12.376c0 3.808-2.006 5.984-5.678 5.984s-5.678-2.176-5.678-5.984zm19.414-18.088c3.876 0 5.542 1.802 5.542 5.474v.85c0 2.448-.748 4.012-2.414 4.794 2.006.782 2.788 2.584 2.788 5.1v1.938c0 3.672-1.938 5.644-5.678 5.644h-5.882v-23.8h5.644zm-.238 13.09h-1.666v7.31h2.142c1.258 0 1.938-.578 1.938-2.346v-2.074c0-2.21-.714-2.89-2.414-2.89zm.136-9.69h-1.802v6.29h1.462c1.394 0 2.244-.612 2.244-2.516v-1.326c0-1.7-.578-2.448-1.904-2.448zm15.572 11.526h3.536v3.162c0 3.808-1.904 5.984-5.576 5.984-3.672 0-5.576-2.176-5.576-5.984v-12.376c0-3.808 1.904-5.984 5.576-5.984 3.672 0 5.576 2.176 5.576 5.984v2.312h-3.536v-2.55c0-1.7-.748-2.346-1.938-2.346s-1.938.646-1.938 2.346v12.852c0 1.7.748 2.312 1.938 2.312s1.938-.612 1.938-2.312v-3.4zM145.344 126l-3.638-9.486-1.156 2.176V126h-3.74v-23.8h3.74v10.37l4.896-10.37h3.74l-5.202 10.608L149.186 126h-3.842zm12.512-10.914L154.728 126h-3.842v-23.8h3.332v15.062l1.36-5.236 3.06-9.826h4.114V126h-3.366v-16.762l-1.53 5.848zM169.246 126h-3.842v-23.8h3.332v15.062l1.36-5.236 3.06-9.826h4.114V126h-3.366v-16.762l-1.53 5.848L169.246 126zm6.12-29.104c0 2.312-1.326 3.774-3.978 3.774-2.618 0-3.842-1.462-3.91-3.774h2.312c.102 1.258.612 1.564 1.598 1.564 1.02 0 1.598-.306 1.7-1.564h2.278zM45.894 168l-3.638-9.486-1.156 2.176V168h-3.74v-23.8h3.74v10.37l4.896-10.37h3.74l-5.202 10.608L49.736 168h-3.842zm17.85-23.8l-4.012 17.748c-.884 4.284-2.346 6.426-7.548 6.086v-3.332c1.904.136 2.992-.204 3.298-1.938l.034-.204-5.168-18.36h3.706l2.04 8.126 1.156 5.576.884-5.542 1.7-8.16h3.91zm.51 23.834v-3.4c1.7 0 2.244-.238 2.312-2.448l.612-17.986h10.574V168h-3.808v-20.4H70.68l-.408 14.382c-.136 4.352-1.7 6.052-5.44 6.052h-.578zM86.116 168h-5.508v-23.8h3.74v8.942h1.768c3.74 0 5.576 2.074 5.576 5.882v3.094c0 3.808-1.836 5.882-5.576 5.882zm-1.768-3.4h1.768c1.19 0 1.836-.544 1.836-2.244v-3.57c0-1.7-.646-2.244-1.836-2.244h-1.768v8.058zm8.5-17v-3.4h11.56v3.4h-3.91V168h-3.74v-20.4h-3.91zm25.5-3.4l-4.012 17.748c-.884 4.284-2.346 6.426-7.548 6.086v-3.332c1.904.136 2.992-.204 3.298-1.938l.034-.204-5.168-18.36h3.706l2.04 8.126 1.156 5.576.884-5.542 1.7-8.16h3.91zm7.072 0c3.74 0 5.576 2.074 5.576 5.882v3.094c0 3.808-1.836 5.882-5.576 5.882h-1.768V168h-3.74v-23.8h5.508zm0 3.4h-1.768v8.058h1.768c1.19 0 1.836-.544 1.836-2.244v-3.57c0-1.7-.646-2.244-1.836-2.244zm11.05 10.2V168h-3.74v-23.8h3.74v10.2h4.25v-10.2h3.808V168h-3.808v-10.2h-4.25zm16.286 10.2h-5.508v-23.8h3.74v8.942h1.768c3.74 0 5.576 2.074 5.576 5.882v3.094c0 3.808-1.836 5.882-5.576 5.882zm-1.768-3.4h1.768c1.19 0 1.836-.544 1.836-2.244v-3.57c0-1.7-.646-2.244-1.836-2.244h-1.768v8.058zm13.226 3.4h-3.74v-23.8h3.74V168zm6.562 0h-3.842v-23.8h3.332v15.062l1.36-5.236 3.06-9.826h4.114V168h-3.366v-16.762l-1.53 5.848L170.776 168zm6.12-29.104c0 2.312-1.326 3.774-3.978 3.774-2.618 0-3.842-1.462-3.91-3.774h2.312c.102 1.258.612 1.564 1.598 1.564 1.02 0 1.598-.306 1.7-1.564h2.278zM44.024 210v-2.686H42.63c-3.74 0-5.576-2.074-5.576-5.882v-6.494c0-3.808 1.836-5.882 5.576-5.882h1.394V186.2h3.672v2.856h1.394c3.74 0 5.576 2.074 5.576 5.882v6.494c0 3.808-1.836 5.882-5.576 5.882h-1.394V210h-3.672zm5.066-17.646h-1.394v11.696h1.394c1.19 0 1.87-.68 1.87-2.38v-6.97c0-1.7-.68-2.346-1.87-2.346zm-5.066 11.696v-11.696H42.63c-1.19 0-1.87.646-1.87 2.346v6.97c0 1.7.68 2.38 1.87 2.38h1.394zm16.592-12.376v12.852c0 1.7.748 2.346 1.938 2.346s1.938-.646 1.938-2.346v-12.852c0-1.7-.748-2.346-1.938-2.346s-1.938.646-1.938 2.346zm-3.74 12.614v-12.376c0-3.808 2.006-5.984 5.678-5.984s5.678 2.176 5.678 5.984v12.376c0 3.808-2.006 5.984-5.678 5.984s-5.678-2.176-5.678-5.984zM76.154 186.2c3.74 0 5.576 2.074 5.576 5.882v3.094c0 3.808-1.836 5.882-5.576 5.882h-1.768V210h-3.74v-23.8h5.508zm0 3.4h-1.768v8.058h1.768c1.19 0 1.836-.544 1.836-2.244v-3.57c0-1.7-.646-2.244-1.836-2.244zm19.618-3.4l-4.012 17.748c-.884 4.284-2.346 6.426-7.548 6.086v-3.332c1.904.136 2.992-.204 3.298-1.938l.034-.204-5.168-18.36h3.706l2.04 8.126 1.156 5.576.884-5.542 1.7-8.16h3.91zm6.732 0l2.754 16.898 2.55-16.898h5.202V210h-3.536v-17.068L106.89 210h-3.536l-2.788-16.83V210h-3.264v-23.8h5.202z"/><filter id="header-o" width="118.3%" height="122.9%" x="-9.2%" y="-9.7%" filterUnits="objectBoundingBox"><feOffset dy="2" in="SourceAlpha" result="shadowOffsetOuter1"/><feGaussianBlur in="shadowOffsetOuter1" result="shadowBlurOuter1" stdDeviation="4"/><feColorMatrix in="shadowBlurOuter1" values="0 0 0 0 0 0 0 0 0 0 0 0 0 0 0 0 0 0 0.2 0"/></filter></defs><g fill="none" fill-rule="evenodd"><mask id="header-c" fill="#fff"><use xlink:href="#header-a"/></mask><use fill="#F0F" fill-opacity=".24" xlink:href="#header-a"/><path fill="url(#header-b)" mask="url(#header-c)" d="M54 210h162v42H54z"/><path fill="url(#header-d)" mask="url(#header-c)" d="M54 168h108v42H54z"/><path fill="url(#header-e)" mask="url(#header-c)" d="M0 168h54v84H0z"/><path fill="url(#header-f)" mask="url(#header-c)" d="M0 126h162v42H0z"/><path fill="url(#header-g)" mask="url(#header-c)" d="M162 84h54v126h-54z"/><path fill="url(#header-h)" mask="url(#header-c)" d="M0 84h162v42H0z"/><path fill="url(#header-i)" mask="url(#header-c)" d="M108 42h108v42H108z"/><path fill="url(#header-j)" mask="url(#header-c)" d="M0 42h54v42H0z"/><path fill="url(#header-k)" mask="url(#header-c)" d="M162 0h54v42h-54z"/><path fill="url(#header-l)" mask="url(#header-c)" d="M108 0h54v42h-54z"/><path fill="url(#header-m)" mask="url(#header-c)" d="M54 0h54v84H54z"/><path fill="url(#header-n)" mask="url(#header-c)" d="M0 0h54v42H0z"/><use fill="#000" filter="url(#header-o)" xlink:href="#header-p"/><use fill="#FFF" xlink:href="#header-p"/></g></svg>