<svg class="mcf-icon theater" xmlns="http://www.w3.org/2000/svg" viewBox="0 0 37 44"><defs><linearGradient id="icon-theater-a" x1=".275%" x2="100.059%" y1="49.878%" y2="49.878%"><stop offset="0%" stop-color="#939"/><stop offset="100%" stop-color="#C03"/></linearGradient></defs><path fill="url(#icon-theater-a)" fill-rule="evenodd" d="M82.316 19.326c-.957 0-1.881-.037-2.775-.095a21.38 21.38 0 0 1-2.147 5.754c.045 0 .09-.01.135-.01 1.225 0 2.218-.1 2.218.73a2.584 2.584 0 0 1-2.218 2.285 2.667 2.667 0 0 1-1.745-.589 13.009 13.009 0 0 1-4.228 3.541A18.005 18.005 0 0 0 74.594 37H78v7l-6.125-7H58.256c-3.566 0-4.859-.371-6.163-1.069a7.27 7.27 0 0 1-3.024-3.024c-.7-1.3-1.069-2.6-1.069-6.163V10.256c0-3.566.371-4.859 1.069-6.163a7.27 7.27 0 0 1 3.024-3.024c1.3-.7 2.6-1.069 6.163-1.069h16.489c3.567 0 4.86.371 6.163 1.069a7.266 7.266 0 0 1 3.024 3.024c.7 1.3 1.069 2.6 1.069 6.163v8.986c-.866.058-1.762.084-2.685.084zM78.129 8.24a.979.979 0 0 0-.929-.74h-.031a.965.965 0 0 0-.308.056 31.075 31.075 0 0 1-9.714 1.322 31.072 31.072 0 0 1-9.713-1.322.953.953 0 0 0-.308-.056h-.03a.982.982 0 0 0-.935.744 23.423 23.423 0 0 0-.695 5.7c0 9.285 5.229 16.812 11.68 16.812s11.681-7.527 11.681-16.812a23.359 23.359 0 0 0-.698-5.704zm-8.416 8.566a2.584 2.584 0 0 1 2.217-2.285c1.224 0 2.216.675 2.216 1.507 0 .832-.992 1.507-2.216 1.507-1.224 0-2.217.103-2.217-.729zm1.913 4.752c.086.029.151.1.172.189a4.777 4.777 0 1 1-9.309 0 .26.26 0 0 1 .421-.141 7.616 7.616 0 0 0 8.466 0 .258.258 0 0 1 .25-.048zm-9.27-4.023c-1.224 0-2.216-.675-2.216-1.507 0-.832.992-1.507 2.216-1.507a2.583 2.583 0 0 1 2.217 2.285c0 .832-.992.729-2.217.729zM85 26.238a1.68 1.68 0 0 1-.113-.533.631.631 0 0 1 .113-.373v.906zm-7.338 10.055a4.377 4.377 0 0 1-.122-1 4.8 4.8 0 0 1 4.776-4.821c.812.005 1.61.221 2.313.627a7.406 7.406 0 0 1-.7 1.812 7.254 7.254 0 0 1-1.891 2.262 6.574 6.574 0 0 0-3.956 1.265.26.26 0 0 1-.42-.145z" transform="translate(-48)"/></svg>