<svg class="mcf-icon ballet" xmlns="http://www.w3.org/2000/svg" viewBox="0 0 37 44"><defs><linearGradient id="icon-ballet-a" x1="95.496%" x2="1.025%" y1="50.334%" y2="50.334%"><stop offset="0%" stop-color="#939"/><stop offset="100%" stop-color="#36C"/></linearGradient></defs><path fill="url(#icon-ballet-a)" fill-rule="evenodd" d="M274.932 32.907a7.275 7.275 0 0 1-3.025 3.024 7.78 7.78 0 0 1-2.907.9V44l-6.125-7h-13.619c-3.566 0-4.86-.371-6.163-1.069a7.275 7.275 0 0 1-3.025-3.024c-.7-1.3-1.068-2.6-1.068-6.163V10.256c0-3.566.371-4.859 1.068-6.163a7.275 7.275 0 0 1 3.025-3.024c1.3-.7 2.6-1.069 6.163-1.069h11.4a.862.862 0 0 0-.106.34 8.609 8.609 0 0 1-1.268 3.173L272.1 1.778l.144-.019.274-.3a7.25 7.25 0 0 1 2.412 2.638c.7 1.3 1.068 2.6 1.068 6.163v16.485c.002 3.566-.369 4.855-1.066 6.162zm-16.255 1.456c.832-1.529 1.955-4.405 2.57-9.423a6.663 6.663 0 0 1 5.412-5.782l.164-.029a4.5 4.5 0 0 0 3.141-1.971c.38-.585.59-1.264.607-1.961l-1.4.458a3.182 3.182 0 0 1-2.091.972l-.223.038a10.7 10.7 0 0 0-8.494 9.241 42.87 42.87 0 0 1-2.89 10.887 4.814 4.814 0 0 0 3.204-2.43zm-5.341 2.294c1.5.579 1.921-2.665 2.293-3.859a61.31 61.31 0 0 0 1.452-6.427c1.515-7.693 6.638-10.106 13.286-12.4-.141-.429-.527-.845-.643-1.25-.993-3.439-3.619-.846-5.436.451-3.444 2.458-8.323 5.775-10.736 9.3-1.833 2.675-.95 8.258-1.235 11.784a2.021 2.021 0 0 0 1.019 2.401zM267.5 7.349l-7.393 1 3.8 3.6c1.22-.89 2.503-1.69 3.839-2.392a4.187 4.187 0 0 1-.246-2.208zm-14.329 5.121c-.1.117-2.536 2.92-1.259 8.483.093.4.174.789.25 1.168 1.645-1.618 4.635-4.482 7.866-7.163L254.9 10.17c-.524.718-1.1 1.482-1.729 2.3zm2.452-3.3l5.361 5a66.402 66.402 0 0 1 1.918-1.492l-4.351-4.126-2.753.372-.175.246zm2.881-4.319c-.231.384-.489.8-.778 1.244l1.236 1.17 9.087-1.229c.23-.33.502-.626.811-.883a28.358 28.358 0 0 0 2.062-1.983l-12.418 1.681z" transform="translate(-239)"/></svg>