<svg class="mcf-icon travel" xmlns="http://www.w3.org/2000/svg" viewBox="0 0 37 44"><defs><linearGradient id="icon-travel-a" x1="-.162%" x2="100.137%" y1="49.81%" y2="49.81%"><stop offset="0%" stop-color="#939"/><stop offset="100%" stop-color="#C03"/></linearGradient></defs><path fill="url(#icon-travel-a)" fill-rule="evenodd" d="M315.133 20.379l-7.693-7.765a13.892 13.892 0 0 1 7.693-3.228v10.993zm-9.5 12.176a14.19 14.19 0 0 1-3.188-7.765h10.879l-7.691 7.765zm0-18.112l7.69 7.764h-10.879a14.187 14.187 0 0 1 3.188-7.764h.001zm10.78-7.7a16.782 16.782 0 0 0-10.188 29.967l1.82-1.845a13.962 13.962 0 0 1-.605-.481l8.972-9.059 6.841 6.906a7.352 7.352 0 0 1-1.471 2.258l-5.1-5.264a.383.383 0 0 0-.263-.115h-.019a.383.383 0 0 0-.262.114L308.614 37H317v7l-6.125-7h-13.619c-3.567 0-4.86-.371-6.163-1.069a7.275 7.275 0 0 1-3.025-3.024c-.7-1.3-1.068-2.6-1.068-6.163V10.256c0-3.566.371-4.859 1.068-6.163a7.275 7.275 0 0 1 3.025-3.024c1.3-.7 2.6-1.069 6.163-1.069h16.488c3.566 0 4.86.371 6.163 1.069a7.266 7.266 0 0 1 3.024 3.024 9.452 9.452 0 0 1 1.031 4.506 16.338 16.338 0 0 0-7.55-1.855l.001-.001zm-14.575 29.939v.018c.003.101.018.202.044.3h2.471a1.263 1.263 0 0 0-.33-1.233 1.269 1.269 0 0 0-1.81 0 1.3 1.3 0 0 0-.375.9v.016-.001zm-2.633-14.4a1.291 1.291 0 0 0-.89-.377h-.032a1.285 1.285 0 0 0-1.263 1.278v.032a1.3 1.3 0 0 0 .375.9 1.27 1.27 0 0 0 1.81 0 1.3 1.3 0 0 0 0-1.831v-.002zm4.818-12.62a1.272 1.272 0 0 0-1.81 0c-.236.24-.37.563-.375.9v.032a1.3 1.3 0 0 0 .375.9c.235.238.554.375.889.38h.032a1.28 1.28 0 0 0 .889-.38 1.3 1.3 0 0 0 0-1.829v-.003zm13.67-4.451V5.2a1.309 1.309 0 0 0-.376-.9 1.281 1.281 0 0 0-.889-.377h-.028c-.334.005-.653.14-.889.377a1.3 1.3 0 0 0 0 1.828 1.276 1.276 0 0 0 1.81 0 1.31 1.31 0 0 0 .376-.9v-.014l-.004-.003zm0 4.173c2.251.21 4.417.97 6.307 2.211v2.423l-6.307 6.363V9.384zM324 22.207h-4.5l4.5-4.536v4.536zm0 2.584v1.954c0 1-.032 1.8-.089 2.5L319.5 24.79h4.5v.001z" transform="translate(-287)"/></svg>