<svg class="mcf-icon cinema" xmlns="http://www.w3.org/2000/svg" viewBox="0 0 37 44"><defs><linearGradient id="icon-cinema-a" x1="100.055%" x2="-.239%" y1="49.765%" y2="49.765%"><stop offset="0%" stop-color="#939"/><stop offset="100%" stop-color="#36C"/></linearGradient></defs><path fill="url(#icon-cinema-a)" fill-rule="evenodd" d="M14.843 21.98a.993.993 0 1 1-.994-1 1 1 0 0 1 .994 1zm-3.972 0a.993.993 0 1 1-1.988-.014.993.993 0 0 1 1.989.014h-.001zm3.972-11.649a2.979 2.979 0 1 1-2.979-3.006 3 3 0 0 1 2.979 3.006zm-3.972 0a.993.993 0 1 0 .992-1 1 1 0 0 0-.991 1h-.001zm25.06 22.577a7.27 7.27 0 0 1-3.024 3.024 7.79 7.79 0 0 1-2.907.9V44l-6.125-7H10.256c-3.566 0-4.859-.371-6.163-1.069a7.391 7.391 0 0 1-1.322-.926H16A3 3 0 0 0 18.981 32V19.975a3 3 0 0 0-1.74-2.725 9.314 9.314 0 0 1-5.376 1.724 8.72 8.72 0 0 1-5.543-2h-.829a8.72 8.72 0 0 1-5.493 2v-1.633a6.919 6.919 0 0 0 5.907-3.455 6.916 6.916 0 0 0 5.957 3.458 7.014 7.014 0 0 0 0-14.028 6.915 6.915 0 0 0-5.957 3.459A6.978 6.978 0 0 0 1.445 3.5a7.246 7.246 0 0 1 2.648-2.428c1.3-.7 2.6-1.069 6.163-1.069h16.489c3.566 0 4.859.371 6.163 1.069a7.27 7.27 0 0 1 3.024 3.024c.7 1.3 1.069 2.6 1.069 6.163v16.486c-.001 3.566-.372 4.855-1.069 6.162l-.001.001zm-8.916-14.953a1.007 1.007 0 0 0-.471-.836.979.979 0 0 0-.966-.044l-4.59 2.281v13.263l4.59 2.281a.984.984 0 0 0 .966-.044c.288-.181.465-.496.471-.836V17.955zM6.9 25.988V30a1 1 0 0 1-.992 1H.348a12.611 12.611 0 0 1-.281-2h4.847v-2H0v-2.014h5.907a1 1 0 0 1 .993 1.002zM2.928 10.331a2.993 2.993 0 0 1-2.928 3v-2.009a.992.992 0 0 0 .013-1.981c.017-.778.056-1.436.116-2a2.99 2.99 0 0 1 2.799 2.99z"/></svg>