<svg class="mcf-icon music" xmlns="http://www.w3.org/2000/svg" viewBox="0 0 37 44"><defs><linearGradient id="icon-music-a" x1=".022%" x2="98.953%" y1="49.768%" y2="49.768%"><stop offset="0%" stop-color="#393"/><stop offset="100%" stop-color="#36C"/></linearGradient></defs><path fill="url(#icon-music-a)" fill-rule="evenodd" d="M211.96 21.336c-.585.02-1.136.28-1.524.72l-.327.373a3.8 3.8 0 0 1-2.764 1.3.855.855 0 1 1-.043-1.71 2.127 2.127 0 0 0 1.539-.721l.327-.372a3.823 3.823 0 0 1 2.739-1.294l.3-.01a.855.855 0 0 1 .053 1.71l-.3.004zm4.5 7.392a.845.845 0 0 1-1.149-.345 3.9 3.9 0 0 1-.263-3.064l.157-.472c.185-.56.136-1.17-.138-1.692l-.141-.265a.859.859 0 0 1 .35-1.157.843.843 0 0 1 1.146.352l.14.266a3.9 3.9 0 0 1 .25 3.041l-.157.472a2.176 2.176 0 0 0 .146 1.706.859.859 0 0 1-.336 1.159l-.005-.001zm-1.688-12.772l3.516 2.056 7.919-15c.27.34.512.702.72 1.083.7 1.3 1.068 2.6 1.068 6.163v16.487c0 3.566-.371 4.859-1.068 6.163a7.275 7.275 0 0 1-3.025 3.024 7.78 7.78 0 0 1-2.907.9V44l-6.125-7h2.485c.082-.074.165-.144.244-.222a5.1 5.1 0 0 0 1.414-2.324l.731-2.648a.845.845 0 0 1 .083-.2l2.044-3.561c.176-.305.199-.675.062-1a1.105 1.105 0 0 0-.752-.655l-.12-.031a2.508 2.508 0 0 1-1.636-1.346 2.552 2.552 0 0 1-.038-2.13.852.852 0 0 1 .466-.45l2.771-1.1a7.165 7.165 0 0 0 3.806-9.721 13.8 13.8 0 0 0-2.165-2.5l-4.979 9.434a1.137 1.137 0 0 1-.687.561l-.02.006a1.121 1.121 0 0 1-.852-.113l-3.517-2.056a1.144 1.144 0 0 1-.39-1.593l5.631-9.054a13.651 13.651 0 0 0-3.223-.653 7.065 7.065 0 0 0-5.582 3.545 7.232 7.232 0 0 0-.88 4.625l.434 2.974a.859.859 0 0 1-.155.631 2.494 2.494 0 0 1-3.821.265l-.085-.089a1.1 1.1 0 0 0-1.092-.303 1.1 1.1 0 0 0-.676.523l-2.044 3.562a.891.891 0 0 1-.13.171l-1.906 1.952a5.11 5.11 0 0 0-1.3 2.4 7.625 7.625 0 0 0 3.563 8.452l1.038.607 2.741-6.624a.85.85 0 0 1 .51-.481.839.839 0 0 1 .7.07l4.071 2.38a.86.86 0 0 1 .248 1.261L207.726 37h-6.47c-3.567 0-4.86-.371-6.163-1.069a7.266 7.266 0 0 1-3.024-3.024c-.7-1.3-1.069-2.6-1.069-6.163V10.256c0-3.566.371-4.859 1.069-6.163a7.266 7.266 0 0 1 3.024-3.024c1.3-.7 2.6-1.069 6.163-1.069h16.488c3.567 0 4.86.371 6.163 1.069.033.017.061.041.093.058l-9.228 14.829zm-8.722 20.438l3.875-5.1-2.4-1.4-2.455 5.93.98.57z" transform="translate(-191)"/></svg>