<svg class="mcf-icon education" xmlns="http://www.w3.org/2000/svg" viewBox="0 0 37 44"><defs><linearGradient id="icon-education-a" x1=".022%" x2="99.211%" y1="49.768%" y2="49.768%"><stop offset="0%" stop-color="#393"/><stop offset="100%" stop-color="#36C"/></linearGradient></defs><path fill="url(#icon-education-a)" fill-rule="evenodd" d="M157 4a.936.936 0 0 0 0 1.871h1.046v8a1.63 1.63 0 1 0 1.854 0v-8h4.113v7.207a.93.93 0 0 0 .927.934H181v1.054h-12.235a2.963 2.963 0 0 0-2.946 2.972v2.912a2.962 2.962 0 0 0 2.946 2.971H181v1.047h-20.034a3.186 3.186 0 0 0-3.167 3.2v3.59a3.186 3.186 0 0 0 3.167 3.2h17.328a7.31 7.31 0 0 1-1.387.981c-.9.489-1.888.794-2.907.9V44l-6.125-7h-13.62c-3.566 0-4.859-.371-6.162-1.069a7.266 7.266 0 0 1-3.024-3.024c-.7-1.3-1.069-2.6-1.069-6.163V10.256c0-3.566.371-4.859 1.069-6.163a7.266 7.266 0 0 1 3.024-3.024c1.3-.7 2.6-1.069 6.162-1.069h16.489c3.567 0 4.86.371 6.163 1.069A7.266 7.266 0 0 1 179.871 4H157zm10.67 16.953v-2.918a1.1 1.1 0 0 1 1.092-1.1H181v5.115h-12.235a1.1 1.1 0 0 1-1.092-1.1l-.003.003z" transform="translate(-144)"/></svg>