<svg xmlns="http://www.w3.org/2000/svg" width="324" height="44" viewBox="0 0 324 44"><defs><linearGradient id="icons-a" x1="-.162%" x2="100.137%" y1="49.81%" y2="49.81%"><stop offset="0%" stop-color="#939"/><stop offset="100%" stop-color="#C03"/></linearGradient><linearGradient id="icons-b" x1="95.496%" x2="1.025%" y1="50.334%" y2="50.334%"><stop offset="0%" stop-color="#939"/><stop offset="100%" stop-color="#36C"/></linearGradient><linearGradient id="icons-c" x1=".022%" x2="98.953%" y1="49.768%" y2="49.768%"><stop offset="0%" stop-color="#393"/><stop offset="100%" stop-color="#36C"/></linearGradient><linearGradient id="icons-d" x1=".022%" x2="99.211%" y1="49.768%" y2="49.768%"><stop offset="0%" stop-color="#393"/><stop offset="100%" stop-color="#36C"/></linearGradient><linearGradient id="icons-e" x1="98.765%" x2="2.944%" y1="49.948%" y2="49.948%"><stop offset="0%" stop-color="#FC0"/><stop offset="100%" stop-color="#C03"/></linearGradient><linearGradient id="icons-f" x1=".275%" x2="100.059%" y1="49.878%" y2="49.878%"><stop offset="0%" stop-color="#939"/><stop offset="100%" stop-color="#C03"/></linearGradient><linearGradient id="icons-g" x1="100.055%" x2="-.239%" y1="49.765%" y2="49.765%"><stop offset="0%" stop-color="#939"/><stop offset="100%" stop-color="#36C"/></linearGradient></defs><g fill="none" fill-rule="evenodd"><path fill="url(#icons-a)" d="M315.133 20.379l-7.693-7.765a13.892 13.892 0 0 1 7.693-3.228v10.993zm-9.5 12.176a14.19 14.19 0 0 1-3.188-7.765h10.879l-7.691 7.765zm0-18.112l7.69 7.764h-10.879a14.187 14.187 0 0 1 3.188-7.764h.001zm10.78-7.7a16.782 16.782 0 0 0-10.188 29.967l1.82-1.845a13.962 13.962 0 0 1-.605-.481l8.972-9.059 6.841 6.906a7.352 7.352 0 0 1-1.471 2.258l-5.1-5.264a.383.383 0 0 0-.263-.115h-.019a.383.383 0 0 0-.262.114L308.614 37H317v7l-6.125-7h-13.619c-3.567 0-4.86-.371-6.163-1.069a7.275 7.275 0 0 1-3.025-3.024c-.7-1.3-1.068-2.6-1.068-6.163V10.256c0-3.566.371-4.859 1.068-6.163a7.275 7.275 0 0 1 3.025-3.024c1.3-.7 2.6-1.069 6.163-1.069h16.488c3.566 0 4.86.371 6.163 1.069a7.266 7.266 0 0 1 3.024 3.024 9.452 9.452 0 0 1 1.031 4.506 16.338 16.338 0 0 0-7.55-1.855l.001-.001zm-14.575 29.939v.018c.003.101.018.202.044.3h2.471a1.263 1.263 0 0 0-.33-1.233 1.269 1.269 0 0 0-1.81 0 1.3 1.3 0 0 0-.375.9v.016-.001zm-2.633-14.4a1.291 1.291 0 0 0-.89-.377h-.032a1.285 1.285 0 0 0-1.263 1.278v.032a1.3 1.3 0 0 0 .375.9 1.27 1.27 0 0 0 1.81 0 1.3 1.3 0 0 0 0-1.831v-.002zm4.818-12.62a1.272 1.272 0 0 0-1.81 0c-.236.24-.37.563-.375.9v.032a1.3 1.3 0 0 0 .375.9c.235.238.554.375.889.38h.032a1.28 1.28 0 0 0 .889-.38 1.3 1.3 0 0 0 0-1.829v-.003zm13.67-4.451V5.2a1.309 1.309 0 0 0-.376-.9 1.281 1.281 0 0 0-.889-.377h-.028c-.334.005-.653.14-.889.377a1.3 1.3 0 0 0 0 1.828 1.276 1.276 0 0 0 1.81 0 1.31 1.31 0 0 0 .376-.9v-.014l-.004-.003zm0 4.173c2.251.21 4.417.97 6.307 2.211v2.423l-6.307 6.363V9.384zM324 22.207h-4.5l4.5-4.536v4.536zm0 2.584v1.954c0 1-.032 1.8-.089 2.5L319.5 24.79h4.5v.001z"/><path fill="url(#icons-b)" d="M274.932 32.907a7.275 7.275 0 0 1-3.025 3.024 7.78 7.78 0 0 1-2.907.9V44l-6.125-7h-13.619c-3.566 0-4.86-.371-6.163-1.069a7.275 7.275 0 0 1-3.025-3.024c-.7-1.3-1.068-2.6-1.068-6.163V10.256c0-3.566.371-4.859 1.068-6.163a7.275 7.275 0 0 1 3.025-3.024c1.3-.7 2.6-1.069 6.163-1.069h11.4a.862.862 0 0 0-.106.34 8.609 8.609 0 0 1-1.268 3.173L272.1 1.778l.144-.019.274-.3a7.25 7.25 0 0 1 2.412 2.638c.7 1.3 1.068 2.6 1.068 6.163v16.485c.002 3.566-.369 4.855-1.066 6.162zm-16.255 1.456c.832-1.529 1.955-4.405 2.57-9.423a6.663 6.663 0 0 1 5.412-5.782l.164-.029a4.5 4.5 0 0 0 3.141-1.971c.38-.585.59-1.264.607-1.961l-1.4.458a3.182 3.182 0 0 1-2.091.972l-.223.038a10.7 10.7 0 0 0-8.494 9.241 42.87 42.87 0 0 1-2.89 10.887 4.814 4.814 0 0 0 3.204-2.43zm-5.341 2.294c1.5.579 1.921-2.665 2.293-3.859a61.31 61.31 0 0 0 1.452-6.427c1.515-7.693 6.638-10.106 13.286-12.4-.141-.429-.527-.845-.643-1.25-.993-3.439-3.619-.846-5.436.451-3.444 2.458-8.323 5.775-10.736 9.3-1.833 2.675-.95 8.258-1.235 11.784a2.021 2.021 0 0 0 1.019 2.401zM267.5 7.349l-7.393 1 3.8 3.6c1.22-.89 2.503-1.69 3.839-2.392a4.187 4.187 0 0 1-.246-2.208zm-14.329 5.121c-.1.117-2.536 2.92-1.259 8.483.093.4.174.789.25 1.168 1.645-1.618 4.635-4.482 7.866-7.163L254.9 10.17c-.524.718-1.1 1.482-1.729 2.3zm2.452-3.3l5.361 5a66.402 66.402 0 0 1 1.918-1.492l-4.351-4.126-2.753.372-.175.246zm2.881-4.319c-.231.384-.489.8-.778 1.244l1.236 1.17 9.087-1.229c.23-.33.502-.626.811-.883a28.358 28.358 0 0 0 2.062-1.983l-12.418 1.681z"/><path fill="url(#icons-c)" d="M211.96 21.336c-.585.02-1.136.28-1.524.72l-.327.373a3.8 3.8 0 0 1-2.764 1.3.855.855 0 1 1-.043-1.71 2.127 2.127 0 0 0 1.539-.721l.327-.372a3.823 3.823 0 0 1 2.739-1.294l.3-.01a.855.855 0 0 1 .053 1.71l-.3.004zm4.5 7.392a.845.845 0 0 1-1.149-.345 3.9 3.9 0 0 1-.263-3.064l.157-.472c.185-.56.136-1.17-.138-1.692l-.141-.265a.859.859 0 0 1 .35-1.157.843.843 0 0 1 1.146.352l.14.266a3.9 3.9 0 0 1 .25 3.041l-.157.472a2.176 2.176 0 0 0 .146 1.706.859.859 0 0 1-.336 1.159l-.005-.001zm-1.688-12.772l3.516 2.056 7.919-15c.27.34.512.702.72 1.083.7 1.3 1.068 2.6 1.068 6.163v16.487c0 3.566-.371 4.859-1.068 6.163a7.275 7.275 0 0 1-3.025 3.024 7.78 7.78 0 0 1-2.907.9V44l-6.125-7h2.485c.082-.074.165-.144.244-.222a5.1 5.1 0 0 0 1.414-2.324l.731-2.648a.845.845 0 0 1 .083-.2l2.044-3.561c.176-.305.199-.675.062-1a1.105 1.105 0 0 0-.752-.655l-.12-.031a2.508 2.508 0 0 1-1.636-1.346 2.552 2.552 0 0 1-.038-2.13.852.852 0 0 1 .466-.45l2.771-1.1a7.165 7.165 0 0 0 3.806-9.721 13.8 13.8 0 0 0-2.165-2.5l-4.979 9.434a1.137 1.137 0 0 1-.687.561l-.02.006a1.121 1.121 0 0 1-.852-.113l-3.517-2.056a1.144 1.144 0 0 1-.39-1.593l5.631-9.054a13.651 13.651 0 0 0-3.223-.653 7.065 7.065 0 0 0-5.582 3.545 7.232 7.232 0 0 0-.88 4.625l.434 2.974a.859.859 0 0 1-.155.631 2.494 2.494 0 0 1-3.821.265l-.085-.089a1.1 1.1 0 0 0-1.092-.303 1.1 1.1 0 0 0-.676.523l-2.044 3.562a.891.891 0 0 1-.13.171l-1.906 1.952a5.11 5.11 0 0 0-1.3 2.4 7.625 7.625 0 0 0 3.563 8.452l1.038.607 2.741-6.624a.85.85 0 0 1 .51-.481.839.839 0 0 1 .7.07l4.071 2.38a.86.86 0 0 1 .248 1.261L207.726 37h-6.47c-3.567 0-4.86-.371-6.163-1.069a7.266 7.266 0 0 1-3.024-3.024c-.7-1.3-1.069-2.6-1.069-6.163V10.256c0-3.566.371-4.859 1.069-6.163a7.266 7.266 0 0 1 3.024-3.024c1.3-.7 2.6-1.069 6.163-1.069h16.488c3.567 0 4.86.371 6.163 1.069.033.017.061.041.093.058l-9.228 14.829zm-8.722 20.438l3.875-5.1-2.4-1.4-2.455 5.93.98.57z"/><path fill="url(#icons-d)" d="M157 4a.936.936 0 0 0 0 1.871h1.046v8a1.63 1.63 0 1 0 1.854 0v-8h4.113v7.207a.93.93 0 0 0 .927.934H181v1.054h-12.235a2.963 2.963 0 0 0-2.946 2.972v2.912a2.962 2.962 0 0 0 2.946 2.971H181v1.047h-20.034a3.186 3.186 0 0 0-3.167 3.2v3.59a3.186 3.186 0 0 0 3.167 3.2h17.328a7.31 7.31 0 0 1-1.387.981c-.9.489-1.888.794-2.907.9V44l-6.125-7h-13.62c-3.566 0-4.859-.371-6.162-1.069a7.266 7.266 0 0 1-3.024-3.024c-.7-1.3-1.069-2.6-1.069-6.163V10.256c0-3.566.371-4.859 1.069-6.163a7.266 7.266 0 0 1 3.024-3.024c1.3-.7 2.6-1.069 6.162-1.069h16.489c3.567 0 4.86.371 6.163 1.069A7.266 7.266 0 0 1 179.871 4H157zm10.67 16.953v-2.918a1.1 1.1 0 0 1 1.092-1.1H181v5.115h-12.235a1.1 1.1 0 0 1-1.092-1.1l-.003.003z"/><path fill="url(#icons-e)" d="M131.554 9.219c-15.647-4.564-13.329 17-12.464 27.781h-.6c0-.271-.012-.547-.023-.829v-.012a54.588 54.588 0 0 0-.083-1.531V34.6c-.043-.631-.1-1.281-.167-1.944v-.017c-.026-.25-.053-.5-.082-.753v-.022c-.05-.445-.107-.895-.169-1.348v-.007l-.083-.594V29.9a64.61 64.61 0 0 0-.168-1.1v-.006l-.083-.507v-.006a63.016 63.016 0 0 0-.502-2.654h-.007V25.6l-.068-.312h-.017v-.079l-.078-.349h-.006v-.03l-.073-.313h-.013v-.053c-.11-.467-.221-.906-.334-1.318v-.018l-.067-.239h-.019v-.065l-.08-.277v-.017l-.073-.241h-.012v-.04a23.95 23.95 0 0 0-.326-.988h-.014v-.04l-.104-.221h-.006v-.011a14.469 14.469 0 0 0-.16-.414h-.01v-.024a13.843 13.843 0 0 0-.327-.747h-.012v-.025l-.072-.146h-.013v-.027l-.074-.144h-.011v-.022l-.081-.15v-.007c-.084-.154-.17-.3-.255-.431a5.354 5.354 0 0 1-2.093.854c-.4.071-.808.098-1.214.081a6.758 6.758 0 0 1-1.443-.209 8.973 8.973 0 0 0-.173 1.648v.698c.009.427.035.891.079 1.4h.005v.059c.024.255.051.521.084.8v.015c.067.552.152 1.147.255 1.784a61.73 61.73 0 0 0 .846 4.195v.011c.334 1.414.707 2.8 1.1 4.1.289.951.591 1.861.9 2.712h-1.356c-2.04-5.645-.49-6.525-4.657-6.313-1.371 2.258-.634 4.47.892 6.313h-1.787c-3.566 0-4.86-.371-6.163-1.069a7.266 7.266 0 0 1-3.024-3.024c-.7-1.3-1.069-2.6-1.069-6.163V10.256c0-3.566.371-4.859 1.069-6.163a7.266 7.266 0 0 1 3.024-3.024c1.3-.7 2.6-1.069 6.163-1.069h16.488c3.566 0 4.86.371 6.163 1.069a7.266 7.266 0 0 1 3.024 3.024c.662 1.237 1.026 2.49 1.062 5.661-.467-.21-.948-.388-1.439-.535zm-14.953 4.641a5.393 5.393 0 0 0-.164-1.168h-.007v-.025a5.928 5.928 0 0 0-.245-.747h-.009v-.02a7.13 7.13 0 0 0-.508-1.007c-.05-.084-.1-.169-.159-.254h-.01v-.018a8.07 8.07 0 0 0-.166-.242v-.007l-.07-.1a7.825 7.825 0 0 0-.18-.238v-.004l-.062-.079h-.022v-.029l-.048-.057h-.05v-.047c-.082-.1-.166-.2-.253-.3l-.077-.085h-.008v-.006l-.07-.077h-.015v-.015l-.066-.07h-.019v-.02l-.063-.066h-.029v-.022a10.578 10.578 0 0 0-.325-.321h-.014v-.014l-.077-.072h-.009v-.007l-.084-.078a14.715 14.715 0 0 0-.29-.257h-.05v-.043l-.051-.043h-.03v-.029l-.068-.057h-.017v-.014c-.134-.11-.271-.22-.413-.329h-.011v-.009c-.109-.083-.22-.165-.333-.248h-.007v-.005c-.077-.055-.154-.111-.233-.166h-.022V7.45l-.227-.156h-.027v-.019c-.076-.051-.153-.1-.231-.153h-.025v-.016c-.08-.052-.16-.1-.243-.155h-.013v-.008c-.133-.084-.27-.167-.408-.25h-.016v-.01a24.563 24.563 0 0 0-.579-.333h-.016v-.008l-.14-.077h-.03v-.016l-.128-.069h-.041v-.023l-.12-.063h-.051v-.027l-.113-.059h-.058v-.029c-.315-.163-.64-.322-.976-.479a.838.838 0 0 0-1.045.285.856.856 0 0 0 .092 1.088c1.571 1.6 1.042 2.868.05 4.81-.139.271-.28.548-.413.83v.008a7.8 7.8 0 0 0-.5 1.342v.029h-.008a4.303 4.303 0 0 0-.078.368v.06h-.009c-.081.485-.056.983.075 1.457h.012v.065c.112.362.281.705.5 1.015.028.04.056.081.085.12h.01v.013l.055.073h.03v.037c.214.273.46.519.734.733h.03v.023l.083.062.123.082h.05v.033l.082.053.143.085h.027v.015c.052.029.1.056.156.083a4.506 4.506 0 0 0 .591.244h.017v.005c.088.029.177.056.268.08h.071v.019c.293.073.59.123.891.152h.129v.012a6.59 6.59 0 0 0 .848.02v-.025h.317c.151-.018.3-.042.448-.073v-.013h.056a5.61 5.61 0 0 0 .284-.071V18.6h.051a5.067 5.067 0 0 0 1.307-.594V18h.014a4.86 4.86 0 0 0 .246-.169l.08-.061v-.022h.033c.137-.106.268-.22.392-.34l.1-.1.07-.072a4.38 4.38 0 0 0 .252-.291v-.054h.041l.044-.058v-.028h.021c.051-.07.1-.141.149-.213v-.044h.029c.081-.127.157-.259.226-.394v-.034h.017c.024-.047.046-.094.068-.141v-.03h.013c.025-.055.05-.11.072-.166v-.092h.036l.049-.137v-.034h.012c.026-.08.05-.16.072-.241v-.016h.005l.033-.128c.08-.332.124-.672.133-1.014v-.261h.007zm9.4 23.14v7l-6.125-7h6.125zm7-12.437v2.181c.009.973-.034 1.946-.129 2.914a2.6 2.6 0 0 1-1.694-.107 2.676 2.676 0 0 1-1.419-3.489 2.627 2.627 0 0 1 3.242-1.499zm-3.184-12.13a3.412 3.412 0 0 1 1.81 4.445 3.357 3.357 0 0 1-4.406 1.822 3.411 3.411 0 0 1-1.809-4.445 3.356 3.356 0 0 1 4.405-1.822zm-5.055 19.818a2.635 2.635 0 0 1 3.458-1.433 2.675 2.675 0 0 1 1.419 3.49 2.633 2.633 0 0 1-3.457 1.432 2.677 2.677 0 0 1-1.42-3.489z"/><path fill="url(#icons-f)" d="M82.316 19.326c-.957 0-1.881-.037-2.775-.095a21.38 21.38 0 0 1-2.147 5.754c.045 0 .09-.01.135-.01 1.225 0 2.218-.1 2.218.73a2.584 2.584 0 0 1-2.218 2.285 2.667 2.667 0 0 1-1.745-.589 13.009 13.009 0 0 1-4.228 3.541A18.005 18.005 0 0 0 74.594 37H78v7l-6.125-7H58.256c-3.566 0-4.859-.371-6.163-1.069a7.27 7.27 0 0 1-3.024-3.024c-.7-1.3-1.069-2.6-1.069-6.163V10.256c0-3.566.371-4.859 1.069-6.163a7.27 7.27 0 0 1 3.024-3.024c1.3-.7 2.6-1.069 6.163-1.069h16.489c3.567 0 4.86.371 6.163 1.069a7.266 7.266 0 0 1 3.024 3.024c.7 1.3 1.069 2.6 1.069 6.163v8.986c-.866.058-1.762.084-2.685.084zM78.129 8.24a.979.979 0 0 0-.929-.74h-.031a.965.965 0 0 0-.308.056 31.075 31.075 0 0 1-9.714 1.322 31.072 31.072 0 0 1-9.713-1.322.953.953 0 0 0-.308-.056h-.03a.982.982 0 0 0-.935.744 23.423 23.423 0 0 0-.695 5.7c0 9.285 5.229 16.812 11.68 16.812s11.681-7.527 11.681-16.812a23.359 23.359 0 0 0-.698-5.704zm-8.416 8.566a2.584 2.584 0 0 1 2.217-2.285c1.224 0 2.216.675 2.216 1.507 0 .832-.992 1.507-2.216 1.507-1.224 0-2.217.103-2.217-.729zm1.913 4.752c.086.029.151.1.172.189a4.777 4.777 0 1 1-9.309 0 .26.26 0 0 1 .421-.141 7.616 7.616 0 0 0 8.466 0 .258.258 0 0 1 .25-.048zm-9.27-4.023c-1.224 0-2.216-.675-2.216-1.507 0-.832.992-1.507 2.216-1.507a2.583 2.583 0 0 1 2.217 2.285c0 .832-.992.729-2.217.729zM85 26.238a1.68 1.68 0 0 1-.113-.533.631.631 0 0 1 .113-.373v.906zm-7.338 10.055a4.377 4.377 0 0 1-.122-1 4.8 4.8 0 0 1 4.776-4.821c.812.005 1.61.221 2.313.627a7.406 7.406 0 0 1-.7 1.812 7.254 7.254 0 0 1-1.891 2.262 6.574 6.574 0 0 0-3.956 1.265.26.26 0 0 1-.42-.145z"/><path fill="url(#icons-g)" d="M14.843 21.98a.993.993 0 1 1-.994-1 1 1 0 0 1 .994 1zm-3.972 0a.993.993 0 1 1-1.988-.014.993.993 0 0 1 1.989.014h-.001zm3.972-11.649a2.979 2.979 0 1 1-2.979-3.006 3 3 0 0 1 2.979 3.006zm-3.972 0a.993.993 0 1 0 .992-1 1 1 0 0 0-.991 1h-.001zm25.06 22.577a7.27 7.27 0 0 1-3.024 3.024 7.79 7.79 0 0 1-2.907.9V44l-6.125-7H10.256c-3.566 0-4.859-.371-6.163-1.069a7.391 7.391 0 0 1-1.322-.926H16A3 3 0 0 0 18.981 32V19.975a3 3 0 0 0-1.74-2.725 9.314 9.314 0 0 1-5.376 1.724 8.72 8.72 0 0 1-5.543-2h-.829a8.72 8.72 0 0 1-5.493 2v-1.633a6.919 6.919 0 0 0 5.907-3.455 6.916 6.916 0 0 0 5.957 3.458 7.014 7.014 0 0 0 0-14.028 6.915 6.915 0 0 0-5.957 3.459A6.978 6.978 0 0 0 1.445 3.5a7.246 7.246 0 0 1 2.648-2.428c1.3-.7 2.6-1.069 6.163-1.069h16.489c3.566 0 4.859.371 6.163 1.069a7.27 7.27 0 0 1 3.024 3.024c.7 1.3 1.069 2.6 1.069 6.163v16.486c-.001 3.566-.372 4.855-1.069 6.162l-.001.001zm-8.916-14.953a1.007 1.007 0 0 0-.471-.836.979.979 0 0 0-.966-.044l-4.59 2.281v13.263l4.59 2.281a.984.984 0 0 0 .966-.044c.288-.181.465-.496.471-.836V17.955zM6.9 25.988V30a1 1 0 0 1-.992 1H.348a12.611 12.611 0 0 1-.281-2h4.847v-2H0v-2.014h5.907a1 1 0 0 1 .993 1.002zM2.928 10.331a2.993 2.993 0 0 1-2.928 3v-2.009a.992.992 0 0 0 .013-1.981c.017-.778.056-1.436.116-2a2.99 2.99 0 0 1 2.799 2.99z"/></g></svg>