<svg class="mcf-icon art" xmlns="http://www.w3.org/2000/svg" viewBox="0 0 37 44"><defs><linearGradient id="icon-art-a" x1="98.765%" x2="2.944%" y1="49.948%" y2="49.948%"><stop offset="0%" stop-color="#FC0"/><stop offset="100%" stop-color="#C03"/></linearGradient></defs><path fill="url(#icon-art-a)" fill-rule="evenodd" d="M131.554 9.219c-15.647-4.564-13.329 17-12.464 27.781h-.6c0-.271-.012-.547-.023-.829v-.012a54.588 54.588 0 0 0-.083-1.531V34.6c-.043-.631-.1-1.281-.167-1.944v-.017c-.026-.25-.053-.5-.082-.753v-.022c-.05-.445-.107-.895-.169-1.348v-.007l-.083-.594V29.9a64.61 64.61 0 0 0-.168-1.1v-.006l-.083-.507v-.006a63.016 63.016 0 0 0-.502-2.654h-.007V25.6l-.068-.312h-.017v-.079l-.078-.349h-.006v-.03l-.073-.313h-.013v-.053c-.11-.467-.221-.906-.334-1.318v-.018l-.067-.239h-.019v-.065l-.08-.277v-.017l-.073-.241h-.012v-.04a23.95 23.95 0 0 0-.326-.988h-.014v-.04l-.104-.221h-.006v-.011a14.469 14.469 0 0 0-.16-.414h-.01v-.024a13.843 13.843 0 0 0-.327-.747h-.012v-.025l-.072-.146h-.013v-.027l-.074-.144h-.011v-.022l-.081-.15v-.007c-.084-.154-.17-.3-.255-.431a5.354 5.354 0 0 1-2.093.854c-.4.071-.808.098-1.214.081a6.758 6.758 0 0 1-1.443-.209 8.973 8.973 0 0 0-.173 1.648v.698c.009.427.035.891.079 1.4h.005v.059c.024.255.051.521.084.8v.015c.067.552.152 1.147.255 1.784a61.73 61.73 0 0 0 .846 4.195v.011c.334 1.414.707 2.8 1.1 4.1.289.951.591 1.861.9 2.712h-1.356c-2.04-5.645-.49-6.525-4.657-6.313-1.371 2.258-.634 4.47.892 6.313h-1.787c-3.566 0-4.86-.371-6.163-1.069a7.266 7.266 0 0 1-3.024-3.024c-.7-1.3-1.069-2.6-1.069-6.163V10.256c0-3.566.371-4.859 1.069-6.163a7.266 7.266 0 0 1 3.024-3.024c1.3-.7 2.6-1.069 6.163-1.069h16.488c3.566 0 4.86.371 6.163 1.069a7.266 7.266 0 0 1 3.024 3.024c.662 1.237 1.026 2.49 1.062 5.661-.467-.21-.948-.388-1.439-.535zm-14.953 4.641a5.393 5.393 0 0 0-.164-1.168h-.007v-.025a5.928 5.928 0 0 0-.245-.747h-.009v-.02a7.13 7.13 0 0 0-.508-1.007c-.05-.084-.1-.169-.159-.254h-.01v-.018a8.07 8.07 0 0 0-.166-.242v-.007l-.07-.1a7.825 7.825 0 0 0-.18-.238v-.004l-.062-.079h-.022v-.029l-.048-.057h-.05v-.047c-.082-.1-.166-.2-.253-.3l-.077-.085h-.008v-.006l-.07-.077h-.015v-.015l-.066-.07h-.019v-.02l-.063-.066h-.029v-.022a10.578 10.578 0 0 0-.325-.321h-.014v-.014l-.077-.072h-.009v-.007l-.084-.078a14.715 14.715 0 0 0-.29-.257h-.05v-.043l-.051-.043h-.03v-.029l-.068-.057h-.017v-.014c-.134-.11-.271-.22-.413-.329h-.011v-.009c-.109-.083-.22-.165-.333-.248h-.007v-.005c-.077-.055-.154-.111-.233-.166h-.022V7.45l-.227-.156h-.027v-.019c-.076-.051-.153-.1-.231-.153h-.025v-.016c-.08-.052-.16-.1-.243-.155h-.013v-.008c-.133-.084-.27-.167-.408-.25h-.016v-.01a24.563 24.563 0 0 0-.579-.333h-.016v-.008l-.14-.077h-.03v-.016l-.128-.069h-.041v-.023l-.12-.063h-.051v-.027l-.113-.059h-.058v-.029c-.315-.163-.64-.322-.976-.479a.838.838 0 0 0-1.045.285.856.856 0 0 0 .092 1.088c1.571 1.6 1.042 2.868.05 4.81-.139.271-.28.548-.413.83v.008a7.8 7.8 0 0 0-.5 1.342v.029h-.008a4.303 4.303 0 0 0-.078.368v.06h-.009c-.081.485-.056.983.075 1.457h.012v.065c.112.362.281.705.5 1.015.028.04.056.081.085.12h.01v.013l.055.073h.03v.037c.214.273.46.519.734.733h.03v.023l.083.062.123.082h.05v.033l.082.053.143.085h.027v.015c.052.029.1.056.156.083a4.506 4.506 0 0 0 .591.244h.017v.005c.088.029.177.056.268.08h.071v.019c.293.073.59.123.891.152h.129v.012a6.59 6.59 0 0 0 .848.02v-.025h.317c.151-.018.3-.042.448-.073v-.013h.056a5.61 5.61 0 0 0 .284-.071V18.6h.051a5.067 5.067 0 0 0 1.307-.594V18h.014a4.86 4.86 0 0 0 .246-.169l.08-.061v-.022h.033c.137-.106.268-.22.392-.34l.1-.1.07-.072a4.38 4.38 0 0 0 .252-.291v-.054h.041l.044-.058v-.028h.021c.051-.07.1-.141.149-.213v-.044h.029c.081-.127.157-.259.226-.394v-.034h.017c.024-.047.046-.094.068-.141v-.03h.013c.025-.055.05-.11.072-.166v-.092h.036l.049-.137v-.034h.012c.026-.08.05-.16.072-.241v-.016h.005l.033-.128c.08-.332.124-.672.133-1.014v-.261h.007zm9.4 23.14v7l-6.125-7h6.125zm7-12.437v2.181c.009.973-.034 1.946-.129 2.914a2.6 2.6 0 0 1-1.694-.107 2.676 2.676 0 0 1-1.419-3.489 2.627 2.627 0 0 1 3.242-1.499zm-3.184-12.13a3.412 3.412 0 0 1 1.81 4.445 3.357 3.357 0 0 1-4.406 1.822 3.411 3.411 0 0 1-1.809-4.445 3.356 3.356 0 0 1 4.405-1.822zm-5.055 19.818a2.635 2.635 0 0 1 3.458-1.433 2.675 2.675 0 0 1 1.419 3.49 2.633 2.633 0 0 1-3.457 1.432 2.677 2.677 0 0 1-1.42-3.489z" transform="translate(-96)"/></svg>