<svg xmlns="http://www.w3.org/2000/svg" viewBox="0 0 151 114"><title>logo</title><g style="isolation:isolate" fill="#369"><path d="M9.83 26.69l2.7-17.89H18V34h-3.71V15.93L11.55 34H7.81L4.86 16.18V34H1.4V8.8h5.51zm10.76-11.84c0-4 2.13-6.33 6-6.33s6 2.3 6 6.33V28c0 4-2.12 6.34-6 6.34s-6-2.31-6-6.34zm4 13.36c0 1.79.79 2.48 2.05 2.48s2-.69 2-2.48V14.6c0-1.8-.79-2.48-2-2.48s-2.05.68-2.05 2.48zm22.06-3.6V28c0 4-2 6.34-5.9 6.34S34.85 32 34.85 28V14.85c0-4 2-6.33 5.9-6.33s5.9 2.3 5.9 6.33v2.45h-3.74v-2.7c0-1.8-.79-2.48-2-2.48s-2 .68-2 2.48v13.61c0 1.79.79 2.44 2 2.44s2-.65 2-2.44v-3.6zm7.6-.61L53 26.26V34h-4V8.8h4v11l5.18-11h4L56.66 20l5.51 14H58.1zm9.4-9.15c0-4 2.12-6.33 6-6.33s6 2.3 6 6.33V28c0 4-2.13 6.34-6 6.34s-6-2.31-6-6.34zm4 13.36c0 1.79.79 2.48 2 2.48s2-.69 2-2.48V14.6c0-1.8-.79-2.48-2-2.48s-2 .68-2 2.48zM90.07 14.6v.9c0 2.59-.79 4.25-2.56 5.07 2.13.83 2.95 2.74 2.95 5.4V28c0 3.89-2 6-6 6h-6.23V8.8h6c4.07 0 5.84 1.91 5.84 5.8zm-7.88-2.2v6.66h1.54c1.48 0 2.38-.65 2.38-2.66V15c0-1.8-.61-2.59-2-2.59zm0 10.26v7.74h2.26c1.34 0 2-.61 2-2.48v-2.2c0-2.34-.75-3.06-2.55-3.06zm22.13 1.95V28c0 4-2 6.34-5.9 6.34S92.52 32 92.52 28V14.85c0-4 2-6.33 5.9-6.33s5.9 2.3 5.9 6.33v2.45h-3.74v-2.7c0-1.8-.79-2.48-2-2.48s-2 .68-2 2.48v13.61c0 1.79.79 2.44 2 2.44s2-.65 2-2.44v-3.6zm7.6-.61l-1.22 2.3V34h-4V8.8h4v11l5.18-11h4L114.33 20l5.51 14h-4.07zm13.79 10h-4.07V8.8h3.53v16l1.44-5.54 3.24-10.46h4.35V34h-3.56V16.25l-1.64 6.2zm15.37 0H137V8.8h3.53v16l1.47-5.59 3.22-10.41h4.35V34H146V16.25l-1.62 6.2zm4.07-30.81c-.11 1.33-.72 1.65-1.8 1.65s-1.59-.32-1.69-1.65h-2.45c.07 2.45 1.37 4 4.14 4s4.21-1.54 4.21-4zM8 63l-1.22 2.3V73h-4V47.8h4v11l5.22-11h4L10.41 59l5.51 14h-4.07zm18.51 3.59c-.94 4.54-2.49 6.81-8 6.45v-3.53c2 .14 3.16-.22 3.49-2.05v-.22L16.57 47.8h3.92l2.16 8.61 1.23 5.9.93-5.87 1.8-8.64h4.14zm4.78 2.85c1.8 0 2.38-.26 2.45-2.6l.65-19h11.2V73h-4V51.4H38.1l-.43 15.23c-.15 4.61-1.8 6.41-5.76 6.41h-.62zM48.61 73V47.8h4v9.47h1.87c4 0 5.91 2.2 5.91 6.23v3.27c0 4-2 6.23-5.91 6.23zm5.83-3.6c1.26 0 2-.58 2-2.38v-3.77c0-1.8-.69-2.38-2-2.38h-1.87v8.53zm5.66-21.6h12.23v3.6h-4.14V73h-4V51.4H60.1z" style="isolation:isolate"/><path d="M81.32 66.59c-.93 4.54-2.48 6.81-8 6.45v-3.53c2 .14 3.17-.22 3.49-2.05v-.22L71.39 47.8h3.92l2.16 8.61 1.23 5.9.93-5.87 1.8-8.64h4.14zM99 54v3.28c0 4-1.94 6.22-5.9 6.22h-1.91V73h-4V47.8h5.83C97 47.8 99 50 99 54zm-7.81-2.6v8.53h1.87c1.26 0 1.94-.57 1.94-2.37v-3.78c0-1.8-.68-2.38-1.94-2.38zM104.76 73h-4V47.8h4v10.8h4.5V47.8h4V73h-4V62.2h-4.5zm11.41 0V47.8h4v9.47H122c4 0 5.91 2.2 5.91 6.23v3.27c0 4-2 6.23-5.91 6.23zm5.83-3.6c1.26 0 2-.58 2-2.38v-3.77c0-1.8-.69-2.38-2-2.38h-1.87v8.53zm8.17 3.6V47.8h4V73zm10.91 0H137V47.8h3.52v16l1.48-5.59 3.24-10.41h4.36V73H146V55.25l-1.62 6.2zm4.07-30.81c-.11 1.33-.72 1.65-1.8 1.65s-1.58-.32-1.69-1.65h-2.45c.07 2.45 1.37 4 4.14 4s4.21-1.54 4.21-4zm-68.61 66.97h-1.48c-4 0-5.9-2.2-5.9-6.23v-6.88c0-4 1.94-6.22 5.9-6.22h1.48v-3h3.88v3h1.48c4 0 5.9 2.19 5.9 6.22v6.88c0 4-1.94 6.23-5.9 6.23h-1.48V112h-3.88zm0-15.84h-1.48c-1.26 0-2 .68-2 2.48v7.38c0 1.8.72 2.52 2 2.52h1.48zm3.88 0v12.38h1.48c1.26 0 2-.72 2-2.52V95.8c0-1.8-.72-2.48-2-2.48zm9.72-.47c0-4 2.13-6.33 6-6.33s6 2.3 6 6.33V106c0 4-2.13 6.34-6 6.34s-6-2.31-6-6.34zm4 13.36c0 1.79.8 2.48 2.05 2.48s2.06-.69 2.06-2.48V92.6c0-1.8-.8-2.48-2.06-2.48s-2.05.68-2.05 2.48zM116.46 93v3.28c0 4-1.95 6.22-5.91 6.22h-1.87v9.5h-4V86.8h5.83c4 0 5.95 2.2 5.95 6.2zm-7.78-2.63v8.53h1.87c1.26 0 2-.57 2-2.37v-3.75c0-1.8-.69-2.38-2-2.38zm18.4 15.22c-.94 4.54-2.49 6.81-8 6.45v-3.53c2 .14 3.16-.22 3.49-2.05v-.22l-5.43-19.44h3.93l2.16 8.61 1.22 5.9.94-5.87 1.8-8.64h4.14zm14.29-.9l2.7-17.89h5.51V112h-3.75V93.93L143.1 112h-3.75l-2.95-17.82V112H133V86.8h5.5z" style="isolation:isolate"/></g></svg>