<svg xmlns="http://www.w3.org/2000/svg" viewBox="0 0 118 103"><title>tagline-date</title><path d="M7.45 15.49L6.3 17.42V24H4.12V4.4H6.3v9.46l5.21-9.46h2.21l-5 8.93L13.89 24h-2.24zm14 4.2c-.67 2.94-1.68 4.51-5.23 4.34v-2c1.68.08 2.43-.45 2.8-1.93l.44-1.29L15 4.4h2.18l2 6.8 1.34 4.93 1.15-4.93 1.76-6.8h2.27zm7.37-13.3l-.45 12.74c-.11 3.11-.95 4.87-3.95 4.9h-.36V22c1.82 0 2.13-.92 2.18-2.8l.54-14.8h8V24h-2.21V6.39zm12.38 5.74c3.1 0 4.56 1.62 4.56 4.73v2.35c0 3-1.34 4.79-4.4 4.79h-4.28V4.4h2.18v7.73zm.16 9.87c1.6 0 2.24-.89 2.24-2.69v-2.6c0-1.9-.78-2.63-2.4-2.63h-1.94V22zm7.58 2V6.39h-3.61v-2h9.41v2h-3.61V24zm13.3-4.31C61.57 22.63 60.56 24.2 57 24v-2c1.68.08 2.43-.45 2.8-1.93l.45-1.29-4.5-14.38h2.18l2 6.8 1.34 4.93 1.15-4.93 1.77-6.8h2.26zM72.32 4.4c3.08 0 4.4 1.82 4.4 4.79v2.35c0 3.11-1.46 4.73-4.56 4.73h-1.94V24H68V4.4zm-.16 9.91c1.62 0 2.4-.75 2.4-2.63v-2.6c0-1.8-.64-2.69-2.24-2.69h-2.1v7.92zm8.48 5.74L79.88 24h-2l3.74-19.6h3.16L88.54 24h-2.19l-.75-3.95zm.28-1.87h4.37L83.08 6.86zM4 40.13c0-3 1.49-4.93 4.48-4.93s4.51 1.94 4.51 4.93v10.14c0 3-1.48 4.93-4.51 4.93S4 53.24 4 50.27zm2.11 10.25c0 1.79.75 2.83 2.32 2.83s2.33-1 2.33-2.83V40c0-1.76-.73-2.83-2.33-2.83S6.11 38.26 6.11 40zm13.38-6.89c3.05 0 4.62 1.46 4.62 4.59v2.16c0 3-1.43 4.76-4.51 4.76H15V35.4h8.3v2h-6.1v6.1zM19.6 53c1.6 0 2.33-.81 2.33-2.63v-2.43c0-1.9-.84-2.49-2.44-2.49H17.2V53zM32 43.13c3.08 0 4.56 1.62 4.56 4.73v2.35c0 3-1.34 4.79-4.39 4.79h-4.31V37.36H25.4v-2H30v7.73zm.15 9.87c1.59 0 2.21-.89 2.21-2.69v-2.6c0-1.9-.76-2.63-2.38-2.63H30V53zm13.32-8.92v2h-4.78v7h5.88v2H38.5V35.4h8.07v2h-5.88v6.69zm12.77 13.61V55h-8v2.69h-2.1v-4.62h1.26a4.18 4.18 0 0 0 .87-2.86L51 35.4h7.87v17.67h1.48v4.62zm-5.85-7.51a4.25 4.25 0 0 1-.89 2.89h5.17V37.39H53zM67.43 46l-2.89 9h-2.26V35.4h1.93V50l1.73-5.41 3.14-9.21h2.43V55h-2V39.4zm8.48.18V55h-2.18V35.4h2.18v8.82h4.82V35.4h2.18V55h-2.18v-8.82zm14.31.45c-1.82 0-2.86.7-2.86 2.91v3.08A5.16 5.16 0 0 1 87 55h-2.21a5.34 5.34 0 0 0 .39-2.35v-3c0-2.1.67-3.56 2.43-4.09-1.65-.53-2.4-1.88-2.4-4v-1.6c0-2.91 1.28-4.48 4.36-4.48h4.37V55h-2.18v-8.37zm-.59-9.24c-1.62 0-2.27.92-2.27 2.69V42c0 2.13 1 2.69 2.75 2.69h1.65v-7.3zm13.52 6.69v2h-4.78v7h5.88v2h-8.07V35.4h8.07v2h-5.88v6.69zM109.26 55V37.39h-3.61v-2h9.4v2h-3.61V55zM8.68 69.52c0 3.37-3.79 4.59-3.81 7.17v.17h3.68V78H3.64v-1c0-3.62 3.79-4.32 3.79-7.48 0-1.15-.38-1.76-1.31-1.76s-1.31.66-1.31 1.65v1H3.64v-.92c0-1.71.78-2.85 2.51-2.85s2.53 1.16 2.53 2.88zm6.13-.02v.29a2.21 2.21 0 0 1-1.36 2.3 2.24 2.24 0 0 1 1.36 2.32v.87c0 1.71-.8 2.83-2.53 2.83S9.77 77 9.77 75.28v-.77h1.17v.85c0 1 .41 1.62 1.31 1.62s1.31-.6 1.31-1.73v-.87c0-1.1-.46-1.63-1.41-1.66h-.67V71.6h.74a1.34 1.34 0 0 0 1.34-1.54v-.51c0-1.15-.4-1.75-1.31-1.75s-1.31.63-1.31 1.64V70H9.77v-.5c0-1.71.8-2.82 2.51-2.82s2.53 1.11 2.53 2.82zm.78 2.39h6.92v1h-6.92zm12.8-2.37c0 3.37-3.79 4.59-3.81 7.17v.17h3.69V78h-4.92v-1c0-3.62 3.8-4.32 3.8-7.48 0-1.15-.39-1.76-1.32-1.76s-1.31.66-1.31 1.65v1h-1.17v-.92c0-1.71.79-2.85 2.52-2.85s2.52 1.16 2.52 2.88zm2.4 1.84a1.81 1.81 0 0 1 1.67-.93c1.44 0 2.08 1.06 2.08 2.66v2.19c0 1.71-.82 2.83-2.53 2.83S29.5 77 29.5 75.28v-.75h1.16v.83c0 1 .42 1.62 1.32 1.62s1.31-.61 1.31-1.62v-2.18c0-1-.42-1.61-1.31-1.61a1.21 1.21 0 0 0-1.27 1.2V73h-1.17l.31-6.22h4.42v1.12H31zM42.35 78h-1.21l-1.85-8.91V78H38.2V66.8h1.74l1.85 8.94 1.77-8.94h1.75V78h-1.19v-9zm5.5-2.26L47.42 78h-1.16l2.15-11.2h1.81L52.36 78h-1.25l-.43-2.26zm.15-1.07h2.5l-1.26-6.47zm7.79-7.87c1.75 0 2.51 1 2.51 2.73v1.35c0 1.77-.84 2.7-2.61 2.7h-1.11V78h-1.24V66.8zm-.1 5.66c.93 0 1.37-.43 1.37-1.5v-1.49c0-1-.36-1.54-1.27-1.54h-1.21v4.53zM61 78V67.93h-2.08V66.8h5.38v1.13h-2.07V78zm5.49-2.26L66.06 78H64.9l2.15-11.2h1.81L71 78h-1.25l-.43-2.26zm.16-1.07h2.49l-1.26-6.47zM8.68 91.52c0 3.37-3.79 4.59-3.81 7.17v.17h3.68V100H3.64v-1c0-3.62 3.79-4.32 3.79-7.48 0-1.15-.38-1.76-1.31-1.76s-1.31.66-1.31 1.65v1H3.64v-.92c0-1.71.78-2.85 2.51-2.85s2.53 1.16 2.53 2.88zm1.06-.02c0-1.71.84-2.82 2.56-2.82s2.57 1.11 2.57 2.82v5.78c0 1.71-.84 2.83-2.57 2.83S9.74 99 9.74 97.28zM11 97.36c0 1 .43 1.62 1.33 1.62s1.32-.61 1.32-1.62v-5.92c0-1-.41-1.64-1.32-1.64S11 90.41 11 91.44zm7.35-6.53a3.45 3.45 0 0 1-1.56.48v-1a1.9 1.9 0 0 0 1.92-1.48h.87V100h-1.23zm8.25.62v.35a2.22 2.22 0 0 1-1.28 2.31 2.27 2.27 0 0 1 1.28 2.37v.83c0 1.73-.89 2.8-2.64 2.8a2.47 2.47 0 0 1-2.64-2.8v-.83a2.25 2.25 0 0 1 1.3-2.37 2.19 2.19 0 0 1-1.3-2.31v-.35A2.45 2.45 0 0 1 24 88.68a2.45 2.45 0 0 1 2.6 2.77zm-4.05 0V92c0 1.09.53 1.57 1.41 1.57s1.41-.48 1.41-1.57v-.55c0-1.15-.53-1.68-1.41-1.68s-1.41.56-1.41 1.71zm0 4.85v1c0 1.15.51 1.7 1.41 1.7s1.39-.55 1.41-1.7v-1c0-1.08-.48-1.61-1.41-1.61s-1.41.56-1.41 1.64z" style="isolation:isolate" fill="#369"/></svg>