<svg width="400" height="500" viewBox="0 0 400 500" xmlns="http://www.w3.org/2000/svg" xmlns:xlink="http://www.w3.org/1999/xlink"><defs><linearGradient x1="14.862%" y1="38.957%" x2="76.379%" y2="75.497%" id="linearGradient-2"><stop stop-color="#BABDC1" stop-opacity="0" offset="0%"/><stop stop-color="#BABDC1" offset="100%"/></linearGradient><path id="path-1" d="M7.5 34L14 45H1z"/></defs><g id="Export+" fill="none" fill-rule="evenodd"><g id="logos"><g id="Clients-/-Logitech" fill="#000" transform="translate(100 100)"><path d="M0 30h3v17H0V30zm10.5 17.5a6.5 6.5 0 110-13 6.5 6.5 0 010 13zm0-10a3.5 3.5 0 100 7 3.5 3.5 0 000-7zM31 41a6.506 6.506 0 11-4-6h4v3h-.766A6.43 6.43 0 0131 41zm-10 0a3.5 3.5 0 107 0 3.5 3.5 0 00-7 0zm3.5 10.5A3.5 3.5 0 0028 48h3a6.5 6.5 0 11-13 0h3a3.5 3.5 0 003.5 3.5zM32 35h3v12h-3V35zm11 3h-2v9h-3v-9h-2v-3h2v-3h3v3h2v3zm-9.5-8a2 2 0 110 4 2 2 0 010-4zm22.183 13h-9.05a3.474 3.474 0 005.564.206l2.133 2.133A6.472 6.472 0 1155.683 43zM49.5 37.5a3.489 3.489 0 00-3.337 2.5h6.675a3.489 3.489 0 00-3.338-2.5zm16.094 1.9a3.5 3.5 0 100 3.206l2.183 2.182a6.5 6.5 0 110-7.571L65.594 39.4zM77 47v-7a2.5 2.5 0 10-5 0v7h-3V31h3v5.127c-.01-.992 1.595-1.627 2.5-1.627A5.5 5.5 0 0180 40v7h-3z" id="logitech" fill="#BABDC1"/></g><g id="Clients-/-Samsung" transform="translate(0 100)" fill-opacity=".92" fill="#BABDC1"><path d="M61.85 41.692c.193-.24.162-.47.162-.47v-2.216H59.99v1.006h.403v.686s.024.302-.311.302c-.533 0-.444-.407-.444-.407v-3.255s.033-.389.465-.389c.432 0 .402.39.402.39l.01.664h1.497V36.95s.173-1.14-1.93-1.14c-2.103 0-2.095 1.156-2.095 1.156v4.262s.003.993 2.095.993c.305 0 .55-.025.766-.06-4.937 2.24-11.74 4.247-19.407 5.527-15.991 2.67-29.604 1.171-30.404-3.348-.415-2.342 2.71-5.032 8.026-7.455-.037.155-.061.32-.061.51 0 1.1.416 1.443.416 1.443s1.429 1.092 2 1.41c.224.446-.016.754-.34.754s-.531-.156-.531-.323v-.675h-1.535v1.002c0 .531.665 1.212 2.1 1.212 1.437 0 2.032-.67 2.032-1.727 0-.739-.07-1.056-.273-1.373-.203-.317-1.692-1.056-1.961-1.23-.27-.176-.303-.36-.203-.704.38-.487.74-.124.777.033v.78h1.478l.01-1.308s-.23-.703-1.436-.847c4.65-1.826 10.515-3.435 17.009-4.519 15.99-2.669 29.604-1.17 30.404 3.35.39 2.202-2.351 4.713-7.098 7.02zm-33.6-5.669h-2.59l-1.07 6.012 1.63.002.762-4.694.558 4.694h1.676l-.965-6.014zm8.735-.006h-2.358l-.597 3.275-.548-3.275h-2.488l-.01 6.02h1.403V37.55l.846 4.488h1.543l.896-4.488v4.488h1.313v-6.02zm3.722 1.166c.38-.487.74-.124.777.033v.78h1.478l.01-1.308s-.265-.862-1.827-.878c-1.562-.017-2.143.484-2.143 1.584s.416 1.443.416 1.443 1.429 1.092 2 1.41c.224.446-.016.754-.34.754s-.531-.156-.531-.323v-.675h-1.535v1.002c0 .531.665 1.212 2.1 1.212 1.437 0 2.032-.67 2.032-1.727 0-.739-.07-1.056-.273-1.373-.203-.317-1.691-1.056-1.961-1.23-.27-.176-.303-.36-.203-.704zm8.286-1.169h-1.601v4.436s.006.475-.383.475c-.388 0-.382-.475-.382-.475v-4.436h-1.63l.005 4.594s-.004 1.426 2.01 1.426c2.016 0 1.98-1.426 1.98-1.426v-4.594zm7.045-.002h-1.473v3.54l-1.625-3.538h-1.931v6.023h1.576v-3.805l1.726 3.805h1.727v-6.025z" id="Samsung"/></g><g id="Clients-/-Microsoft" transform="translate(300)" fill="#BABDC1"><path d="M79.081 36.354l-.48 2.207h-1.634l-.897 4.204c-.037.235-.123.444-.037.703.134.382 1.5.222 1.5.222l-.529 2.195s-2.779.32-3.714-.333c-.418-.284-.872-.876-.59-2.146l1.07-4.833-1.906-.012-1.611 7.373h-3.417l1.598-7.373h-1.758l.492-2.207h1.708c.308-1.234.578-2.072 1.341-2.713 1.044-.851 3.762-.518 3.762-.518l-.381 1.813c-.959 0-1.143.369-1.304 1.097l-.061.321h2.028l.505-2.319h3.172l-.491 2.319h1.634zm-18.589 9.901c-6.996-.296-4.893-10.629 2.287-10.284 6.749.333 4.831 10.568-2.287 10.284zm2.052-8.027c-2.323-.469-4.056 5.129-1.843 5.585 2.459.518 4.107-5.129 1.843-5.585zm-6.381.912h-3.319s.356-1.233-1.143-1.233c-1.365 0-1.697 1.233-.123 1.566 1.918.419 4.118.518 4.241 2.996.037.691-.368 3.922-5.385 3.823-4.599-.099-4.918-2.269-4.795-3.28-.835 1.763-2.926 3.329-5.716 3.23-4.238-.134-5.124-3.998-3.575-6.947-.751.004-2.385.314-2.979 3.236l-.774 3.415h-3.284l2.152-9.592h3.111l-.271 1.183c.431-.53.947-.863 1.599-1.085a5.018 5.018 0 011.623-.259l-.545 2.127c1.125-1.434 2.915-2.452 5.241-2.336 3.258.16 4.501 2.638 4.106 5.08-.06.431-.097.493-.22.53l-3.198 1.06 6.492-.012s-.553 1.443 1.488 1.455c1.414 0 1.967-1.615.062-1.948-.873-.16-4.254-.728-3.873-3.342.319-2.145 2.545-2.897 4.98-2.86 4.979.061 4.045 2.996 4.105 3.193zm-14.2-.925c-2.299-.456-4.02 5.117-1.82 5.586 2.435.505 4.07-5.129 1.82-5.586zm-15.356 1.702c.049-.136.172-1.566-.972-1.541-2.127.061-3.639 5.351-1.291 5.4 1.082.037 1.587-1.221 1.685-1.381h3.615c0 .074-1.095 3.921-5.902 3.823-6.443-.136-4.77-10.493 2.545-10.123 4.156.209 3.947 3.674 3.91 3.822h-3.59zm-9.381-4.809L17.681 33h3.467l-.467 2.108h-3.455zm1.057 10.838l-3.479-.012 2.127-9.58h3.479l-2.127 9.592zm-8.09-.012l1.537-6.954-3.455 6.954H5.607l-.135-6.954-1.721 6.954H0L2.865 33H7.98l.233 7.225L11.656 33h5.127l-2.877 12.934h-3.713z" id="Microsoft"/></g><g id="Clients-/-Mitsubishi" fill="#BFC2C6" transform="translate(200)"><path d="M60 63v-7h1v7h-1zm-2-3h-2v3h-1v-7h1v3h2v-3h1v7h-1v-3zm-10-4h1v7h-1v-7zm-.479 5.062a1.884 1.884 0 01-2.029 1.926h-2.487V56s.615.023 2.334.023a1.95 1.95 0 012.1 1.751 1.573 1.573 0 01-1.2 1.634 1.421 1.421 0 011.282 1.654zM44.774 60v-1.056a1.073 1.073 0 001.3-.942.691.691 0 00-.825-.822h-1.26v4.789h1.375a.9.9 0 00.943-.911c0-1.25-1.533-1.058-1.533-1.058zM31 63h-1v-6h-1.5v-1h4v1H31v6zm-4-7h1v7h-1v-7zm-2 1.212L23 61.8l-2-4.585V63h-1v-7h1.562L23 59.3l1.438-3.3H26v7h-1v-5.788zm25.015 13.536l1.869 3.221-1.658.006-1.769-3.581a1.176 1.176 0 001.415-1.165.974.974 0 00-1.179-1.049h-.708v5.8H47v-6.967h1.575c1.969 0 2.649.513 2.681 1.982.06.807-.46 1.543-1.242 1.753h.001zM39 74h-1v-6h-1.5v-1h4v1H39v6zm-10-5.788L27 72.8l-2-4.585V74h-1v-7h1.562L27 70.3l1.438-3.3H30v7h-1v-5.788z" id="Combined-Shape"/><path d="M52.034 63.3a2.286 2.286 0 01-2.523-2.3H50.8a1.044 1.044 0 001.16 1.155c.594 0 .83-.495.83-1.214 0-.688-3.086-1.005-3.086-3.255 0-.969.542-1.682 2.261-1.682a1.95 1.95 0 011.993 2h-1.2a.871.871 0 00-.9-.883.717.717 0 00-.832.767c0 1.731 3.152.927 3.09 3.646a1.934 1.934 0 01-2.082 1.766zm1.824 4.817a.717.717 0 00-.832.767c0 1.731 3.152.927 3.09 3.646a1.934 1.934 0 01-2.081 1.77 2.286 2.286 0 01-2.524-2.3H52.8a1.044 1.044 0 001.16 1.155c.594 0 .83-.495.83-1.214 0-.688-3.086-1.005-3.086-3.255 0-.969.542-1.682 2.26-1.682a1.95 1.95 0 011.993 2h-1.2a.871.871 0 00-.899-.887zM43.5 74.213c-1.657 0-3-1.657-3-3.7s1.343-3.7 3-3.7 3 1.656 3 3.7c0 2.044-1.343 3.7-3 3.7zm-10 0c-1.657 0-3-1.657-3-3.7s1.343-3.7 3-3.7 3 1.656 3 3.7c0 2.044-1.343 3.7-3 3.7zm10-6.342c-.918 0-1.662 1.183-1.662 2.642 0 1.459.744 2.641 1.662 2.641.918 0 1.662-1.182 1.662-2.641s-.744-2.642-1.662-2.642zm-10 0c-.918 0-1.662 1.183-1.662 2.642 0 1.459.744 2.641 1.662 2.641.918 0 1.662-1.182 1.662-2.641s-.744-2.642-1.662-2.642zm6.5-4.558a2 2 0 01-2-2V56h1v5.156a1 1 0 002 0V56h1v5.313a2 2 0 01-2 2zm-4.966-.013a2.286 2.286 0 01-2.523-2.3H33.8a1.044 1.044 0 001.16 1.155c.594 0 .83-.495.83-1.214 0-.688-3.086-1.005-3.086-3.255 0-.969.542-1.682 2.26-1.682a1.95 1.95 0 011.993 2h-1.2a.871.871 0 00-.9-.883.717.717 0 00-.832.767c0 1.731 3.152.927 3.09 3.646a1.934 1.934 0 01-2.081 1.766z" id="Combined-Shape"/><path d="M39.964 33.991l-8.352-14.763 8.352-14.763 8.424 14.763-8.424 14.763zm8.862 14.982h16.7L56.74 33.991H39.964l8.862 14.982zm-17.62 0l8.758-14.982H23.26L14.5 48.972h16.7l.006.001z" id="Diamonds"/></g><g id="Clients-/-APEC" fill="#000" transform="translate(100)"><path d="M67.647 65.166c-2.672 1.054-5.445 1.607-8.086 1.976-.944.127-1.447-.689-.611-1.154 1.125-.626 1.774-1.154 1.774-1.154 12.821-12.316-5.742-36.664-6.345-50.341-.004-.606.418-.93.858-.93.392 0 .797.256.928.799 3.703 13.211 22.962 19.537 22.961 36.233-.775 8.553-7.522 13.008-11.479 14.571zM55.083 37.355a5.08 5.08 0 00-1.402-.413 12.96 12.96 0 00-1.972-.128c-1.424 0-2.571.508-3.437 1.522-.868 1.015-1.3 2.59-1.3 4.723 0 .93.1 1.776.307 2.543.205.765.519 1.418.94 1.961.42.542.944.965 1.569 1.265.629.301 1.353.451 2.178.451.773 0 1.425-.077 1.959-.232.53-.154.995-.35 1.388-.593l.722 2.869c-.55.392-1.248.672-2.099.843a13.37 13.37 0 01-2.614.255 9.382 9.382 0 01-3.077-.502 6.581 6.581 0 01-2.564-1.623c-.736-.746-1.326-1.716-1.762-2.91-.439-1.192-.656-2.641-.656-4.341 0-1.767.244-3.248.732-4.441.488-1.194 1.125-2.156 1.907-2.886a7.085 7.085 0 012.613-1.571 9.193 9.193 0 012.886-.475c1.03 0 1.901.068 2.614.206.711.138 1.299.301 1.764.489l-.696 2.988zM44 61v.064l1 2.333 1-2.333V61h1v5h-1v-2.365L45 66l-1-2.365V66h-1v-5h1zm-3 2.635L40 66l-1-2.365V66h-1v-5h1v.064l1 2.333 1-2.333V61h1v5h-1v-2.365zm-1.888-13.231a7.18 7.18 0 01-2.784 1.546 11.48 11.48 0 01-3.274.464c-.98 0-1.868-.086-2.668-.257-.799-.172-1.439-.37-1.92-.593l.928-3.068c.396.19.928.366 1.599.529.669.163 1.443.244 2.32.244.67 0 1.288-.094 1.855-.283a4.118 4.118 0 001.508-.89c.438-.402.795-.915 1.069-1.533.276-.619.447-1.366.517-2.243h-6.96v-2.835h6.934a6.352 6.352 0 00-.425-1.895 4.592 4.592 0 00-.942-1.482 4.1 4.1 0 00-1.469-.967c-.583-.231-1.246-.348-1.985-.348-.927 0-1.736.099-2.422.297-.689.198-1.248.416-1.676.657l-.748-2.99c.601-.31 1.358-.571 2.268-.787a11.806 11.806 0 012.707-.322c1.185 0 2.28.164 3.287.49a6.306 6.306 0 012.603 1.612c.731.747 1.302 1.718 1.714 2.913.412 1.194.619 2.651.619 4.368 0 1.787-.241 3.283-.722 4.485-.481 1.204-1.125 2.166-1.933 2.888zM22 52h-3V37h-6v-3h15v3h-6v15zm-9.996.058l-1.444-3.992H5.024l-1.366 3.992H.129L6.622 33.9l2.599.001 6.49 18.158-3.707-.001zM8.448 41.216l-.54-1.717H7.78l-.542 1.742-1.313 3.993h3.863l-1.34-4.018zM1 62h1v3h1v-3H2v-1h2v4h1v-4h3v1H6v1h1v1H6v1h3v1H5v1H4v-1H1v1H0v-2h1v-3zm8-1h3v1h1v3h-1v1h-1v-4h-1v3H9v-4zm4 0h2v1h-2v-1zm3 1v3h-1v-3h1zm-1 4h-2v-1h2v1zm4-4h-1v1h1v1h-1v1h1v1h-2v-5h2v1zm1 2v-1h-1v-1h2v3h-2v-1h1zm1-3h2v1h-2v-1zm3 1v3h-1v-3h1zm-1 4h-2v-1h2v1zm3-3h1v-2h1v5h-1v-2h-1v2h-1v-5h1v2zm7-2v1h-2v-1h2zm-2 4h-1v-3h1v3zm2 1h-2v-1h2v1zm2.078-5h1.044l1.5 5h-1.044l-.3-1h-1.556l-.3 1h-1.044l1.5-5h.2zm.9 3l-.478-1.593L35.022 64h.956zM49 61v.019l1 2.25V61h4v1h-1v4h-1v-4h-1v4h-1v-.269l-1-2.25V66h-1v-5h1z" id="Blue" fill="#BABDC1"/><path d="M60.819 35.24c-.156-.414-.313-.827-.471-1.239l2.277-9.289c5.737 6.2 13.26 11.794 15.701 20.188l-17.507-9.66zm4.409 17.819l8.545 8.236c-2.082 1.924-4.374 3.18-6.122 3.871-2.672 1.054-5.445 1.607-8.086 1.976-.945.127-1.449-.689-.61-1.154 1.124-.626 1.772-1.154 1.772-1.154 3.365-3.233 4.568-7.294 4.501-11.775zM51 60v-2h1v1h2v1h-3zm2-3v1h-1v-1h1zm-2 0v-1h1v1h-1zm1-2h1v1h-1v-1zm2 1v1h-1v-1h1zm-5 1h-1v-1h1v-1h1v5h-1v-3zm-3-1h1v3h-1v-3zm0 4h-1v-1h1v1zm-2-1v-3h1v3h-1zm1-4h1v1h-1v-1zm-5 5v-2h1v1h2v1h-3zm2-3v1h-1v-1h1zm-2 0v-1h1v1h-1zm1-2h1v1h-1v-1zm2 1v1h-1v-1h1zm-6 2h-1v-1h1v-1h-1v-1h2v5h-1v-2zm-2-1v-1h1v1h-1zm-2 1h-1v2h-1v-5h1v2h1v-2h1v5h-1v-2zm-6 1h2v1h-2v-1zm-1-3h1v3h-1v-3zm3-1v1h-2v-1h2zm-6 4h2v1h-2v-1zm-1-3h1v3h-1v-3zm3-1v1h-2v-1h2zm-5 1h1v3h-1v-3zm0 4h-2v-1h2v1zm-3-1v-2h-1v-1h2v3h-1zm-2-2h1v1h-1v2h-1v-5h2v1h-1v1zm3-2h2v1h-2v-1zm18 5h-1v-1h1v1z" id="Red" fill="#BABDC1"/><path d="M53 58v-1h1v1h-1zm-1 1v-1h1v1h-1zm-1-4h3v1h-3v-1zm-7 5v-5h3v1h-2v3h2v1h-3zm-3-1v-1h1v1h-1zm1-2h1v1h-1v-1zm-2-2h3v1h-3v-1zm-4 3h1v1h-1v-1zm-1-3h1v3h-1v-3zm-3 3h1v1h-1v-1zm0-2h1v1h-1v-1zm-3 2h1v2h-1v-2zm0-3h1v2h-1v-2zm-4 5v-2h1v1h1v1h-2zm1-3h-1v-2h2v1h-1v1zm-4 2h1v1h-1v-1zm0-4h1v1h-1v-1zm-2 4h1v1h-1v-1zm0-4h1v1h-1v-1zm-3 4h1v1h-1v-1zm-1-4h2v1h-2v-1zm1 3h-1v-1h1v1z" id="Red-halftone" fill-opacity=".5" fill="#BABDC1"/><path d="M33 63v-2h1v2h-1zm-3-2h1v5h-1v-5zm-4 0h1v4h-1v-4zm-6 4h4v1h-4v-1zm-1-2h1v2h-1v-2zm0-2h5v1h-5v-1zm-4 4h1v1h-1v-1zm0-4h1v1h-1v-1zm-3 4h1v1h-1v-1zm0-4h1v1h-1v-1zm-3 4h1v1H9v-1zm-8-4h1v1H1v-1z" id="Blue-halftone" fill-opacity=".5" fill="#BABDC1"/><path d="M62 33.989c2.242 6.443 4.346 13.107 4.434 19.039l11.893-8.127a1.101 1.101 0 00-.02-.079L62 33.989z" id="White" fill="#FFF"/></g><g id="Clients-/-Sandoz" fill="#000"><path d="M69.289 34.981h9.2l-4.132 6.999h3.638v2.992h-9.63l4.307-6.997h-3.383v-2.994zm-5.911 10.284c-3.09 0-5.443-2.102-5.443-5.281 0-3.114 2.287-5.294 5.429-5.294 3.142 0 5.563 2.127 5.563 5.294 0 3.166-2.046 5.281-5.549 5.281zm.04-7.251c-1.137 0-1.832.812-1.832 1.956 0 1.184.708 1.969 1.832 1.969 1.136 0 1.858-.785 1.858-1.969 0-1.171-.735-1.956-1.858-1.956zm-11.502 6.932l-1.149.026h-2.769v-9.991h2.634l1.151.014c3.263 0 5.764 1.17 5.764 5.015 0 3.632-2.354 4.936-5.631 4.936zm.107-6.971h-.414v4.017h.414c1.244 0 1.9-.625 1.9-1.942 0-1.224-.629-2.075-1.9-2.075zm-11.53 2.128v4.869h-3.489v-9.991h3.489l3.032 4.896v-4.896h3.461v9.991h-3.461l-3.032-4.869zM32.567 44h-2.886l-.246.972h-3.772l3.505-9.991h4.092l3.343 9.991h-3.798L32.567 44zm-1.42-5.786L30.188 42h1.888l-.929-3.786zm-5.189 3.566c0 2.527-1.886 3.485-4.186 3.485-1.417 0-2.781-.479-4.039-1.077l1.244-2.808c.763.545 1.511 1.078 2.501 1.078.267 0 .803-.053.803-.466 0-.424-.401-.518-.923-.678-1.177-.345-3.049-.678-3.049-3.153 0-2.515 1.939-3.459 4.198-3.459 1.084 0 2.489.385 3.357 1.024l-1.11 2.529s-.895-.799-1.885-.799c-.561 0-.908.159-.908.506 0 .358.561.492.894.598 1.177.359 3.103.745 3.103 3.22zM8.564 39.916c1.282.311 2.451.692 2.451 2.268 0 1.717-1.62 2.267-3.084 2.267-1.071 0-2.126-.141-3.197-.295l-1.267-2.591h.239c.212.38.423.746.69 1.083.733.958 1.705 1.338 2.887 1.338.957 0 2.142-.38 2.142-1.535 0-.886-.706-1.197-1.466-1.392-.507-.142-1.056-.269-1.55-.451-.646-.241-1.139-.776-1.139-1.494 0-.999.802-1.843 1.817-1.843.942 0 1.66.182 1.66.182L10 39.593h-.224c-.311-.479-.62-.972-1.085-1.323-.435-.311-1.043-.564-1.577-.564-.521 0-1.013.311-1.013.874 0 .787.859.943 1.477 1.098l.986.238z" id="Shape" fill-opacity=".92" fill="#BABDC1"/><g id="Polygon-1" fill="none" stroke-linejoin="round"><use fill="#FFF" xlink:href="#path-1"/><path stroke="#BABDC1" d="M7.93 33.746l-.43-.729-.43.729-6.5 11-.446.754h14.752l-.446-.754-6.5-11z"/></g><path d="M7.931 44.451c-1.071 0-2.126-.141-3.197-.295l-1.267-2.591h.239c.212.38.423.746.69 1.083.733.958 1.705 1.338 2.887 1.338.957 0 2.142-.38 2.142-1.535 0-.886-.706-1.197-1.466-1.392-.507-.142-1.056-.269-1.55-.451-.646-.241-1.139-.776-1.139-1.494 0-.999.802-1.843 1.817-1.843.942 0 1.66.182 1.66.182L10 39.593h-.224c-.311-.479-.62-.972-1.085-1.323-.435-.311-1.043-.564-1.577-.564-.521 0-1.013.311-1.013.874 0 .787.859.943 1.477 1.098l.986.238c1.282.311 2.451.692 2.451 2.268 0 1.717-1.62 2.267-3.084 2.267" id="Shape" fill="#BABDC1"/></g><g id="Clients-/-Unesco" transform="translate(200 100)"><path id="Sq" fill="#BABDC1" d="M0 5h80v70H0z"/><path d="M65 56H15v-2h50v2zM15 27h50v2H15v-2zm-3 31.007L68 58v2H12v-1.993zm-2 5.986V62h60v1.991H10v.002zm14.99-37.992H19l20.657-6.008L60 26.001h-5.987l-14.356-4.188-14.667 4.188zm-2.975 5.005v19.48s.122 1.507-1.957 1.507-2.047-1.505-2.047-1.505V31.006h1.528v19.43a.338.338 0 00.4.452c.551 0 .551-.352.551-.352v-19.53h1.529-.004zm7.976 0v20.987h-1.265l-1.507-12.051v12.051h-1.206V31.006h1.869l.843 10.041V31.006h1.266zM38 50.887v1.106h-4V31.006h3.434v1.055h-1.681v8.184h1.686v1.154h-1.686v9.488H38zm5.6-14.057v.4c0 1.553 2.4 6.248 2.409 8.712v4.54s.007 1.511-2.032 1.511S42 50.486 42 50.486v-5.272h1.606v5.271a.389.389 0 00.4.376.366.366 0 00.4-.376V45.64c0-2.033-2.409-6.476-2.409-9.111v-4.016s0-1.456 2.038-1.507c2.038-.051 1.978 1.507 1.978 1.507v4.719h-1.604v-4.719a.437.437 0 00-.432-.452.377.377 0 00-.372.452v4.317H43.6zm10.387 8.384v5.272s.005 1.507-2.018 1.507c-2.023 0-1.96-1.505-1.96-1.505V32.512s0-1.506 1.96-1.506 2.023 1.506 2.023 1.506v4.719H52.46v-4.719a.455.455 0 00-.491-.452.48.48 0 00-.551.452v17.974a.55.55 0 00.551.4.427.427 0 00.491-.4v-5.272h1.532-.005zm8.027-1.339v6.611s0 1.507-2.069 1.507c-1.951 0-1.951-1.505-1.951-1.505V32.513s0-1.507 2.069-1.507 1.951 1.507 1.951 1.507v11.362zm-1.42 6.611V32.513a.5.5 0 00-.594-.452.472.472 0 00-.532.452v17.973s0 .4.592.4.534-.4.534-.4zm-45.6-24.484v-2.264L40 16l25.008 7.738v2.264l-25.165-7.633-24.849 7.633z" id="Combined-Shape" fill="#FFF"/></g><g id="Clients-/-Beeline" transform="translate(300 100)" fill="#BABDC1"><path d="M68.667 62.969h-1.329a.362.362 0 01-.353-.356v-3.621h-3.987v3.621a.361.361 0 01-.355.356H61.35c-.191 0-.335-.163-.335-.356v-9.257c0-.193.144-.359.335-.359h1.293c.191 0 .355.166.355.359v3.63h3.987v-3.63c0-.193.166-.359.353-.359h1.329c.166 0 .332.166.332.359v9.257c0 .193-.166.356-.332.356zM58.63 50.986h-7.268a.368.368 0 01-.359-.357v-1.286c0-.193.169-.356.359-.356h7.268c.213 0 .381.163.381.356v1.286c0 .191-.168.357-.381.357zm-9.977 11.983h-.695a.336.336 0 01-.308-.21l-.166-.451a4.696 4.696 0 01-2.431.714c-2.502 0-3.551-1.219-3.551-3.195 0-.668.167-2.83 3.502-3.075l2.012-.141v-.345c0-1.072-.198-1.525-1.701-1.525-1.216 0-1.952.208-2.598.426-.095.027-.189 0-.285-.045a.374.374 0 01-.142-.267v-1.07c0-.117.097-.263.213-.31.737-.309 1.765-.498 2.812-.498 2.479 0 3.668 1.073 3.668 3.309v6.354a.337.337 0 01-.33.329zm-1.662-4.808l-2.009.19c-1.383.115-1.501.808-1.501 1.476 0 1.144.809 1.458 1.597 1.458.809 0 1.269-.215 1.938-.625l-.025-2.499zm-7.356 4.808h-1.272a.362.362 0 01-.354-.356v-7.634h-1.427c-1.403 0-1.714 1.038-1.857 2.59l-.213 1.993c-.216 2.481-1.266 3.448-3.363 3.448-.165 0-.333-.164-.333-.359v-.918c0-.188.168-.354.333-.383 1.073-.117 1.406-.424 1.527-1.689l.237-2.481c.214-2.118.977-4.183 3.577-4.183h3.145c.164 0 .355.166.355.359v9.257c0 .193-.191.356-.355.356zm-9.964 0h-.993a.335.335 0 01-.307-.21l-.188-.956c-.575.505-1.555 1.219-2.888 1.219-2.167 0-3.29-1.61-3.29-3.683v-5.983c0-.193.167-.359.358-.359h1.267c.193 0 .359.166.359.359v5.386c0 1.642.449 2.288 1.615 2.288.835 0 1.765-.574 2.386-1.238v-6.436a.35.35 0 01.359-.359h1.299c.216 0 .355.166.355.359v9.284a.337.337 0 01-.332.329zm-13.366-8.971c4.266 0 4.741 2.761 4.741 4.051 0 1.454-.643 4.945-4.931 4.945h-.357c-3.004 0-3.765-2.253-3.765-4.658v-8.993c0-.193.166-.356.357-.356h7.077c.19 0 .358.163.358.356v1.298a.367.367 0 01-.358.357h-5.432v3h2.31zm-2.31 4.531c0 1.476.452 2.461 1.763 2.461h.618c1.741 0 2.718-1.071 2.718-2.691 0-1.615-.977-2.324-2.718-2.324h-2.381v2.554zm37.368-5.532h1.267c.193 0 .359.166.359.359v5.386c0 1.642.449 2.288 1.615 2.288.835 0 1.766-.574 2.386-1.238v-6.436a.35.35 0 01.359-.359h1.299c.216 0 .355.166.355.359v9.284a.337.337 0 01-.332.329h-.993a.335.335 0 01-.307-.21l-.188-.956c-.575.505-1.555 1.219-2.888 1.219-2.167 0-3.29-1.61-3.29-3.683v-5.983c0-.193.167-.359.358-.359z" id="Shape"/><path d="M40 16c8.284 0 15 6.716 15 15 0 8.284-6.716 15.001-15 15.001-8.284 0-15-6.717-15-15C25 22.716 31.716 16 40 16zm0 1c-7.732 0-14 6.269-14 14.002 0 7.732 6.268 14.002 14 14.002s14-6.27 14-14.002C54 23.269 47.732 17 40 17z" id="Combined-Shape"/><path d="M26.06 27h27.88a14.589 14.589 0 01.25 7H25.81a14.582 14.582 0 01.25-7zm2.568 13h22.744a14.474 14.474 0 01-11.373 5.504A14.473 14.473 0 0128.63 40zM50.5 21h-21A14.457 14.457 0 0140 16.5c4.13 0 7.858 1.728 10.5 4.5z" id="Combined-Shape"/></g><g id="Clients-/-Philips" transform="translate(0 200)" fill="#BABDC1"><path d="M65.3 35.7a1.022 1.022 0 00-1.068.962.757.757 0 00.474.585l2.369.911a3.142 3.142 0 011.9 3.209 3.781 3.781 0 01-3.654 3.891 16.3 16.3 0 01-4.311-.37l.011-2.963a9.447 9.447 0 004.281.34.946.946 0 00.729-.818.738.738 0 00-.574-.7l-2.19-.847a3.2 3.2 0 01-1.886-3.263 3.76 3.76 0 013.944-3.821A21 21 0 0168 33l.043 2.937A6.881 6.881 0 0065.3 35.7zm-9.872 6.752c-.458.043-1.422 0-1.422 0v2.53h-2.991V33H55.4a4.135 4.135 0 013.308 1.281 4.9 4.9 0 011.192 3.512 4.619 4.619 0 01-4.475 4.659h.003zm-.977-6.817h-.465l.007 4.124h.423c1.3-.014 2.279-.588 2.336-1.995a1.968 1.968 0 00-2.304-2.128l.003-.001zM46 33.045h3.012v11.968H46V33.045zm-6.989 0h2.983v8.97h2.889v2.993h-5.867V33.045h-.005zm-6.011 0h3.012v11.968H33V33.045zm-6 6.945h-2.98l-.009 5.023h-3.017V33.045h3.012L24.015 37H27l-.008-3.951H30v11.964h-3.013L27 39.99zm-11.57 2.463c-.458.043-1.422 0-1.422 0v2.53h-2.993V33H15.4a4.135 4.135 0 013.308 1.281 4.9 4.9 0 011.192 3.512 4.619 4.619 0 01-4.475 4.659l.005.001zm-.977-6.817h-.467l.008 4.124h.423c1.3-.014 2.278-.588 2.336-1.995a1.968 1.968 0 00-2.305-2.129h.005z" id="Philips"/></g><g id="Clients-/-Scania" transform="translate(100 200)" fill="#BABDC1"><path d="M43.115 27.76a1.577 1.577 0 01-1.119.994 2.33 2.33 0 01-.124-.435 2.559 2.559 0 011.243-.56zm-6.217.684c.414-.1.243.378.621.31.378.067.208-.414.622-.31a.624.624 0 11-1.247-.001h.004zm5.036 1.616a2.966 2.966 0 01.06 4.162 4 4 0 00-.373-1.74 2.294 2.294 0 01-1.99 2.424c-.03-.384.507-.736.5-1.3-.314.228-.967.974-1.741.745.17-.261.356-.51.56-.745a4.231 4.231 0 00-.062-.621.642.642 0 01.436-.187c.03.268.03.54 0 .808.471-.31.695-.883.559-1.43.588.423.818 1.188.559 1.865.634-.141.971-1.61.5-2.361.715.013 1.292.59 1.306 1.305.737-1.122-.669-1.986-.314-2.926zm-3.731.31c.617-.22.7.627 1.368.56-.634.442-.898-.441-1.368-.558v-.001zM75.323 63c-.317-.6-.593-1.242-.87-1.882h-5.906A19.09 19.09 0 0067.676 63h-8.082c.041-3.966-.083-8.094.062-11.96h4.663v8.743c1.284-2.855 2.478-5.8 3.668-8.742h6.9c1.706 4 3.536 7.879 5.16 11.959h-4.724zm-3.979-8.682c-.479 1.314-1.06 2.527-1.554 3.824h3.357a36.684 36.684 0 00-1.803-3.824zM31.737 30.743c1.052.474 2.64.076 3.979.124-1.165.379-3.185 1.022-3.979-.124zm22.291 20.3v6.253a1.06 1.06 0 01-.621-.607c-1.433-1.806-3.014-3.891-4.539-5.645h-5.844c-.076 2.705.051 5.737 0 8.62-1.341-2.8-2.549-5.727-3.792-8.62h-6.838c-1.108 2.277-1.976 4.788-3.046 7.1h-4.29c-.077 1.868-2.555 2.608-4.166 1.76-1.432-.753-1.912-3.6-.932-5.221 1.018-1.681 4.923-1.678 4.974.91h5.036c.139-4.914-8.01-6.233-12.186-4.067a5.389 5.389 0 00-2.922 5.039c-.243.125-.356-.251-.5-.364a8.33 8.33 0 00-4.725-1.093c-1.4 0-3.694.345-3.855-.85-.188-1.368 2.294-1.821 3.295-1.095a2.7 2.7 0 01.683 1.518h5.161a3.849 3.849 0 00-.87-2.246c-2.636-2.8-11.475-2.466-13.181.789-1.155 2.2.605 4.134 2.363 4.674 1.409.434 6.592-.283 6.777 1.336.152 1.329-2.561 1.87-3.855 1.093a2.906 2.906 0 01-.809-1.336c-1.762.04-3.688-.08-5.346.06v.365c.534 2.9 3.416 3.5 6.653 3.763h3.887c.05-.01 4.148-.745 4.631-3.3a6.8 6.8 0 005.822 3.3h2.509a8.082 8.082 0 004.228-1.335c-.065.4-.191.79-.373 1.154h4.6c.392-.528.516-1.318.871-1.882h5.966c.217.679.568 1.227.809 1.882h7.834v-6.921c.153-.06.234.15.311.243 1.742 2.067 3.517 4.532 5.285 6.617h5.533v-11.9h-4.538v.006zm-19.9 7.1c.448-1.364 1.087-2.54 1.555-3.885.64 1.236 1.161 2.59 1.8 3.824-.989.14-2.252.019-3.35.059l-.005.002zm9.671-34.795c-.466 1.254-.981 2.459-1.492 3.666a9.1 9.1 0 011.987-.187 4.332 4.332 0 01-.87 1.926 4.018 4.018 0 011.865 3.6 2.906 2.906 0 00-1.119-.932c1.147.9 1.365 3.574.311 5.1a2.269 2.269 0 00-.932-1.43 3.149 3.149 0 01-1.865 4.475c.067-.823.2-1.833-.435-2.113.254 2.573-.8 3.835-3.109 3.852a6.3 6.3 0 00.311-3.48 4.069 4.069 0 00-.557 2.547 3.616 3.616 0 01-1.68-4.41 2.876 2.876 0 00-.746.62 2.418 2.418 0 01.5-3.044 1.647 1.647 0 01-1.678-1.74 2.587 2.587 0 002.611-.062c-1.168-1.017-2.784.362-4.1.187-1.214-.162-1.645-1.264-2.114-2.3.84.595 1.832.94 2.86.994 1.613.01 3.173-.662 3.669.87a.75.75 0 00.435-.435c-.316-.438-1.052-.32-1.492-.621a6.39 6.39 0 00-.622-.683c-.933-.37-1.505.285-2.363.683.014-1.89 1.327-3.532 3.3-2.672.118-.11.193-.263.311-.373-.515-1.37-1.11-2.66-1.616-4.04a.857.857 0 01.925 1.182c.729-.531 1.539.212 1.182 1.118a1.351 1.351 0 01-.746.31c.4 1.096 2.258.707 2.425-.31a.821.821 0 01-.933-1.305c.262-.084.535-.126.809-.124-.974-1.4 2.2-1.83 1.243 0a2.3 2.3 0 01.87.124 1.2 1.2 0 01.124 1.056 1.206 1.206 0 01-.995.249c-.037.94 1.917 1.425 2.362.373-1.349.013-.777-2.387.436-1.492a.753.753 0 01.062-.746.92.92 0 01.866-.433zm-2.363 4.97a.807.807 0 01-.248-.246c.09-.324.477-.351.56-.683h-4.415a3 3 0 00-.373.62c.769-.076 1.769-.144 2.052.436-.1.337-.409.03-.56.124a.969.969 0 01-1.927-.186 1.669 1.669 0 00-2.736 1.118 3.88 3.88 0 011.617-.311c.32.187.612.416.87.683.657.453 1.965.51 1.8 1.367-.129.68-2.258 1.78-3.17 1.243.3.9 1.794.5 2.736.62-1.142.38-2.211 1.066-2.052 2.549.512-.094 1.138-.931 1.865-.808-1.314.852-1.379 3.778 0 4.6.128-1.157.35-2.22 1.181-2.672a7.762 7.762 0 01.187 3.977c1.962-.02 2.371-2.258 1.865-4.164 1 .239 1.393 1.094 1.555 2.175 1.463-.456 1.451-3.167.435-4.35a1.773 1.773 0 011.865 1.056c.819-1.927-.575-3.652-1.43-4.474a2.8 2.8 0 011.554 0 3.959 3.959 0 00-1.616-1.926 5.357 5.357 0 01-1.305.622v-.437a3.149 3.149 0 001.989-1.988 2.941 2.941 0 00-2.298 1.056h-.001zm-3.3.125c-.414-.1-.243.378-.622.31-.378.067-.207-.414-.621-.31a.624.624 0 101.248 0h-.005zm-2.425 2.423c-1.339-.048-2.927.35-3.979-.124.799 1.147 2.819.504 3.984.124h-.005z" id="Scania"/><path d="M39.107 17h1.43c1.894.15 3.746.635 5.472 1.429.532.41 1.118.744 1.741.994a5.793 5.793 0 001.368-.311c.464-.1.941-.179 1.43-.311a16.307 16.307 0 015.223 9.01c-.258.963-1.748 1.451-1.99 2.486a19.891 19.891 0 00-.062 2.548c-.708 5.467-3.942 8.5-7.834 10.874-.325.814-.5 1.78-.809 2.61a17.527 17.527 0 01-10.445.124c-.248-1.015-.646-1.881-.933-2.858-4.563-2.524-8.081-6.423-7.834-13.546a25.361 25.361 0 01-1.927-2.3c1-3.784 2.649-6.922 5.409-8.948.86.236 1.73.422 2.611.559a15.539 15.539 0 017.15-2.36zm8.518 2.92a13.419 13.419 0 00-8.58-2.485 13.915 13.915 0 00-5.6 1.553c-.458.353-.96.645-1.492.87-.818.076-1.87-.585-2.611-.559a14.267 14.267 0 00-4.1 5.779 9.874 9.874 0 00-.808 2.547c.21.446.531.83.932 1.118.333.376.645.77.933 1.181-.322 7.176 3.281 10.976 7.834 13.485.287.914.6 1.8.933 2.672a15.72 15.72 0 009.637-.124c.32-.861.581-1.781.87-2.672 4.209-2.243 7.818-6.007 7.834-12.241a5.174 5.174 0 01-.062-.994c.189-.874 1.721-1.591 1.99-2.361A15.281 15.281 0 0050.36 19.3c-.839.279-1.881.356-2.736.62h.001zm2.735-.62a15.281 15.281 0 014.974 8.389c-.269.77-1.8 1.487-1.99 2.361-.011.333.01.665.062.994-.016 6.234-3.625 10-7.834 12.241-.29.891-.55 1.811-.87 2.672a15.721 15.721 0 01-9.637.124 47.93 47.93 0 01-.933-2.672C29.58 40.9 25.977 37.1 26.3 29.925c-.288-.41-.6-.805-.933-1.181a2.9 2.9 0 01-.932-1.118 9.874 9.874 0 01.808-2.547 14.267 14.267 0 014.1-5.779c.741-.026 1.793.635 2.611.559a6.757 6.757 0 001.492-.87 13.915 13.915 0 015.6-1.553c3.06-.176 6.088.701 8.58 2.485.853-.265 1.895-.342 2.734-.621zm-17.1.808c4.331.625 8.731.604 13.056-.062-3.131-2.329-9.971-2.277-13.053.061l-.003.001zm-3.669.062a13.252 13.252 0 00-4.225 7.33 3.74 3.74 0 001.182 1.057 15 15 0 014.538-8.077c-.543-.059-.974-.228-1.492-.311l-.003.001zm20.58 0c-.524.078-.934.268-1.492.311.413.575.954 1.045 1.43 1.615a14.721 14.721 0 013.109 6.463 3.28 3.28 0 001.182-1.12 14.151 14.151 0 00-4.226-7.27l-.003.001zm-14.235 1.117a23.9 23.9 0 00-3.855-.373 12.832 12.832 0 00-4.29 5.717 6.839 6.839 0 00-.622 2.734 6.405 6.405 0 001.119 1.491 38.492 38.492 0 016.4 11.869c2.63 1.294 7.651 1.345 10.2-.062a39.716 39.716 0 016.466-11.807 5.5 5.5 0 001.058-1.556 7.267 7.267 0 00-.622-2.734 12.009 12.009 0 00-4.414-5.778c-3.773.683-7.622.85-11.44.499zm-2.363 20.692a48.521 48.521 0 00-6.4-11.309c.065 5.793 2.738 9.315 6.4 11.309zm12.684.062a12.113 12.113 0 006.343-11.37 50.708 50.708 0 00-6.343 11.371v-.001zm-11 1.8c.158.5.261 1.065.435 1.553 2.762.843 5.72.8 8.456-.124.1-.518.27-.973.373-1.491h-.129a14.683 14.683 0 01-9.14.065l.005-.003z" id="coat_of_arms"/></g><g id="Clients-/-Barbie" transform="translate(200 200)" fill="#BABDC1"><path d="M63.6 38.686c.829-1.165 2.181-1.757 3.094-2.8a4.439 4.439 0 001.369-2.3 2.971 2.971 0 00-1.251-2.213 1.315 1.315 0 00-1.318-.219 7.159 7.159 0 00-3.233 2.82 3.346 3.346 0 00-.591 3.226 2.292 2.292 0 001.93 1.486zm14.74 6.1a6.37 6.37 0 00-.947 1.081 27.738 27.738 0 01-8.722 6.841 2.83 2.83 0 01-2.4.338 2.429 2.429 0 01-.879-1.74 24.881 24.881 0 006.643-7.23c.429-.72.689-1.53.761-2.365a2.966 2.966 0 00-1.353-1.959 2.474 2.474 0 00-2.6-.524 9.547 9.547 0 00-2.366 1.824 13.355 13.355 0 00-4.09 7.432c-.085.524.016 1.064-.068 1.588a8.645 8.645 0 01-3.043 1.993 1.18 1.18 0 01-1.487-.338 3.2 3.2 0 01.254-1.892c.39-1.026.847-2.025 1.369-2.99a18.456 18.456 0 013.042-3.75c.461-.39.742-.951.778-1.554-.355-.54-.812-1-1.116-1.554a.69.69 0 00-1.1-.017c-2.248 1.689-3.6 4.257-4.766 6.74-.433.555-1.23.66-1.792.237a18.766 18.766 0 01-.693-2.534.532.532 0 00-.642-.253 3.854 3.854 0 00-2.062 1.1c-.247.406-.303.9-.152 1.351a3.946 3.946 0 01-.592 2.095 15.705 15.705 0 01-2.1 3.665c-.42.59-.955 1.09-1.572 1.47a.807.807 0 01-.9-.76 12.133 12.133 0 01-.2-2.922c.094-.53.384-1.007.812-1.335a90.663 90.663 0 0010.9-15.27 41.329 41.329 0 002.84-6.149 2.5 2.5 0 00-.676-2.162 2.6 2.6 0 00-2.265-1.233 5.709 5.709 0 00-2.147 1.537 47.276 47.276 0 00-9.33 13.665 38.858 38.858 0 00-2.958 9.9A5.114 5.114 0 0141 50.73a.652.652 0 01-.947-.405 4.376 4.376 0 01.406-2.314c.507-1.334 1.217-2.584 1.656-3.936a2.143 2.143 0 00-.575-2.3c-.473-.456-1.216-.625-1.487-1.267-.22-.777.321-1.47.507-2.179a.864.864 0 00-.406-1.1 2.189 2.189 0 00-2.349.152 4.939 4.939 0 00-1.437 4c-.625 1.47-1.4 2.855-2.129 4.274a25.276 25.276 0 01-2.3 3.767c-.334.49-.788.885-1.319 1.148a1 1 0 01-.219-1.148c.574-2.129 1.656-4.088 2.383-6.165.338-1.031-1-1.6-1.809-1.368-.46.324-.837.753-1.1 1.25-1.25 1.909-2.214 3.97-3.414 5.9a7.089 7.089 0 01-1.977 2.094.945.945 0 01-1.285-.152 2.907 2.907 0 01-.389-2.889 12.872 12.872 0 012.434-4.155 16.216 16.216 0 013.043-3.04 1.982 1.982 0 012.113-.323c.659.3 1.115 1.1 1.91 1.064a1.826 1.826 0 001.284-1.959 1.746 1.746 0 00-1.521-1.6 8.164 8.164 0 00-6.778 1.824 14.421 14.421 0 00-3.55 4.088c-.1.152-.236.287-.355.439a5.88 5.88 0 00-4.158-4.476 11 11 0 011.488-1.165 21.421 21.421 0 005.544-5.625c.963-1.469 2.045-3.007 2.214-4.814a7.223 7.223 0 00-2.147-5.523 8.844 8.844 0 00-5.713-2.77c-2.623-.21-5.26.16-7.724 1.081a17.655 17.655 0 00-5.629 2.686 6.373 6.373 0 00-2.045 3.7.641.641 0 00.355.861 2.21 2.21 0 001.132-.236c1.437-.676 2.891-1.267 4.361-1.858a10.2 10.2 0 01-.439 1.571 2588.679 2588.679 0 00-6.153 19.1c-.76 2.483-1.622 4.949-2.282 7.483A13.5 13.5 0 000 56.127c-.002.31.064.618.194.9a2.8 2.8 0 002.35 1.368c.51.115 1.04-.068 1.369-.473.237-.676.355-1.385.575-2.061.355.456.49 1.031.828 1.487a4.552 4.552 0 003.668 2.095 9.671 9.671 0 005.409-1.655 18.6 18.6 0 006.085-6.909 7.222 7.222 0 001.96 2.534 2.464 2.464 0 002.925-.085 16.379 16.379 0 002.738-3.074 4.57 4.57 0 001.132 2.128c.985.76 2.378.689 3.279-.169a14.679 14.679 0 002.874-3.868c1.082-1.824 2.028-3.716 2.992-5.608.445.151.77.536.845 1a7.6 7.6 0 01-.8 2.382 7.316 7.316 0 00-.743 4.375 3.686 3.686 0 002.569 2.55 3.068 3.068 0 002.654-.676 4.91 4.91 0 002.248 3.834c.843.565 1.93.617 2.822.135a9.3 9.3 0 003.448-3.648 12.159 12.159 0 001.742-4.088 8.056 8.056 0 001.926.726 4.28 4.28 0 00.22 2.517 4.6 4.6 0 002.84 2.449c1.741.287 3.4-.608 4.783-1.571.374.446.775.87 1.2 1.267a5.708 5.708 0 004.175 1.351c2.417-.135 4.48-1.52 6.39-2.872a22.374 22.374 0 004.935-4.426c.264-.288.392-.675.353-1.064a2.051 2.051 0 00-.353-.811c-.341-.506-.552-1.4-1.296-1.383l.004.002zm-31.54-.475a62.214 62.214 0 013.448-8.007 30.386 30.386 0 015.325-7.5.835.835 0 01.642-.355c-.07.501-.223.987-.456 1.436a58.116 58.116 0 01-8.739 14.544c-.1.1-.2.22-.321.321.029-.118.062-.338.101-.439zM12.364 27.352c-.388-.71-1.1-1.166-1.538-1.824a28.269 28.269 0 016.93-2.179 6.927 6.927 0 013.753.27 3.647 3.647 0 012.112 2.213 5.008 5.008 0 01-.642 3.4 25.552 25.552 0 01-3.955 5.287 40.455 40.455 0 01-4.969 3.817 4.093 4.093 0 01-1.708.71c-1.1.135-2.146.473-3.211.692.862-3.007 1.893-5.963 2.789-8.952a7.7 7.7 0 00.439-3.434zm2.451 26.114a15.534 15.534 0 01-3.668 2.72 2.5 2.5 0 01-2.045.27 1.582 1.582 0 01-.778-1.4c.047-.61.297-1.187.71-1.638a5.582 5.582 0 013.4-2.162 3.179 3.179 0 012.366.186c.51.576.517 1.44.015 2.024zm3.485-6.692a11.012 11.012 0 01-1.352 3.615 2.227 2.227 0 01-.609-.524 6.157 6.157 0 00-4.479-1.588 9.975 9.975 0 00-5.459 2.5c-.218.222-.47.41-.744.557.777-2.652 1.538-5.321 2.316-7.973a13.836 13.836 0 005.273-1.1c.29-.182.623-.28.964-.287 1.285.09 2.49.657 3.38 1.588.693.916.952 2.089.71 3.212zm51.435-5.186a.755.755 0 01.676-.253c.073.286.03.59-.118.845a14.432 14.432 0 01-4.547 5.574c-.135.1-.29.169-.456.2a10.822 10.822 0 014.442-6.362l.003-.004z" id="Barbie"/></g><g id="Clients-/-Ochacovo" transform="translate(0 300)" fill="#BABDC1"><path d="M50.646 47.95c-2.843-.31-4.445-1.55-6.564-5.684-1.705-3.307-2.739-3.98-3.772-4.393.723-.361.982-2.429 1.343-2.894 0 .724.672 1.189 1.447 1.189 2.688 0 2.533-4.496-.051-4.496-1.602 0-2.533 1.033-3.05 3.204-.516 2.429-1.808 2.48-2.222 2.48v-2.17c0-1.55.207-1.654.672-1.654 1.189 0 1.137-1.602-.051-1.602h-4.755c-1.085 0-1.085 1.602-.052 1.602.414 0 .672.259.672 1.654v8.734c0 1.395-.258 1.602-.62 1.654-.207-.052-.465-.362-.672-.982l-3.617-12.093c-.362-1.189-1.86-1.292-2.17-.052l-3.05 10.543c-.568 2.015-.775 2.48-1.137 2.532h-.103c-.362 0-.517-.569-.517-1.602v-8.734c0-1.654.465-1.654.672-1.654 1.085 0 1.085-1.602-.052-1.602h-4.6c-.464 0-.723.259-.826.569-.103-.31-.362-.569-.827-.569h-4.703c-.568 0-.878.414-.878.775 0 .466.361.776.827.776.258 0 .671 0 .671 1.653v2.43c0 3.255 2.274 4.65 6.15 3.048v3.308c0 1.395-.258 1.654-.775 1.654-1.395 0-1.344 1.602.052 1.602h8.062c1.188 0 1.188-1.602-.052-1.602-.827 0-1.034-.207-.569-1.86l.414-1.603h2.532l.414 1.395c.568 2.016.465 2.016-.052 2.12-.827.154-.982 1.55.258 1.55h9.251c1.189 0 1.189-1.602.052-1.602-.362 0-.724-.104-.724-1.654v-4.961c.465.051.62.361 3.153 4.857 2.325 4.135 4.392 6.15 9.819 5.633 1.395-.103 1.292-1.343 0-1.498zm-31.731-9.095c-2.12.879-2.636.414-2.636-2.17v-1.447c0-1.654.465-1.654.62-1.654.414 0 .672-.258.775-.569.104.31.31.569.724.569.362 0 .517.517.517 1.654v3.617zm7.648 1.602l.827-2.997.827 2.997h-1.654zm38.088-2.48c1.343-.724 1.963-1.964 1.963-3.101 0-1.912-1.55-3.876-4.857-3.876-2.894 0-4.393.517-5.892 1.137-1.188.465-.568 1.964.517 1.602.413-.155.878-.31 1.395-.413v10.697c0 1.189-.155 1.602-.672 1.654-1.137 0-1.137 1.602.104 1.602h5.736c2.79 0 4.548-1.964 4.548-4.806-.103-2.222-1.137-3.928-2.842-4.496zm-3.411.93c1.137-.258 2.222 1.24 2.222 3.72 0 1.706-.517 2.947-1.24 2.947-.672 0-.93-.517-.93-1.758-.052.052-.052-4.857-.052-4.91zm0-1.55v-4.548c.775-.104 1.912.517 1.912 2.532.052 1.499-1.085 2.016-1.912 2.016zM50.8 31.568c-3.41 0-6.2 3.566-6.2 7.96 0 4.392 2.79 7.958 6.2 7.958 3.411 0 6.202-3.566 6.202-7.959.052-4.393-2.739-7.959-6.201-7.959zm0 13.85c-1.136 0-2.48-2.428-2.48-5.89 0-3.463 1.292-5.892 2.48-5.892 1.138 0 2.43 2.429 2.43 5.891.051 3.463-1.24 5.891-2.43 5.891zM6.202 31.568c-3.41 0-6.201 3.566-6.201 7.96 0 4.392 2.79 7.958 6.201 7.958 3.411 0 6.202-3.566 6.202-7.959s-2.79-7.959-6.202-7.959zm0 13.85c-1.136 0-2.48-2.428-2.48-5.89 0-3.463 1.292-5.892 2.48-5.892 1.137 0 2.481 2.429 2.481 5.891-.052 3.463-1.344 5.891-2.48 5.891zm67.597-13.85c-3.411 0-6.202 3.566-6.202 7.96 0 4.392 2.791 7.958 6.202 7.958 3.41 0 6.201-3.566 6.201-7.959.052-4.393-2.739-7.959-6.201-7.959zm0 13.85c-1.137 0-2.48-2.428-2.48-5.89 0-3.463 1.291-5.892 2.48-5.892 1.137 0 2.48 2.429 2.48 5.891 0 3.463-1.292 5.891-2.48 5.891z" id="Shape"/></g><g id="Clients-/-Lukoil" transform="translate(300 200)" fill="#BABDC1"><path d="M63 17v46H17V17h46zm-6.6 12.288l1.1-1.6a3 3 0 00-.4-3.2 3.338 3.338 0 00-1.1-1 2.8 2.8 0 00-3.6 1.4c-1.1 1.7-2.3 3.5-3.4 5.4l-3 5.1a3.293 3.293 0 00-.2 1.6c.037.339.104.673.2 1a.2.2 0 00.1.2l6.3 14.8s-22.643.044-23.206.044c-.563 0-2.2-.1-2.2-1.1V26.588a2.943 2.943 0 00-3.081-3.2c.299 0-1.679-.334-1.913 3.4v25.7c0 3.52 1.9 5.314 4.7 5.5h33a.2.2 0 00.1-.2l-5.3-13.8c-1.7-4.3-2.5-6.7-2.5-7.2.1-.7 1.6-3.2 4.4-7.5zm-19.413 21.7v-.001c5.188 0 6.975-3.381 7.006-6.599.053-5.5-.007-16.282-.007-18.3a2.622 2.622 0 00-2.643-2.5 2.812 2.812 0 00-2.338 3v17a2.288 2.288 0 01-1.931 2.5c-.812 0-2.056-.413-2.056-2.6 0-2.187-.056-13.63 0-16.8.048-2.737-1.231-3.2-2.531-3.2s-2.5.994-2.5 3.3v17.9c0 2.657 1.813 6.3 7 6.3z" id="Combined-Shape"/></g><g id="Clients-/-Borjomi" transform="translate(100 300)"><path d="M74 33h4v15h-4V33zM52.5 48.6c-3 0-5.5-2.4-5.5-5.4v-5.4c0-3 2.5-5.4 5.5-5.4s5.5 2.4 5.5 5.4v5.4c0 3-2.5 5.4-5.5 5.4zm0-12.4c-.8 0-1.5.7-1.5 1.5v5.4c0 .8.7 1.5 1.5 1.5s1.5-.7 1.5-1.5v-5.4c0-.8-.7-1.5-1.5-1.5zM25 48V33h4.3c.8 0 2.8.3 4 1.1 1.2.9 1.9 2.4 1.9 4.1 0 1.9-.9 3.6-2.2 4.5l2.9 5.2h-4.4l-1.9-4H29v4h-4v.1zm4.7-8c1 0 1.6-.1 1.7-1.8 0-.3-.1-.6-.3-.9-.3-.3-.9-.6-1.4-.6H29v3.2h.7v.1zm-11.2 8.6c-3 0-5.5-2.4-5.5-5.4v-5.4c0-3 2.5-5.4 5.5-5.4s5.5 2.4 5.5 5.4v5.4c0 3-2.5 5.4-5.5 5.4zm0-12.4c-.8 0-1.5.7-1.5 1.5v5.4c0 .8.7 1.5 1.5 1.5s1.5-.7 1.5-1.5v-5.4c0-.8-.7-1.5-1.5-1.5zM1 48V33h5.1c1.3 0 5 .9 5 3.8 0 1.2-.4 2-1 2.7.1.1.3.2.4.4.8.8 1.3 2 1.3 3.3 0 1.8-1 4.8-4.8 4.9H1V48zm5.5-3.6c.5 0 1.6-.3 1.6-1.5 0-.6-.9-1.3-1.8-1.3H4.9v2.8h1.6zm-.9-6.7c1.5-.1 1.5-.3 1.5-.7 0-.4-.9-.5-1.2-.5H5v1.2h.6zM40.9 48c-5.1 0-5.5-4.2-5.5-5.5v-1h3.7l.1.9c.1 1.7 1.4 1.8 1.8 1.8.2 0 .5 0 .8-.6.2-.6.2-1.2.2-1.3V33h4v9.1c-.1 4.1-1.6 5.9-5.1 5.9zM59 48V33h3.4l3.6 5.6 3.6-5.6H73v14.9h-4v-6.7l-2.8 4.7-3.2-4.8V48h-4z" id="Combined-Shape" fill="#BABDC1"/><path d="M43 42.3c0 .6-.2 2.9-2 2.9-2.1 0-2.7-1.4-2.8-2.7h-1.7c0 1.6.6 4.5 4.5 4.5 2.7 0 4-1.2 4-4.9V34h-2v8.3zM8.2 39.4c1-.3 1.9-1.1 1.9-2.7 0-2.3-3.4-2.8-4-2.8H2v13h4.9c3.2-.1 3.8-2.6 3.8-3.9 0-1.2-.5-2.1-1-2.6-.5-.4-1.5-1-1.5-1zM4 35.5h1.8C7 35.5 8 35.9 8 37c0 1.5-1.2 1.7-2.5 1.7H3.9v-3.2H4zm2.5 9.9H4v-4.8h2.4c1.3 0 2.8 1 2.8 2.3-.1 1.7-1.7 2.5-2.7 2.5zm12-12c-2.5 0-4.5 2-4.5 4.4v5.4c0 2.4 2 4.4 4.5 4.4s4.5-2 4.5-4.4v-5.4c0-2.5-2-4.4-4.5-4.4zm0 12.3c-1.4 0-2.5-1.1-2.5-2.5v-5.4c0-1.4 1.1-2.5 2.5-2.5s2.5 1.1 2.5 2.5v5.4c0 1.4-1.1 2.5-2.5 2.5zM66 40.5L61.9 34H60v13h2v-9.2l4.1 6.2 3.9-6.3v9.2h2V34h-1.9L66 40.5zm-31.9-2.3c0-1.5-.7-2.7-1.5-3.3-.9-.6-2.6-.9-3.4-.9h-3.3v13h2v-4h2.2l1.9 4h2.1l-2.6-4.6c1.7-.6 2.6-2.3 2.6-4.2zM29.7 41H28v-5.2h1.7c1.3 0 2.8.9 2.8 2.5-.2 2.3-1.5 2.7-2.8 2.7zm22.8-7.6c-2.5 0-4.5 2-4.5 4.4v5.4c0 2.4 2 4.4 4.5 4.4s4.5-2 4.5-4.4v-5.4c0-2.5-2-4.4-4.5-4.4zm0 12.3c-1.4 0-2.5-1.1-2.5-2.5v-5.4c0-1.4 1.1-2.5 2.5-2.5s2.5 1.1 2.5 2.5v5.4c0 1.4-1.1 2.5-2.5 2.5zM75 34v13h2V34h-2z" id="Shape" fill="#FFF"/></g><g id="Clients-/-Gazprom-Neft" transform="translate(200 300)"><path d="M25.99 45.439A20.687 20.687 0 0029 34.523 20.051 20.051 0 0025.99 24 20.729 20.729 0 0023 33.8a21.716 21.716 0 002.989 11.636l.001.003zm0-1.231a9.131 9.131 0 01-.835-3.812 8.943 8.943 0 01.835-3.788 9.31 9.31 0 01.857 3.788 9.421 9.421 0 01-.857 3.812zm-2.241-10.5a22.185 22.185 0 012.241-8.079v.024a20.456 20.456 0 012.31 8.678 17.124 17.124 0 01-.329 4.1 19.461 19.461 0 00-.242-4.076 19.726 19.726 0 00-1.736-5.322 19.792 19.792 0 00-1.6 4.771 21.683 21.683 0 00-.4 4.627 24.221 24.221 0 01-.245-4.723h.001zM22 49.064a2.9 2.9 0 012.382-.853 2.4 2.4 0 012.37 2.46c.14 2.777-3.369 4.457-5.553 4.335a6.041 6.041 0 01-5.809-5.382 6.662 6.662 0 011.627-5.31 6.975 6.975 0 014.984-2v-8.326c-5.905-.092-10.792 4.57-10.979 10.473-.325 6.746 4.345 11.325 10.294 11.544a9.789 9.789 0 007.672-3.264V46.02H22v3.044zm8-4.073h2.047v-8.38h.929v-1.6H30v9.98zm4.047-9.975l-.976 9.975h1.809l.214-1.833h.786l.238 1.833h1.809l-.976-9.975h-2.904zm1.119 6.332l.286-3.594h.1l.286 3.594h-.673.001zm7.4-1.5v-.1c.483-.071.457-.952.457-1.357V36.8c0-1.214-.1-1.785-1.6-1.785h-1.8c-1.549 0-1.626.714-1.626 1.785v1.309h2.159v-1.117a.333.333 0 01.355-.333.329.329 0 01.331.333v1.19c0 .619-.2.738-.813.738h-.407v1.738h.356c.813 0 .864.357.864.667v1.809a.329.329 0 01-.331.333.333.333 0 01-.355-.333v-1.762h-2.167v1.833c0 1.429.076 1.786 1.626 1.786h1.8c1.4 0 1.6-.238 1.6-1.786v-2c.003-.357.079-1.356-.454-1.356l.005-.001zm1.446 5.142h2.145v-8.355h.681v8.356H49v-9.975h-5v9.975l.012-.001zm9.386-9.975h-3.382v9.975h2.145v-3.405h1.237c1.514 0 1.615-.642 1.615-1.761V36.8c0-.881-.1-1.785-1.615-1.785zm-.555 4.523a.448.448 0 01-.4.524h-.278v-3.451h.278a.437.437 0 01.4.5v2.428-.001zm6.578-4.523h-1.829c-1.5 0-1.6.833-1.6 1.762v6.428c0 1.167.1 1.786 1.6 1.786h1.829c1.524 0 1.6-.548 1.6-1.786V36.8c0-.952-.077-1.785-1.6-1.785zm-.559 8.07a.333.333 0 01-.355.31.3.3 0 01-.33-.31v-6.117a.314.314 0 01.33-.333.352.352 0 01.355.333v6.118-.001zm7.43-8.07l-.824 4.571-.751-4.571H62v9.975h2.108v-4.523h.073l.679 4.523h1.284l.7-4.523h.073v4.523H69v-9.974h-2.715l.007-.001zM30 47h39v8H30v-8z" id="Logo" fill="#BABDC1"/><path d="M66 54h-1v-6h1v2a2 2 0 110 4zm0-3v2a1 1 0 000-2zm-7 3h-1v-5h-1v-1h3v1h-1v5zm-9-1v1h-1v-1a2 2 0 110-4v-1h1v1a2 2 0 110 4zm-1-3a1 1 0 000 2v-2zm1 0v2a1 1 0 000-2zm-10 4v-6h2v1h-1v1h1v1h-1v2h1v1h-2zm-7-3h-1v3h-1v-6h1v2h1v-2h1v6h-1v-3z" id="Oil" fill="#FFF"/></g><g id="Clients-/-WPF" transform="translate(300 300)"><path d="M79.059 62h-1.118l1-2h1.118l-1 2zM78 65h1v-2h1v4h-1v-1h-1v1h-1v-4h1v2zm-3 1h-1v1h-1v-4h1v2h1v-2h1v4h-1v-1zm-4-1h1v2h-1v-2zm-1 2h-1v-4h1v1h1v1h-1v2zm2-4v1h-1v-1h1zm-6 3h2v1h-2v-1zm-1-2h1v2h-1v-2zm3-1v1h-2v-1h2zm-3.059-10l1-2h1.118l-1 2h-1.118zM65 56h1v-2h1v4h-1v-1h-1v1h-1v-4h1v2zm-1 9h-1v-1h1v1zm0 2h-2v-1h2v1zm-3-1v-2h1v2h-1zm1-3h1v1h-1v-1zm0-8h1v2h-1v-2zm0 3h-2v-1h2v1zm-3-1v-2h1v2h-1zm1-3h2v1h-2v-1zm0 9v4h-1v-1h-1v-1h1v-2h1zm-3 0h1v2h-1v-2zm-3-5v-4h3v1h-2v2h2v1h-3zm1 5h1v4h-1v-1h-1v1h-1v-4h1v2h1v-2zm-3-8h1v2h-1v-2zm0 3h-2v-1h2v1zm-3-1v-2h1v2h-1zm1-3h2v1h-2v-1zm2 10h-1v3h-1v-3h-1v-1h3v1zm-5-9h1v2h-1v-2zm-2 2h2v1h-2v2h-1v-6h3v1h-2v2zm-2 7h-1v-1h2v4h-1v-3zm-2 3v-3h1v3h-1zm1-10h-1v1h-1v-4h1v2h1v-2h1v4h-1v-1zm-2 9h-1v-2h1v2zm-1 1h-2v-1h2v1zm-3-1v-2h1v2h-1zm1-3h2v1h-2v-1zm1-9.787L36.259 58h-1.518L33 53.213V58h-1v-6h1.623l1.877 5.162L37.377 52H39v6h-1v-4.787zM35 63v4h-1v-3h-1v3h-1v-4h3zm11 2h1v-2h1v4h-1v-1h-1v1h-1v-4h1v2zm10 7.118V76h-1v-1.882L54.059 76h-1.118L52 74.118V76h-1v-3.882L50.941 72h1.118l1.441 2.882L54.941 72h1.118l-.059.118zM48 77v-2h1v2h-1zm-1 1v-1h1v1h-1zm0-6h1v3h-1v-3zm2 0h1v3h-1v-3zm-4 1h1v2h-1v-2zm-2 2h2v1h-2v2h-1v-6h3v1h-2v2zm-3-2h1v2h-1v-2zm0 3h-2v-1h2v1zm-3-1v-2h1v2h-1zm1-3h2v1h-2v-1zm-3 2h1v1h-1v-1zm-1 1h1v1h-1v2h-1v-2h-1v-1h1v-1h-1v-1h1v-1h1v1h1v1h-1v1zm-3 0v-1h1v1h-1z" id="Label" fill="#BABDC1"/><path d="M47 54h1v1h-1v-1zm0 3h1v1h-1v-1zm2 0h1v1h-1v-1zm0-3h4v1h-4v-1zm3 3h1v1h-1v-1zm5-3h1v4h-1v-4zm-2 1h3v1h-3v-1zm4-1h1v4h-1v-4zm3 0h1v4h-1v-4zm-26 9h1v4h-1v-4zm3 0h1v4h-1v-4zm2 0h1v1h-1v-1zm16 2h1v1h-1v-1zm4-2h1v4h-1v-4zm1 2h1v1h-1v-1zm1-2h1v1h-1v-1zm2 0h1v4h-1v-4zm6 1h1v1h-1v-1zm-40 9h5v1h-5v-1zm0 2h5v1h-5v-1zm6-3h1v4h-1v-4zm3 0h1v4h-1v-4zm5 0h1v4h-1v-4zm4 3h1v1h-1v-1zm-1 2h1v1h-1v-1z" id="Halfrone" fill="#BABDC1" opacity=".5"/><path d="M33.39 46.542C30.27 56.772 22.058 72.89 10.367 80 1.636 75.246-.503 63.725.365 59.814c.676-3.046 8.098-26.069 11.346-36.1.1 13.138 10.911 21.36 21.68 22.828z" id="Globe-path" fill="url(#linearGradient-2)"/><path d="M63.718 27.451l-.172.155-.115.155-.057.309.057.258.115-.206.229-.309-.057.206h-.058l-.057.258-.115.206v.361l-.057.156v.2c.172-.619.344-1.237.459-1.856l-.058.1h-.114v.007zm-3.212-16.394c-.015.087.138.239-.057.051.192.558.442 1.094.745 1.6.341.522 1.023.965.746 1.65-.18-.306-.5-1.061-.746-.876a2 2 0 00-.516-.67c-.017.185-.11.386-.115.567a3.192 3.192 0 00-.344-.67 1.167 1.167 0 00.574 1.443v-.311c.538.022.16.489.3.889.157.446.77 1 1.018 1.482a3.9 3.9 0 010 3.66L62 19.77a9.693 9.693 0 01-.573 1.186c.05-.646-.343-.359-.572 0-.49.762.253 1.163.615 1.769.629 1.055.113 2.192-.559 3.132-.05-.377-.62-1.372-1.148-1.237v-.313c-.414.17-.412 1.248-.4 1.7.304.274.592.567.86.876.214.375.295.81.23 1.237-.031.156.2.472-.115.516a1 1 0 01-.574-.722c-.213-.561 0-.926-.573-1.443l-.057.258c-.206-1.15.168-2.3-.574-3.4-.161.249-.4.79-.8.58a7.27 7.27 0 00-.4-1.3c-.163-.219-.8-1.238-1.2-1.134.016.137.016.275 0 .412-.974-.094-1.609 1.451-2.355 2.167-.304.18-.59.386-.856.617a1.073 1.073 0 00-.172.876c.01.356-.028.712-.115 1.057a1.262 1.262 0 00-.287.8c-.567.2-.271.707-.871.338a6.335 6.335 0 01-.864-1.584c-.5-1.037-.717-2.162-1.132-3.239a1.013 1.013 0 01-1.434-.155c.345-.316-.14-.349-.4-.567a5.353 5.353 0 00-.8-.567c-.794-.269-2.153.354-3.061.129a2.825 2.825 0 01-.667-.129c-.1-.055-.067-.433-.172-.464a2.165 2.165 0 00-.975.206 2.333 2.333 0 01-1.95-1.392 2.452 2.452 0 00-.86.1c.233.477.543.912.917 1.289.037.235.115.462.23.67 0 0-.02-.669.172-.516.222.178-.077.472.014.554.567.51 1.578-.061 2.05-.76-.139.6.211.71.688 1.031 1.028.69.563.484.13 1.34-.158.317-.4.585-.7.773-.31.191-.599.416-.86.67l.057-.1a15.487 15.487 0 01-3.183 1.366 7.9 7.9 0 01-1.176.284c-.761-.066-.453-.425-.8-.98.576-.449-1.1-1.822-1.359-2.278-.292-.514-.963-2.656-1.738-2.723.07-.179.092-.4.172-.567-.472.7-.8.725-1.032-.258-.18 1.163 1.271 2.588 1.577 3.518-.01.307.019.615.086.915.221.168.414.37.571.6.142.189.129.4.289.584.329.373 2.1 1.294 1.434 1.546.233.22.504.394.8.516a5.676 5.676 0 001.161-.232 9.313 9.313 0 001.763-.335c.382 2.01-2.279 3.395-3.636 4.5-1.033.84-1.977 1.659-1.554 2.771.207.471.39.953.545 1.444.337 1.3-.13 1.176-1.321 1.69-.334.15-.65.335-.944.553-.145.289.143.336.258.644.308.826-.153.546-.975 1.031.46.339-.064.841-.4 1.134-.595.568-1.435.8-2.237.619a3.489 3.489 0 01-1.491-.1 2.417 2.417 0 01-.287-.412c-.44-.5-1.017-.909-1.491-1.392-.66-.672-.948-1.478-1.606-2.152a2.174 2.174 0 01-.9-1.572 2.6 2.6 0 01.4-.864 2.956 2.956 0 00-.7-2.217c-.406-.674-1.364-1.385-1.462-2.165-.083-.655.616-1.55-.258-2.011-.118-.062-.467.015-.631-.051-.576-.232-.572-.769-1.147-.98a3.388 3.388 0 00-1.377.051 2.207 2.207 0 01-.918-.129c-.313-.077-1.107-.009-1.262-.077a2.98 2.98 0 01-.875-1.16 7.436 7.436 0 01-1.047-3.2 5.061 5.061 0 01.373-1.675 4.78 4.78 0 01.631-2.062c.383-.547.895-.99 1.491-1.289.187-.085.365-.188.531-.309.115-.189.188-.4.215-.619.3-.35.672-.63 1.09-.825.846-.637.384-.372 1.2-.129a3.11 3.11 0 001.233-.09c.4-.028 3.076.188 3.068.425l.344-.1c-.232.247-.4.548-.487.876a.543.543 0 00.3.724c.391.252.86.331 1.244.6.331.378.757.663 1.233.825.58-.094.277-.635.86-.812.391-.018.777.1 1.09.335a6.9 6.9 0 001.95.7c.444.03.956-.544 1.262.051A1.135 1.135 0 0034.01 19c.239-.45.45-.916.631-1.392a1.694 1.694 0 00-.731.052 9.056 9.056 0 01-.932-.155 2.46 2.46 0 01-1.549-.155.776.776 0 010-1.26 5.036 5.036 0 011.669-.21 3.012 3.012 0 011.8-.025c.52.273 1.113.374 1.694.289 1.182-.52-1.074-1.326-1.551-1.733a1.5 1.5 0 00.631-.309l-.172-.157c.15-.03.451-.146.516-.155a5.229 5.229 0 00-1.2.1c-.4.2-.433.529.172.412-.356.176-.75.265-1.147.258l.115-.155-.344-.1c.13-.06.264-.112.4-.155-.81-.352-.881-.433-1.534.168-.2.188-1.365.907-.473 1.276a4.9 4.9 0 00-1.032.361.709.709 0 00-.918-.258l.17.203c-.352-.02-.208.074-.459-.155a3.092 3.092 0 01-.115.515.59.59 0 01.287.516l-.344-.155.057.206h-.229l.057.309c-.593.041-.714-.849-.8-1.237-.041-.177 0-.652-.043-.747a7.055 7.055 0 00-.975-.876c-.208-.264.069-.7-.416-.438a.279.279 0 010-.206c-.421-.388-.482.272-.4.567.109.4.748.78.688.928.269.135.504.329.688.567l-.115.052a.382.382 0 00-.688-.1c.421.3-.19.433-.516.567.112-.173.19-.365.229-.567a.991.991 0 00-.344-.464c-.149-.174-.319-.185-.473-.361a6 6 0 01-.358-.747c-.311-.4-.235-.258-.8-.284a3.359 3.359 0 00-.373.155c-.156.009-.365-.233-.516-.206-.216.032-.419.12-.588.258-.418.148-.82.337-1.2.565-.252.347-.582.63-.964.827a3.4 3.4 0 01-1.462.129 1.1 1.1 0 00-.258-.387.953.953 0 01-.344-.052.765.765 0 00.115-.632c.146-.214.31-.417.487-.606.255-.375.209-1 .832-1.031.794-.043 1.184 1.089 1.864.1.173-.296.224-.647.143-.98 0-.2-.467-.139-.172-.464a.8.8 0 01.688.206c.028-.125.146-.235.172-.361.274.44 1.49-.1 1.835-.258.257-.198.547-.35.856-.451.188-.035.333.033.52-.013.617-.152.21-.176.617-.593.259-.27.614-.428.989-.438-.318.2-.225.206-.229.361-.419.123-.689.45-.4.722.316-.015.631.047.918.18.391.008.875-.094 1.247-.1a.56.56 0 00.358.18c.285-.142.529-.355.709-.617.192-.1.339-.171.545-.258.255-.108.146 1 .574-.155-.752-.179 1.288-.157 1.548-.309-.257-.655-1.533-.035-2.065-.516a1.14 1.14 0 01.746-.825 2.69 2.69 0 00.918-.361c-.049-.619-2.511.617-2.644.778a.531.531 0 00.091.356c-.043.072-.18.24-.316.412a6.78 6.78 0 01-.846.76.938.938 0 01-1.018.013A5.1 5.1 0 0128.562 9c-.737.331-1.537.41-1.073-.478.39-.746 1.118-.619 1.892-.882 1.586-.54 4.022-1.993 5.776-1.012l-.344.052c.47.43 1.768.251 2.249.806.809.934-1.48.348-1.791.328.58.186.092.693.8.825-.17-.7.5-.141.975-.258l-.172-.206a5.724 5.724 0 011.09-.155c.124-.258.144-.553.057-.825.291-.034.583.06.8.258-.551.151-.324.256.129.271.323.01 1.144-.481 1.648-.529l-.229.155a6.231 6.231 0 001.835-.258l-.287-.155c.592-.333 1.878.485 2.237.1a1.064 1.064 0 01-.874-.541.662.662 0 01.783-.644c.226.142.415.337.55.567.327.385.758.676.229 1.134.717.031.823-.833.172-.876a.5.5 0 00-.4-.464c.153-.326.31-.043.115-.412.178.14.37.261.573.361l-.229-.155a1.251 1.251 0 011.147-.1 1.5 1.5 0 01-.574-.464c.352-.141.729-.135 1.09-.258-.65-.24 1.136-.8 1.376-.98-.153-.291-.089-.3.287-.361l-.057.1c.154.007.307.024.459.052.25-.406 1.2-.245.917.361a.68.68 0 00.4-.1l.286.1a.874.874 0 01.746-.309l-.287-.155c.472-.233.782.237 1.262.258-.126-.065-.225-.182-.344-.258a.949.949 0 00.344-.361c-1.294-.539-2.5-1.308-3.877-1.813A28.2 28.2 0 0042.106.233a28.654 28.654 0 00-12.52 1.185h.115c-.125.071-.24.158-.344.258.78-.637 1.623 1.145.287.464.124.1.258.186.4.258a.845.845 0 01-.344.155c.331.003.653.111.918.309a1.257 1.257 0 01-1.09 0l.172.1c-.487.104-.966.242-1.434.413a1.9 1.9 0 01-.975.464c-.276.082-.53.222-.746.412V4.1h-.105c-.038.38-.772.82-.4.155-.332.1-.668.215-.229.412-1.154.173-2.028-.15-3.1.361-2.3 1.1-4.285 3.391-5.758 5.417a21.639 21.639 0 00-3.592 18.129c3.311 12.68 18.376 20.514 32.25 16.885 7.91-2.069 14.459-7.491 17.188-14.5l-.115.052a2.9 2.9 0 01.385-.582c.149-.398.27-.807.361-1.222l-.115.206c.029-.244.047-.465.058-.722-.236.375-.2.823-.459 1.186.08-.252.138-.51.172-.773.017-.325.077-.645.179-.954.12-.307.271-.6.452-.876a7.174 7.174 0 00.516-2.758c-.057.236-.076.48-.058.722-.1-.208-.14-.44-.114-.67a2.1 2.1 0 00-.172.464c.014-.282.072-.56.172-.825l.057.155c.074-.251.112-.511.115-.773v.412a21.148 21.148 0 00-3.727-12.943v-.001zm-34.582 5l.4.1h.631l-.229.258v.1l-.115.155-.229-.155-.115-.051-.459-.258.116-.149zm14.165-10l.4-.206-.23-.052.459-.206-.057-.1 1.032-.309.631-.052.287-.1.344-.051.172.1-.058.1c-.4.1-.8.206-1.147.309l-.63.155-.23.258-.344.258.115.206.459.206-.115.052h-.746l-.057-.1-.4-.052-.057-.155.23-.052-.058-.209zM25.063 8.841l.229.052-.229.206-.4.206.229.1-.057.412.115.1-.115.361v.155l.287.1-.172.206-.172.051v.206l-.344.1-.344-.1h-.46l-.115-.051-.23.1-.172-.1-.229.051-.057-.1.573-.196h.23l-.344-.155v-.158l.287-.052v-.205l.172-.206.287.1.172-.155v-.203l-.229-.1v-.1l.172-.1v-.1l-.229.1.229-.258v-.164l.344-.258.344-.206.115.052.287.052-.459.258h.287l-.002-.001zm-1.032-2.835l-.057-.258.226.052.115-.051-.115-.156.287-.1.172.052-.059.255.344-.051.062.151.344-.051.172.1-.229.155-.057.155-.4.1h-.748l-.115-.1-.173-.254h.229l.002.001zm-1.376 3.866l.172-.309a3.75 3.75 0 00.688-.258l.172.051.057.258-.229.155-.115.206-.344.206-.516.1-.229-.155.344-.254zM39.86 36.937l-.057.1-.115-.206-.115.1.057.206-.057.155-.115.052v.258c-.287.567-.573 1.083-.8 1.65l-.229.361-.344.052-.344.1-.516-.155-.115-.155-.057-.258-.118-.197-.057-.206.057-.206.172-.052v-.1l.172-.206.057-.206-.057-.155-.057-.206-.058-.263.172-.155.057-.206h.229l.229-.052.172-.052h.177l.229-.155.344-.206.115-.155-.057-.155.169.054.229-.206v-.206l.172-.155.115.155.115.155.115.206.054.361.115.155-.055.154zm13.54-8.609l-.172.155-.345.155-.172-.309-.057-.567.172-.67.287.206.172.258.172.361-.057.411zm6.71 2.732l-.287-.155-.063-.205-.114-.206-.058-.258-.114-.464-.23-.258-.057-.309-.115-.205-.229-.155-.115-.309-.229-.155-.287-.361v-.208l.172-.052.459-.052.229.309.23.206.114.1.23.309.287-.052.172.206.114.258.172.1-.114.361.114.1h.058v.258l.057.155.172-.052.057.206c-.114.361-.172.67-.286 1.031l-.23.1-.109-.243zm1.777.464l-.114-.052-.172.1-.172.051h-.172l-.172-.051-.115.051-.115.1h-.344v-.147l-.172.051.229-.412.287-.1.115.051h.057v.1l.344-.1.058-.155h.286v.206l.23-.052.115.1-.173.259zm.689-.412a1.3 1.3 0 01-.287.258l-.115.052.115-.206.057-.052.058-.155v.051l.114-.1.058.152zm.917-5.1l-.114.1v.155l-.115.206-.115.412.058.309-.058.206.115.258-.172.155v.206l-.058.309-.172.361-.057.361-.172.619v-.1l-.229.258v-.21l-.115.052-.057-.052-.287.206v-.1l-.115.052-.172.052.057-.464-.057-.052-.057-.258v-.313l.057-.361.172-.309.115.051.172-.155.057-.361.115-.1.229-.206c.115-.258.23-.567.344-.825l.172-.309.115-.361.058-.361.057-.052.057.155v.154l.115.052.115.052-.058.208zm0-1.907l-.057.309-.172.516.057-.309.115-.309.052-.312.058-.412.057.309-.11.208zm.344-1.753v.148l-.114-.155-.058.155-.057-.052v-.255l-.057-.051v.158l-.115-.155-.057-.155-.058-.361.058.1c-.058-.309-.058-.67-.115-.98l.057-.051.115.051v.151l.057.258v.361l-.057.206v.309l.057.258h.058l.057-.1.172.1v.208l.057.052v.208l-.114-.1.114-.308zM64 23.688v.258l-.057.155-.057-.206a.427.427 0 01.057-.258v-.258l.057-.052v.258l.058-.464v.361l-.058.206zm.115-.67v.1l.057.206-.057.155v-.616l-.057-.258.114-.1.058.1.057.412h-.172v.001zm-22.711-6.856l.344-.1c-.288-.321-.669-.683-.745-.1-.105-.645-.589-.683-.975-1.186l.344.051c0-.333.261-.382.631-.258.441-1.055-1.469-.515-1.864-.168s-.41.47-.129.889a2.9 2.9 0 001.075 1.031c-.866.183-.415 1.058.287 1.186a1.57 1.57 0 001.262-.155c.232-.331-.248-.709-.172-.979h-.23c-.01-.34.054-.201.176-.212l-.004.001z" id="Globe" fill="#BABDC1"/></g><g id="Clients-/-Russia-Belarus" transform="translate(0 400)" fill="#BABDC1"><path d="M40 49.6v-9.1c13.3-5.9 26.7 5.9 40 0v9.1c-13.3 5.9-26.7-5.8-40 0zm0-19.1c13.3-5.9 26.7 5.9 40 0v9.1c-13.3 5.9-26.7-5.9-40 0v-9.1zm0-10.1c13.3-5.9 26.7 5.9 40 0v9.1c-13.3 5.9-26.7-5.9-40 0v-9.1zm31.5 9.7c2.8 0 5.2-.4 7.5-1.3v-7c-2.4.8-4.8 1.2-7.5 1.2-3.9 0-7.9-.8-11.8-1.8-3.7-.9-7.6-1.7-11.3-1.7-2.8 0-5.2.5-7.5 1.4v7c2.4-.8 4.8-1.2 7.5-1.2 4 0 8 .9 11.8 1.7 3.7.9 7.6 1.7 11.3 1.7zM6 58.1V49c11-1.1 22 6.5 33 1.6v9.1C28 64.6 17 57 6 58.1zm0-29.3c11-1.1 22 6.5 33 1.6v19.2c-11 5-22-2.7-33-1.6V28.8zm-6 1.6c1.7-.8 3.3-1.2 5-1.5v29.3c-1.7.2-3.3.7-5 1.5V30.4zm1 .6v27.1c1-.3 2-.6 3-.8V30.1c-1 .2-2 .5-3 .9zm1 0h1v2H2v-2zm-1 2h1v2H1v-2zm2 0h1v2H3v-2zm-1 2h1v2H2v-2zm-1 2h1v2H1v-2zm2 0h1v2H3v-2zm-1 2h1v2H2v-2zm-1 2h1v2H1v-2zm2 0h1v2H3v-2zm-1 2h1v2H2v-2zm-1 2h1v2H1v-2zm2 0h1v2H3v-2zm-1 2h1v2H2v-2zm-1 2h1v2H1v-2zm2 0h1v2H3v-2zm-1 2h1v2H2v-2zm-1 2h1v2H1v-2zm2 0h1v2H3v-2zm-1 2h1v2H2v-2z" id="Combined-Shape"/></g><g id="Clients-/-Sangtuda" transform="translate(100 400)" fill="#BABDC1"><path d="M73 41H45.536l-1.281 1.281-3.535-3.535L43.465 36H78l-5 5zm-30.867-2.254l2.122 2.122.867-.868h27.464l3-3H43.878l-1.745 1.746zM40 46.541L34.465 41H7l-5-5h34.536l6.982 6.982L40 46.541zm3.536 4.965l-3.513 3.558L31.965 47H13l-5-5h26.036l9.5 9.506zM10.414 43l3 3h18.964l7.645 7.645 2.108-2.135L33.622 43H10.414zm24.628 8.507l-3.535 3.535L29.465 53H19l-5-5h17.536l3.506 3.507zm4.239 4.248l-3.531 3.531-3.535-3.536 3.531-3.531 3.535 3.536zm4.407 4.4l-3.513 3.558L36.462 60 40 56.462l3.688 3.693zM48.465 48H66l-5 5H50.536l-6.281 6.281-3.535-3.535L48.465 48zm-4.21 2.781l-3.536-3.536L45.965 42H72l-5 5H48.036l-3.781 3.781zM51.382 37a12 12 0 10-20.764 0h-1.144a13 13 0 1123.051 0h-1.143z" id="Color_Fill_1"/></g></g></g></svg>