<svg width="221" height="41" viewBox="0 0 221 41" xmlns="http://www.w3.org/2000/svg"><g id="Fundraising" stroke="none" stroke-width="1" fill="none" fill-rule="evenodd"><g id="Mobile-Portrait" transform="translate(-15 -972)"><g id="coins-xs" transform="translate(10 965)"><g id="Graphics-/-Coin-Horizontal" transform="translate(39 21)"><path d="M0 15.882c0 5.848 11.864 10.589 26.5 10.589S53 21.73 53 15.882v-5.757H0v5.757z" id="Combined-Shape" fill="#E7EAEE"/><ellipse id="Oval-3" fill="#EDF0F4" cx="26.5" cy="10.588" rx="26.5" ry="10.588"/></g><g id="Graphics-/-Coin-Horizontal" transform="translate(95 21)"><path d="M0 15.882c0 5.848 11.864 10.589 26.5 10.589S53 21.73 53 15.882v-5.757H0v5.757z" id="Combined-Shape" fill="#E7EAEE"/><ellipse id="Oval-3" fill="#EDF0F4" cx="26.5" cy="10.588" rx="26.5" ry="10.588"/></g><g id="Graphics-/-Coin-Horizontal" transform="translate(173 21)"><path d="M0 15.882c0 5.848 11.864 10.589 26.5 10.589S53 21.73 53 15.882v-5.757H0v5.757z" id="Combined-Shape" fill="#E7EAEE"/><ellipse id="Oval-3" fill="#EDF0F4" cx="26.5" cy="10.588" rx="26.5" ry="10.588"/></g><g id="Graphics-/-Coin-Horizontal" transform="rotate(7 -62.149 978.967)"><path d="M0 15.882c0 5.848 11.864 10.589 26.5 10.589S53 21.73 53 15.882v-5.757H0v5.757z" id="Combined-Shape" fill="#E7EAEE"/><ellipse id="Oval-3" fill="#EDF0F4" cx="26.5" cy="10.588" rx="26.5" ry="10.588"/></g><g id="Graphics-/-Coin-Horizontal" transform="translate(39 15)"><path d="M0 15.882c0 5.848 11.864 10.589 26.5 10.589S53 21.73 53 15.882v-5.757H0v5.757z" id="Combined-Shape" fill="#E7EAEE"/><ellipse id="Oval-3" fill="#EDF0F4" cx="26.5" cy="10.588" rx="26.5" ry="10.588"/></g><g id="Graphics-/-Coin-Horizontal" transform="translate(41 8)"><path d="M0 15.882c0 5.848 11.864 10.589 26.5 10.589S53 21.73 53 15.882v-5.757H0v5.757z" id="Combined-Shape" fill="#E7EAEE"/><ellipse id="Oval-3" fill="#EDF0F4" cx="26.5" cy="10.588" rx="26.5" ry="10.588"/></g><g id="Graphics-/-Coin-Horizontal" transform="rotate(-37 48.92 16.017)"><path d="M0 15.882c0 5.848 11.864 10.589 26.5 10.589S53 21.73 53 15.882v-5.757H0v5.757z" id="Combined-Shape" fill="#E7EAEE"/><ellipse id="Oval-3" fill="#EDF0F4" cx="26.5" cy="10.588" rx="26.5" ry="10.588"/></g></g></g></g></svg>