<svg width="215" height="178" viewBox="0 0 215 178" xmlns="https://www.w3.org/2000/svg" xmlns:xlink="https://www.w3.org/1999/xlink"><defs><circle id="path-1" cx="24" cy="27" r="20"/><circle id="path-3" cx="24" cy="27" r="20"/><circle id="path-5" cx="24" cy="27" r="20"/><circle id="path-7" cx="24" cy="27" r="20"/><circle id="path-9" cx="24" cy="27" r="20"/><circle id="path-11" cx="24" cy="27" r="20"/><circle id="path-13" cx="24" cy="27" r="20"/><mask id="mask-2" maskContentUnits="userSpaceOnUse" maskUnits="objectBoundingBox" x="0" y="0" width="40" height="40" fill="#fff"><use xlink:href="#path-1"/></mask><mask id="mask-4" maskContentUnits="userSpaceOnUse" maskUnits="objectBoundingBox" x="0" y="0" width="40" height="40" fill="#fff"><use xlink:href="#path-3"/></mask><mask id="mask-6" maskContentUnits="userSpaceOnUse" maskUnits="objectBoundingBox" x="0" y="0" width="40" height="40" fill="#fff"><use xlink:href="#path-5"/></mask><mask id="mask-8" maskContentUnits="userSpaceOnUse" maskUnits="objectBoundingBox" x="0" y="0" width="40" height="40" fill="#fff"><use xlink:href="#path-7"/></mask><mask id="mask-10" maskContentUnits="userSpaceOnUse" maskUnits="objectBoundingBox" x="0" y="0" width="40" height="40" fill="#fff"><use xlink:href="#path-9"/></mask><mask id="mask-12" maskContentUnits="userSpaceOnUse" maskUnits="objectBoundingBox" x="0" y="0" width="40" height="40" fill="#fff"><use xlink:href="#path-11"/></mask><mask id="mask-14" maskContentUnits="userSpaceOnUse" maskUnits="objectBoundingBox" x="0" y="0" width="40" height="40" fill="#fff"><use xlink:href="#path-13"/></mask></defs><g id="Fundraising" stroke="none" stroke-width="1" fill="none" fill-rule="evenodd"><g id="Desktop" transform="translate(-1024 -841)"><g id="What-is-it?" transform="translate(338 841)"><g id="Coins" transform="translate(686)"><g id="Graphics-/-Coin-Y"><circle id="Oval-2" fill="#EDF0F4" fill-rule="evenodd" cx="24" cy="24" r="24"/><circle id="Oval-2" fill="#E7EAEE" fill-rule="evenodd" cx="24" cy="27" r="24"/><use id="Oval-2" stroke="#E0E4E8" mask="url(#mask-2)" stroke-width="2" xlink:href="#path-1"/></g><g id="Graphics-/-Coin-Y" transform="translate(56)"><circle id="Oval-2" fill="#EDF0F4" fill-rule="evenodd" cx="24" cy="24" r="24"/><circle id="Oval-2" fill="#E7EAEE" fill-rule="evenodd" cx="24" cy="27" r="24"/><use id="Oval-2" stroke="#E0E4E8" mask="url(#mask-4)" stroke-width="2" xlink:href="#path-3"/></g><g id="Graphics-/-Coin-Y" transform="translate(111)"><circle id="Oval-2" fill="#EDF0F4" fill-rule="evenodd" cx="24" cy="24" r="24"/><circle id="Oval-2" fill="#E7EAEE" fill-rule="evenodd" cx="24" cy="27" r="24"/><use id="Oval-2" stroke="#E0E4E8" mask="url(#mask-6)" stroke-width="2" xlink:href="#path-5"/></g><g id="Graphics-/-Coin-Y" transform="translate(167)"><circle id="Oval-2" fill="#EDF0F4" fill-rule="evenodd" cx="24" cy="24" r="24"/><circle id="Oval-2" fill="#E7EAEE" fill-rule="evenodd" cx="24" cy="27" r="24"/><use id="Oval-2" stroke="#E0E4E8" mask="url(#mask-8)" stroke-width="2" xlink:href="#path-7"/></g><g id="Graphics-/-Coin-Y" transform="translate(28 53)"><circle id="Oval-2" fill="#EDF0F4" fill-rule="evenodd" cx="24" cy="24" r="24"/><circle id="Oval-2" fill="#E7EAEE" fill-rule="evenodd" cx="24" cy="27" r="24"/><use id="Oval-2" stroke="#E0E4E8" mask="url(#mask-10)" stroke-width="2" xlink:href="#path-9"/></g><g id="Graphics-/-Coin-Y" transform="translate(83 53)"><circle id="Oval-2" fill="#EDF0F4" fill-rule="evenodd" cx="24" cy="24" r="24"/><circle id="Oval-2" fill="#E7EAEE" fill-rule="evenodd" cx="24" cy="27" r="24"/><use id="Oval-2" stroke="#E0E4E8" mask="url(#mask-12)" stroke-width="2" xlink:href="#path-11"/></g><g id="Graphics-/-Coin-Y" transform="translate(139 53)"><circle id="Oval-2" fill="#EDF0F4" fill-rule="evenodd" cx="24" cy="24" r="24"/><circle id="Oval-2" fill="#E7EAEE" fill-rule="evenodd" cx="24" cy="27" r="24"/><use id="Oval-2" stroke="#E0E4E8" mask="url(#mask-14)" stroke-width="2" xlink:href="#path-13"/></g><g id="Graphics-/-Coin-Horizontal" transform="rotate(-104 118.71 52.156)"><path d="M0 15.882c0 5.848 11.864 10.589 26.5 10.589S53 21.73 53 15.882v-5.757H0v5.757z" id="Combined-Shape" fill="#E7EAEE"/><ellipse id="Oval-3" fill="#EDF0F4" cx="26.5" cy="10.588" rx="26.5" ry="10.588"/></g></g></g></g></g></svg>