<svg xmlns="https://www.w3.org/2000/svg" width="214" height="256" viewBox="0 0 214 256"><path fill="#7373E6" d="M212 4a2 2 0 110-4 2 2 0 010 4zm-6 0a2 2 0 110-4 2 2 0 010 4zm-6 0a2 2 0 110-4 2 2 0 010 4zm-6 0a2 2 0 110-4 2 2 0 010 4zm-6 0a2 2 0 110-4 2 2 0 010 4zm-6 0a2 2 0 110-4 2 2 0 010 4zm-6 0a2 2 0 110-4 2 2 0 010 4zm-6 0a2 2 0 110-4 2 2 0 010 4zm-6 0a2 2 0 110-4 2 2 0 010 4zm-6 0a2 2 0 110-4 2 2 0 010 4zm-6 0a2 2 0 110-4 2 2 0 010 4zm-6 0a2 2 0 110-4 2 2 0 010 4zm-6 0a2 2 0 110-4 2 2 0 010 4zm-6 0a2 2 0 110-4 2 2 0 010 4zm78 6a2 2 0 110-4 2 2 0 010 4zm-6 0a2 2 0 110-4 2 2 0 010 4zm-6 0a2 2 0 110-4 2 2 0 010 4zm-6 0a2 2 0 110-4 2 2 0 010 4zm-6 0a2 2 0 110-4 2 2 0 010 4zm-6 0a2 2 0 110-4 2 2 0 010 4zm-6 0a2 2 0 110-4 2 2 0 010 4zm-6 0a2 2 0 110-4 2 2 0 010 4zm-6 0a2 2 0 110-4 2 2 0 010 4zm-6 0a2 2 0 110-4 2 2 0 010 4zm-6 0a2 2 0 110-4 2 2 0 010 4zm-6 0a2 2 0 110-4 2 2 0 010 4zm-6 0a2 2 0 110-4 2 2 0 010 4zm-6 0a2 2 0 110-4 2 2 0 010 4zm78 6a2 2 0 110-4 2 2 0 010 4zm-6 0a2 2 0 110-4 2 2 0 010 4zm-6 0a2 2 0 110-4 2 2 0 010 4zm-6 0a2 2 0 110-4 2 2 0 010 4zm-6 0a2 2 0 110-4 2 2 0 010 4zm-6 0a2 2 0 110-4 2 2 0 010 4zm-6 0a2 2 0 110-4 2 2 0 010 4zm-6 0a2 2 0 110-4 2 2 0 010 4zm-6 0a2 2 0 110-4 2 2 0 010 4zm-6 0a2 2 0 110-4 2 2 0 010 4zm-6 0a2 2 0 110-4 2 2 0 010 4zm-6 0a2 2 0 110-4 2 2 0 010 4zm-6 0a2 2 0 110-4 2 2 0 010 4zm-6 0a2 2 0 110-4 2 2 0 010 4zm78 6a2 2 0 110-4 2 2 0 010 4zm-6 0a2 2 0 110-4 2 2 0 010 4zm-6 0a2 2 0 110-4 2 2 0 010 4zm-6 0a2 2 0 110-4 2 2 0 010 4zm-6 0a2 2 0 110-4 2 2 0 010 4zm-6 0a2 2 0 110-4 2 2 0 010 4zm-6 0a2 2 0 110-4 2 2 0 010 4zm-6 0a2 2 0 110-4 2 2 0 010 4zm-6 0a2 2 0 110-4 2 2 0 010 4zm-6 0a2 2 0 110-4 2 2 0 010 4zm-6 0a2 2 0 110-4 2 2 0 010 4zm-6 0a2 2 0 110-4 2 2 0 010 4zm-6 0a2 2 0 110-4 2 2 0 010 4zm-6 0a2 2 0 110-4 2 2 0 010 4zm78 6a2 2 0 110-4 2 2 0 010 4zm-6 0a2 2 0 110-4 2 2 0 010 4zm-6 0a2 2 0 110-4 2 2 0 010 4zm-6 0a2 2 0 110-4 2 2 0 010 4zm-6 0a2 2 0 110-4 2 2 0 010 4zm-6 0a2 2 0 110-4 2 2 0 010 4zm-6 0a2 2 0 110-4 2 2 0 010 4zm-6 0a2 2 0 110-4 2 2 0 010 4zm-6 0a2 2 0 110-4 2 2 0 010 4zm-6 0a2 2 0 110-4 2 2 0 010 4zm-6 0a2 2 0 110-4 2 2 0 010 4zm-6 0a2 2 0 110-4 2 2 0 010 4zm-6 0a2 2 0 110-4 2 2 0 010 4zm-6 0a2 2 0 110-4 2 2 0 010 4zm78 6a2 2 0 110-4 2 2 0 010 4zm-6 0a2 2 0 110-4 2 2 0 010 4zm-6 0a2 2 0 110-4 2 2 0 010 4zm-6 0a2 2 0 110-4 2 2 0 010 4zm-6 0a2 2 0 110-4 2 2 0 010 4zm-6 0a2 2 0 110-4 2 2 0 010 4zm-6 0a2 2 0 110-4 2 2 0 010 4zm-6 0a2 2 0 110-4 2 2 0 010 4zm-6 0a2 2 0 110-4 2 2 0 010 4zm-6 0a2 2 0 110-4 2 2 0 010 4zm-6 0a2 2 0 110-4 2 2 0 010 4zm-6 0a2 2 0 110-4 2 2 0 010 4zm-6 0a2 2 0 110-4 2 2 0 010 4zm-6 0a2 2 0 110-4 2 2 0 010 4zm78 6a2 2 0 110-4 2 2 0 010 4zm-6 0a2 2 0 110-4 2 2 0 010 4zm-6 0a2 2 0 110-4 2 2 0 010 4zm-6 0a2 2 0 110-4 2 2 0 010 4zm-6 0a2 2 0 110-4 2 2 0 010 4zm-6 0a2 2 0 110-4 2 2 0 010 4zm-6 0a2 2 0 110-4 2 2 0 010 4zm-6 0a2 2 0 110-4 2 2 0 010 4zm-6 0a2 2 0 110-4 2 2 0 010 4zm-6 0a2 2 0 110-4 2 2 0 010 4zm-6 0a2 2 0 110-4 2 2 0 010 4zm-6 0a2 2 0 110-4 2 2 0 010 4zm-6 0a2 2 0 110-4 2 2 0 010 4zm-6 0a2 2 0 110-4 2 2 0 010 4zm78 6a2 2 0 110-4 2 2 0 010 4zm-6 0a2 2 0 110-4 2 2 0 010 4zm-6 0a2 2 0 110-4 2 2 0 010 4zm-6 0a2 2 0 110-4 2 2 0 010 4zm-6 0a2 2 0 110-4 2 2 0 010 4zm-6 0a2 2 0 110-4 2 2 0 010 4zm-6 0a2 2 0 110-4 2 2 0 010 4zm-6 0a2 2 0 110-4 2 2 0 010 4zm-6 0a2 2 0 110-4 2 2 0 010 4zm-6 0a2 2 0 110-4 2 2 0 010 4zm-6 0a2 2 0 110-4 2 2 0 010 4zm-6 0a2 2 0 110-4 2 2 0 010 4zm-6 0a2 2 0 110-4 2 2 0 010 4zm-6 0a2 2 0 110-4 2 2 0 010 4zm78 6a2 2 0 110-4 2 2 0 010 4zm-6 0a2 2 0 110-4 2 2 0 010 4zm-6 0a2 2 0 110-4 2 2 0 010 4zm-6 0a2 2 0 110-4 2 2 0 010 4zm-6 0a2 2 0 110-4 2 2 0 010 4zm-6 0a2 2 0 110-4 2 2 0 010 4zm-6 0a2 2 0 110-4 2 2 0 010 4zm-6 0a2 2 0 110-4 2 2 0 010 4zm-6 0a2 2 0 110-4 2 2 0 010 4zm-6 0a2 2 0 110-4 2 2 0 010 4zm-6 0a2 2 0 110-4 2 2 0 010 4zm-6 0a2 2 0 110-4 2 2 0 010 4zm-6 0a2 2 0 110-4 2 2 0 010 4zm-6 0a2 2 0 110-4 2 2 0 010 4zm78 6a2 2 0 110-4 2 2 0 010 4zm-6 0a2 2 0 110-4 2 2 0 010 4zm-6 0a2 2 0 110-4 2 2 0 010 4zm-6 0a2 2 0 110-4 2 2 0 010 4zm-6 0a2 2 0 110-4 2 2 0 010 4zm-6 0a2 2 0 110-4 2 2 0 010 4zm-6 0a2 2 0 110-4 2 2 0 010 4zm-6 0a2 2 0 110-4 2 2 0 010 4zm-6 0a2 2 0 110-4 2 2 0 010 4zm-6 0a2 2 0 110-4 2 2 0 010 4zm-6 0a2 2 0 110-4 2 2 0 010 4zm-6 0a2 2 0 110-4 2 2 0 010 4zm-6 0a2 2 0 110-4 2 2 0 010 4zm-6 0a2 2 0 110-4 2 2 0 010 4zm78 6a2 2 0 110-4 2 2 0 010 4zm-6 0a2 2 0 110-4 2 2 0 010 4zm-6 0a2 2 0 110-4 2 2 0 010 4zm-6 0a2 2 0 110-4 2 2 0 010 4zm-6 0a2 2 0 110-4 2 2 0 010 4zm-6 0a2 2 0 110-4 2 2 0 010 4zm-6 0a2 2 0 110-4 2 2 0 010 4zm-6 0a2 2 0 110-4 2 2 0 010 4zm-6 0a2 2 0 110-4 2 2 0 010 4zm-6 0a2 2 0 110-4 2 2 0 010 4zm-6 0a2 2 0 110-4 2 2 0 010 4zm-6 0a2 2 0 110-4 2 2 0 010 4zm-6 0a2 2 0 110-4 2 2 0 010 4zm-6 0a2 2 0 110-4 2 2 0 010 4zm78 6a2 2 0 110-4 2 2 0 010 4zm-6 0a2 2 0 110-4 2 2 0 010 4zm-6 0a2 2 0 110-4 2 2 0 010 4zm-6 0a2 2 0 110-4 2 2 0 010 4zm-6 0a2 2 0 110-4 2 2 0 010 4zm-6 0a2 2 0 110-4 2 2 0 010 4zm-6 0a2 2 0 110-4 2 2 0 010 4zm-6 0a2 2 0 110-4 2 2 0 010 4zm-6 0a2 2 0 110-4 2 2 0 010 4zm-6 0a2 2 0 110-4 2 2 0 010 4zm-6 0a2 2 0 110-4 2 2 0 010 4zm-6 0a2 2 0 110-4 2 2 0 010 4zm-6 0a2 2 0 110-4 2 2 0 010 4zm-6 0a2 2 0 110-4 2 2 0 010 4zm78 6a2 2 0 110-4 2 2 0 010 4zm-6 0a2 2 0 110-4 2 2 0 010 4zm-6 0a2 2 0 110-4 2 2 0 010 4zm-6 0a2 2 0 110-4 2 2 0 010 4zm-6 0a2 2 0 110-4 2 2 0 010 4zm-6 0a2 2 0 110-4 2 2 0 010 4zm-6 0a2 2 0 110-4 2 2 0 010 4zm-6 0a2 2 0 110-4 2 2 0 010 4zm-6 0a2 2 0 110-4 2 2 0 010 4zm-6 0a2 2 0 110-4 2 2 0 010 4zm-6 0a2 2 0 110-4 2 2 0 010 4zm-6 0a2 2 0 110-4 2 2 0 010 4zm-6 0a2 2 0 110-4 2 2 0 010 4zm-6 0a2 2 0 110-4 2 2 0 010 4zm78 6a2 2 0 110-4 2 2 0 010 4zm-6 0a2 2 0 110-4 2 2 0 010 4zm-6 0a2 2 0 110-4 2 2 0 010 4zm-6 0a2 2 0 110-4 2 2 0 010 4zm-6 0a2 2 0 110-4 2 2 0 010 4zm-6 0a2 2 0 110-4 2 2 0 010 4zm-6 0a2 2 0 110-4 2 2 0 010 4zm-6 0a2 2 0 110-4 2 2 0 010 4zm-6 0a2 2 0 110-4 2 2 0 010 4zm-6 0a2 2 0 110-4 2 2 0 010 4zm-6 0a2 2 0 110-4 2 2 0 010 4zm-6 0a2 2 0 110-4 2 2 0 010 4zm-6 0a2 2 0 110-4 2 2 0 010 4zm-6 0a2 2 0 110-4 2 2 0 010 4zm78 6a2 2 0 110-4 2 2 0 010 4zm-6 0a2 2 0 110-4 2 2 0 010 4zm-6 0a2 2 0 110-4 2 2 0 010 4zm-6 0a2 2 0 110-4 2 2 0 010 4zm-6 0a2 2 0 110-4 2 2 0 010 4zm-6 0a2 2 0 110-4 2 2 0 010 4zm-6 0a2 2 0 110-4 2 2 0 010 4zm-6 0a2 2 0 110-4 2 2 0 010 4zm-6 0a2 2 0 110-4 2 2 0 010 4zm-6 0a2 2 0 110-4 2 2 0 010 4zm-6 0a2 2 0 110-4 2 2 0 010 4zm-6 0a2 2 0 110-4 2 2 0 010 4zm-6 0a2 2 0 110-4 2 2 0 010 4zm-6 0a2 2 0 110-4 2 2 0 010 4zm78 6a2 2 0 110-4 2 2 0 010 4zm-6 0a2 2 0 110-4 2 2 0 010 4zm-6 0a2 2 0 110-4 2 2 0 010 4zm-6 0a2 2 0 110-4 2 2 0 010 4zm-6 0a2 2 0 110-4 2 2 0 010 4zm-6 0a2 2 0 110-4 2 2 0 010 4zm-6 0a2 2 0 110-4 2 2 0 010 4zm-6 0a2 2 0 110-4 2 2 0 010 4zm-6 0a2 2 0 110-4 2 2 0 010 4zm-6 0a2 2 0 110-4 2 2 0 010 4zm-6 0a2 2 0 110-4 2 2 0 010 4zm-6 0a2 2 0 110-4 2 2 0 010 4zm-6 0a2 2 0 110-4 2 2 0 010 4zm-6 0a2 2 0 110-4 2 2 0 010 4zm78 102a2 2 0 110-4 2 2 0 010 4zm-6 0a2 2 0 110-4 2 2 0 010 4zm-6 0a2 2 0 110-4 2 2 0 010 4zm-6 0a2 2 0 110-4 2 2 0 010 4zm-6 0a2 2 0 110-4 2 2 0 010 4zm-6 0a2 2 0 110-4 2 2 0 010 4zm-6 0a2 2 0 110-4 2 2 0 010 4zm-6 0a2 2 0 110-4 2 2 0 010 4zm-6 0a2 2 0 110-4 2 2 0 010 4zm-6 0a2 2 0 110-4 2 2 0 010 4zm-6 0a2 2 0 110-4 2 2 0 010 4zm-6 0a2 2 0 110-4 2 2 0 010 4zm-6 0a2 2 0 110-4 2 2 0 010 4zm-6 0a2 2 0 110-4 2 2 0 010 4zm78 6a2 2 0 110-4 2 2 0 010 4zm-6 0a2 2 0 110-4 2 2 0 010 4zm-6 0a2 2 0 110-4 2 2 0 010 4zm-6 0a2 2 0 110-4 2 2 0 010 4zm-6 0a2 2 0 110-4 2 2 0 010 4zm-6 0a2 2 0 110-4 2 2 0 010 4zm-6 0a2 2 0 110-4 2 2 0 010 4zm-6 0a2 2 0 110-4 2 2 0 010 4zm-6 0a2 2 0 110-4 2 2 0 010 4zm-6 0a2 2 0 110-4 2 2 0 010 4zm-6 0a2 2 0 110-4 2 2 0 010 4zm-6 0a2 2 0 110-4 2 2 0 010 4zm-6 0a2 2 0 110-4 2 2 0 010 4zm-6 0a2 2 0 110-4 2 2 0 010 4zm78 6a2 2 0 110-4 2 2 0 010 4zm-6 0a2 2 0 110-4 2 2 0 010 4zm-6 0a2 2 0 110-4 2 2 0 010 4zm-6 0a2 2 0 110-4 2 2 0 010 4zm-6 0a2 2 0 110-4 2 2 0 010 4zm-6 0a2 2 0 110-4 2 2 0 010 4zm-6 0a2 2 0 110-4 2 2 0 010 4zm-6 0a2 2 0 110-4 2 2 0 010 4zm-6 0a2 2 0 110-4 2 2 0 010 4zm-6 0a2 2 0 110-4 2 2 0 010 4zm-6 0a2 2 0 110-4 2 2 0 010 4zm-6 0a2 2 0 110-4 2 2 0 010 4zm-6 0a2 2 0 110-4 2 2 0 010 4zm-6 0a2 2 0 110-4 2 2 0 010 4zm78 6a2 2 0 110-4 2 2 0 010 4zm-6 0a2 2 0 110-4 2 2 0 010 4zm-6 0a2 2 0 110-4 2 2 0 010 4zm-6 0a2 2 0 110-4 2 2 0 010 4zm-6 0a2 2 0 110-4 2 2 0 010 4zm-6 0a2 2 0 110-4 2 2 0 010 4zm-6 0a2 2 0 110-4 2 2 0 010 4zm-6 0a2 2 0 110-4 2 2 0 010 4zm-6 0a2 2 0 110-4 2 2 0 010 4zm-6 0a2 2 0 110-4 2 2 0 010 4zm-6 0a2 2 0 110-4 2 2 0 010 4zm-6 0a2 2 0 110-4 2 2 0 010 4zm-6 0a2 2 0 110-4 2 2 0 010 4zm-6 0a2 2 0 110-4 2 2 0 010 4zm78 6a2 2 0 110-4 2 2 0 010 4zm-6 0a2 2 0 110-4 2 2 0 010 4zm-6 0a2 2 0 110-4 2 2 0 010 4zm-6 0a2 2 0 110-4 2 2 0 010 4zm-6 0a2 2 0 110-4 2 2 0 010 4zm-6 0a2 2 0 110-4 2 2 0 010 4zm-6 0a2 2 0 110-4 2 2 0 010 4zm-6 0a2 2 0 110-4 2 2 0 010 4zm-6 0a2 2 0 110-4 2 2 0 010 4zm-6 0a2 2 0 110-4 2 2 0 010 4zm-6 0a2 2 0 110-4 2 2 0 010 4zm-6 0a2 2 0 110-4 2 2 0 010 4zm-6 0a2 2 0 110-4 2 2 0 010 4zm-6 0a2 2 0 110-4 2 2 0 010 4zm78 6a2 2 0 110-4 2 2 0 010 4zm-6 0a2 2 0 110-4 2 2 0 010 4zm-6 0a2 2 0 110-4 2 2 0 010 4zm-6 0a2 2 0 110-4 2 2 0 010 4zm-6 0a2 2 0 110-4 2 2 0 010 4zm-6 0a2 2 0 110-4 2 2 0 010 4zm-6 0a2 2 0 110-4 2 2 0 010 4zm-6 0a2 2 0 110-4 2 2 0 010 4zm-6 0a2 2 0 110-4 2 2 0 010 4zm-6 0a2 2 0 110-4 2 2 0 010 4zm-6 0a2 2 0 110-4 2 2 0 010 4zm-6 0a2 2 0 110-4 2 2 0 010 4zm-6 0a2 2 0 110-4 2 2 0 010 4zm-6 0a2 2 0 110-4 2 2 0 010 4zm78 6a2 2 0 110-4 2 2 0 010 4zm-6 0a2 2 0 110-4 2 2 0 010 4zm-6 0a2 2 0 110-4 2 2 0 010 4zm-6 0a2 2 0 110-4 2 2 0 010 4zm-6 0a2 2 0 110-4 2 2 0 010 4zm-6 0a2 2 0 110-4 2 2 0 010 4zm-6 0a2 2 0 110-4 2 2 0 010 4zm-6 0a2 2 0 110-4 2 2 0 010 4zm-6 0a2 2 0 110-4 2 2 0 010 4zm-6 0a2 2 0 110-4 2 2 0 010 4zm-6 0a2 2 0 110-4 2 2 0 010 4zm-6 0a2 2 0 110-4 2 2 0 010 4zm-6 0a2 2 0 110-4 2 2 0 010 4zm-6 0a2 2 0 110-4 2 2 0 010 4zm78 6a2 2 0 110-4 2 2 0 010 4zm-6 0a2 2 0 110-4 2 2 0 010 4zm-6 0a2 2 0 110-4 2 2 0 010 4zm-6 0a2 2 0 110-4 2 2 0 010 4zm-6 0a2 2 0 110-4 2 2 0 010 4zm-6 0a2 2 0 110-4 2 2 0 010 4zm-6 0a2 2 0 110-4 2 2 0 010 4zm-6 0a2 2 0 110-4 2 2 0 010 4zm-6 0a2 2 0 110-4 2 2 0 010 4zm-6 0a2 2 0 110-4 2 2 0 010 4zm-6 0a2 2 0 110-4 2 2 0 010 4zm-6 0a2 2 0 110-4 2 2 0 010 4zm-6 0a2 2 0 110-4 2 2 0 010 4zm-6 0a2 2 0 110-4 2 2 0 010 4zm78 6a2 2 0 110-4 2 2 0 010 4zm-6 0a2 2 0 110-4 2 2 0 010 4zm-6 0a2 2 0 110-4 2 2 0 010 4zm-6 0a2 2 0 110-4 2 2 0 010 4zm-6 0a2 2 0 110-4 2 2 0 010 4zm-6 0a2 2 0 110-4 2 2 0 010 4zm-6 0a2 2 0 110-4 2 2 0 010 4zm-6 0a2 2 0 110-4 2 2 0 010 4zm-6 0a2 2 0 110-4 2 2 0 010 4zm-6 0a2 2 0 110-4 2 2 0 010 4zm-6 0a2 2 0 110-4 2 2 0 010 4zm-6 0a2 2 0 110-4 2 2 0 010 4zm-6 0a2 2 0 110-4 2 2 0 010 4zm-6 0a2 2 0 110-4 2 2 0 010 4zm78 6a2 2 0 110-4 2 2 0 010 4zm-6 0a2 2 0 110-4 2 2 0 010 4zm-6 0a2 2 0 110-4 2 2 0 010 4zm-6 0a2 2 0 110-4 2 2 0 010 4zm-6 0a2 2 0 110-4 2 2 0 010 4zm-6 0a2 2 0 110-4 2 2 0 010 4zm-6 0a2 2 0 110-4 2 2 0 010 4zm-6 0a2 2 0 110-4 2 2 0 010 4zm-6 0a2 2 0 110-4 2 2 0 010 4zm-6 0a2 2 0 110-4 2 2 0 010 4zm-6 0a2 2 0 110-4 2 2 0 010 4zm-6 0a2 2 0 110-4 2 2 0 010 4zm-6 0a2 2 0 110-4 2 2 0 010 4zm-6 0a2 2 0 110-4 2 2 0 010 4zm78 6a2 2 0 110-4 2 2 0 010 4zm-6 0a2 2 0 110-4 2 2 0 010 4zm-6 0a2 2 0 110-4 2 2 0 010 4zm-6 0a2 2 0 110-4 2 2 0 010 4zm-6 0a2 2 0 110-4 2 2 0 010 4zm-6 0a2 2 0 110-4 2 2 0 010 4zm-6 0a2 2 0 110-4 2 2 0 010 4zm-6 0a2 2 0 110-4 2 2 0 010 4zm-6 0a2 2 0 110-4 2 2 0 010 4zm-6 0a2 2 0 110-4 2 2 0 010 4zm-6 0a2 2 0 110-4 2 2 0 010 4zm-6 0a2 2 0 110-4 2 2 0 010 4zm-6 0a2 2 0 110-4 2 2 0 010 4zm-6 0a2 2 0 110-4 2 2 0 010 4zm78-156a2 2 0 110-4 2 2 0 010 4zm-6 0a2 2 0 110-4 2 2 0 010 4zm-6 0a2 2 0 110-4 2 2 0 010 4zm-6 0a2 2 0 110-4 2 2 0 010 4zm-6 0a2 2 0 110-4 2 2 0 010 4zm-6 0a2 2 0 110-4 2 2 0 010 4zm-6 0a2 2 0 110-4 2 2 0 010 4zm-6 0a2 2 0 110-4 2 2 0 010 4zm-6 0a2 2 0 110-4 2 2 0 010 4zm-6 0a2 2 0 110-4 2 2 0 010 4zm-6 0a2 2 0 110-4 2 2 0 010 4zm-6 0a2 2 0 110-4 2 2 0 010 4zm-6 0a2 2 0 110-4 2 2 0 010 4zm-6 0a2 2 0 110-4 2 2 0 010 4zm78 6a2 2 0 110-4 2 2 0 010 4zm-6 0a2 2 0 110-4 2 2 0 010 4zm-6 0a2 2 0 110-4 2 2 0 010 4zm-6 0a2 2 0 110-4 2 2 0 010 4zm-6 0a2 2 0 110-4 2 2 0 010 4zm-6 0a2 2 0 110-4 2 2 0 010 4zm-6 0a2 2 0 110-4 2 2 0 010 4zm-6 0a2 2 0 110-4 2 2 0 010 4zm-6 0a2 2 0 110-4 2 2 0 010 4zm-6 0a2 2 0 110-4 2 2 0 010 4zm-6 0a2 2 0 110-4 2 2 0 010 4zm-6 0a2 2 0 110-4 2 2 0 010 4zm-6 0a2 2 0 110-4 2 2 0 010 4zm-6 0a2 2 0 110-4 2 2 0 010 4zm78 6a2 2 0 110-4 2 2 0 010 4zm-6 0a2 2 0 110-4 2 2 0 010 4zm-6 0a2 2 0 110-4 2 2 0 010 4zm-6 0a2 2 0 110-4 2 2 0 010 4zm-6 0a2 2 0 110-4 2 2 0 010 4zm-6 0a2 2 0 110-4 2 2 0 010 4zm-6 0a2 2 0 110-4 2 2 0 010 4zm-6 0a2 2 0 110-4 2 2 0 010 4zm-6 0a2 2 0 110-4 2 2 0 010 4zm-6 0a2 2 0 110-4 2 2 0 010 4zm-6 0a2 2 0 110-4 2 2 0 010 4zm-6 0a2 2 0 110-4 2 2 0 010 4zm-6 0a2 2 0 110-4 2 2 0 010 4zm-6 0a2 2 0 110-4 2 2 0 010 4zm78 6a2 2 0 110-4 2 2 0 010 4zm-6 0a2 2 0 110-4 2 2 0 010 4zm-6 0a2 2 0 110-4 2 2 0 010 4zm-6 0a2 2 0 110-4 2 2 0 010 4zm-6 0a2 2 0 110-4 2 2 0 010 4zm-6 0a2 2 0 110-4 2 2 0 010 4zm-6 0a2 2 0 110-4 2 2 0 010 4zm-6 0a2 2 0 110-4 2 2 0 010 4zm-6 0a2 2 0 110-4 2 2 0 010 4zm-6 0a2 2 0 110-4 2 2 0 010 4zm-6 0a2 2 0 110-4 2 2 0 010 4zm-6 0a2 2 0 110-4 2 2 0 010 4zm-6 0a2 2 0 110-4 2 2 0 010 4zm-6 0a2 2 0 110-4 2 2 0 010 4zm78 6a2 2 0 110-4 2 2 0 010 4zm-6 0a2 2 0 110-4 2 2 0 010 4zm-6 0a2 2 0 110-4 2 2 0 010 4zm-6 0a2 2 0 110-4 2 2 0 010 4zm-6 0a2 2 0 110-4 2 2 0 010 4zm-6 0a2 2 0 110-4 2 2 0 010 4zm-6 0a2 2 0 110-4 2 2 0 010 4zm-6 0a2 2 0 110-4 2 2 0 010 4zm-6 0a2 2 0 110-4 2 2 0 010 4zm-6 0a2 2 0 110-4 2 2 0 010 4zm-6 0a2 2 0 110-4 2 2 0 010 4zm-6 0a2 2 0 110-4 2 2 0 010 4zm-6 0a2 2 0 110-4 2 2 0 010 4zm-6 0a2 2 0 110-4 2 2 0 010 4zm78 6a2 2 0 110-4 2 2 0 010 4zm-6 0a2 2 0 110-4 2 2 0 010 4zm-6 0a2 2 0 110-4 2 2 0 010 4zm-6 0a2 2 0 110-4 2 2 0 010 4zm-6 0a2 2 0 110-4 2 2 0 010 4zm-6 0a2 2 0 110-4 2 2 0 010 4zm-6 0a2 2 0 110-4 2 2 0 010 4zm-6 0a2 2 0 110-4 2 2 0 010 4zm-6 0a2 2 0 110-4 2 2 0 010 4zm-6 0a2 2 0 110-4 2 2 0 010 4zm-6 0a2 2 0 110-4 2 2 0 010 4zm-6 0a2 2 0 110-4 2 2 0 010 4zm-6 0a2 2 0 110-4 2 2 0 010 4zm-6 0a2 2 0 110-4 2 2 0 010 4zm78 6a2 2 0 110-4 2 2 0 010 4zm-6 0a2 2 0 110-4 2 2 0 010 4zm-6 0a2 2 0 110-4 2 2 0 010 4zm-6 0a2 2 0 110-4 2 2 0 010 4zm-6 0a2 2 0 110-4 2 2 0 010 4zm-6 0a2 2 0 110-4 2 2 0 010 4zm-6 0a2 2 0 110-4 2 2 0 010 4zm-6 0a2 2 0 110-4 2 2 0 010 4zm-6 0a2 2 0 110-4 2 2 0 010 4zm-6 0a2 2 0 110-4 2 2 0 010 4zm-6 0a2 2 0 110-4 2 2 0 010 4zm-6 0a2 2 0 110-4 2 2 0 010 4zm-6 0a2 2 0 110-4 2 2 0 010 4zm-6 0a2 2 0 110-4 2 2 0 010 4zm78 6a2 2 0 110-4 2 2 0 010 4zm-6 0a2 2 0 110-4 2 2 0 010 4zm-6 0a2 2 0 110-4 2 2 0 010 4zm-6 0a2 2 0 110-4 2 2 0 010 4zm-6 0a2 2 0 110-4 2 2 0 010 4zm-6 0a2 2 0 110-4 2 2 0 010 4zm-6 0a2 2 0 110-4 2 2 0 010 4zm-6 0a2 2 0 110-4 2 2 0 010 4zm-6 0a2 2 0 110-4 2 2 0 010 4zm-6 0a2 2 0 110-4 2 2 0 010 4zm-6 0a2 2 0 110-4 2 2 0 010 4zm-6 0a2 2 0 110-4 2 2 0 010 4zm-6 0a2 2 0 110-4 2 2 0 010 4zm-6 0a2 2 0 110-4 2 2 0 010 4zm78 6a2 2 0 110-4 2 2 0 010 4zm-6 0a2 2 0 110-4 2 2 0 010 4zm-6 0a2 2 0 110-4 2 2 0 010 4zm-6 0a2 2 0 110-4 2 2 0 010 4zm-6 0a2 2 0 110-4 2 2 0 010 4zm-6 0a2 2 0 110-4 2 2 0 010 4zm-6 0a2 2 0 110-4 2 2 0 010 4zm-6 0a2 2 0 110-4 2 2 0 010 4zm-6 0a2 2 0 110-4 2 2 0 010 4zm-6 0a2 2 0 110-4 2 2 0 010 4zm-6 0a2 2 0 110-4 2 2 0 010 4zm-6 0a2 2 0 110-4 2 2 0 010 4zm-6 0a2 2 0 110-4 2 2 0 010 4zm-6 0a2 2 0 110-4 2 2 0 010 4zm78 6a2 2 0 110-4 2 2 0 010 4zm-6 0a2 2 0 110-4 2 2 0 010 4zm-6 0a2 2 0 110-4 2 2 0 010 4zm-6 0a2 2 0 110-4 2 2 0 010 4zm-6 0a2 2 0 110-4 2 2 0 010 4zm-6 0a2 2 0 110-4 2 2 0 010 4zm-6 0a2 2 0 110-4 2 2 0 010 4zm-6 0a2 2 0 110-4 2 2 0 010 4zm-6 0a2 2 0 110-4 2 2 0 010 4zm-6 0a2 2 0 110-4 2 2 0 010 4zm-6 0a2 2 0 110-4 2 2 0 010 4zm-6 0a2 2 0 110-4 2 2 0 010 4zm-6 0a2 2 0 110-4 2 2 0 010 4zm-6 0a2 2 0 110-4 2 2 0 010 4zm78 6a2 2 0 110-4 2 2 0 010 4zm-6 0a2 2 0 110-4 2 2 0 010 4zm-6 0a2 2 0 110-4 2 2 0 010 4zm-6 0a2 2 0 110-4 2 2 0 010 4zm-6 0a2 2 0 110-4 2 2 0 010 4zm-6 0a2 2 0 110-4 2 2 0 010 4zm-6 0a2 2 0 110-4 2 2 0 010 4zm-6 0a2 2 0 110-4 2 2 0 010 4zm-6 0a2 2 0 110-4 2 2 0 010 4zm-6 0a2 2 0 110-4 2 2 0 010 4zm-6 0a2 2 0 110-4 2 2 0 010 4zm-6 0a2 2 0 110-4 2 2 0 010 4zm-6 0a2 2 0 110-4 2 2 0 010 4zm-6 0a2 2 0 110-4 2 2 0 010 4zm78 6a2 2 0 110-4 2 2 0 010 4zm-6 0a2 2 0 110-4 2 2 0 010 4zm-6 0a2 2 0 110-4 2 2 0 010 4zm-6 0a2 2 0 110-4 2 2 0 010 4zm-6 0a2 2 0 110-4 2 2 0 010 4zm-6 0a2 2 0 110-4 2 2 0 010 4zm-6 0a2 2 0 110-4 2 2 0 010 4zm-6 0a2 2 0 110-4 2 2 0 010 4zm-6 0a2 2 0 110-4 2 2 0 010 4zm-6 0a2 2 0 110-4 2 2 0 010 4zm-6 0a2 2 0 110-4 2 2 0 010 4zm-6 0a2 2 0 110-4 2 2 0 010 4zm-6 0a2 2 0 110-4 2 2 0 010 4zm-6 0a2 2 0 110-4 2 2 0 010 4zm78 6a2 2 0 110-4 2 2 0 010 4zm-6 0a2 2 0 110-4 2 2 0 010 4zm-6 0a2 2 0 110-4 2 2 0 010 4zm-6 0a2 2 0 110-4 2 2 0 010 4zm-6 0a2 2 0 110-4 2 2 0 010 4zm-6 0a2 2 0 110-4 2 2 0 010 4zm-6 0a2 2 0 110-4 2 2 0 010 4zm-6 0a2 2 0 110-4 2 2 0 010 4zm-6 0a2 2 0 110-4 2 2 0 010 4zm-6 0a2 2 0 110-4 2 2 0 010 4zm-6 0a2 2 0 110-4 2 2 0 010 4zm-6 0a2 2 0 110-4 2 2 0 010 4zm-6 0a2 2 0 110-4 2 2 0 010 4zm-6 0a2 2 0 110-4 2 2 0 010 4zm78 6a2 2 0 110-4 2 2 0 010 4zm-6 0a2 2 0 110-4 2 2 0 010 4zm-6 0a2 2 0 110-4 2 2 0 010 4zm-6 0a2 2 0 110-4 2 2 0 010 4zm-6 0a2 2 0 110-4 2 2 0 010 4zm-6 0a2 2 0 110-4 2 2 0 010 4zm-6 0a2 2 0 110-4 2 2 0 010 4zm-6 0a2 2 0 110-4 2 2 0 010 4zm-6 0a2 2 0 110-4 2 2 0 010 4zm-6 0a2 2 0 110-4 2 2 0 010 4zm-6 0a2 2 0 110-4 2 2 0 010 4zm-6 0a2 2 0 110-4 2 2 0 010 4zm-6 0a2 2 0 110-4 2 2 0 010 4zm-6 0a2 2 0 110-4 2 2 0 010 4zm78 6a2 2 0 110-4 2 2 0 010 4zm-6 0a2 2 0 110-4 2 2 0 010 4zm-6 0a2 2 0 110-4 2 2 0 010 4zm-6 0a2 2 0 110-4 2 2 0 010 4zm-6 0a2 2 0 110-4 2 2 0 010 4zm-6 0a2 2 0 110-4 2 2 0 010 4zm-6 0a2 2 0 110-4 2 2 0 010 4zm-6 0a2 2 0 110-4 2 2 0 010 4zm-6 0a2 2 0 110-4 2 2 0 010 4zm-6 0a2 2 0 110-4 2 2 0 010 4zm-6 0a2 2 0 110-4 2 2 0 010 4zm-6 0a2 2 0 110-4 2 2 0 010 4zm-6 0a2 2 0 110-4 2 2 0 010 4zm-6 0a2 2 0 110-4 2 2 0 010 4zm78 6a2 2 0 110-4 2 2 0 010 4zm-6 0a2 2 0 110-4 2 2 0 010 4zm-6 0a2 2 0 110-4 2 2 0 010 4zm-6 0a2 2 0 110-4 2 2 0 010 4zm-6 0a2 2 0 110-4 2 2 0 010 4zm-6 0a2 2 0 110-4 2 2 0 010 4zm-6 0a2 2 0 110-4 2 2 0 010 4zm-6 0a2 2 0 110-4 2 2 0 010 4zm-6 0a2 2 0 110-4 2 2 0 010 4zm-6 0a2 2 0 110-4 2 2 0 010 4zm-6 0a2 2 0 110-4 2 2 0 010 4zm-6 0a2 2 0 110-4 2 2 0 010 4zm-6 0a2 2 0 110-4 2 2 0 010 4zm-6 0a2 2 0 110-4 2 2 0 010 4zM128 4a2 2 0 110-4 2 2 0 010 4zm-6 0a2 2 0 110-4 2 2 0 010 4zm-6 0a2 2 0 110-4 2 2 0 010 4zm-6 0a2 2 0 110-4 2 2 0 010 4zm-6 0a2 2 0 110-4 2 2 0 010 4zm-6 0a2 2 0 110-4 2 2 0 010 4zm-6 0a2 2 0 110-4 2 2 0 010 4zm-6 0a2 2 0 110-4 2 2 0 010 4zm-6 0a2 2 0 110-4 2 2 0 010 4zm-6 0a2 2 0 110-4 2 2 0 010 4zm-6 0a2 2 0 110-4 2 2 0 010 4zm-6 0a2 2 0 110-4 2 2 0 010 4zm-6 0a2 2 0 110-4 2 2 0 010 4zm-6 0a2 2 0 110-4 2 2 0 010 4zm78 6a2 2 0 110-4 2 2 0 010 4zm-6 0a2 2 0 110-4 2 2 0 010 4zm-6 0a2 2 0 110-4 2 2 0 010 4zm-6 0a2 2 0 110-4 2 2 0 010 4zm-6 0a2 2 0 110-4 2 2 0 010 4zm-6 0a2 2 0 110-4 2 2 0 010 4zm-6 0a2 2 0 110-4 2 2 0 010 4zm-6 0a2 2 0 110-4 2 2 0 010 4zm-6 0a2 2 0 110-4 2 2 0 010 4zm-6 0a2 2 0 110-4 2 2 0 010 4zm-6 0a2 2 0 110-4 2 2 0 010 4zm-6 0a2 2 0 110-4 2 2 0 010 4zm-6 0a2 2 0 110-4 2 2 0 010 4zm-6 0a2 2 0 110-4 2 2 0 010 4zm78 6a2 2 0 110-4 2 2 0 010 4zm-6 0a2 2 0 110-4 2 2 0 010 4zm-6 0a2 2 0 110-4 2 2 0 010 4zm-6 0a2 2 0 110-4 2 2 0 010 4zm-6 0a2 2 0 110-4 2 2 0 010 4zm-6 0a2 2 0 110-4 2 2 0 010 4zm-6 0a2 2 0 110-4 2 2 0 010 4zm-6 0a2 2 0 110-4 2 2 0 010 4zm-6 0a2 2 0 110-4 2 2 0 010 4zm-6 0a2 2 0 110-4 2 2 0 010 4zm-6 0a2 2 0 110-4 2 2 0 010 4zm-6 0a2 2 0 110-4 2 2 0 010 4zm-6 0a2 2 0 110-4 2 2 0 010 4zm-6 0a2 2 0 110-4 2 2 0 010 4zm78 6a2 2 0 110-4 2 2 0 010 4zm-6 0a2 2 0 110-4 2 2 0 010 4zm-6 0a2 2 0 110-4 2 2 0 010 4zm-6 0a2 2 0 110-4 2 2 0 010 4zm-6 0a2 2 0 110-4 2 2 0 010 4zm-6 0a2 2 0 110-4 2 2 0 010 4zm-6 0a2 2 0 110-4 2 2 0 010 4zm-6 0a2 2 0 110-4 2 2 0 010 4zm-6 0a2 2 0 110-4 2 2 0 010 4zm-6 0a2 2 0 110-4 2 2 0 010 4zm-6 0a2 2 0 110-4 2 2 0 010 4zm-6 0a2 2 0 110-4 2 2 0 010 4zm-6 0a2 2 0 110-4 2 2 0 010 4zm-6 0a2 2 0 110-4 2 2 0 010 4zm78 6a2 2 0 110-4 2 2 0 010 4zm-6 0a2 2 0 110-4 2 2 0 010 4zm-6 0a2 2 0 110-4 2 2 0 010 4zm-6 0a2 2 0 110-4 2 2 0 010 4zm-6 0a2 2 0 110-4 2 2 0 010 4zm-6 0a2 2 0 110-4 2 2 0 010 4zm-6 0a2 2 0 110-4 2 2 0 010 4zm-6 0a2 2 0 110-4 2 2 0 010 4zm-6 0a2 2 0 110-4 2 2 0 010 4zm-6 0a2 2 0 110-4 2 2 0 010 4zm-6 0a2 2 0 110-4 2 2 0 010 4zm-6 0a2 2 0 110-4 2 2 0 010 4zm-6 0a2 2 0 110-4 2 2 0 010 4zm-6 0a2 2 0 110-4 2 2 0 010 4zm78 6a2 2 0 110-4 2 2 0 010 4zm-6 0a2 2 0 110-4 2 2 0 010 4zm-6 0a2 2 0 110-4 2 2 0 010 4zm-6 0a2 2 0 110-4 2 2 0 010 4zm-6 0a2 2 0 110-4 2 2 0 010 4zm-6 0a2 2 0 110-4 2 2 0 010 4zm-6 0a2 2 0 110-4 2 2 0 010 4zm-6 0a2 2 0 110-4 2 2 0 010 4zm-6 0a2 2 0 110-4 2 2 0 010 4zm-6 0a2 2 0 110-4 2 2 0 010 4zm-6 0a2 2 0 110-4 2 2 0 010 4zm-6 0a2 2 0 110-4 2 2 0 010 4zm-6 0a2 2 0 110-4 2 2 0 010 4zm-6 0a2 2 0 110-4 2 2 0 010 4zm78 6a2 2 0 110-4 2 2 0 010 4zm-6 0a2 2 0 110-4 2 2 0 010 4zm-6 0a2 2 0 110-4 2 2 0 010 4zm-6 0a2 2 0 110-4 2 2 0 010 4zm-6 0a2 2 0 110-4 2 2 0 010 4zm-6 0a2 2 0 110-4 2 2 0 010 4zm-6 0a2 2 0 110-4 2 2 0 010 4zm-6 0a2 2 0 110-4 2 2 0 010 4zm-6 0a2 2 0 110-4 2 2 0 010 4zm-6 0a2 2 0 110-4 2 2 0 010 4zm-6 0a2 2 0 110-4 2 2 0 010 4zm-6 0a2 2 0 110-4 2 2 0 010 4zm-6 0a2 2 0 110-4 2 2 0 010 4zm-6 0a2 2 0 110-4 2 2 0 010 4zm78 6a2 2 0 110-4 2 2 0 010 4zm-6 0a2 2 0 110-4 2 2 0 010 4zm-6 0a2 2 0 110-4 2 2 0 010 4zm-6 0a2 2 0 110-4 2 2 0 010 4zm-6 0a2 2 0 110-4 2 2 0 010 4zm-6 0a2 2 0 110-4 2 2 0 010 4zm-6 0a2 2 0 110-4 2 2 0 010 4zm-6 0a2 2 0 110-4 2 2 0 010 4zm-6 0a2 2 0 110-4 2 2 0 010 4zm-6 0a2 2 0 110-4 2 2 0 010 4zm-6 0a2 2 0 110-4 2 2 0 010 4zm-6 0a2 2 0 110-4 2 2 0 010 4zm-6 0a2 2 0 110-4 2 2 0 010 4zm-6 0a2 2 0 110-4 2 2 0 010 4zm78 6a2 2 0 110-4 2 2 0 010 4zm-6 0a2 2 0 110-4 2 2 0 010 4zm-6 0a2 2 0 110-4 2 2 0 010 4zm-6 0a2 2 0 110-4 2 2 0 010 4zm-6 0a2 2 0 110-4 2 2 0 010 4zm-6 0a2 2 0 110-4 2 2 0 010 4zm-6 0a2 2 0 110-4 2 2 0 010 4zm-6 0a2 2 0 110-4 2 2 0 010 4zm-6 0a2 2 0 110-4 2 2 0 010 4zm-6 0a2 2 0 110-4 2 2 0 010 4zm-6 0a2 2 0 110-4 2 2 0 010 4zm-6 0a2 2 0 110-4 2 2 0 010 4zm-6 0a2 2 0 110-4 2 2 0 010 4zm-6 0a2 2 0 110-4 2 2 0 010 4zm78 6a2 2 0 110-4 2 2 0 010 4zm-6 0a2 2 0 110-4 2 2 0 010 4zm-6 0a2 2 0 110-4 2 2 0 010 4zm-6 0a2 2 0 110-4 2 2 0 010 4zm-6 0a2 2 0 110-4 2 2 0 010 4zm-6 0a2 2 0 110-4 2 2 0 010 4zm-6 0a2 2 0 110-4 2 2 0 010 4zm-6 0a2 2 0 110-4 2 2 0 010 4zm-6 0a2 2 0 110-4 2 2 0 010 4zm-6 0a2 2 0 110-4 2 2 0 010 4zm-6 0a2 2 0 110-4 2 2 0 010 4zm-6 0a2 2 0 110-4 2 2 0 010 4zm-6 0a2 2 0 110-4 2 2 0 010 4zm-6 0a2 2 0 110-4 2 2 0 010 4zm78 6a2 2 0 110-4 2 2 0 010 4zm-6 0a2 2 0 110-4 2 2 0 010 4zm-6 0a2 2 0 110-4 2 2 0 010 4zm-6 0a2 2 0 110-4 2 2 0 010 4zm-6 0a2 2 0 110-4 2 2 0 010 4zm-6 0a2 2 0 110-4 2 2 0 010 4zm-6 0a2 2 0 110-4 2 2 0 010 4zm-6 0a2 2 0 110-4 2 2 0 010 4zm-6 0a2 2 0 110-4 2 2 0 010 4zm-6 0a2 2 0 110-4 2 2 0 010 4zm-6 0a2 2 0 110-4 2 2 0 010 4zm-6 0a2 2 0 110-4 2 2 0 010 4zm-6 0a2 2 0 110-4 2 2 0 010 4zm-6 0a2 2 0 110-4 2 2 0 010 4zm78 6a2 2 0 110-4 2 2 0 010 4zm-6 0a2 2 0 110-4 2 2 0 010 4zm-6 0a2 2 0 110-4 2 2 0 010 4zm-6 0a2 2 0 110-4 2 2 0 010 4zm-6 0a2 2 0 110-4 2 2 0 010 4zm-6 0a2 2 0 110-4 2 2 0 010 4zm-6 0a2 2 0 110-4 2 2 0 010 4zm-6 0a2 2 0 110-4 2 2 0 010 4zm-6 0a2 2 0 110-4 2 2 0 010 4zm-6 0a2 2 0 110-4 2 2 0 010 4zm-6 0a2 2 0 110-4 2 2 0 010 4zm-6 0a2 2 0 110-4 2 2 0 010 4zm-6 0a2 2 0 110-4 2 2 0 010 4zm-6 0a2 2 0 110-4 2 2 0 010 4zm78 6a2 2 0 110-4 2 2 0 010 4zm-6 0a2 2 0 110-4 2 2 0 010 4zm-6 0a2 2 0 110-4 2 2 0 010 4zm-6 0a2 2 0 110-4 2 2 0 010 4zm-6 0a2 2 0 110-4 2 2 0 010 4zm-6 0a2 2 0 110-4 2 2 0 010 4zm-6 0a2 2 0 110-4 2 2 0 010 4zm-6 0a2 2 0 110-4 2 2 0 010 4zm-6 0a2 2 0 110-4 2 2 0 010 4zm-6 0a2 2 0 110-4 2 2 0 010 4zm-6 0a2 2 0 110-4 2 2 0 010 4zm-6 0a2 2 0 110-4 2 2 0 010 4zm-6 0a2 2 0 110-4 2 2 0 010 4zm-6 0a2 2 0 110-4 2 2 0 010 4zm78 6a2 2 0 110-4 2 2 0 010 4zm-6 0a2 2 0 110-4 2 2 0 010 4zm-6 0a2 2 0 110-4 2 2 0 010 4zm-6 0a2 2 0 110-4 2 2 0 010 4zm-6 0a2 2 0 110-4 2 2 0 010 4zm-6 0a2 2 0 110-4 2 2 0 010 4zm-6 0a2 2 0 110-4 2 2 0 010 4zm-6 0a2 2 0 110-4 2 2 0 010 4zm-6 0a2 2 0 110-4 2 2 0 010 4zm-6 0a2 2 0 110-4 2 2 0 010 4zm-6 0a2 2 0 110-4 2 2 0 010 4zm-6 0a2 2 0 110-4 2 2 0 010 4zm-6 0a2 2 0 110-4 2 2 0 010 4zm-6 0a2 2 0 110-4 2 2 0 010 4zm78 6a2 2 0 110-4 2 2 0 010 4zm-6 0a2 2 0 110-4 2 2 0 010 4zm-6 0a2 2 0 110-4 2 2 0 010 4zm-6 0a2 2 0 110-4 2 2 0 010 4zm-6 0a2 2 0 110-4 2 2 0 010 4zm-6 0a2 2 0 110-4 2 2 0 010 4zm-6 0a2 2 0 110-4 2 2 0 010 4zm-6 0a2 2 0 110-4 2 2 0 010 4zm-6 0a2 2 0 110-4 2 2 0 010 4zm-6 0a2 2 0 110-4 2 2 0 010 4zm-6 0a2 2 0 110-4 2 2 0 010 4zm-6 0a2 2 0 110-4 2 2 0 010 4zm-6 0a2 2 0 110-4 2 2 0 010 4zm-6 0a2 2 0 110-4 2 2 0 010 4zm78 6a2 2 0 110-4 2 2 0 010 4zm-6 0a2 2 0 110-4 2 2 0 010 4zm-6 0a2 2 0 110-4 2 2 0 010 4zm-6 0a2 2 0 110-4 2 2 0 010 4zm-6 0a2 2 0 110-4 2 2 0 010 4zm-6 0a2 2 0 110-4 2 2 0 010 4zm-6 0a2 2 0 110-4 2 2 0 010 4zm-6 0a2 2 0 110-4 2 2 0 010 4zm-6 0a2 2 0 110-4 2 2 0 010 4zm-6 0a2 2 0 110-4 2 2 0 010 4zm-6 0a2 2 0 110-4 2 2 0 010 4zm-6 0a2 2 0 110-4 2 2 0 010 4zm-6 0a2 2 0 110-4 2 2 0 010 4zm-6 0a2 2 0 110-4 2 2 0 010 4zm78 102a2 2 0 110-4 2 2 0 010 4zm-6 0a2 2 0 110-4 2 2 0 010 4zm-6 0a2 2 0 110-4 2 2 0 010 4zm-6 0a2 2 0 110-4 2 2 0 010 4zm-6 0a2 2 0 110-4 2 2 0 010 4zm-6 0a2 2 0 110-4 2 2 0 010 4zm-6 0a2 2 0 110-4 2 2 0 010 4zm-6 0a2 2 0 110-4 2 2 0 010 4zm-6 0a2 2 0 110-4 2 2 0 010 4zm-6 0a2 2 0 110-4 2 2 0 010 4zm-6 0a2 2 0 110-4 2 2 0 010 4zm-6 0a2 2 0 110-4 2 2 0 010 4zm-6 0a2 2 0 110-4 2 2 0 010 4zm-6 0a2 2 0 110-4 2 2 0 010 4zm78 6a2 2 0 110-4 2 2 0 010 4zm-6 0a2 2 0 110-4 2 2 0 010 4zm-6 0a2 2 0 110-4 2 2 0 010 4zm-6 0a2 2 0 110-4 2 2 0 010 4zm-6 0a2 2 0 110-4 2 2 0 010 4zm-6 0a2 2 0 110-4 2 2 0 010 4zm-6 0a2 2 0 110-4 2 2 0 010 4zm-6 0a2 2 0 110-4 2 2 0 010 4zm-6 0a2 2 0 110-4 2 2 0 010 4zm-6 0a2 2 0 110-4 2 2 0 010 4zm-6 0a2 2 0 110-4 2 2 0 010 4zm-6 0a2 2 0 110-4 2 2 0 010 4zm-6 0a2 2 0 110-4 2 2 0 010 4zm-6 0a2 2 0 110-4 2 2 0 010 4zm78 6a2 2 0 110-4 2 2 0 010 4zm-6 0a2 2 0 110-4 2 2 0 010 4zm-6 0a2 2 0 110-4 2 2 0 010 4zm-6 0a2 2 0 110-4 2 2 0 010 4zm-6 0a2 2 0 110-4 2 2 0 010 4zm-6 0a2 2 0 110-4 2 2 0 010 4zm-6 0a2 2 0 110-4 2 2 0 010 4zm-6 0a2 2 0 110-4 2 2 0 010 4zm-6 0a2 2 0 110-4 2 2 0 010 4zm-6 0a2 2 0 110-4 2 2 0 010 4zm-6 0a2 2 0 110-4 2 2 0 010 4zm-6 0a2 2 0 110-4 2 2 0 010 4zm-6 0a2 2 0 110-4 2 2 0 010 4zm-6 0a2 2 0 110-4 2 2 0 010 4zm78 6a2 2 0 110-4 2 2 0 010 4zm-6 0a2 2 0 110-4 2 2 0 010 4zm-6 0a2 2 0 110-4 2 2 0 010 4zm-6 0a2 2 0 110-4 2 2 0 010 4zm-6 0a2 2 0 110-4 2 2 0 010 4zm-6 0a2 2 0 110-4 2 2 0 010 4zm-6 0a2 2 0 110-4 2 2 0 010 4zm-6 0a2 2 0 110-4 2 2 0 010 4zm-6 0a2 2 0 110-4 2 2 0 010 4zm-6 0a2 2 0 110-4 2 2 0 010 4zm-6 0a2 2 0 110-4 2 2 0 010 4zm-6 0a2 2 0 110-4 2 2 0 010 4zm-6 0a2 2 0 110-4 2 2 0 010 4zm-6 0a2 2 0 110-4 2 2 0 010 4zm78 6a2 2 0 110-4 2 2 0 010 4zm-6 0a2 2 0 110-4 2 2 0 010 4zm-6 0a2 2 0 110-4 2 2 0 010 4zm-6 0a2 2 0 110-4 2 2 0 010 4zm-6 0a2 2 0 110-4 2 2 0 010 4zm-6 0a2 2 0 110-4 2 2 0 010 4zm-6 0a2 2 0 110-4 2 2 0 010 4zm-6 0a2 2 0 110-4 2 2 0 010 4zm-6 0a2 2 0 110-4 2 2 0 010 4zm-6 0a2 2 0 110-4 2 2 0 010 4zm-6 0a2 2 0 110-4 2 2 0 010 4zm-6 0a2 2 0 110-4 2 2 0 010 4zm-6 0a2 2 0 110-4 2 2 0 010 4zm-6 0a2 2 0 110-4 2 2 0 010 4zm78 6a2 2 0 110-4 2 2 0 010 4zm-6 0a2 2 0 110-4 2 2 0 010 4zm-6 0a2 2 0 110-4 2 2 0 010 4zm-6 0a2 2 0 110-4 2 2 0 010 4zm-6 0a2 2 0 110-4 2 2 0 010 4zm-6 0a2 2 0 110-4 2 2 0 010 4zm-6 0a2 2 0 110-4 2 2 0 010 4zm-6 0a2 2 0 110-4 2 2 0 010 4zm-6 0a2 2 0 110-4 2 2 0 010 4zm-6 0a2 2 0 110-4 2 2 0 010 4zm-6 0a2 2 0 110-4 2 2 0 010 4zm-6 0a2 2 0 110-4 2 2 0 010 4zm-6 0a2 2 0 110-4 2 2 0 010 4zm-6 0a2 2 0 110-4 2 2 0 010 4zm78 6a2 2 0 110-4 2 2 0 010 4zm-6 0a2 2 0 110-4 2 2 0 010 4zm-6 0a2 2 0 110-4 2 2 0 010 4zm-6 0a2 2 0 110-4 2 2 0 010 4zm-6 0a2 2 0 110-4 2 2 0 010 4zm-6 0a2 2 0 110-4 2 2 0 010 4zm-6 0a2 2 0 110-4 2 2 0 010 4zm-6 0a2 2 0 110-4 2 2 0 010 4zm-6 0a2 2 0 110-4 2 2 0 010 4zm-6 0a2 2 0 110-4 2 2 0 010 4zm-6 0a2 2 0 110-4 2 2 0 010 4zm-6 0a2 2 0 110-4 2 2 0 010 4zm-6 0a2 2 0 110-4 2 2 0 010 4zm-6 0a2 2 0 110-4 2 2 0 010 4zm78 6a2 2 0 110-4 2 2 0 010 4zm-6 0a2 2 0 110-4 2 2 0 010 4zm-6 0a2 2 0 110-4 2 2 0 010 4zm-6 0a2 2 0 110-4 2 2 0 010 4zm-6 0a2 2 0 110-4 2 2 0 010 4zm-6 0a2 2 0 110-4 2 2 0 010 4zm-6 0a2 2 0 110-4 2 2 0 010 4zm-6 0a2 2 0 110-4 2 2 0 010 4zm-6 0a2 2 0 110-4 2 2 0 010 4zm-6 0a2 2 0 110-4 2 2 0 010 4zm-6 0a2 2 0 110-4 2 2 0 010 4zm-6 0a2 2 0 110-4 2 2 0 010 4zm-6 0a2 2 0 110-4 2 2 0 010 4zm-6 0a2 2 0 110-4 2 2 0 010 4zm78 6a2 2 0 110-4 2 2 0 010 4zm-6 0a2 2 0 110-4 2 2 0 010 4zm-6 0a2 2 0 110-4 2 2 0 010 4zm-6 0a2 2 0 110-4 2 2 0 010 4zm-6 0a2 2 0 110-4 2 2 0 010 4zm-6 0a2 2 0 110-4 2 2 0 010 4zm-6 0a2 2 0 110-4 2 2 0 010 4zm-6 0a2 2 0 110-4 2 2 0 010 4zm-6 0a2 2 0 110-4 2 2 0 010 4zm-6 0a2 2 0 110-4 2 2 0 010 4zm-6 0a2 2 0 110-4 2 2 0 010 4zm-6 0a2 2 0 110-4 2 2 0 010 4zm-6 0a2 2 0 110-4 2 2 0 010 4zm-6 0a2 2 0 110-4 2 2 0 010 4zm78 6a2 2 0 110-4 2 2 0 010 4zm-6 0a2 2 0 110-4 2 2 0 010 4zm-6 0a2 2 0 110-4 2 2 0 010 4zm-6 0a2 2 0 110-4 2 2 0 010 4zm-6 0a2 2 0 110-4 2 2 0 010 4zm-6 0a2 2 0 110-4 2 2 0 010 4zm-6 0a2 2 0 110-4 2 2 0 010 4zm-6 0a2 2 0 110-4 2 2 0 010 4zm-6 0a2 2 0 110-4 2 2 0 010 4zm-6 0a2 2 0 110-4 2 2 0 010 4zm-6 0a2 2 0 110-4 2 2 0 010 4zm-6 0a2 2 0 110-4 2 2 0 010 4zm-6 0a2 2 0 110-4 2 2 0 010 4zm-6 0a2 2 0 110-4 2 2 0 010 4zm78 6a2 2 0 110-4 2 2 0 010 4zm-6 0a2 2 0 110-4 2 2 0 010 4zm-6 0a2 2 0 110-4 2 2 0 010 4zm-6 0a2 2 0 110-4 2 2 0 010 4zm-6 0a2 2 0 110-4 2 2 0 010 4zm-6 0a2 2 0 110-4 2 2 0 010 4zm-6 0a2 2 0 110-4 2 2 0 010 4zm-6 0a2 2 0 110-4 2 2 0 010 4zm-6 0a2 2 0 110-4 2 2 0 010 4zm-6 0a2 2 0 110-4 2 2 0 010 4zm-6 0a2 2 0 110-4 2 2 0 010 4zm-6 0a2 2 0 110-4 2 2 0 010 4zm-6 0a2 2 0 110-4 2 2 0 010 4zm-6 0a2 2 0 110-4 2 2 0 010 4zm78-156a2 2 0 110-4 2 2 0 010 4zm-6 0a2 2 0 110-4 2 2 0 010 4zm-6 0a2 2 0 110-4 2 2 0 010 4zm-6 0a2 2 0 110-4 2 2 0 010 4zm-6 0a2 2 0 110-4 2 2 0 010 4zm-6 0a2 2 0 110-4 2 2 0 010 4zm-6 0a2 2 0 110-4 2 2 0 010 4zm-6 0a2 2 0 110-4 2 2 0 010 4zm-6 0a2 2 0 110-4 2 2 0 010 4zm-6 0a2 2 0 110-4 2 2 0 010 4zm-6 0a2 2 0 110-4 2 2 0 010 4zm-6 0a2 2 0 110-4 2 2 0 010 4zm-6 0a2 2 0 110-4 2 2 0 010 4zm-6 0a2 2 0 110-4 2 2 0 010 4zm78 6a2 2 0 110-4 2 2 0 010 4zm-6 0a2 2 0 110-4 2 2 0 010 4zm-6 0a2 2 0 110-4 2 2 0 010 4zm-6 0a2 2 0 110-4 2 2 0 010 4zm-6 0a2 2 0 110-4 2 2 0 010 4zm-6 0a2 2 0 110-4 2 2 0 010 4zm-6 0a2 2 0 110-4 2 2 0 010 4zm-6 0a2 2 0 110-4 2 2 0 010 4zm-6 0a2 2 0 110-4 2 2 0 010 4zm-6 0a2 2 0 110-4 2 2 0 010 4zm-6 0a2 2 0 110-4 2 2 0 010 4zm-6 0a2 2 0 110-4 2 2 0 010 4zm-6 0a2 2 0 110-4 2 2 0 010 4zm-6 0a2 2 0 110-4 2 2 0 010 4zm78 6a2 2 0 110-4 2 2 0 010 4zm-6 0a2 2 0 110-4 2 2 0 010 4zm-6 0a2 2 0 110-4 2 2 0 010 4zm-6 0a2 2 0 110-4 2 2 0 010 4zm-6 0a2 2 0 110-4 2 2 0 010 4zm-6 0a2 2 0 110-4 2 2 0 010 4zm-6 0a2 2 0 110-4 2 2 0 010 4zm-6 0a2 2 0 110-4 2 2 0 010 4zm-6 0a2 2 0 110-4 2 2 0 010 4zm-6 0a2 2 0 110-4 2 2 0 010 4zm-6 0a2 2 0 110-4 2 2 0 010 4zm-6 0a2 2 0 110-4 2 2 0 010 4zm-6 0a2 2 0 110-4 2 2 0 010 4zm-6 0a2 2 0 110-4 2 2 0 010 4zm78 6a2 2 0 110-4 2 2 0 010 4zm-6 0a2 2 0 110-4 2 2 0 010 4zm-6 0a2 2 0 110-4 2 2 0 010 4zm-6 0a2 2 0 110-4 2 2 0 010 4zm-6 0a2 2 0 110-4 2 2 0 010 4zm-6 0a2 2 0 110-4 2 2 0 010 4zm-6 0a2 2 0 110-4 2 2 0 010 4zm-6 0a2 2 0 110-4 2 2 0 010 4zm-6 0a2 2 0 110-4 2 2 0 010 4zm-6 0a2 2 0 110-4 2 2 0 010 4zm-6 0a2 2 0 110-4 2 2 0 010 4zm-6 0a2 2 0 110-4 2 2 0 010 4zm-6 0a2 2 0 110-4 2 2 0 010 4zm-6 0a2 2 0 110-4 2 2 0 010 4zm78 6a2 2 0 110-4 2 2 0 010 4zm-6 0a2 2 0 110-4 2 2 0 010 4zm-6 0a2 2 0 110-4 2 2 0 010 4zm-6 0a2 2 0 110-4 2 2 0 010 4zm-6 0a2 2 0 110-4 2 2 0 010 4zm-6 0a2 2 0 110-4 2 2 0 010 4zm-6 0a2 2 0 110-4 2 2 0 010 4zm-6 0a2 2 0 110-4 2 2 0 010 4zm-6 0a2 2 0 110-4 2 2 0 010 4zm-6 0a2 2 0 110-4 2 2 0 010 4zm-6 0a2 2 0 110-4 2 2 0 010 4zm-6 0a2 2 0 110-4 2 2 0 010 4zm-6 0a2 2 0 110-4 2 2 0 010 4zm-6 0a2 2 0 110-4 2 2 0 010 4zm78 6a2 2 0 110-4 2 2 0 010 4zm-6 0a2 2 0 110-4 2 2 0 010 4zm-6 0a2 2 0 110-4 2 2 0 010 4zm-6 0a2 2 0 110-4 2 2 0 010 4zm-6 0a2 2 0 110-4 2 2 0 010 4zm-6 0a2 2 0 110-4 2 2 0 010 4zm-6 0a2 2 0 110-4 2 2 0 010 4zm-6 0a2 2 0 110-4 2 2 0 010 4zm-6 0a2 2 0 110-4 2 2 0 010 4zm-6 0a2 2 0 110-4 2 2 0 010 4zm-6 0a2 2 0 110-4 2 2 0 010 4zm-6 0a2 2 0 110-4 2 2 0 010 4zm-6 0a2 2 0 110-4 2 2 0 010 4zm-6 0a2 2 0 110-4 2 2 0 010 4zm78 6a2 2 0 110-4 2 2 0 010 4zm-6 0a2 2 0 110-4 2 2 0 010 4zm-6 0a2 2 0 110-4 2 2 0 010 4zm-6 0a2 2 0 110-4 2 2 0 010 4zm-6 0a2 2 0 110-4 2 2 0 010 4zm-6 0a2 2 0 110-4 2 2 0 010 4zm-6 0a2 2 0 110-4 2 2 0 010 4zm-6 0a2 2 0 110-4 2 2 0 010 4zm-6 0a2 2 0 110-4 2 2 0 010 4zm-6 0a2 2 0 110-4 2 2 0 010 4zm-6 0a2 2 0 110-4 2 2 0 010 4zm-6 0a2 2 0 110-4 2 2 0 010 4zm-6 0a2 2 0 110-4 2 2 0 010 4zm-6 0a2 2 0 110-4 2 2 0 010 4zm78 6a2 2 0 110-4 2 2 0 010 4zm-6 0a2 2 0 110-4 2 2 0 010 4zm-6 0a2 2 0 110-4 2 2 0 010 4zm-6 0a2 2 0 110-4 2 2 0 010 4zm-6 0a2 2 0 110-4 2 2 0 010 4zm-6 0a2 2 0 110-4 2 2 0 010 4zm-6 0a2 2 0 110-4 2 2 0 010 4zm-6 0a2 2 0 110-4 2 2 0 010 4zm-6 0a2 2 0 110-4 2 2 0 010 4zm-6 0a2 2 0 110-4 2 2 0 010 4zm-6 0a2 2 0 110-4 2 2 0 010 4zm-6 0a2 2 0 110-4 2 2 0 010 4zm-6 0a2 2 0 110-4 2 2 0 010 4zm-6 0a2 2 0 110-4 2 2 0 010 4zm78 6a2 2 0 110-4 2 2 0 010 4zm-6 0a2 2 0 110-4 2 2 0 010 4zm-6 0a2 2 0 110-4 2 2 0 010 4zm-6 0a2 2 0 110-4 2 2 0 010 4zm-6 0a2 2 0 110-4 2 2 0 010 4zm-6 0a2 2 0 110-4 2 2 0 010 4zm-6 0a2 2 0 110-4 2 2 0 010 4zm-6 0a2 2 0 110-4 2 2 0 010 4zm-6 0a2 2 0 110-4 2 2 0 010 4zm-6 0a2 2 0 110-4 2 2 0 010 4zm-6 0a2 2 0 110-4 2 2 0 010 4zm-6 0a2 2 0 110-4 2 2 0 010 4zm-6 0a2 2 0 110-4 2 2 0 010 4zm-6 0a2 2 0 110-4 2 2 0 010 4zm78 6a2 2 0 110-4 2 2 0 010 4zm-6 0a2 2 0 110-4 2 2 0 010 4zm-6 0a2 2 0 110-4 2 2 0 010 4zm-6 0a2 2 0 110-4 2 2 0 010 4zm-6 0a2 2 0 110-4 2 2 0 010 4zm-6 0a2 2 0 110-4 2 2 0 010 4zm-6 0a2 2 0 110-4 2 2 0 010 4zm-6 0a2 2 0 110-4 2 2 0 010 4zm-6 0a2 2 0 110-4 2 2 0 010 4zm-6 0a2 2 0 110-4 2 2 0 010 4zm-6 0a2 2 0 110-4 2 2 0 010 4zm-6 0a2 2 0 110-4 2 2 0 010 4zm-6 0a2 2 0 110-4 2 2 0 010 4zm-6 0a2 2 0 110-4 2 2 0 010 4zm78 6a2 2 0 110-4 2 2 0 010 4zm-6 0a2 2 0 110-4 2 2 0 010 4zm-6 0a2 2 0 110-4 2 2 0 010 4zm-6 0a2 2 0 110-4 2 2 0 010 4zm-6 0a2 2 0 110-4 2 2 0 010 4zm-6 0a2 2 0 110-4 2 2 0 010 4zm-6 0a2 2 0 110-4 2 2 0 010 4zm-6 0a2 2 0 110-4 2 2 0 010 4zm-6 0a2 2 0 110-4 2 2 0 010 4zm-6 0a2 2 0 110-4 2 2 0 010 4zm-6 0a2 2 0 110-4 2 2 0 010 4zm-6 0a2 2 0 110-4 2 2 0 010 4zm-6 0a2 2 0 110-4 2 2 0 010 4zm-6 0a2 2 0 110-4 2 2 0 010 4zm78 6a2 2 0 110-4 2 2 0 010 4zm-6 0a2 2 0 110-4 2 2 0 010 4zm-6 0a2 2 0 110-4 2 2 0 010 4zm-6 0a2 2 0 110-4 2 2 0 010 4zm-6 0a2 2 0 110-4 2 2 0 010 4zm-6 0a2 2 0 110-4 2 2 0 010 4zm-6 0a2 2 0 110-4 2 2 0 010 4zm-6 0a2 2 0 110-4 2 2 0 010 4zm-6 0a2 2 0 110-4 2 2 0 010 4zm-6 0a2 2 0 110-4 2 2 0 010 4zm-6 0a2 2 0 110-4 2 2 0 010 4zm-6 0a2 2 0 110-4 2 2 0 010 4zm-6 0a2 2 0 110-4 2 2 0 010 4zm-6 0a2 2 0 110-4 2 2 0 010 4zm78 6a2 2 0 110-4 2 2 0 010 4zm-6 0a2 2 0 110-4 2 2 0 010 4zm-6 0a2 2 0 110-4 2 2 0 010 4zm-6 0a2 2 0 110-4 2 2 0 010 4zm-6 0a2 2 0 110-4 2 2 0 010 4zm-6 0a2 2 0 110-4 2 2 0 010 4zm-6 0a2 2 0 110-4 2 2 0 010 4zm-6 0a2 2 0 110-4 2 2 0 010 4zm-6 0a2 2 0 110-4 2 2 0 010 4zm-6 0a2 2 0 110-4 2 2 0 010 4zm-6 0a2 2 0 110-4 2 2 0 010 4zm-6 0a2 2 0 110-4 2 2 0 010 4zm-6 0a2 2 0 110-4 2 2 0 010 4zm-6 0a2 2 0 110-4 2 2 0 010 4zm78 6a2 2 0 110-4 2 2 0 010 4zm-6 0a2 2 0 110-4 2 2 0 010 4zm-6 0a2 2 0 110-4 2 2 0 010 4zm-6 0a2 2 0 110-4 2 2 0 010 4zm-6 0a2 2 0 110-4 2 2 0 010 4zm-6 0a2 2 0 110-4 2 2 0 010 4zm-6 0a2 2 0 110-4 2 2 0 010 4zm-6 0a2 2 0 110-4 2 2 0 010 4zm-6 0a2 2 0 110-4 2 2 0 010 4zm-6 0a2 2 0 110-4 2 2 0 010 4zm-6 0a2 2 0 110-4 2 2 0 010 4zm-6 0a2 2 0 110-4 2 2 0 010 4zm-6 0a2 2 0 110-4 2 2 0 010 4zm-6 0a2 2 0 110-4 2 2 0 010 4zm78 6a2 2 0 110-4 2 2 0 010 4zm-6 0a2 2 0 110-4 2 2 0 010 4zm-6 0a2 2 0 110-4 2 2 0 010 4zm-6 0a2 2 0 110-4 2 2 0 010 4zm-6 0a2 2 0 110-4 2 2 0 010 4zm-6 0a2 2 0 110-4 2 2 0 010 4zm-6 0a2 2 0 110-4 2 2 0 010 4zm-6 0a2 2 0 110-4 2 2 0 010 4zm-6 0a2 2 0 110-4 2 2 0 010 4zm-6 0a2 2 0 110-4 2 2 0 010 4zm-6 0a2 2 0 110-4 2 2 0 010 4zm-6 0a2 2 0 110-4 2 2 0 010 4zm-6 0a2 2 0 110-4 2 2 0 010 4zm-6 0a2 2 0 110-4 2 2 0 010 4zm78 6a2 2 0 110-4 2 2 0 010 4zm-6 0a2 2 0 110-4 2 2 0 010 4zm-6 0a2 2 0 110-4 2 2 0 010 4zm-6 0a2 2 0 110-4 2 2 0 010 4zm-6 0a2 2 0 110-4 2 2 0 010 4zm-6 0a2 2 0 110-4 2 2 0 010 4zm-6 0a2 2 0 110-4 2 2 0 010 4zm-6 0a2 2 0 110-4 2 2 0 010 4zm-6 0a2 2 0 110-4 2 2 0 010 4zm-6 0a2 2 0 110-4 2 2 0 010 4zm-6 0a2 2 0 110-4 2 2 0 010 4zm-6 0a2 2 0 110-4 2 2 0 010 4zm-6 0a2 2 0 110-4 2 2 0 010 4zm-6 0a2 2 0 110-4 2 2 0 010 4zM44 4a2 2 0 110-4 2 2 0 010 4zm-6 0a2 2 0 110-4 2 2 0 010 4zm-6 0a2 2 0 110-4 2 2 0 010 4zm-6 0a2 2 0 110-4 2 2 0 010 4zm-6 0a2 2 0 110-4 2 2 0 010 4zm-6 0a2 2 0 110-4 2 2 0 010 4zM8 4a2 2 0 110-4 2 2 0 010 4zM2 4a2 2 0 110-4 2 2 0 010 4zm42 6a2 2 0 110-4 2 2 0 010 4zm-6 0a2 2 0 110-4 2 2 0 010 4zm-6 0a2 2 0 110-4 2 2 0 010 4zm-6 0a2 2 0 110-4 2 2 0 010 4zm-6 0a2 2 0 110-4 2 2 0 010 4zm-6 0a2 2 0 110-4 2 2 0 010 4zm-6 0a2 2 0 110-4 2 2 0 010 4zm-6 0a2 2 0 110-4 2 2 0 010 4zm42 6a2 2 0 110-4 2 2 0 010 4zm-6 0a2 2 0 110-4 2 2 0 010 4zm-6 0a2 2 0 110-4 2 2 0 010 4zm-6 0a2 2 0 110-4 2 2 0 010 4zm-6 0a2 2 0 110-4 2 2 0 010 4zm-6 0a2 2 0 110-4 2 2 0 010 4zm-6 0a2 2 0 110-4 2 2 0 010 4zm-6 0a2 2 0 110-4 2 2 0 010 4zm42 6a2 2 0 110-4 2 2 0 010 4zm-6 0a2 2 0 110-4 2 2 0 010 4zm-6 0a2 2 0 110-4 2 2 0 010 4zm-6 0a2 2 0 110-4 2 2 0 010 4zm-6 0a2 2 0 110-4 2 2 0 010 4zm-6 0a2 2 0 110-4 2 2 0 010 4zm-6 0a2 2 0 110-4 2 2 0 010 4zm-6 0a2 2 0 110-4 2 2 0 010 4zm42 6a2 2 0 110-4 2 2 0 010 4zm-6 0a2 2 0 110-4 2 2 0 010 4zm-6 0a2 2 0 110-4 2 2 0 010 4zm-6 0a2 2 0 110-4 2 2 0 010 4zm-6 0a2 2 0 110-4 2 2 0 010 4zm-6 0a2 2 0 110-4 2 2 0 010 4zm-6 0a2 2 0 110-4 2 2 0 010 4zm-6 0a2 2 0 110-4 2 2 0 010 4zm42 6a2 2 0 110-4 2 2 0 010 4zm-6 0a2 2 0 110-4 2 2 0 010 4zm-6 0a2 2 0 110-4 2 2 0 010 4zm-6 0a2 2 0 110-4 2 2 0 010 4zm-6 0a2 2 0 110-4 2 2 0 010 4zm-6 0a2 2 0 110-4 2 2 0 010 4zm-6 0a2 2 0 110-4 2 2 0 010 4zm-6 0a2 2 0 110-4 2 2 0 010 4zm42 6a2 2 0 110-4 2 2 0 010 4zm-6 0a2 2 0 110-4 2 2 0 010 4zm-6 0a2 2 0 110-4 2 2 0 010 4zm-6 0a2 2 0 110-4 2 2 0 010 4zm-6 0a2 2 0 110-4 2 2 0 010 4zm-6 0a2 2 0 110-4 2 2 0 010 4zm-6 0a2 2 0 110-4 2 2 0 010 4zm-6 0a2 2 0 110-4 2 2 0 010 4zm42 6a2 2 0 110-4 2 2 0 010 4zm-6 0a2 2 0 110-4 2 2 0 010 4zm-6 0a2 2 0 110-4 2 2 0 010 4zm-6 0a2 2 0 110-4 2 2 0 010 4zm-6 0a2 2 0 110-4 2 2 0 010 4zm-6 0a2 2 0 110-4 2 2 0 010 4zm-6 0a2 2 0 110-4 2 2 0 010 4zm-6 0a2 2 0 110-4 2 2 0 010 4zm42 6a2 2 0 110-4 2 2 0 010 4zm-6 0a2 2 0 110-4 2 2 0 010 4zm-6 0a2 2 0 110-4 2 2 0 010 4zm-6 0a2 2 0 110-4 2 2 0 010 4zm-6 0a2 2 0 110-4 2 2 0 010 4zm-6 0a2 2 0 110-4 2 2 0 010 4zm-6 0a2 2 0 110-4 2 2 0 010 4zm-6 0a2 2 0 110-4 2 2 0 010 4zm42 6a2 2 0 110-4 2 2 0 010 4zm-6 0a2 2 0 110-4 2 2 0 010 4zm-6 0a2 2 0 110-4 2 2 0 010 4zm-6 0a2 2 0 110-4 2 2 0 010 4zm-6 0a2 2 0 110-4 2 2 0 010 4zm-6 0a2 2 0 110-4 2 2 0 010 4zm-6 0a2 2 0 110-4 2 2 0 010 4zm-6 0a2 2 0 110-4 2 2 0 010 4zm42 6a2 2 0 110-4 2 2 0 010 4zm-6 0a2 2 0 110-4 2 2 0 010 4zm-6 0a2 2 0 110-4 2 2 0 010 4zm-6 0a2 2 0 110-4 2 2 0 010 4zm-6 0a2 2 0 110-4 2 2 0 010 4zm-6 0a2 2 0 110-4 2 2 0 010 4zm-6 0a2 2 0 110-4 2 2 0 010 4zm-6 0a2 2 0 110-4 2 2 0 010 4zm42 6a2 2 0 110-4 2 2 0 010 4zm-6 0a2 2 0 110-4 2 2 0 010 4zm-6 0a2 2 0 110-4 2 2 0 010 4zm-6 0a2 2 0 110-4 2 2 0 010 4zm-6 0a2 2 0 110-4 2 2 0 010 4zm-6 0a2 2 0 110-4 2 2 0 010 4zm-6 0a2 2 0 110-4 2 2 0 010 4zm-6 0a2 2 0 110-4 2 2 0 010 4zm42 6a2 2 0 110-4 2 2 0 010 4zm-6 0a2 2 0 110-4 2 2 0 010 4zm-6 0a2 2 0 110-4 2 2 0 010 4zm-6 0a2 2 0 110-4 2 2 0 010 4zm-6 0a2 2 0 110-4 2 2 0 010 4zm-6 0a2 2 0 110-4 2 2 0 010 4zm-6 0a2 2 0 110-4 2 2 0 010 4zm-6 0a2 2 0 110-4 2 2 0 010 4zm42 6a2 2 0 110-4 2 2 0 010 4zm-6 0a2 2 0 110-4 2 2 0 010 4zm-6 0a2 2 0 110-4 2 2 0 010 4zm-6 0a2 2 0 110-4 2 2 0 010 4zm-6 0a2 2 0 110-4 2 2 0 010 4zm-6 0a2 2 0 110-4 2 2 0 010 4zm-6 0a2 2 0 110-4 2 2 0 010 4zm-6 0a2 2 0 110-4 2 2 0 010 4zm42 6a2 2 0 110-4 2 2 0 010 4zm-6 0a2 2 0 110-4 2 2 0 010 4zm-6 0a2 2 0 110-4 2 2 0 010 4zm-6 0a2 2 0 110-4 2 2 0 010 4zm-6 0a2 2 0 110-4 2 2 0 010 4zm-6 0a2 2 0 110-4 2 2 0 010 4zm-6 0a2 2 0 110-4 2 2 0 010 4zm-6 0a2 2 0 110-4 2 2 0 010 4zm42 6a2 2 0 110-4 2 2 0 010 4zm-6 0a2 2 0 110-4 2 2 0 010 4zm-6 0a2 2 0 110-4 2 2 0 010 4zm-6 0a2 2 0 110-4 2 2 0 010 4zm-6 0a2 2 0 110-4 2 2 0 010 4zm-6 0a2 2 0 110-4 2 2 0 010 4zm-6 0a2 2 0 110-4 2 2 0 010 4zm-6 0a2 2 0 110-4 2 2 0 010 4zm42 102a2 2 0 110-4 2 2 0 010 4zm-6 0a2 2 0 110-4 2 2 0 010 4zm-6 0a2 2 0 110-4 2 2 0 010 4zm-6 0a2 2 0 110-4 2 2 0 010 4zm-6 0a2 2 0 110-4 2 2 0 010 4zm-6 0a2 2 0 110-4 2 2 0 010 4zm-6 0a2 2 0 110-4 2 2 0 010 4zm-6 0a2 2 0 110-4 2 2 0 010 4zm42 6a2 2 0 110-4 2 2 0 010 4zm-6 0a2 2 0 110-4 2 2 0 010 4zm-6 0a2 2 0 110-4 2 2 0 010 4zm-6 0a2 2 0 110-4 2 2 0 010 4zm-6 0a2 2 0 110-4 2 2 0 010 4zm-6 0a2 2 0 110-4 2 2 0 010 4zm-6 0a2 2 0 110-4 2 2 0 010 4zm-6 0a2 2 0 110-4 2 2 0 010 4zm42 6a2 2 0 110-4 2 2 0 010 4zm-6 0a2 2 0 110-4 2 2 0 010 4zm-6 0a2 2 0 110-4 2 2 0 010 4zm-6 0a2 2 0 110-4 2 2 0 010 4zm-6 0a2 2 0 110-4 2 2 0 010 4zm-6 0a2 2 0 110-4 2 2 0 010 4zm-6 0a2 2 0 110-4 2 2 0 010 4zm-6 0a2 2 0 110-4 2 2 0 010 4zm42 6a2 2 0 110-4 2 2 0 010 4zm-6 0a2 2 0 110-4 2 2 0 010 4zm-6 0a2 2 0 110-4 2 2 0 010 4zm-6 0a2 2 0 110-4 2 2 0 010 4zm-6 0a2 2 0 110-4 2 2 0 010 4zm-6 0a2 2 0 110-4 2 2 0 010 4zm-6 0a2 2 0 110-4 2 2 0 010 4zm-6 0a2 2 0 110-4 2 2 0 010 4zm42 6a2 2 0 110-4 2 2 0 010 4zm-6 0a2 2 0 110-4 2 2 0 010 4zm-6 0a2 2 0 110-4 2 2 0 010 4zm-6 0a2 2 0 110-4 2 2 0 010 4zm-6 0a2 2 0 110-4 2 2 0 010 4zm-6 0a2 2 0 110-4 2 2 0 010 4zm-6 0a2 2 0 110-4 2 2 0 010 4zm-6 0a2 2 0 110-4 2 2 0 010 4zm42 6a2 2 0 110-4 2 2 0 010 4zm-6 0a2 2 0 110-4 2 2 0 010 4zm-6 0a2 2 0 110-4 2 2 0 010 4zm-6 0a2 2 0 110-4 2 2 0 010 4zm-6 0a2 2 0 110-4 2 2 0 010 4zm-6 0a2 2 0 110-4 2 2 0 010 4zm-6 0a2 2 0 110-4 2 2 0 010 4zm-6 0a2 2 0 110-4 2 2 0 010 4zm42 6a2 2 0 110-4 2 2 0 010 4zm-6 0a2 2 0 110-4 2 2 0 010 4zm-6 0a2 2 0 110-4 2 2 0 010 4zm-6 0a2 2 0 110-4 2 2 0 010 4zm-6 0a2 2 0 110-4 2 2 0 010 4zm-6 0a2 2 0 110-4 2 2 0 010 4zm-6 0a2 2 0 110-4 2 2 0 010 4zm-6 0a2 2 0 110-4 2 2 0 010 4zm42 6a2 2 0 110-4 2 2 0 010 4zm-6 0a2 2 0 110-4 2 2 0 010 4zm-6 0a2 2 0 110-4 2 2 0 010 4zm-6 0a2 2 0 110-4 2 2 0 010 4zm-6 0a2 2 0 110-4 2 2 0 010 4zm-6 0a2 2 0 110-4 2 2 0 010 4zm-6 0a2 2 0 110-4 2 2 0 010 4zm-6 0a2 2 0 110-4 2 2 0 010 4zm42 6a2 2 0 110-4 2 2 0 010 4zm-6 0a2 2 0 110-4 2 2 0 010 4zm-6 0a2 2 0 110-4 2 2 0 010 4zm-6 0a2 2 0 110-4 2 2 0 010 4zm-6 0a2 2 0 110-4 2 2 0 010 4zm-6 0a2 2 0 110-4 2 2 0 010 4zm-6 0a2 2 0 110-4 2 2 0 010 4zm-6 0a2 2 0 110-4 2 2 0 010 4zm42 6a2 2 0 110-4 2 2 0 010 4zm-6 0a2 2 0 110-4 2 2 0 010 4zm-6 0a2 2 0 110-4 2 2 0 010 4zm-6 0a2 2 0 110-4 2 2 0 010 4zm-6 0a2 2 0 110-4 2 2 0 010 4zm-6 0a2 2 0 110-4 2 2 0 010 4zm-6 0a2 2 0 110-4 2 2 0 010 4zm-6 0a2 2 0 110-4 2 2 0 010 4zm42 6a2 2 0 110-4 2 2 0 010 4zm-6 0a2 2 0 110-4 2 2 0 010 4zm-6 0a2 2 0 110-4 2 2 0 010 4zm-6 0a2 2 0 110-4 2 2 0 010 4zm-6 0a2 2 0 110-4 2 2 0 010 4zm-6 0a2 2 0 110-4 2 2 0 010 4zm-6 0a2 2 0 110-4 2 2 0 010 4zm-6 0a2 2 0 110-4 2 2 0 010 4zm42-156a2 2 0 110-4 2 2 0 010 4zm-6 0a2 2 0 110-4 2 2 0 010 4zm-6 0a2 2 0 110-4 2 2 0 010 4zm-6 0a2 2 0 110-4 2 2 0 010 4zm-6 0a2 2 0 110-4 2 2 0 010 4zm-6 0a2 2 0 110-4 2 2 0 010 4zm-6 0a2 2 0 110-4 2 2 0 010 4zm-6 0a2 2 0 110-4 2 2 0 010 4zm42 6a2 2 0 110-4 2 2 0 010 4zm-6 0a2 2 0 110-4 2 2 0 010 4zm-6 0a2 2 0 110-4 2 2 0 010 4zm-6 0a2 2 0 110-4 2 2 0 010 4zm-6 0a2 2 0 110-4 2 2 0 010 4zm-6 0a2 2 0 110-4 2 2 0 010 4zm-6 0a2 2 0 110-4 2 2 0 010 4zm-6 0a2 2 0 110-4 2 2 0 010 4zm42 6a2 2 0 110-4 2 2 0 010 4zm-6 0a2 2 0 110-4 2 2 0 010 4zm-6 0a2 2 0 110-4 2 2 0 010 4zm-6 0a2 2 0 110-4 2 2 0 010 4zm-6 0a2 2 0 110-4 2 2 0 010 4zm-6 0a2 2 0 110-4 2 2 0 010 4zm-6 0a2 2 0 110-4 2 2 0 010 4zm-6 0a2 2 0 110-4 2 2 0 010 4zm42 6a2 2 0 110-4 2 2 0 010 4zm-6 0a2 2 0 110-4 2 2 0 010 4zm-6 0a2 2 0 110-4 2 2 0 010 4zm-6 0a2 2 0 110-4 2 2 0 010 4zm-6 0a2 2 0 110-4 2 2 0 010 4zm-6 0a2 2 0 110-4 2 2 0 010 4zm-6 0a2 2 0 110-4 2 2 0 010 4zm-6 0a2 2 0 110-4 2 2 0 010 4zm42 6a2 2 0 110-4 2 2 0 010 4zm-6 0a2 2 0 110-4 2 2 0 010 4zm-6 0a2 2 0 110-4 2 2 0 010 4zm-6 0a2 2 0 110-4 2 2 0 010 4zm-6 0a2 2 0 110-4 2 2 0 010 4zm-6 0a2 2 0 110-4 2 2 0 010 4zm-6 0a2 2 0 110-4 2 2 0 010 4zm-6 0a2 2 0 110-4 2 2 0 010 4zm42 6a2 2 0 110-4 2 2 0 010 4zm-6 0a2 2 0 110-4 2 2 0 010 4zm-6 0a2 2 0 110-4 2 2 0 010 4zm-6 0a2 2 0 110-4 2 2 0 010 4zm-6 0a2 2 0 110-4 2 2 0 010 4zm-6 0a2 2 0 110-4 2 2 0 010 4zm-6 0a2 2 0 110-4 2 2 0 010 4zm-6 0a2 2 0 110-4 2 2 0 010 4zm42 6a2 2 0 110-4 2 2 0 010 4zm-6 0a2 2 0 110-4 2 2 0 010 4zm-6 0a2 2 0 110-4 2 2 0 010 4zm-6 0a2 2 0 110-4 2 2 0 010 4zm-6 0a2 2 0 110-4 2 2 0 010 4zm-6 0a2 2 0 110-4 2 2 0 010 4zm-6 0a2 2 0 110-4 2 2 0 010 4zm-6 0a2 2 0 110-4 2 2 0 010 4zm42 6a2 2 0 110-4 2 2 0 010 4zm-6 0a2 2 0 110-4 2 2 0 010 4zm-6 0a2 2 0 110-4 2 2 0 010 4zm-6 0a2 2 0 110-4 2 2 0 010 4zm-6 0a2 2 0 110-4 2 2 0 010 4zm-6 0a2 2 0 110-4 2 2 0 010 4zm-6 0a2 2 0 110-4 2 2 0 010 4zm-6 0a2 2 0 110-4 2 2 0 010 4zm42 6a2 2 0 110-4 2 2 0 010 4zm-6 0a2 2 0 110-4 2 2 0 010 4zm-6 0a2 2 0 110-4 2 2 0 010 4zm-6 0a2 2 0 110-4 2 2 0 010 4zm-6 0a2 2 0 110-4 2 2 0 010 4zm-6 0a2 2 0 110-4 2 2 0 010 4zm-6 0a2 2 0 110-4 2 2 0 010 4zm-6 0a2 2 0 110-4 2 2 0 010 4zm42 6a2 2 0 110-4 2 2 0 010 4zm-6 0a2 2 0 110-4 2 2 0 010 4zm-6 0a2 2 0 110-4 2 2 0 010 4zm-6 0a2 2 0 110-4 2 2 0 010 4zm-6 0a2 2 0 110-4 2 2 0 010 4zm-6 0a2 2 0 110-4 2 2 0 010 4zm-6 0a2 2 0 110-4 2 2 0 010 4zm-6 0a2 2 0 110-4 2 2 0 010 4zm42 6a2 2 0 110-4 2 2 0 010 4zm-6 0a2 2 0 110-4 2 2 0 010 4zm-6 0a2 2 0 110-4 2 2 0 010 4zm-6 0a2 2 0 110-4 2 2 0 010 4zm-6 0a2 2 0 110-4 2 2 0 010 4zm-6 0a2 2 0 110-4 2 2 0 010 4zm-6 0a2 2 0 110-4 2 2 0 010 4zm-6 0a2 2 0 110-4 2 2 0 010 4zm42 6a2 2 0 110-4 2 2 0 010 4zm-6 0a2 2 0 110-4 2 2 0 010 4zm-6 0a2 2 0 110-4 2 2 0 010 4zm-6 0a2 2 0 110-4 2 2 0 010 4zm-6 0a2 2 0 110-4 2 2 0 010 4zm-6 0a2 2 0 110-4 2 2 0 010 4zm-6 0a2 2 0 110-4 2 2 0 010 4zm-6 0a2 2 0 110-4 2 2 0 010 4zm42 6a2 2 0 110-4 2 2 0 010 4zm-6 0a2 2 0 110-4 2 2 0 010 4zm-6 0a2 2 0 110-4 2 2 0 010 4zm-6 0a2 2 0 110-4 2 2 0 010 4zm-6 0a2 2 0 110-4 2 2 0 010 4zm-6 0a2 2 0 110-4 2 2 0 010 4zm-6 0a2 2 0 110-4 2 2 0 010 4zm-6 0a2 2 0 110-4 2 2 0 010 4zm42 6a2 2 0 110-4 2 2 0 010 4zm-6 0a2 2 0 110-4 2 2 0 010 4zm-6 0a2 2 0 110-4 2 2 0 010 4zm-6 0a2 2 0 110-4 2 2 0 010 4zm-6 0a2 2 0 110-4 2 2 0 010 4zm-6 0a2 2 0 110-4 2 2 0 010 4zm-6 0a2 2 0 110-4 2 2 0 010 4zm-6 0a2 2 0 110-4 2 2 0 010 4zm42 6a2 2 0 110-4 2 2 0 010 4zm-6 0a2 2 0 110-4 2 2 0 010 4zm-6 0a2 2 0 110-4 2 2 0 010 4zm-6 0a2 2 0 110-4 2 2 0 010 4zm-6 0a2 2 0 110-4 2 2 0 010 4zm-6 0a2 2 0 110-4 2 2 0 010 4zm-6 0a2 2 0 110-4 2 2 0 010 4zm-6 0a2 2 0 110-4 2 2 0 010 4zm42 6a2 2 0 110-4 2 2 0 010 4zm-6 0a2 2 0 110-4 2 2 0 010 4zm-6 0a2 2 0 110-4 2 2 0 010 4zm-6 0a2 2 0 110-4 2 2 0 010 4zm-6 0a2 2 0 110-4 2 2 0 010 4zm-6 0a2 2 0 110-4 2 2 0 010 4zm-6 0a2 2 0 110-4 2 2 0 010 4zm-6 0a2 2 0 110-4 2 2 0 010 4z" opacity=".721"/></svg>