<svg xmlns="http://www.w3.org/2000/svg" width="257" height="257" viewBox="0 0 257 257"><defs><filter id="red-blue-circle-c" width="193.8%" height="227.5%" x="-46.9%" y="-63.8%" filterUnits="objectBoundingBox"><feGaussianBlur in="SourceGraphic" stdDeviation="24"/></filter><filter id="red-blue-circle-e" width="121.8%" height="113.5%" x="-10.9%" y="-6.7%" filterUnits="objectBoundingBox"><feGaussianBlur in="SourceGraphic" stdDeviation="4"/></filter><linearGradient id="red-blue-circle-b" x1="50%" x2="50%" y1="0%" y2="100%"><stop offset="0%" stop-color="#66C"/><stop offset="100%" stop-color="#404080"/></linearGradient><path id="red-blue-circle-a" d="M95.984 255h124.032C201.644 265.195 180.5 271 158 271s-43.644-5.805-62.016-16zm-12.62-8a128.597 128.597 0 01-10.03-8h169.332a128.597 128.597 0 01-10.03 8H83.364zm-18.316-16a128.723 128.723 0 01-6.974-8h199.852a128.723 128.723 0 01-6.974 8H65.048zm-12.893-16c-1.772-2.6-3.45-5.268-5.03-8h221.75c-1.58 2.732-3.258 5.4-5.03 8H52.155zm-9.287-16a127.295 127.295 0 01-3.564-8h237.392a127.303 127.303 0 01-3.564 8H42.868zm-6.494-16a126.997 126.997 0 01-2.341-8h247.934a126.996 126.996 0 01-2.341 8H36.374zm-4.128-16c-.5-2.639-.92-5.306-1.256-8h254.02a127.726 127.726 0 01-1.256 8H32.246zm-2-16a129.965 129.965 0 01-.246-8h256c0 2.687-.083 5.354-.246 8H30.246zm0-16c.166-2.69.415-5.358.744-8h254.02c.33 2.642.578 5.31.744 8H30.246zm2-16a127.202 127.202 0 011.787-8h247.934a127.202 127.202 0 011.787 8H32.246zm4.128-16c.89-2.708 1.868-5.375 2.93-8h237.392a127.057 127.057 0 012.93 8H36.374zm6.494-16a127.662 127.662 0 014.256-8h221.752a127.66 127.66 0 014.256 8H42.868zm9.287-16a128.457 128.457 0 015.92-8h199.85a128.457 128.457 0 015.92 8H52.155zm12.893-16a128.793 128.793 0 018.286-8h169.332a128.794 128.794 0 018.286 8H65.048zm18.316-16a128.094 128.094 0 0112.62-8h124.032a128.094 128.094 0 0112.62 8H83.364zm29.994-16c13.9-5.173 28.94-8 44.642-8 15.701 0 30.742 2.827 44.642 8h-89.284z"/></defs><g fill="none" fill-rule="evenodd" transform="rotate(45 160.763 99.858)"><mask id="red-blue-circle-d" fill="#fff"><use href="#red-blue-circle-a"/></mask><use fill="url(#red-blue-circle-b)" fill-rule="nonzero" href="#red-blue-circle-a"/><path fill="#C33" fill-rule="nonzero" d="M126.717 112.957L11.28 37.281C63.371 7.874 101.85-3.914 126.717 1.918c28.462 6.675 56.142 61.059 22.818 98.957-15.212 9.862-22.818 13.89-22.818 12.082z" filter="url(#red-blue-circle-c)" mask="url(#red-blue-circle-d)"/><path fill="#C33" fill-rule="nonzero" filter="url(#red-blue-circle-e)" mask="url(#red-blue-circle-d)" d="M.828 185.328L11.281 37.281 92.238 7l18.508 107.094z"/></g></svg>