<svg xmlns="https://www.w3.org/2000/svg" xmlns:xlink="http://www.w3.org/1999/xlink" width="256" height="256" viewBox="0 0 256 256"><defs><filter id="red-blue-ring-c" width="119.7%" height="113.5%" x="-9.8%" y="-6.7%" filterUnits="objectBoundingBox"><feGaussianBlur in="SourceGraphic" stdDeviation="4"/></filter><filter id="red-blue-ring-e" width="193.8%" height="220.9%" x="-46.9%" y="-60.5%" filterUnits="objectBoundingBox"><feGaussianBlur in="SourceGraphic" stdDeviation="24"/></filter><linearGradient id="red-blue-ring-b" x1="50%" x2="50%" y1="0%" y2="100%"><stop offset="0%" stop-color="#66C"/><stop offset="100%" stop-color="#404080"/></linearGradient><path id="red-blue-ring-a" d="M128 256C57.308 256 0 198.692 0 128 0 57.308 57.308 0 128 0c70.692 0 128 57.308 128 128 0 70.692-57.308 128-128 128zm0-52c41.974 0 76-34.026 76-76s-34.026-76-76-76-76 34.026-76 76 34.026 76 76 76z"/></defs><g fill="none" fill-rule="evenodd"><mask id="red-blue-ring-d" fill="#fff"><use xlink:href="#red-blue-ring-a"/></mask><use fill="url(#red-blue-ring-b)" fill-rule="nonzero" xlink:href="#red-blue-ring-a"/><path fill="#C33" fill-rule="nonzero" filter="url(#red-blue-ring-c)" mask="url(#red-blue-ring-d)" d="M-29.172 170.328l10.453-148.047L62.238-8 92.952 94.211z"/><path fill="#C33" fill-rule="nonzero" d="M84.666 104.547L-18.719 22.28C33.371-7.126 71.85-18.914 96.717-13.082c28.462 6.675 56.142 61.059 22.818 98.957-15.212 9.862-26.835 16.086-34.869 18.672z" filter="url(#red-blue-ring-e)" mask="url(#red-blue-ring-d)"/></g></svg>