<svg xmlns="https://www.w3.org/2000/svg" xmlns:xlink="http://www.w3.org/1999/xlink" width="444" height="384" viewBox="0 0 444 384"><defs><rect id="b" width="199" height="199" rx="12"/><rect id="d" width="128" height="128" rx="12"/><rect id="a" width="86" height="50" x="21" y="22" rx="2"/><rect id="f" width="128" height="128" rx="12"/><mask id="e" width="86" height="50" x="0" y="0" fill="#fff"><use xlink:href="#a"/></mask></defs><g fill="none" fill-rule="evenodd"><g transform="translate(0 25)"><circle cx="167.465" cy="167.465" r="167.465" fill="#FFF" fill-opacity=".7"/><text fill="#000" font-family="HelveticaNeue, Helvetica Neue" font-size="12"><tspan x="42.254" y="125">Инновационная система</tspan> <tspan x="46.634" y="141">управления реестрами</tspan></text><text fill="#000" font-family="HelveticaNeue, Helvetica Neue" font-size="12" opacity=".9"><tspan x="26.468" y="197">Совместима с отечественным</tspan> <tspan x="70.076" y="213">ПО и техникой</tspan></text><text fill="#000" font-family="HelveticaNeue-Medium, Helvetica Neue" font-size="16" font-weight="400"><tspan x="82.764" y="162">АИС ГУ</tspan> <tspan x="57.716" y="182">Минпромторг</tspan></text></g><g transform="translate(109 4)"><rect width="128" height="128" fill="#EFC2C2" rx="12"/><rect width="120" height="120" x="4" y="4" fill="#C33" rx="10"/><text fill="#FFF" font-family="HelveticaNeue, Helvetica Neue" font-size="10"><tspan x="40.21" y="26">Открытые</tspan> <tspan x="46.545" y="42">данные</tspan> <tspan x="43.885" y="58">Реестры</tspan></text><path fill="#FFF" fill-opacity=".7" d="M18 9h92a3 3 0 013 3v61a3 3 0 01-3 3H18a3 3 0 01-3-3V12a3 3 0 013-3zm4 6a1 1 0 00-1 1v48a1 1 0 001 1h84a1 1 0 001-1V16a1 1 0 00-1-1H22zm34.235 61h15.53L74 86H54l2.235-10zM49 86h30v3H49v-3z"/><text fill="#FFF" font-family="HelveticaNeue, Helvetica Neue" font-size="12"><tspan x="47.956" y="106">САЙТ</tspan></text></g><g transform="translate(213 93)"><mask id="c" fill="#fff"><use xlink:href="#b"/></mask><use fill="#C33" xlink:href="#b"/><rect width="203" height="203" x="-2" y="-2" stroke="#EFC2C2" stroke-width="4" rx="12"/><g mask="url(#c)"><path stroke="#FFF" stroke-linecap="square" stroke-opacity=".7" d="M-4.5 21.5l213 73m-4-81l-138 185m147-83l-196 63m176 14l-197-125m156 119l-34-188"/><text font-family="HelveticaNeue, Helvetica Neue" font-size="20" transform="translate(-21 -2)"><tspan x="90.5" y="112" fill="#FFF">СМЭВ</tspan></text><path stroke="#FFF" stroke-linecap="square" stroke-opacity=".7" d="M87.5-1.5l-73 205m197-195l-232 103"/></g><path fill="#EFC2C2" d="M110 143a4 4 0 110-8 4 4 0 010 8zm49-62a4 4 0 110-8 4 4 0 010 8zm-57-20a4 4 0 110-8 4 4 0 010 8zm-47 59h16a3 3 0 013 3v28a3 3 0 01-3 3H55a3 3 0 01-3-3v-28a3 3 0 013-3zm0 3v16h16v-16H55zm13.5 22a2.5 2.5 0 100-5 2.5 2.5 0 000 5zM56 124h14v4H56v-4zm0 5h14v4H56v-4zm0 5h14v4H56v-4zm12.5 10a1.5 1.5 0 110-3 1.5 1.5 0 010 3zM58 150a.5.5 0 000 1h1a.5.5 0 000-1h-1zm3 0a.5.5 0 000 1h1a.5.5 0 000-1h-1zm3 0a.5.5 0 000 1h1a.5.5 0 000-1h-1zm3 0a.5.5 0 000 1h1a.5.5 0 000-1h-1zm1.5-2a.5.5 0 000 1h1a.5.5 0 000-1h-1zm-3 0a.5.5 0 000 1h1a.5.5 0 000-1h-1zm-3 0a.5.5 0 000 1h1a.5.5 0 000-1h-1zm-3 0a.5.5 0 000 1h1a.5.5 0 000-1h-1zm-3 0a.5.5 0 000 1h1a.5.5 0 000-1h-1zm1.5-2a.5.5 0 000 1h1a.5.5 0 000-1h-1zm3 0a.5.5 0 000 1h1a.5.5 0 000-1h-1zm3 0a.5.5 0 000 1h1a.5.5 0 000-1h-1zm3 0a.5.5 0 000 1h1a.5.5 0 000-1h-1zM24 41h16a3 3 0 013 3v28a3 3 0 01-3 3H24a3 3 0 01-3-3V44a3 3 0 013-3zm0 3v16h16V44H24zm13.5 22a2.5 2.5 0 100-5 2.5 2.5 0 000 5zM25 45h14v4H25v-4zm0 5h14v4H25v-4zm0 5h14v4H25v-4zm12.5 10a1.5 1.5 0 110-3 1.5 1.5 0 010 3zM27 71a.5.5 0 100 1h1a.5.5 0 100-1h-1zm3 0a.5.5 0 100 1h1a.5.5 0 100-1h-1zm3 0a.5.5 0 100 1h1a.5.5 0 100-1h-1zm3 0a.5.5 0 100 1h1a.5.5 0 100-1h-1zm1.5-2a.5.5 0 100 1h1a.5.5 0 100-1h-1zm-3 0a.5.5 0 100 1h1a.5.5 0 100-1h-1zm-3 0a.5.5 0 100 1h1a.5.5 0 100-1h-1zm-3 0a.5.5 0 100 1h1a.5.5 0 100-1h-1zm-3 0a.5.5 0 100 1h1a.5.5 0 100-1h-1zm1.5-2a.5.5 0 100 1h1a.5.5 0 100-1h-1zm3 0a.5.5 0 100 1h1a.5.5 0 100-1h-1zm3 0a.5.5 0 100 1h1a.5.5 0 100-1h-1zm3 0a.5.5 0 100 1h1a.5.5 0 100-1h-1zm129 21h16a3 3 0 013 3v28a3 3 0 01-3 3h-16a3 3 0 01-3-3V91a3 3 0 013-3zm0 3v16h16V91h-16zm13.5 22a2.5 2.5 0 100-5 2.5 2.5 0 000 5zM166 92h14v4h-14v-4zm0 5h14v4h-14v-4zm0 5h14v4h-14v-4zm12.5 10a1.5 1.5 0 110-3 1.5 1.5 0 010 3zm-10.5 6a.5.5 0 000 1h1a.5.5 0 000-1h-1zm3 0a.5.5 0 000 1h1a.5.5 0 000-1h-1zm3 0a.5.5 0 000 1h1a.5.5 0 000-1h-1zm3 0a.5.5 0 000 1h1a.5.5 0 000-1h-1zm1.5-2a.5.5 0 000 1h1a.5.5 0 000-1h-1zm-3 0a.5.5 0 000 1h1a.5.5 0 000-1h-1zm-3 0a.5.5 0 000 1h1a.5.5 0 000-1h-1zm-3 0a.5.5 0 000 1h1a.5.5 0 000-1h-1zm-3 0a.5.5 0 000 1h1a.5.5 0 000-1h-1zm1.5-2a.5.5 0 000 1h1a.5.5 0 000-1h-1zm3 0a.5.5 0 000 1h1a.5.5 0 000-1h-1zm3 0a.5.5 0 000 1h1a.5.5 0 000-1h-1zm3 0a.5.5 0 000 1h1a.5.5 0 000-1h-1z" mask="url(#c)"/></g><g transform="translate(316)"><use fill="#C33" xlink:href="#d"/><rect width="124" height="124" x="2" y="2" stroke="#FFF" stroke-opacity=".7" stroke-width="4" rx="12"/><use stroke="#FFF" stroke-dasharray="4 2" stroke-opacity=".7" stroke-width="4" mask="url(#e)" xlink:href="#a"/><text fill="#FFF" font-family="HelveticaNeue, Helvetica Neue" font-size="12"><tspan x="49.096" y="110">ЕПГУ</tspan></text><text fill="#FFF" font-family="HelveticaNeue, Helvetica Neue" font-size="12"><tspan x="51.734" y="62">ЕСИА</tspan></text><path fill="#FFF" fill-opacity=".7" d="M62 35h28l3 5-4.5 4-2-2h-2l-2 2-2-2h-2l-2 2-2-2h-2l-2 2-2-2h-2l-2 2H62v1h-3.272A12.5 12.5 0 0147.5 52C40.596 52 35 46.404 35 39.5S40.596 27 47.5 27c4.523 0 8.485 2.402 10.68 6H62v2zm-20.5 8a3.5 3.5 0 100-7 3.5 3.5 0 000 7z" opacity=".9"/></g><g transform="translate(109 256)"><rect width="128" height="128" fill="#EFC2C2" rx="12"/><rect width="120" height="120" x="4" y="4" fill="#C33" rx="10"/><path fill="#FFF" fill-opacity=".7" d="M107 76a2 2 0 01-2 2H23a2 2 0 01-2-2V33.248L62.83 60h2.34L107 33.248V76zm-.782-48l.782.5L64 56 21 28.5l.782-.5h84.436z"/><text fill="#FFF" font-family="HelveticaNeue, Helvetica Neue" font-size="12"><tspan x="46.926" y="110">СЭДО</tspan></text></g><g transform="translate(316 256)"><use fill="#C33" xlink:href="#f"/><rect width="124" height="124" x="2" y="2" stroke="#FFF" stroke-opacity=".7" stroke-width="4" rx="12"/><text fill="#FFF" font-family="HelveticaNeue, Helvetica Neue" font-size="12"><tspan x="45.784" y="110">ФОИВ</tspan></text><path fill="#FFF" fill-opacity=".7" d="M47 72h6v-4h1V43l-1-2v-3h-6v3l-1 2v25h1v4zm-8 0v-4h1V43l-1-2v-3h-2v-4h54v4h-2v3l-1 2v25h1v4h2v4H37v-4h2zm22 0h6v-4h1V43l-1-2v-3h-6v3l-1 2v25h1v4zm14 0h6v-4h1V43l-1-2v-3h-6v3l-1 2v25h1v4zM29 84h70v4H29v-4zm4-6h62v4H33v-4zm31-60l32 12v2H32v-2l32-12z"/></g></g></svg>